<?xml version='1.0' encoding='utf-8'?>
<svg xmlns="http://www.w3.org/2000/svg" viewBox="0 0 1600 1579">
<path d="M 1085.0,1500.5 L 1044.0,1500.5 L 1043.0,1499.5 L 1042.0,1499.5 L 1041.0,1498.5 L 1040.0,1498.5 L 1039.0,1497.5 L 1038.0,1497.5 L 1037.0,1496.5 L 1036.0,1496.5 L 1035.0,1495.5 L 1034.0,1495.5 L 1033.0,1494.5 L 1032.0,1494.5 L 1031.0,1493.5 L 1030.0,1493.5 L 1029.0,1492.5 L 1028.0,1492.5 L 1027.0,1491.5 L 1026.0,1491.5 L 1025.0,1490.5 L 1024.0,1490.5 L 1009.5,1476.0 L 1009.5,1475.0 L 1008.5,1474.0 L 1008.5,1473.0 L 1007.5,1472.0 L 1007.5,1471.0 L 1006.5,1470.0 L 1006.5,1469.0 L 1005.5,1468.0 L 1005.5,1467.0 L 1004.5,1466.0 L 1004.5,1465.0 L 1003.5,1464.0 L 1003.5,1463.0 L 1002.5,1462.0 L 1002.5,1461.0 L 1001.5,1460.0 L 1001.5,1459.0 L 1000.5,1458.0 L 1000.5,1457.0 L 999.5,1456.0 L 999.5,1455.0 L 998.5,1454.0 L 998.5,1453.0 L 997.5,1452.0 L 997.5,1451.0 L 996.5,1450.0 L 996.5,1449.0 L 995.5,1448.0 L 995.5,1412.0 L 996.5,1411.0 L 996.5,1410.0 L 997.5,1409.0 L 997.5,1407.0 L 998.5,1406.0 L 998.5,1405.0 L 999.5,1404.0 L 999.5,1403.0 L 1000.5,1402.0 L 1000.5,1400.0 L 1001.5,1399.0 L 1001.5,1398.0 L 1002.5,1397.0 L 1002.5,1396.0 L 1003.5,1395.0 L 1003.5,1393.0 L 1004.5,1392.0 L 1004.5,1391.0 L 1005.5,1390.0 L 1005.5,1389.0 L 1006.5,1388.0 L 1006.5,1387.0 L 1027.0,1366.5 L 1028.0,1366.5 L 1029.0,1365.5 L 1030.0,1365.5 L 1031.0,1364.5 L 1032.0,1364.5 L 1033.0,1363.5 L 1034.0,1363.5 L 1035.0,1362.5 L 1036.0,1362.5 L 1037.0,1361.5 L 1038.0,1361.5 L 1039.0,1360.5 L 1040.0,1360.5 L 1041.0,1359.5 L 1042.0,1359.5 L 1043.0,1358.5 L 1044.0,1358.5 L 1045.0,1357.5 L 1046.0,1357.5 L 1047.0,1356.5 L 1083.0,1356.5 L 1084.0,1355.5 L 1085.0,1355.5 L 1086.0,1354.5 L 1087.0,1354.5 L 1088.0,1353.5 L 1089.0,1353.5 L 1090.0,1352.5 L 1091.0,1352.5 L 1093.0,1350.5 L 1094.0,1350.5 L 1095.0,1349.5 L 1096.0,1349.5 L 1097.0,1348.5 L 1098.0,1348.5 L 1099.0,1347.5 L 1100.0,1347.5 L 1102.0,1345.5 L 1103.0,1345.5 L 1104.0,1344.5 L 1105.0,1344.5 L 1106.0,1343.5 L 1107.0,1343.5 L 1108.0,1342.5 L 1109.0,1342.5 L 1111.0,1340.5 L 1112.0,1340.5 L 1113.0,1339.5 L 1114.0,1339.5 L 1115.0,1338.5 L 1116.0,1338.5 L 1120.0,1334.5 L 1121.0,1334.5 L 1124.0,1331.5 L 1125.0,1331.5 L 1128.0,1328.5 L 1129.0,1328.5 L 1133.0,1324.5 L 1134.0,1324.5 L 1137.0,1321.5 L 1138.0,1321.5 L 1141.0,1318.5 L 1142.0,1318.5 L 1146.0,1314.5 L 1147.0,1314.5 L 1150.0,1311.5 L 1151.0,1311.5 L 1154.0,1308.5 L 1155.0,1308.5 L 1159.0,1304.5 L 1160.0,1304.5 L 1170.5,1294.0 L 1170.5,1293.0 L 1188.5,1275.0 L 1188.5,1274.0 L 1206.5,1256.0 L 1206.5,1255.0 L 1224.5,1237.0 L 1224.5,1236.0 L 1227.5,1233.0 L 1227.5,1232.0 L 1229.5,1230.0 L 1229.5,1229.0 L 1232.5,1226.0 L 1232.5,1225.0 L 1234.5,1223.0 L 1234.5,1222.0 L 1236.5,1220.0 L 1236.5,1219.0 L 1239.5,1216.0 L 1239.5,1215.0 L 1241.5,1213.0 L 1241.5,1212.0 L 1243.5,1210.0 L 1243.5,1209.0 L 1246.5,1206.0 L 1246.5,1205.0 L 1248.5,1203.0 L 1248.5,1202.0 L 1250.5,1200.0 L 1250.5,1198.0 L 1251.5,1197.0 L 1251.5,1195.0 L 1252.5,1194.0 L 1252.5,1192.0 L 1253.5,1191.0 L 1253.5,1190.0 L 1260.5,1183.0 L 1260.5,1182.0 L 1261.5,1181.0 L 1261.5,1180.0 L 1262.5,1179.0 L 1262.5,1178.0 L 1263.5,1177.0 L 1263.5,1176.0 L 1264.5,1175.0 L 1264.5,1174.0 L 1265.5,1173.0 L 1265.5,1172.0 L 1266.5,1171.0 L 1266.5,1170.0 L 1267.5,1169.0 L 1267.5,1168.0 L 1268.5,1167.0 L 1268.5,1166.0 L 1269.5,1165.0 L 1269.5,1164.0 L 1270.5,1163.0 L 1270.5,1162.0 L 1271.5,1161.0 L 1271.5,1160.0 L 1272.5,1159.0 L 1272.5,1158.0 L 1273.5,1157.0 L 1273.5,1156.0 L 1274.5,1155.0 L 1274.5,1154.0 L 1275.5,1153.0 L 1275.5,1152.0 L 1276.5,1151.0 L 1276.5,1150.0 L 1277.5,1149.0 L 1277.5,1148.0 L 1278.5,1147.0 L 1278.5,1146.0 L 1279.5,1145.0 L 1279.5,1144.0 L 1280.5,1143.0 L 1280.5,1142.0 L 1281.5,1141.0 L 1281.5,1140.0 L 1282.5,1139.0 L 1282.5,1138.0 L 1283.5,1137.0 L 1283.5,1136.0 L 1284.5,1135.0 L 1284.5,1134.0 L 1285.5,1133.0 L 1285.5,1132.0 L 1286.5,1131.0 L 1286.5,1130.0 L 1287.5,1129.0 L 1287.5,1128.0 L 1288.5,1127.0 L 1288.5,1119.0 L 1290.5,1117.0 L 1290.5,1116.0 L 1292.5,1114.0 L 1292.5,1113.0 L 1294.5,1111.0 L 1294.5,1110.0 L 1295.5,1109.0 L 1295.5,1102.0 L 1296.5,1101.0 L 1296.5,1100.0 L 1298.5,1098.0 L 1298.5,1097.0 L 1300.5,1095.0 L 1300.5,1094.0 L 1302.5,1092.0 L 1302.5,1091.0 L 1303.5,1090.0 L 1303.5,1086.0 L 1304.5,1085.0 L 1304.5,1081.0 L 1305.5,1080.0 L 1305.5,1076.0 L 1306.5,1075.0 L 1306.5,1073.0 L 1307.5,1072.0 L 1307.5,1071.0 L 1309.5,1069.0 L 1309.5,1068.0 L 1311.5,1066.0 L 1311.5,1065.0 L 1313.5,1063.0 L 1313.5,1061.0 L 1314.5,1060.0 L 1314.5,1058.0 L 1315.5,1057.0 L 1315.5,1055.0 L 1316.5,1054.0 L 1316.5,1052.0 L 1317.5,1051.0 L 1317.5,1049.0 L 1318.5,1048.0 L 1318.5,1046.0 L 1319.5,1045.0 L 1319.5,1043.0 L 1320.5,1042.0 L 1320.5,1040.0 L 1321.5,1039.0 L 1321.5,1037.0 L 1322.5,1036.0 L 1322.5,1034.0 L 1323.5,1033.0 L 1323.5,1031.0 L 1324.5,1030.0 L 1324.5,1028.0 L 1325.5,1027.0 L 1325.5,1025.0 L 1326.5,1024.0 L 1326.5,1022.0 L 1327.5,1021.0 L 1327.5,1019.0 L 1328.5,1018.0 L 1328.5,1014.0 L 1329.5,1013.0 L 1329.5,1009.0 L 1330.5,1008.0 L 1330.5,1004.0 L 1331.5,1003.0 L 1331.5,995.0 L 1332.5,994.0 L 1332.5,985.0 L 1333.5,984.0 L 1333.5,975.0 L 1334.5,974.0 L 1334.5,965.0 L 1335.5,964.0 L 1335.5,955.0 L 1336.5,954.0 L 1336.5,945.0 L 1337.5,944.0 L 1337.5,935.0 L 1338.5,934.0 L 1338.5,925.0 L 1339.5,924.0 L 1339.5,915.0 L 1340.5,914.0 L 1340.5,905.0 L 1341.5,904.0 L 1341.5,768.0 L 1340.5,767.0 L 1340.5,757.0 L 1339.5,756.0 L 1339.5,745.0 L 1338.5,744.0 L 1338.5,734.0 L 1337.5,733.0 L 1337.5,722.0 L 1336.5,721.0 L 1336.5,711.0 L 1335.5,710.0 L 1335.5,699.0 L 1334.5,698.0 L 1334.5,692.0 L 1333.5,691.0 L 1333.5,687.0 L 1332.5,686.0 L 1332.5,682.0 L 1331.5,681.0 L 1331.5,677.0 L 1330.5,676.0 L 1330.5,671.0 L 1329.5,670.0 L 1329.5,666.0 L 1328.5,665.0 L 1328.5,661.0 L 1327.5,660.0 L 1327.5,656.0 L 1326.5,655.0 L 1326.5,650.0 L 1325.5,649.0 L 1325.5,645.0 L 1324.5,644.0 L 1324.5,640.0 L 1323.5,639.0 L 1323.5,635.0 L 1322.5,634.0 L 1322.5,629.0 L 1321.5,628.0 L 1321.5,624.0 L 1320.5,623.0 L 1320.5,620.0 L 1319.5,619.0 L 1319.5,617.0 L 1318.5,616.0 L 1318.5,614.0 L 1317.5,613.0 L 1317.5,611.0 L 1316.5,610.0 L 1316.5,608.0 L 1315.5,607.0 L 1315.5,605.0 L 1314.5,604.0 L 1314.5,601.0 L 1313.5,600.0 L 1313.5,598.0 L 1312.5,597.0 L 1312.5,595.0 L 1311.5,594.0 L 1311.5,592.0 L 1310.5,591.0 L 1310.5,589.0 L 1309.5,588.0 L 1309.5,586.0 L 1308.5,585.0 L 1308.5,583.0 L 1307.5,582.0 L 1307.5,580.0 L 1306.5,579.0 L 1306.5,576.0 L 1305.5,575.0 L 1305.5,573.0 L 1304.5,572.0 L 1304.5,570.0 L 1303.5,569.0 L 1303.5,567.0 L 1302.5,566.0 L 1302.5,564.0 L 1301.5,563.0 L 1301.5,561.0 L 1300.5,560.0 L 1300.5,558.0 L 1299.5,557.0 L 1299.5,555.0 L 1298.5,554.0 L 1298.5,551.0 L 1297.5,550.0 L 1297.5,548.0 L 1296.5,547.0 L 1296.5,545.0 L 1295.5,544.0 L 1295.5,542.0 L 1294.5,541.0 L 1294.5,539.0 L 1293.5,538.0 L 1293.5,536.0 L 1292.5,535.0 L 1292.5,533.0 L 1291.5,532.0 L 1291.5,531.0 L 1290.5,530.0 L 1290.5,529.0 L 1288.5,527.0 L 1288.5,526.0 L 1287.5,525.0 L 1287.5,524.0 L 1286.5,523.0 L 1286.5,522.0 L 1284.5,520.0 L 1284.5,519.0 L 1283.5,518.0 L 1283.5,517.0 L 1282.5,516.0 L 1282.5,515.0 L 1280.5,513.0 L 1280.5,512.0 L 1279.5,511.0 L 1279.5,510.0 L 1278.5,509.0 L 1278.5,502.0 L 1277.5,501.0 L 1277.5,499.0 L 1276.5,498.0 L 1276.5,497.0 L 1275.5,496.0 L 1275.5,495.0 L 1274.5,494.0 L 1274.5,493.0 L 1273.5,492.0 L 1273.5,491.0 L 1272.5,490.0 L 1272.5,489.0 L 1271.5,488.0 L 1271.5,487.0 L 1270.5,486.0 L 1270.5,485.0 L 1269.5,484.0 L 1269.5,483.0 L 1268.5,482.0 L 1268.5,481.0 L 1267.5,480.0 L 1267.5,479.0 L 1266.5,478.0 L 1266.5,477.0 L 1265.5,476.0 L 1265.5,475.0 L 1264.5,474.0 L 1264.5,473.0 L 1263.5,472.0 L 1263.5,471.0 L 1262.5,470.0 L 1262.5,469.0 L 1261.5,468.0 L 1261.5,467.0 L 1260.5,466.0 L 1260.5,465.0 L 1259.5,464.0 L 1259.5,463.0 L 1258.5,462.0 L 1258.5,461.0 L 1257.5,460.0 L 1257.5,459.0 L 1256.5,458.0 L 1256.5,457.0 L 1255.5,456.0 L 1255.5,455.0 L 1254.5,454.0 L 1254.5,453.0 L 1252.5,451.0 L 1252.5,450.0 L 1250.5,448.0 L 1250.5,447.0 L 1248.5,445.0 L 1248.5,444.0 L 1245.5,441.0 L 1245.5,440.0 L 1243.5,438.0 L 1243.5,437.0 L 1241.5,435.0 L 1241.5,434.0 L 1238.5,431.0 L 1238.5,430.0 L 1236.5,428.0 L 1236.5,427.0 L 1234.5,425.0 L 1234.5,424.0 L 1231.5,421.0 L 1231.5,420.0 L 1229.5,418.0 L 1229.5,417.0 L 1228.5,416.0 L 1228.5,415.0 L 1227.5,414.0 L 1227.5,413.0 L 1226.5,412.0 L 1226.5,411.0 L 1225.5,410.0 L 1225.5,409.0 L 1224.5,408.0 L 1224.5,407.0 L 1223.5,406.0 L 1223.5,405.0 L 1222.5,404.0 L 1222.5,403.0 L 1221.5,402.0 L 1221.5,401.0 L 1220.5,400.0 L 1220.5,399.0 L 1219.5,398.0 L 1219.5,397.0 L 1217.5,395.0 L 1217.5,394.0 L 1214.5,391.0 L 1214.5,390.0 L 1210.5,386.0 L 1210.5,385.0 L 1207.5,382.0 L 1207.5,381.0 L 1203.5,377.0 L 1203.5,376.0 L 1200.5,373.0 L 1200.5,372.0 L 1196.5,368.0 L 1196.5,367.0 L 1192.5,363.0 L 1192.5,362.0 L 1173.5,343.0 L 1173.5,342.0 L 1155.5,324.0 L 1155.5,323.0 L 1136.5,304.0 L 1136.5,303.0 L 1124.0,290.5 L 1123.0,290.5 L 1119.0,286.5 L 1118.0,286.5 L 1114.0,282.5 L 1113.0,282.5 L 1109.0,278.5 L 1108.0,278.5 L 1104.0,274.5 L 1103.0,274.5 L 1099.0,270.5 L 1098.0,270.5 L 1094.0,266.5 L 1093.0,266.5 L 1089.0,262.5 L 1088.0,262.5 L 1084.0,258.5 L 1083.0,258.5 L 1079.0,254.5 L 1078.0,254.5 L 1074.0,250.5 L 1073.0,250.5 L 1072.0,249.5 L 1070.0,249.5 L 1069.0,248.5 L 1067.0,248.5 L 1066.0,247.5 L 1064.0,247.5 L 1063.0,246.5 L 1062.0,246.5 L 1059.0,243.5 L 1058.0,243.5 L 1054.0,239.5 L 1053.0,239.5 L 1049.0,235.5 L 1048.0,235.5 L 1045.0,232.5 L 1044.0,232.5 L 1043.0,231.5 L 1041.0,231.5 L 1040.0,230.5 L 1039.0,230.5 L 1038.0,229.5 L 1036.0,229.5 L 1035.0,228.5 L 1034.0,228.5 L 1033.0,227.5 L 1031.0,227.5 L 1030.0,226.5 L 1029.0,226.5 L 1028.0,225.5 L 1027.0,225.5 L 1019.0,217.5 L 1018.0,217.5 L 1017.0,216.5 L 1016.0,216.5 L 1015.0,215.5 L 1014.0,215.5 L 1013.0,214.5 L 1012.0,214.5 L 1011.0,213.5 L 1010.0,213.5 L 1009.0,212.5 L 1008.0,212.5 L 1007.0,211.5 L 1006.0,211.5 L 1005.0,210.5 L 1004.0,210.5 L 1003.0,209.5 L 1002.0,209.5 L 1001.0,208.5 L 1000.0,208.5 L 999.0,207.5 L 991.0,207.5 L 990.0,206.5 L 989.0,206.5 L 987.0,204.5 L 986.0,204.5 L 985.0,203.5 L 984.0,203.5 L 982.0,201.5 L 981.0,201.5 L 980.0,200.5 L 979.0,200.5 L 977.0,198.5 L 976.0,198.5 L 975.0,197.5 L 973.0,197.5 L 972.0,196.5 L 969.0,196.5 L 968.0,195.5 L 964.0,195.5 L 963.0,194.5 L 959.0,194.5 L 958.0,193.5 L 956.0,193.5 L 954.0,191.5 L 953.0,191.5 L 951.0,189.5 L 950.0,189.5 L 948.0,187.5 L 947.0,187.5 L 946.0,186.5 L 944.0,186.5 L 943.0,185.5 L 940.0,185.5 L 939.0,184.5 L 936.0,184.5 L 935.0,183.5 L 933.0,183.5 L 932.0,182.5 L 929.0,182.5 L 928.0,181.5 L 925.0,181.5 L 924.0,180.5 L 921.0,180.5 L 920.0,179.5 L 918.0,179.5 L 917.0,178.5 L 914.0,178.5 L 913.0,177.5 L 910.0,177.5 L 909.0,176.5 L 906.0,176.5 L 905.0,175.5 L 903.0,175.5 L 902.0,174.5 L 899.0,174.5 L 898.0,173.5 L 895.0,173.5 L 894.0,172.5 L 890.0,172.5 L 889.0,171.5 L 882.0,171.5 L 881.0,170.5 L 875.0,170.5 L 874.0,169.5 L 867.0,169.5 L 866.0,168.5 L 860.0,168.5 L 859.0,167.5 L 852.0,167.5 L 851.0,166.5 L 845.0,166.5 L 844.0,165.5 L 758.0,165.5 L 757.0,166.5 L 749.0,166.5 L 748.0,167.5 L 740.0,167.5 L 739.0,168.5 L 731.0,168.5 L 730.0,169.5 L 727.0,169.5 L 726.0,170.5 L 723.0,170.5 L 722.0,171.5 L 719.0,171.5 L 718.0,172.5 L 714.0,172.5 L 713.0,173.5 L 710.0,173.5 L 709.0,174.5 L 706.0,174.5 L 705.0,175.5 L 702.0,175.5 L 701.0,176.5 L 698.0,176.5 L 697.0,177.5 L 693.0,177.5 L 692.0,178.5 L 689.0,178.5 L 688.0,179.5 L 685.0,179.5 L 684.0,180.5 L 681.0,180.5 L 680.0,181.5 L 677.0,181.5 L 676.0,182.5 L 672.0,182.5 L 671.0,183.5 L 668.0,183.5 L 667.0,184.5 L 664.0,184.5 L 663.0,185.5 L 660.0,185.5 L 659.0,186.5 L 656.0,186.5 L 655.0,187.5 L 654.0,187.5 L 653.0,188.5 L 652.0,188.5 L 651.0,189.5 L 650.0,189.5 L 649.0,190.5 L 648.0,190.5 L 647.0,191.5 L 646.0,191.5 L 645.0,192.5 L 644.0,192.5 L 643.0,193.5 L 642.0,193.5 L 641.0,194.5 L 640.0,194.5 L 639.0,195.5 L 638.0,195.5 L 637.0,196.5 L 636.0,196.5 L 635.0,197.5 L 634.0,197.5 L 633.0,198.5 L 632.0,198.5 L 631.0,199.5 L 630.0,199.5 L 629.0,200.5 L 621.0,200.5 L 619.0,202.5 L 618.0,202.5 L 617.0,203.5 L 616.0,203.5 L 614.0,205.5 L 613.0,205.5 L 612.0,206.5 L 611.0,206.5 L 609.0,208.5 L 608.0,208.5 L 607.0,209.5 L 606.0,209.5 L 604.0,211.5 L 596.0,211.5 L 594.0,213.5 L 593.0,213.5 L 590.0,216.5 L 589.0,216.5 L 586.0,219.5 L 585.0,219.5 L 582.0,222.5 L 580.0,222.5 L 579.0,223.5 L 578.0,223.5 L 577.0,224.5 L 575.0,224.5 L 574.0,225.5 L 573.0,225.5 L 572.0,226.5 L 570.0,226.5 L 569.0,227.5 L 568.0,227.5 L 567.0,228.5 L 565.0,228.5 L 557.0,236.5 L 556.0,236.5 L 555.0,237.5 L 553.0,237.5 L 552.0,238.5 L 550.0,238.5 L 549.0,239.5 L 547.0,239.5 L 545.0,241.5 L 544.0,241.5 L 541.0,244.5 L 540.0,244.5 L 538.0,246.5 L 537.0,246.5 L 534.0,249.5 L 533.0,249.5 L 530.0,252.5 L 529.0,252.5 L 526.0,255.5 L 525.0,255.5 L 523.0,257.5 L 522.0,257.5 L 519.0,260.5 L 518.0,260.5 L 515.0,263.5 L 514.0,263.5 L 511.0,266.5 L 510.0,266.5 L 508.0,268.5 L 507.0,268.5 L 504.0,271.5 L 503.0,271.5 L 500.0,274.5 L 499.0,274.5 L 496.0,277.5 L 495.0,277.5 L 486.0,286.5 L 485.0,286.5 L 470.0,301.5 L 469.0,301.5 L 454.0,316.5 L 453.0,316.5 L 430.5,339.0 L 430.5,340.0 L 423.5,347.0 L 423.5,348.0 L 416.5,355.0 L 416.5,356.0 L 411.5,361.0 L 411.5,362.0 L 408.5,365.0 L 408.5,366.0 L 406.5,368.0 L 406.5,369.0 L 403.5,372.0 L 403.5,373.0 L 401.5,375.0 L 401.5,376.0 L 398.5,379.0 L 398.5,380.0 L 395.5,383.0 L 395.5,384.0 L 393.5,386.0 L 393.5,387.0 L 390.5,390.0 L 390.5,391.0 L 388.5,393.0 L 388.5,394.0 L 385.5,397.0 L 385.5,398.0 L 382.5,401.0 L 382.5,402.0 L 380.5,404.0 L 380.5,405.0 L 377.5,408.0 L 377.5,409.0 L 375.5,411.0 L 375.5,412.0 L 372.5,415.0 L 372.5,416.0 L 369.5,419.0 L 369.5,420.0 L 367.5,422.0 L 367.5,423.0 L 366.5,424.0 L 366.5,425.0 L 365.5,426.0 L 365.5,427.0 L 364.5,428.0 L 364.5,430.0 L 363.5,431.0 L 363.5,432.0 L 362.5,433.0 L 362.5,435.0 L 361.5,436.0 L 361.5,437.0 L 360.5,438.0 L 360.5,440.0 L 352.5,448.0 L 352.5,449.0 L 351.5,450.0 L 351.5,451.0 L 350.5,452.0 L 350.5,453.0 L 349.5,454.0 L 349.5,455.0 L 348.5,456.0 L 348.5,457.0 L 347.5,458.0 L 347.5,459.0 L 346.5,460.0 L 346.5,461.0 L 345.5,462.0 L 345.5,463.0 L 344.5,464.0 L 344.5,465.0 L 343.5,466.0 L 343.5,467.0 L 342.5,468.0 L 342.5,469.0 L 341.5,470.0 L 341.5,471.0 L 340.5,472.0 L 340.5,473.0 L 339.5,474.0 L 339.5,475.0 L 338.5,476.0 L 338.5,477.0 L 337.5,478.0 L 337.5,479.0 L 336.5,480.0 L 336.5,481.0 L 335.5,482.0 L 335.5,483.0 L 334.5,484.0 L 334.5,485.0 L 333.5,486.0 L 333.5,487.0 L 332.5,488.0 L 332.5,489.0 L 331.5,490.0 L 331.5,491.0 L 330.5,492.0 L 330.5,493.0 L 329.5,494.0 L 329.5,495.0 L 328.5,496.0 L 328.5,497.0 L 327.5,498.0 L 327.5,499.0 L 326.5,500.0 L 326.5,501.0 L 325.5,502.0 L 325.5,503.0 L 324.5,504.0 L 324.5,512.0 L 323.5,513.0 L 323.5,514.0 L 321.5,516.0 L 321.5,517.0 L 320.5,518.0 L 320.5,519.0 L 319.5,520.0 L 319.5,521.0 L 317.5,523.0 L 317.5,524.0 L 316.5,525.0 L 316.5,526.0 L 315.5,527.0 L 315.5,528.0 L 313.5,530.0 L 313.5,531.0 L 312.5,532.0 L 312.5,533.0 L 311.5,534.0 L 311.5,535.0 L 310.5,536.0 L 310.5,543.0 L 309.5,544.0 L 309.5,545.0 L 307.5,547.0 L 307.5,548.0 L 305.5,550.0 L 305.5,551.0 L 303.5,553.0 L 303.5,554.0 L 302.5,555.0 L 302.5,558.0 L 301.5,559.0 L 301.5,561.0 L 300.5,562.0 L 300.5,564.0 L 299.5,565.0 L 299.5,567.0 L 298.5,568.0 L 298.5,571.0 L 297.5,572.0 L 297.5,574.0 L 296.5,575.0 L 296.5,577.0 L 295.5,578.0 L 295.5,580.0 L 294.5,581.0 L 294.5,584.0 L 293.5,585.0 L 293.5,587.0 L 292.5,588.0 L 292.5,590.0 L 291.5,591.0 L 291.5,593.0 L 290.5,594.0 L 290.5,597.0 L 289.5,598.0 L 289.5,600.0 L 288.5,601.0 L 288.5,616.0 L 287.5,617.0 L 287.5,618.0 L 286.5,619.0 L 286.5,620.0 L 285.5,621.0 L 285.5,622.0 L 284.5,623.0 L 284.5,624.0 L 283.5,625.0 L 283.5,626.0 L 282.5,627.0 L 282.5,628.0 L 281.5,629.0 L 281.5,633.0 L 280.5,634.0 L 280.5,637.0 L 279.5,638.0 L 279.5,642.0 L 278.5,643.0 L 278.5,647.0 L 277.5,648.0 L 277.5,652.0 L 276.5,653.0 L 276.5,656.0 L 275.5,657.0 L 275.5,661.0 L 274.5,662.0 L 274.5,666.0 L 273.5,667.0 L 273.5,671.0 L 272.5,672.0 L 272.5,675.0 L 271.5,676.0 L 271.5,680.0 L 270.5,681.0 L 270.5,685.0 L 269.5,686.0 L 269.5,690.0 L 268.5,691.0 L 268.5,694.0 L 267.5,695.0 L 267.5,705.0 L 266.5,706.0 L 266.5,717.0 L 265.5,718.0 L 265.5,729.0 L 264.5,730.0 L 264.5,741.0 L 263.5,742.0 L 263.5,753.0 L 262.5,754.0 L 262.5,765.0 L 261.5,766.0 L 261.5,777.0 L 260.5,778.0 L 260.5,963.0 L 264.5,967.0 L 264.5,983.0 L 265.5,984.0 L 265.5,1005.0 L 266.5,1006.0 L 266.5,1027.0 L 267.5,1028.0 L 267.5,1044.0 L 267.0,1044.5 L 166.0,1044.5 L 165.0,1043.5 L 162.0,1043.5 L 161.0,1042.5 L 159.0,1042.5 L 158.0,1041.5 L 155.0,1041.5 L 154.0,1040.5 L 152.0,1040.5 L 151.0,1039.5 L 148.0,1039.5 L 147.0,1038.5 L 145.0,1038.5 L 144.0,1037.5 L 143.0,1037.5 L 142.0,1036.5 L 141.0,1036.5 L 139.0,1034.5 L 138.0,1034.5 L 137.0,1033.5 L 136.0,1033.5 L 135.0,1032.5 L 134.0,1032.5 L 132.0,1030.5 L 131.0,1030.5 L 130.0,1029.5 L 129.0,1029.5 L 128.0,1028.5 L 127.0,1028.5 L 125.0,1026.5 L 124.0,1026.5 L 123.0,1025.5 L 122.0,1025.5 L 121.0,1024.5 L 120.0,1024.5 L 97.5,1002.0 L 97.5,1001.0 L 94.5,998.0 L 94.5,997.0 L 91.5,994.0 L 91.5,993.0 L 88.5,990.0 L 88.5,989.0 L 87.5,988.0 L 87.5,987.0 L 86.5,986.0 L 86.5,985.0 L 85.5,984.0 L 85.5,983.0 L 84.5,982.0 L 84.5,981.0 L 83.5,980.0 L 83.5,979.0 L 82.5,978.0 L 82.5,977.0 L 81.5,976.0 L 81.5,975.0 L 80.5,974.0 L 80.5,973.0 L 79.5,972.0 L 79.5,971.0 L 78.5,970.0 L 78.5,969.0 L 77.5,968.0 L 77.5,967.0 L 76.5,966.0 L 76.5,963.0 L 75.5,962.0 L 75.5,959.0 L 74.5,958.0 L 74.5,955.0 L 73.5,954.0 L 73.5,951.0 L 72.5,950.0 L 72.5,947.0 L 71.5,946.0 L 71.5,943.0 L 70.5,942.0 L 70.5,647.0 L 71.5,646.0 L 71.5,644.0 L 72.5,643.0 L 72.5,641.0 L 73.5,640.0 L 73.5,638.0 L 74.5,637.0 L 74.5,635.0 L 75.5,634.0 L 75.5,632.0 L 76.5,631.0 L 76.5,629.0 L 77.5,628.0 L 77.5,626.0 L 78.5,625.0 L 78.5,623.0 L 79.5,622.0 L 79.5,620.0 L 80.5,619.0 L 80.5,617.0 L 81.5,616.0 L 81.5,614.0 L 82.5,613.0 L 82.5,611.0 L 83.5,610.0 L 83.5,608.0 L 85.5,606.0 L 85.5,605.0 L 88.5,602.0 L 88.5,601.0 L 91.5,598.0 L 91.5,597.0 L 94.5,594.0 L 94.5,593.0 L 97.5,590.0 L 97.5,589.0 L 100.5,586.0 L 100.5,585.0 L 103.5,582.0 L 103.5,581.0 L 109.0,575.5 L 110.0,575.5 L 115.0,570.5 L 116.0,570.5 L 121.0,565.5 L 122.0,565.5 L 126.0,561.5 L 127.0,561.5 L 128.0,560.5 L 129.0,560.5 L 130.0,559.5 L 131.0,559.5 L 132.0,558.5 L 133.0,558.5 L 134.0,557.5 L 136.0,557.5 L 137.0,556.5 L 138.0,556.5 L 139.0,555.5 L 140.0,555.5 L 141.0,554.5 L 142.0,554.5 L 143.0,553.5 L 145.0,553.5 L 146.0,552.5 L 147.0,552.5 L 148.0,551.5 L 149.0,551.5 L 150.0,550.5 L 151.0,550.5 L 152.0,549.5 L 154.0,549.5 L 155.0,548.5 L 156.0,548.5 L 157.0,547.5 L 193.0,547.5 L 194.5,546.0 L 194.5,545.0 L 195.5,544.0 L 195.5,543.0 L 196.5,542.0 L 196.5,541.0 L 197.5,540.0 L 197.5,539.0 L 198.5,538.0 L 198.5,537.0 L 199.5,536.0 L 199.5,535.0 L 200.5,534.0 L 200.5,533.0 L 201.5,532.0 L 201.5,531.0 L 202.5,530.0 L 202.5,529.0 L 203.5,528.0 L 203.5,527.0 L 204.5,526.0 L 204.5,524.0 L 205.5,523.0 L 205.5,520.0 L 206.5,519.0 L 206.5,516.0 L 207.5,515.0 L 207.5,512.0 L 208.5,511.0 L 208.5,508.0 L 209.5,507.0 L 209.5,504.0 L 210.5,503.0 L 210.5,500.0 L 211.5,499.0 L 211.5,497.0 L 213.5,495.0 L 213.5,494.0 L 215.5,492.0 L 215.5,491.0 L 217.5,489.0 L 217.5,488.0 L 218.5,487.0 L 218.5,485.0 L 219.5,484.0 L 219.5,480.0 L 220.5,479.0 L 220.5,475.0 L 221.5,474.0 L 221.5,470.0 L 229.5,462.0 L 229.5,454.0 L 230.5,453.0 L 230.5,452.0 L 231.5,451.0 L 231.5,450.0 L 232.5,449.0 L 232.5,448.0 L 233.5,447.0 L 233.5,446.0 L 234.5,445.0 L 234.5,444.0 L 235.5,443.0 L 235.5,442.0 L 236.5,441.0 L 236.5,440.0 L 237.5,439.0 L 237.5,438.0 L 238.5,437.0 L 238.5,436.0 L 239.5,435.0 L 239.5,434.0 L 240.5,433.0 L 240.5,432.0 L 241.5,431.0 L 241.5,430.0 L 242.5,429.0 L 242.5,428.0 L 243.5,427.0 L 243.5,426.0 L 244.5,425.0 L 244.5,424.0 L 245.5,423.0 L 245.5,422.0 L 246.5,421.0 L 246.5,420.0 L 247.5,419.0 L 247.5,418.0 L 248.5,417.0 L 248.5,416.0 L 249.5,415.0 L 249.5,414.0 L 250.5,413.0 L 250.5,412.0 L 251.5,411.0 L 251.5,410.0 L 252.5,409.0 L 252.5,408.0 L 253.5,407.0 L 253.5,406.0 L 254.5,405.0 L 254.5,404.0 L 255.5,403.0 L 255.5,402.0 L 256.5,401.0 L 256.5,400.0 L 257.5,399.0 L 257.5,398.0 L 264.5,391.0 L 264.5,390.0 L 265.5,389.0 L 265.5,387.0 L 266.5,386.0 L 266.5,384.0 L 267.5,383.0 L 267.5,382.0 L 268.5,381.0 L 268.5,380.0 L 269.5,379.0 L 269.5,378.0 L 271.5,376.0 L 271.5,375.0 L 273.5,373.0 L 273.5,372.0 L 275.5,370.0 L 275.5,369.0 L 277.5,367.0 L 277.5,366.0 L 279.5,364.0 L 279.5,363.0 L 281.5,361.0 L 281.5,360.0 L 289.5,352.0 L 289.5,351.0 L 290.5,350.0 L 290.5,348.0 L 291.5,347.0 L 291.5,345.0 L 292.5,344.0 L 292.5,342.0 L 295.5,339.0 L 295.5,338.0 L 299.5,334.0 L 299.5,333.0 L 302.5,330.0 L 302.5,329.0 L 306.5,325.0 L 306.5,324.0 L 309.5,321.0 L 309.5,320.0 L 313.5,316.0 L 313.5,315.0 L 316.5,312.0 L 316.5,311.0 L 320.5,307.0 L 320.5,306.0 L 323.5,303.0 L 323.5,302.0 L 327.5,298.0 L 327.5,297.0 L 330.5,294.0 L 330.5,293.0 L 334.5,289.0 L 334.5,288.0 L 337.5,285.0 L 337.5,284.0 L 341.5,280.0 L 341.5,279.0 L 421.0,199.5 L 422.0,199.5 L 425.0,196.5 L 426.0,196.5 L 429.0,193.5 L 430.0,193.5 L 434.0,189.5 L 435.0,189.5 L 438.0,186.5 L 439.0,186.5 L 442.0,183.5 L 443.0,183.5 L 447.0,179.5 L 448.0,179.5 L 451.0,176.5 L 452.0,176.5 L 455.0,173.5 L 456.0,173.5 L 460.0,169.5 L 461.0,169.5 L 464.0,166.5 L 465.0,166.5 L 467.0,164.5 L 468.0,164.5 L 470.0,162.5 L 471.0,162.5 L 473.0,160.5 L 474.0,160.5 L 476.0,158.5 L 477.0,158.5 L 479.0,156.5 L 480.0,156.5 L 482.0,154.5 L 483.0,154.5 L 485.0,152.5 L 486.0,152.5 L 488.0,150.5 L 489.0,150.5 L 491.0,148.5 L 492.0,148.5 L 494.0,146.5 L 495.0,146.5 L 497.0,144.5 L 498.0,144.5 L 499.0,143.5 L 501.0,143.5 L 502.0,142.5 L 504.0,142.5 L 505.0,141.5 L 507.0,141.5 L 515.0,133.5 L 516.0,133.5 L 517.0,132.5 L 518.0,132.5 L 519.0,131.5 L 520.0,131.5 L 521.0,130.5 L 522.0,130.5 L 523.0,129.5 L 524.0,129.5 L 525.0,128.5 L 526.0,128.5 L 527.0,127.5 L 528.0,127.5 L 529.0,126.5 L 530.0,126.5 L 531.0,125.5 L 532.0,125.5 L 533.0,124.5 L 534.0,124.5 L 535.0,123.5 L 536.0,123.5 L 537.0,122.5 L 538.0,122.5 L 539.0,121.5 L 540.0,121.5 L 541.0,120.5 L 542.0,120.5 L 543.0,119.5 L 544.0,119.5 L 545.0,118.5 L 546.0,118.5 L 547.0,117.5 L 548.0,117.5 L 549.0,116.5 L 550.0,116.5 L 551.0,115.5 L 552.0,115.5 L 553.0,114.5 L 554.0,114.5 L 555.0,113.5 L 556.0,113.5 L 557.0,112.5 L 565.0,112.5 L 572.0,105.5 L 579.0,105.5 L 580.0,104.5 L 581.0,104.5 L 583.0,102.5 L 584.0,102.5 L 586.0,100.5 L 587.0,100.5 L 589.0,98.5 L 597.0,98.5 L 599.0,96.5 L 600.0,96.5 L 602.0,94.5 L 603.0,94.5 L 605.0,92.5 L 606.0,92.5 L 607.0,91.5 L 608.0,91.5 L 609.0,90.5 L 611.0,90.5 L 612.0,89.5 L 615.0,89.5 L 616.0,88.5 L 618.0,88.5 L 619.0,87.5 L 621.0,87.5 L 622.0,86.5 L 625.0,86.5 L 626.0,85.5 L 628.0,85.5 L 629.0,84.5 L 632.0,84.5 L 633.0,83.5 L 635.0,83.5 L 636.0,82.5 L 638.0,82.5 L 639.0,81.5 L 642.0,81.5 L 643.0,80.5 L 645.0,80.5 L 646.0,79.5 L 649.0,79.5 L 650.0,78.5 L 652.0,78.5 L 653.0,77.5 L 655.0,77.5 L 656.0,76.5 L 659.0,76.5 L 660.0,75.5 L 662.0,75.5 L 663.0,74.5 L 666.0,74.5 L 667.0,73.5 L 670.0,73.5 L 671.0,72.5 L 675.0,72.5 L 676.0,71.5 L 680.0,71.5 L 681.0,70.5 L 685.0,70.5 L 686.0,69.5 L 690.0,69.5 L 691.0,68.5 L 695.0,68.5 L 696.0,67.5 L 700.0,67.5 L 701.0,66.5 L 705.0,66.5 L 706.0,65.5 L 710.0,65.5 L 711.0,64.5 L 715.0,64.5 L 716.0,63.5 L 721.0,63.5 L 722.0,62.5 L 730.0,62.5 L 731.0,61.5 L 739.0,61.5 L 740.0,60.5 L 748.0,60.5 L 749.0,59.5 L 853.0,59.5 L 854.0,60.5 L 859.0,60.5 L 860.0,61.5 L 866.0,61.5 L 867.0,62.5 L 873.0,62.5 L 874.0,63.5 L 879.0,63.5 L 880.0,64.5 L 886.0,64.5 L 887.0,65.5 L 893.0,65.5 L 894.0,66.5 L 899.0,66.5 L 900.0,67.5 L 906.0,67.5 L 907.0,68.5 L 913.0,68.5 L 914.0,69.5 L 919.0,69.5 L 920.0,70.5 L 924.0,70.5 L 925.0,71.5 L 927.0,71.5 L 928.0,72.5 L 931.0,72.5 L 932.0,73.5 L 934.0,73.5 L 935.0,74.5 L 937.0,74.5 L 938.0,75.5 L 941.0,75.5 L 942.0,76.5 L 944.0,76.5 L 945.0,77.5 L 948.0,77.5 L 949.0,78.5 L 951.0,78.5 L 952.0,79.5 L 955.0,79.5 L 956.0,80.5 L 958.0,80.5 L 959.0,81.5 L 961.0,81.5 L 962.0,82.5 L 965.0,82.5 L 966.0,83.5 L 968.0,83.5 L 969.0,84.5 L 972.0,84.5 L 973.0,85.5 L 975.0,85.5 L 976.0,86.5 L 979.0,86.5 L 980.0,87.5 L 982.0,87.5 L 983.0,88.5 L 985.0,88.5 L 986.0,89.5 L 989.0,89.5 L 990.0,90.5 L 992.0,90.5 L 993.0,91.5 L 996.0,91.5 L 997.0,92.5 L 999.0,92.5 L 1000.0,93.5 L 1003.0,93.5 L 1004.0,94.5 L 1006.0,94.5 L 1008.0,96.5 L 1009.0,96.5 L 1011.0,98.5 L 1012.0,98.5 L 1014.0,100.5 L 1015.0,100.5 L 1017.0,102.5 L 1025.0,102.5 L 1026.0,103.5 L 1027.0,103.5 L 1028.0,104.5 L 1029.0,104.5 L 1030.0,105.5 L 1031.0,105.5 L 1032.0,106.5 L 1033.0,106.5 L 1034.0,107.5 L 1035.0,107.5 L 1036.0,108.5 L 1037.0,108.5 L 1038.0,109.5 L 1039.0,109.5 L 1040.0,110.5 L 1041.0,110.5 L 1042.0,111.5 L 1043.0,111.5 L 1044.0,112.5 L 1045.0,112.5 L 1046.0,113.5 L 1047.0,113.5 L 1048.0,114.5 L 1049.0,114.5 L 1050.0,115.5 L 1051.0,115.5 L 1052.0,116.5 L 1053.0,116.5 L 1054.0,117.5 L 1055.0,117.5 L 1056.0,118.5 L 1057.0,118.5 L 1058.0,119.5 L 1059.0,119.5 L 1060.0,120.5 L 1061.0,120.5 L 1062.0,121.5 L 1063.0,121.5 L 1064.0,122.5 L 1065.0,122.5 L 1066.0,123.5 L 1067.0,123.5 L 1068.0,124.5 L 1069.0,124.5 L 1070.0,125.5 L 1071.0,125.5 L 1072.0,126.5 L 1073.0,126.5 L 1074.0,127.5 L 1075.0,127.5 L 1076.0,128.5 L 1077.0,128.5 L 1078.0,129.5 L 1079.0,129.5 L 1080.0,130.5 L 1081.0,130.5 L 1082.0,131.5 L 1083.0,131.5 L 1084.0,132.5 L 1085.0,132.5 L 1086.0,133.5 L 1087.0,133.5 L 1088.0,134.5 L 1089.0,134.5 L 1090.0,135.5 L 1091.0,135.5 L 1092.0,136.5 L 1093.0,136.5 L 1094.0,137.5 L 1095.0,137.5 L 1098.0,140.5 L 1099.0,140.5 L 1103.0,144.5 L 1104.0,144.5 L 1108.0,148.5 L 1109.0,148.5 L 1112.0,151.5 L 1113.0,151.5 L 1114.0,152.5 L 1115.0,152.5 L 1116.0,153.5 L 1117.0,153.5 L 1118.0,154.5 L 1119.0,154.5 L 1120.0,155.5 L 1121.0,155.5 L 1122.0,156.5 L 1123.0,156.5 L 1124.0,157.5 L 1125.0,157.5 L 1126.0,158.5 L 1127.0,158.5 L 1128.0,159.5 L 1129.0,159.5 L 1130.0,160.5 L 1131.0,160.5 L 1132.0,161.5 L 1133.0,161.5 L 1136.0,164.5 L 1137.0,164.5 L 1141.0,168.5 L 1142.0,168.5 L 1146.0,172.5 L 1147.0,172.5 L 1151.0,176.5 L 1152.0,176.5 L 1155.0,179.5 L 1156.0,179.5 L 1160.0,183.5 L 1161.0,183.5 L 1165.0,187.5 L 1166.0,187.5 L 1170.0,191.5 L 1171.0,191.5 L 1174.0,194.5 L 1175.0,194.5 L 1179.0,198.5 L 1180.0,198.5 L 1184.0,202.5 L 1185.0,202.5 L 1189.0,206.5 L 1190.0,206.5 L 1193.0,209.5 L 1194.0,209.5 L 1198.0,213.5 L 1199.0,213.5 L 1208.5,223.0 L 1208.5,224.0 L 1228.5,244.0 L 1228.5,245.0 L 1248.5,265.0 L 1248.5,266.0 L 1268.5,286.0 L 1268.5,287.0 L 1273.5,292.0 L 1273.5,293.0 L 1276.5,296.0 L 1276.5,297.0 L 1279.5,300.0 L 1279.5,301.0 L 1282.5,304.0 L 1282.5,305.0 L 1285.5,308.0 L 1285.5,309.0 L 1288.5,312.0 L 1288.5,313.0 L 1291.5,316.0 L 1291.5,317.0 L 1294.5,320.0 L 1294.5,321.0 L 1297.5,324.0 L 1297.5,325.0 L 1300.5,328.0 L 1300.5,329.0 L 1303.5,332.0 L 1303.5,333.0 L 1306.5,336.0 L 1306.5,337.0 L 1309.5,340.0 L 1309.5,341.0 L 1312.5,344.0 L 1312.5,345.0 L 1313.5,346.0 L 1313.5,347.0 L 1314.5,348.0 L 1314.5,350.0 L 1315.5,351.0 L 1315.5,353.0 L 1316.5,354.0 L 1316.5,356.0 L 1318.5,358.0 L 1318.5,359.0 L 1321.5,362.0 L 1321.5,363.0 L 1324.5,366.0 L 1324.5,367.0 L 1327.5,370.0 L 1327.5,371.0 L 1330.5,374.0 L 1330.5,375.0 L 1333.5,378.0 L 1333.5,379.0 L 1336.5,382.0 L 1336.5,383.0 L 1338.5,385.0 L 1338.5,386.0 L 1339.5,387.0 L 1339.5,388.0 L 1340.5,389.0 L 1340.5,390.0 L 1341.5,391.0 L 1341.5,392.0 L 1342.5,393.0 L 1342.5,395.0 L 1343.5,396.0 L 1343.5,397.0 L 1344.5,398.0 L 1344.5,399.0 L 1345.5,400.0 L 1345.5,401.0 L 1346.5,402.0 L 1346.5,403.0 L 1347.5,404.0 L 1347.5,405.0 L 1348.5,406.0 L 1348.5,407.0 L 1349.5,408.0 L 1349.5,410.0 L 1350.5,411.0 L 1350.5,412.0 L 1351.5,413.0 L 1351.5,414.0 L 1352.5,415.0 L 1352.5,416.0 L 1353.5,417.0 L 1353.5,418.0 L 1354.5,419.0 L 1354.5,420.0 L 1355.5,421.0 L 1355.5,422.0 L 1356.5,423.0 L 1356.5,425.0 L 1357.5,426.0 L 1357.5,427.0 L 1358.5,428.0 L 1358.5,429.0 L 1359.5,430.0 L 1359.5,431.0 L 1360.5,432.0 L 1360.5,433.0 L 1361.5,434.0 L 1361.5,435.0 L 1362.5,436.0 L 1362.5,437.0 L 1363.5,438.0 L 1363.5,439.0 L 1366.5,442.0 L 1366.5,443.0 L 1369.5,446.0 L 1369.5,447.0 L 1372.5,450.0 L 1372.5,451.0 L 1373.5,452.0 L 1373.5,459.0 L 1374.5,460.0 L 1374.5,461.0 L 1376.5,463.0 L 1376.5,464.0 L 1378.5,466.0 L 1378.5,467.0 L 1380.5,469.0 L 1380.5,477.0 L 1382.5,479.0 L 1382.5,480.0 L 1384.5,482.0 L 1384.5,483.0 L 1386.5,485.0 L 1386.5,486.0 L 1387.5,487.0 L 1387.5,494.0 L 1388.5,495.0 L 1388.5,496.0 L 1390.5,498.0 L 1390.5,499.0 L 1392.5,501.0 L 1392.5,502.0 L 1394.5,504.0 L 1394.5,512.0 L 1396.5,514.0 L 1396.5,515.0 L 1398.5,517.0 L 1398.5,518.0 L 1400.5,520.0 L 1400.5,521.0 L 1401.5,522.0 L 1401.5,524.0 L 1402.5,525.0 L 1402.5,529.0 L 1403.5,530.0 L 1403.5,534.0 L 1404.5,535.0 L 1404.5,539.0 L 1413.0,547.5 L 1439.0,547.5 L 1440.0,548.5 L 1442.0,548.5 L 1443.0,549.5 L 1445.0,549.5 L 1446.0,550.5 L 1448.0,550.5 L 1449.0,551.5 L 1451.0,551.5 L 1452.0,552.5 L 1454.0,552.5 L 1455.0,553.5 L 1457.0,553.5 L 1458.0,554.5 L 1459.0,554.5 L 1460.0,555.5 L 1461.0,555.5 L 1463.0,557.5 L 1464.0,557.5 L 1466.0,559.5 L 1467.0,559.5 L 1469.0,561.5 L 1470.0,561.5 L 1472.0,563.5 L 1473.0,563.5 L 1475.0,565.5 L 1476.0,565.5 L 1478.0,567.5 L 1479.0,567.5 L 1500.5,589.0 L 1500.5,590.0 L 1501.5,591.0 L 1501.5,592.0 L 1503.5,594.0 L 1503.5,595.0 L 1504.5,596.0 L 1504.5,597.0 L 1505.5,598.0 L 1505.5,599.0 L 1506.5,600.0 L 1506.5,601.0 L 1508.5,603.0 L 1508.5,604.0 L 1509.5,605.0 L 1509.5,606.0 L 1510.5,607.0 L 1510.5,608.0 L 1511.5,609.0 L 1511.5,610.0 L 1513.5,612.0 L 1513.5,613.0 L 1514.5,614.0 L 1514.5,615.0 L 1515.5,616.0 L 1515.5,617.0 L 1516.5,618.0 L 1516.5,619.0 L 1518.5,621.0 L 1518.5,624.0 L 1519.5,625.0 L 1519.5,628.0 L 1520.5,629.0 L 1520.5,633.0 L 1521.5,634.0 L 1521.5,637.0 L 1522.5,638.0 L 1522.5,641.0 L 1523.5,642.0 L 1523.5,646.0 L 1524.5,647.0 L 1524.5,650.0 L 1525.5,651.0 L 1525.5,654.0 L 1526.5,655.0 L 1526.5,659.0 L 1527.5,660.0 L 1527.5,663.0 L 1528.5,664.0 L 1528.5,929.0 L 1527.5,930.0 L 1527.5,934.0 L 1526.5,935.0 L 1526.5,939.0 L 1525.5,940.0 L 1525.5,944.0 L 1524.5,945.0 L 1524.5,949.0 L 1523.5,950.0 L 1523.5,954.0 L 1522.5,955.0 L 1522.5,959.0 L 1521.5,960.0 L 1521.5,961.0 L 1519.5,963.0 L 1519.5,964.0 L 1517.5,966.0 L 1517.5,967.0 L 1515.5,969.0 L 1515.5,970.0 L 1514.5,971.0 L 1514.5,979.0 L 1512.5,981.0 L 1512.5,982.0 L 1510.5,984.0 L 1510.5,985.0 L 1508.5,987.0 L 1508.5,988.0 L 1506.5,990.0 L 1506.5,991.0 L 1504.5,993.0 L 1504.5,994.0 L 1502.5,996.0 L 1502.5,997.0 L 1471.0,1028.5 L 1470.0,1028.5 L 1469.0,1029.5 L 1468.0,1029.5 L 1467.0,1030.5 L 1466.0,1030.5 L 1465.0,1031.5 L 1464.0,1031.5 L 1463.0,1032.5 L 1462.0,1032.5 L 1461.0,1033.5 L 1460.0,1033.5 L 1459.0,1034.5 L 1458.0,1034.5 L 1457.0,1035.5 L 1456.0,1035.5 L 1455.0,1036.5 L 1454.0,1036.5 L 1453.0,1037.5 L 1452.0,1037.5 L 1451.0,1038.5 L 1450.0,1038.5 L 1449.0,1039.5 L 1448.0,1039.5 L 1447.0,1040.5 L 1446.0,1040.5 L 1445.0,1041.5 L 1434.0,1041.5 L 1426.5,1049.0 L 1426.5,1050.0 L 1425.5,1051.0 L 1425.5,1053.0 L 1424.5,1054.0 L 1424.5,1057.0 L 1423.5,1058.0 L 1423.5,1060.0 L 1422.5,1061.0 L 1422.5,1064.0 L 1421.5,1065.0 L 1421.5,1068.0 L 1420.5,1069.0 L 1420.5,1071.0 L 1419.5,1072.0 L 1419.5,1075.0 L 1418.5,1076.0 L 1418.5,1078.0 L 1417.5,1079.0 L 1417.5,1082.0 L 1416.5,1083.0 L 1416.5,1086.0 L 1415.5,1087.0 L 1415.5,1089.0 L 1414.5,1090.0 L 1414.5,1093.0 L 1413.5,1094.0 L 1413.5,1096.0 L 1412.5,1097.0 L 1412.5,1100.0 L 1411.5,1101.0 L 1411.5,1104.0 L 1410.5,1105.0 L 1410.5,1107.0 L 1409.5,1108.0 L 1409.5,1111.0 L 1408.5,1112.0 L 1408.5,1113.0 L 1407.5,1114.0 L 1407.5,1115.0 L 1406.5,1116.0 L 1406.5,1117.0 L 1405.5,1118.0 L 1405.5,1119.0 L 1404.5,1120.0 L 1404.5,1121.0 L 1403.5,1122.0 L 1403.5,1123.0 L 1402.5,1124.0 L 1402.5,1125.0 L 1401.5,1126.0 L 1401.5,1127.0 L 1400.5,1128.0 L 1400.5,1129.0 L 1399.5,1130.0 L 1399.5,1131.0 L 1398.5,1132.0 L 1398.5,1133.0 L 1397.5,1134.0 L 1397.5,1135.0 L 1396.5,1136.0 L 1396.5,1137.0 L 1395.5,1138.0 L 1395.5,1139.0 L 1394.5,1140.0 L 1394.5,1141.0 L 1393.5,1142.0 L 1393.5,1143.0 L 1392.5,1144.0 L 1392.5,1145.0 L 1391.5,1146.0 L 1391.5,1147.0 L 1390.5,1148.0 L 1390.5,1156.0 L 1388.5,1158.0 L 1388.5,1159.0 L 1386.5,1161.0 L 1386.5,1162.0 L 1384.5,1164.0 L 1384.5,1165.0 L 1383.5,1166.0 L 1383.5,1173.0 L 1382.5,1174.0 L 1382.5,1175.0 L 1381.5,1176.0 L 1381.5,1177.0 L 1379.5,1179.0 L 1379.5,1180.0 L 1378.5,1181.0 L 1378.5,1182.0 L 1376.5,1184.0 L 1376.5,1185.0 L 1375.5,1186.0 L 1375.5,1187.0 L 1373.5,1189.0 L 1373.5,1197.0 L 1372.5,1198.0 L 1372.5,1199.0 L 1371.5,1200.0 L 1371.5,1201.0 L 1370.5,1202.0 L 1370.5,1203.0 L 1369.5,1204.0 L 1369.5,1205.0 L 1368.5,1206.0 L 1368.5,1207.0 L 1367.5,1208.0 L 1367.5,1209.0 L 1366.5,1210.0 L 1366.5,1211.0 L 1358.5,1219.0 L 1358.5,1221.0 L 1357.5,1222.0 L 1357.5,1223.0 L 1356.5,1224.0 L 1356.5,1225.0 L 1355.5,1226.0 L 1355.5,1228.0 L 1354.5,1229.0 L 1354.5,1230.0 L 1353.5,1231.0 L 1353.5,1232.0 L 1352.5,1233.0 L 1352.5,1235.0 L 1351.5,1236.0 L 1351.5,1237.0 L 1350.5,1238.0 L 1350.5,1239.0 L 1349.5,1240.0 L 1349.5,1242.0 L 1341.5,1250.0 L 1341.5,1251.0 L 1340.5,1252.0 L 1340.5,1254.0 L 1339.5,1255.0 L 1339.5,1257.0 L 1338.5,1258.0 L 1338.5,1260.0 L 1337.5,1261.0 L 1337.5,1262.0 L 1334.5,1265.0 L 1334.5,1266.0 L 1332.5,1268.0 L 1332.5,1269.0 L 1329.5,1272.0 L 1329.5,1273.0 L 1327.5,1275.0 L 1327.5,1276.0 L 1324.5,1279.0 L 1324.5,1280.0 L 1322.5,1282.0 L 1322.5,1283.0 L 1319.5,1286.0 L 1319.5,1287.0 L 1317.5,1289.0 L 1317.5,1290.0 L 1314.5,1293.0 L 1314.5,1294.0 L 1312.5,1296.0 L 1312.5,1297.0 L 1309.5,1300.0 L 1309.5,1301.0 L 1307.5,1303.0 L 1307.5,1304.0 L 1304.5,1307.0 L 1304.5,1308.0 L 1299.5,1313.0 L 1299.5,1314.0 L 1281.5,1332.0 L 1281.5,1333.0 L 1263.5,1351.0 L 1263.5,1352.0 L 1245.5,1370.0 L 1245.5,1371.0 L 1238.0,1378.5 L 1237.0,1378.5 L 1234.0,1381.5 L 1233.0,1381.5 L 1229.0,1385.5 L 1228.0,1385.5 L 1225.0,1388.5 L 1224.0,1388.5 L 1220.0,1392.5 L 1219.0,1392.5 L 1216.0,1395.5 L 1215.0,1395.5 L 1211.0,1399.5 L 1210.0,1399.5 L 1207.0,1402.5 L 1206.0,1402.5 L 1202.0,1406.5 L 1201.0,1406.5 L 1198.0,1409.5 L 1197.0,1409.5 L 1193.0,1413.5 L 1192.0,1413.5 L 1189.0,1416.5 L 1188.0,1416.5 L 1184.0,1420.5 L 1183.0,1420.5 L 1180.0,1423.5 L 1179.0,1423.5 L 1176.0,1426.5 L 1175.0,1426.5 L 1174.0,1427.5 L 1173.0,1427.5 L 1172.0,1428.5 L 1171.0,1428.5 L 1170.0,1429.5 L 1169.0,1429.5 L 1168.0,1430.5 L 1167.0,1430.5 L 1166.0,1431.5 L 1165.0,1431.5 L 1164.0,1432.5 L 1163.0,1432.5 L 1162.0,1433.5 L 1161.0,1433.5 L 1160.0,1434.5 L 1159.0,1434.5 L 1158.0,1435.5 L 1157.0,1435.5 L 1156.0,1436.5 L 1155.0,1436.5 L 1149.5,1442.0 L 1149.5,1443.0 L 1134.5,1458.0 L 1134.5,1459.0 L 1119.5,1474.0 L 1119.5,1475.0 L 1104.5,1490.0 L 1104.5,1491.0 L 1102.0,1493.5 L 1101.0,1493.5 L 1100.0,1494.5 L 1099.0,1494.5 L 1098.0,1495.5 L 1096.0,1495.5 L 1095.0,1496.5 L 1094.0,1496.5 L 1093.0,1497.5 L 1091.0,1497.5 L 1090.0,1498.5 L 1089.0,1498.5 L 1088.0,1499.5 L 1086.0,1499.5 L 1085.0,1500.5 Z" fill="currentColor" /><path d="M 692.0,1196.5 L 682.0,1196.5 L 681.0,1195.5 L 679.0,1195.5 L 678.0,1194.5 L 676.0,1194.5 L 675.0,1193.5 L 673.0,1193.5 L 672.0,1192.5 L 670.0,1192.5 L 669.0,1191.5 L 667.0,1191.5 L 666.0,1190.5 L 664.0,1190.5 L 663.0,1189.5 L 661.0,1189.5 L 660.0,1188.5 L 658.0,1188.5 L 657.0,1187.5 L 655.0,1187.5 L 654.0,1186.5 L 652.0,1186.5 L 651.0,1185.5 L 649.0,1185.5 L 648.0,1184.5 L 646.0,1184.5 L 645.0,1183.5 L 643.0,1183.5 L 642.0,1182.5 L 641.0,1182.5 L 640.0,1181.5 L 639.0,1181.5 L 638.0,1180.5 L 637.0,1180.5 L 636.0,1179.5 L 635.0,1179.5 L 634.0,1178.5 L 633.0,1178.5 L 632.0,1177.5 L 631.0,1177.5 L 630.0,1176.5 L 629.0,1176.5 L 628.0,1175.5 L 627.0,1175.5 L 626.0,1174.5 L 625.0,1174.5 L 624.0,1173.5 L 623.0,1173.5 L 622.0,1172.5 L 621.0,1172.5 L 620.0,1171.5 L 619.0,1171.5 L 618.0,1170.5 L 617.0,1170.5 L 616.0,1169.5 L 615.0,1169.5 L 614.0,1168.5 L 613.0,1168.5 L 612.0,1167.5 L 611.0,1167.5 L 610.0,1166.5 L 609.0,1166.5 L 608.0,1165.5 L 607.0,1165.5 L 600.5,1159.0 L 600.5,1148.0 L 601.5,1147.0 L 601.5,1138.0 L 602.5,1137.0 L 602.5,1127.0 L 603.5,1126.0 L 603.5,1117.0 L 604.5,1116.0 L 604.5,1106.0 L 605.5,1105.0 L 605.5,1096.0 L 606.5,1095.0 L 606.5,1082.0 L 605.5,1081.0 L 605.5,1080.0 L 604.5,1079.0 L 604.5,1078.0 L 603.5,1077.0 L 603.5,1076.0 L 602.5,1075.0 L 602.5,1074.0 L 601.5,1073.0 L 601.5,1072.0 L 600.5,1071.0 L 600.5,1070.0 L 599.5,1069.0 L 599.5,1068.0 L 598.5,1067.0 L 598.5,1066.0 L 597.5,1065.0 L 597.5,1064.0 L 596.0,1062.5 L 593.0,1062.5 L 592.0,1061.5 L 591.0,1061.5 L 582.0,1052.5 L 581.0,1052.5 L 572.0,1043.5 L 571.0,1043.5 L 562.0,1034.5 L 561.0,1034.5 L 557.5,1031.0 L 557.5,1027.0 L 549.5,1019.0 L 549.5,1018.0 L 540.5,1009.0 L 540.5,1008.0 L 531.5,999.0 L 531.5,998.0 L 526.0,992.5 L 522.0,992.5 L 521.0,993.5 L 517.0,993.5 L 516.0,994.5 L 513.0,994.5 L 512.0,995.5 L 508.0,995.5 L 507.0,996.5 L 503.0,996.5 L 502.0,997.5 L 499.0,997.5 L 498.0,998.5 L 494.0,998.5 L 493.0,999.5 L 489.0,999.5 L 488.0,1000.5 L 485.0,1000.5 L 484.0,1001.5 L 480.0,1001.5 L 479.0,1002.5 L 441.0,1002.5 L 440.5,1002.0 L 440.5,1001.0 L 439.5,1000.0 L 439.5,999.0 L 438.5,998.0 L 438.5,997.0 L 437.5,996.0 L 437.5,995.0 L 436.5,994.0 L 436.5,993.0 L 435.5,992.0 L 435.5,991.0 L 434.5,990.0 L 434.5,989.0 L 433.5,988.0 L 433.5,987.0 L 432.5,986.0 L 432.5,985.0 L 431.5,984.0 L 431.5,983.0 L 430.5,982.0 L 430.5,981.0 L 429.5,980.0 L 429.5,979.0 L 428.5,978.0 L 428.5,977.0 L 427.5,976.0 L 427.5,975.0 L 426.5,974.0 L 426.5,973.0 L 425.5,972.0 L 425.5,971.0 L 424.5,970.0 L 424.5,969.0 L 423.5,968.0 L 423.5,960.0 L 421.5,958.0 L 421.5,957.0 L 419.5,955.0 L 419.5,954.0 L 417.5,952.0 L 417.5,951.0 L 416.5,950.0 L 416.5,949.0 L 415.5,948.0 L 415.5,946.0 L 414.5,945.0 L 414.5,943.0 L 413.5,942.0 L 413.5,940.0 L 412.5,939.0 L 412.5,937.0 L 411.5,936.0 L 411.5,934.0 L 410.5,933.0 L 410.5,931.0 L 409.5,930.0 L 409.5,911.0 L 431.0,889.5 L 434.0,889.5 L 435.0,888.5 L 436.0,888.5 L 441.0,883.5 L 442.0,883.5 L 446.0,879.5 L 447.0,879.5 L 452.0,874.5 L 453.0,874.5 L 457.0,870.5 L 458.0,870.5 L 463.0,865.5 L 464.0,865.5 L 468.0,861.5 L 469.0,861.5 L 472.5,858.0 L 472.5,847.0 L 469.5,844.0 L 469.5,826.0 L 470.5,825.0 L 470.5,798.0 L 471.5,797.0 L 471.5,770.0 L 472.5,769.0 L 472.5,745.0 L 468.0,740.5 L 467.0,740.5 L 462.0,735.5 L 461.0,735.5 L 456.0,730.5 L 455.0,730.5 L 451.0,726.5 L 450.0,726.5 L 449.0,725.5 L 448.0,725.5 L 447.0,724.5 L 446.0,724.5 L 445.0,723.5 L 444.0,723.5 L 443.0,722.5 L 442.0,722.5 L 441.0,721.5 L 440.0,721.5 L 439.0,720.5 L 438.0,720.5 L 435.0,717.5 L 434.0,717.5 L 427.0,710.5 L 426.0,710.5 L 419.0,703.5 L 418.0,703.5 L 411.0,696.5 L 410.0,696.5 L 409.5,696.0 L 409.5,695.0 L 408.5,694.0 L 408.5,692.0 L 407.5,691.0 L 407.5,689.0 L 406.5,688.0 L 406.5,686.0 L 405.5,685.0 L 405.5,684.0 L 406.5,683.0 L 406.5,681.0 L 407.5,680.0 L 407.5,678.0 L 408.5,677.0 L 408.5,675.0 L 409.5,674.0 L 409.5,672.0 L 410.5,671.0 L 410.5,669.0 L 411.5,668.0 L 411.5,666.0 L 412.5,665.0 L 412.5,664.0 L 413.5,663.0 L 413.5,662.0 L 415.5,660.0 L 415.5,659.0 L 417.5,657.0 L 417.5,656.0 L 419.5,654.0 L 419.5,646.0 L 421.5,644.0 L 421.5,643.0 L 423.5,641.0 L 423.5,640.0 L 425.5,638.0 L 425.5,637.0 L 426.5,636.0 L 426.5,629.0 L 427.5,628.0 L 427.5,627.0 L 428.5,626.0 L 428.5,625.0 L 429.5,624.0 L 429.5,623.0 L 430.5,622.0 L 430.5,621.0 L 431.5,620.0 L 431.5,619.0 L 432.5,618.0 L 432.5,617.0 L 433.5,616.0 L 433.5,615.0 L 434.5,614.0 L 434.5,613.0 L 435.5,612.0 L 435.5,611.0 L 436.5,610.0 L 436.5,609.0 L 438.0,607.5 L 439.0,607.5 L 440.0,606.5 L 453.0,606.5 L 454.0,605.5 L 467.0,605.5 L 468.0,604.5 L 481.0,604.5 L 482.0,603.5 L 487.0,603.5 L 491.0,607.5 L 498.0,607.5 L 499.0,608.5 L 508.0,608.5 L 509.0,609.5 L 518.0,609.5 L 519.0,610.5 L 526.0,610.5 L 540.5,596.0 L 540.5,592.0 L 542.0,590.5 L 543.0,590.5 L 562.0,571.5 L 563.0,571.5 L 583.0,551.5 L 584.0,551.5 L 603.0,532.5 L 604.0,532.5 L 610.5,526.0 L 610.5,525.0 L 609.5,524.0 L 609.5,523.0 L 608.5,522.0 L 608.5,521.0 L 607.5,520.0 L 607.5,519.0 L 606.5,518.0 L 606.5,511.0 L 605.5,510.0 L 605.5,504.0 L 604.5,503.0 L 604.5,496.0 L 603.5,495.0 L 603.5,489.0 L 602.5,488.0 L 602.5,481.0 L 601.5,480.0 L 601.5,474.0 L 600.5,473.0 L 600.5,459.0 L 601.5,458.0 L 601.5,452.0 L 602.5,451.0 L 602.5,445.0 L 603.5,444.0 L 603.5,441.0 L 604.0,440.5 L 605.0,440.5 L 606.0,439.5 L 607.0,439.5 L 608.0,438.5 L 609.0,438.5 L 610.0,437.5 L 611.0,437.5 L 612.0,436.5 L 613.0,436.5 L 614.0,435.5 L 615.0,435.5 L 616.0,434.5 L 617.0,434.5 L 618.0,433.5 L 619.0,433.5 L 620.0,432.5 L 621.0,432.5 L 622.0,431.5 L 623.0,431.5 L 624.0,430.5 L 625.0,430.5 L 626.0,429.5 L 627.0,429.5 L 628.0,428.5 L 629.0,428.5 L 630.0,427.5 L 631.0,427.5 L 632.0,426.5 L 633.0,426.5 L 634.0,425.5 L 635.0,425.5 L 636.0,424.5 L 637.0,424.5 L 638.0,423.5 L 639.0,423.5 L 640.0,422.5 L 641.0,422.5 L 642.0,421.5 L 643.0,421.5 L 644.0,420.5 L 645.0,420.5 L 646.0,419.5 L 654.0,419.5 L 656.0,417.5 L 657.0,417.5 L 659.0,415.5 L 660.0,415.5 L 662.0,413.5 L 663.0,413.5 L 664.0,412.5 L 665.0,412.5 L 666.0,411.5 L 668.0,411.5 L 669.0,410.5 L 671.0,410.5 L 672.0,409.5 L 692.0,409.5 L 714.5,432.0 L 714.5,433.0 L 718.5,437.0 L 718.5,438.0 L 722.5,442.0 L 722.5,443.0 L 726.5,447.0 L 726.5,448.0 L 727.5,449.0 L 727.5,450.0 L 728.5,451.0 L 728.5,452.0 L 729.5,453.0 L 729.5,454.0 L 730.5,455.0 L 730.5,456.0 L 731.5,457.0 L 731.5,458.0 L 732.5,459.0 L 732.5,460.0 L 733.5,461.0 L 733.5,462.0 L 744.0,472.5 L 773.0,472.5 L 776.0,469.5 L 789.0,469.5 L 790.0,470.5 L 812.0,470.5 L 813.0,471.5 L 835.0,471.5 L 836.0,472.5 L 858.0,472.5 L 872.5,458.0 L 872.5,457.0 L 873.5,456.0 L 873.5,455.0 L 874.5,454.0 L 874.5,453.0 L 875.5,452.0 L 875.5,451.0 L 876.5,450.0 L 876.5,449.0 L 877.5,448.0 L 877.5,447.0 L 878.5,446.0 L 878.5,445.0 L 884.5,439.0 L 884.5,438.0 L 893.5,429.0 L 893.5,428.0 L 902.5,419.0 L 902.5,418.0 L 911.0,409.5 L 930.0,409.5 L 931.0,410.5 L 933.0,410.5 L 934.0,411.5 L 936.0,411.5 L 937.0,412.5 L 939.0,412.5 L 940.0,413.5 L 942.0,413.5 L 943.0,414.5 L 945.0,414.5 L 946.0,415.5 L 948.0,415.5 L 949.0,416.5 L 950.0,416.5 L 951.0,417.5 L 952.0,417.5 L 954.0,419.5 L 955.0,419.5 L 956.0,420.5 L 957.0,420.5 L 959.0,422.5 L 960.0,422.5 L 961.0,423.5 L 962.0,423.5 L 964.0,425.5 L 965.0,425.5 L 966.0,426.5 L 967.0,426.5 L 968.0,427.5 L 976.0,427.5 L 977.0,428.5 L 978.0,428.5 L 979.0,429.5 L 980.0,429.5 L 981.0,430.5 L 982.0,430.5 L 983.0,431.5 L 984.0,431.5 L 985.0,432.5 L 986.0,432.5 L 987.0,433.5 L 988.0,433.5 L 989.0,434.5 L 990.0,434.5 L 991.0,435.5 L 992.0,435.5 L 993.0,436.5 L 994.0,436.5 L 995.0,437.5 L 996.0,437.5 L 997.0,438.5 L 998.0,438.5 L 999.0,439.5 L 1000.0,439.5 L 1001.0,440.5 L 1002.0,440.5 L 1002.5,441.0 L 1002.5,466.0 L 998.5,470.0 L 998.5,478.0 L 997.5,479.0 L 997.5,488.0 L 996.5,489.0 L 996.5,498.0 L 995.5,499.0 L 995.5,529.0 L 1011.0,544.5 L 1012.0,544.5 L 1030.0,562.5 L 1031.0,562.5 L 1049.0,580.5 L 1050.0,580.5 L 1063.5,594.0 L 1063.5,595.0 L 1064.5,596.0 L 1064.5,597.0 L 1065.5,598.0 L 1065.5,599.0 L 1066.5,600.0 L 1066.5,601.0 L 1067.5,602.0 L 1067.5,603.0 L 1068.5,604.0 L 1068.5,605.0 L 1069.5,606.0 L 1069.5,607.0 L 1070.0,607.5 L 1074.0,607.5 L 1075.0,608.5 L 1079.0,608.5 L 1080.0,609.5 L 1084.0,609.5 L 1085.0,610.5 L 1087.0,610.5 L 1090.0,607.5 L 1091.0,607.5 L 1092.0,606.5 L 1098.0,606.5 L 1099.0,605.5 L 1105.0,605.5 L 1106.0,604.5 L 1112.0,604.5 L 1113.0,603.5 L 1120.0,603.5 L 1121.0,604.5 L 1134.0,604.5 L 1135.0,605.5 L 1148.0,605.5 L 1149.0,606.5 L 1162.0,606.5 L 1163.0,607.5 L 1165.0,607.5 L 1165.5,608.0 L 1165.5,609.0 L 1166.5,610.0 L 1166.5,611.0 L 1167.5,612.0 L 1167.5,613.0 L 1168.5,614.0 L 1168.5,615.0 L 1169.5,616.0 L 1169.5,617.0 L 1170.5,618.0 L 1170.5,619.0 L 1171.5,620.0 L 1171.5,621.0 L 1172.5,622.0 L 1172.5,623.0 L 1173.5,624.0 L 1173.5,625.0 L 1174.5,626.0 L 1174.5,627.0 L 1175.5,628.0 L 1175.5,629.0 L 1176.5,630.0 L 1176.5,631.0 L 1177.5,632.0 L 1177.5,633.0 L 1178.5,634.0 L 1178.5,635.0 L 1179.5,636.0 L 1179.5,637.0 L 1180.5,638.0 L 1180.5,639.0 L 1181.5,640.0 L 1181.5,641.0 L 1182.5,642.0 L 1182.5,649.0 L 1183.5,650.0 L 1183.5,651.0 L 1185.5,653.0 L 1185.5,654.0 L 1187.5,656.0 L 1187.5,657.0 L 1189.5,659.0 L 1189.5,660.0 L 1190.5,661.0 L 1190.5,663.0 L 1191.5,664.0 L 1191.5,666.0 L 1192.5,667.0 L 1192.5,669.0 L 1193.5,670.0 L 1193.5,672.0 L 1194.5,673.0 L 1194.5,675.0 L 1195.5,676.0 L 1195.5,678.0 L 1196.5,679.0 L 1196.5,692.0 L 1190.0,698.5 L 1189.0,698.5 L 1180.0,707.5 L 1179.0,707.5 L 1170.0,716.5 L 1169.0,716.5 L 1162.0,723.5 L 1158.0,723.5 L 1156.0,725.5 L 1155.0,725.5 L 1153.0,727.5 L 1152.0,727.5 L 1149.0,730.5 L 1148.0,730.5 L 1146.0,732.5 L 1145.0,732.5 L 1142.0,735.5 L 1141.0,735.5 L 1139.0,737.5 L 1138.0,737.5 L 1135.0,740.5 L 1134.0,740.5 L 1133.5,741.0 L 1133.5,742.0 L 1132.5,743.0 L 1132.5,746.0 L 1131.5,747.0 L 1131.5,750.0 L 1130.5,751.0 L 1130.5,754.0 L 1129.5,755.0 L 1133.5,759.0 L 1133.5,763.0 L 1132.5,764.0 L 1132.5,791.0 L 1131.5,792.0 L 1131.5,819.0 L 1130.5,820.0 L 1130.5,847.0 L 1129.5,848.0 L 1129.5,858.0 L 1137.0,865.5 L 1138.0,865.5 L 1139.0,866.5 L 1140.0,866.5 L 1141.0,867.5 L 1142.0,867.5 L 1143.0,868.5 L 1144.0,868.5 L 1145.0,869.5 L 1146.0,869.5 L 1147.0,870.5 L 1148.0,870.5 L 1149.0,871.5 L 1150.0,871.5 L 1151.0,872.5 L 1152.0,872.5 L 1158.0,878.5 L 1159.0,878.5 L 1164.0,883.5 L 1165.0,883.5 L 1171.0,889.5 L 1172.0,889.5 L 1177.0,894.5 L 1178.0,894.5 L 1184.0,900.5 L 1185.0,900.5 L 1190.0,905.5 L 1191.0,905.5 L 1196.5,911.0 L 1196.5,927.0 L 1195.5,928.0 L 1195.5,930.0 L 1194.5,931.0 L 1194.5,933.0 L 1193.5,934.0 L 1193.5,936.0 L 1192.5,937.0 L 1192.5,938.0 L 1191.5,939.0 L 1191.5,940.0 L 1190.5,941.0 L 1190.5,942.0 L 1189.5,943.0 L 1189.5,944.0 L 1188.5,945.0 L 1188.5,946.0 L 1187.5,947.0 L 1187.5,948.0 L 1186.5,949.0 L 1186.5,950.0 L 1185.5,951.0 L 1185.5,952.0 L 1184.5,953.0 L 1184.5,954.0 L 1183.5,955.0 L 1183.5,956.0 L 1182.5,957.0 L 1182.5,958.0 L 1181.5,959.0 L 1181.5,960.0 L 1180.5,961.0 L 1180.5,962.0 L 1179.5,963.0 L 1179.5,964.0 L 1178.5,965.0 L 1178.5,966.0 L 1177.5,967.0 L 1177.5,968.0 L 1176.5,969.0 L 1176.5,970.0 L 1175.5,971.0 L 1175.5,972.0 L 1174.5,973.0 L 1174.5,974.0 L 1173.5,975.0 L 1173.5,976.0 L 1172.5,977.0 L 1172.5,985.0 L 1171.5,986.0 L 1171.5,987.0 L 1170.5,988.0 L 1170.5,989.0 L 1169.5,990.0 L 1169.5,991.0 L 1168.5,992.0 L 1168.5,993.0 L 1167.5,994.0 L 1167.5,995.0 L 1166.5,996.0 L 1166.5,997.0 L 1164.0,999.5 L 1156.0,999.5 L 1155.0,1000.5 L 1146.0,1000.5 L 1145.0,1001.5 L 1136.0,1001.5 L 1135.0,1002.5 L 1125.0,1002.5 L 1124.0,1001.5 L 1117.0,1001.5 L 1116.0,1000.5 L 1109.0,1000.5 L 1108.0,999.5 L 1101.0,999.5 L 1100.0,998.5 L 1098.0,998.5 L 1097.0,997.5 L 1094.0,997.5 L 1093.0,996.5 L 1091.0,996.5 L 1090.0,995.5 L 1087.0,995.5 L 1086.0,994.5 L 1084.0,994.5 L 1083.0,993.5 L 1080.0,993.5 L 1079.0,992.5 L 1076.0,992.5 L 1075.5,993.0 L 1075.5,994.0 L 1069.5,1000.0 L 1069.5,1001.0 L 1063.5,1007.0 L 1063.5,1008.0 L 1057.5,1014.0 L 1057.5,1015.0 L 1051.5,1021.0 L 1051.5,1022.0 L 1045.5,1028.0 L 1045.5,1029.0 L 1039.5,1035.0 L 1039.5,1036.0 L 1030.0,1045.5 L 1029.0,1045.5 L 1024.0,1050.5 L 1023.0,1050.5 L 1019.0,1054.5 L 1018.0,1054.5 L 1013.0,1059.5 L 1012.0,1059.5 L 1008.0,1063.5 L 1007.0,1063.5 L 1002.0,1068.5 L 1001.0,1068.5 L 997.0,1072.5 L 996.0,1072.5 L 995.5,1073.0 L 995.5,1098.0 L 999.5,1102.0 L 999.5,1111.0 L 1000.5,1112.0 L 1000.5,1121.0 L 1001.5,1122.0 L 1001.5,1131.0 L 1002.5,1132.0 L 1002.5,1161.0 L 1000.0,1163.5 L 999.0,1163.5 L 998.0,1164.5 L 997.0,1164.5 L 996.0,1165.5 L 995.0,1165.5 L 993.0,1167.5 L 992.0,1167.5 L 991.0,1168.5 L 990.0,1168.5 L 989.0,1169.5 L 988.0,1169.5 L 986.0,1171.5 L 985.0,1171.5 L 984.0,1172.5 L 983.0,1172.5 L 982.0,1173.5 L 981.0,1173.5 L 979.0,1175.5 L 971.0,1175.5 L 970.0,1176.5 L 969.0,1176.5 L 967.0,1178.5 L 966.0,1178.5 L 964.0,1180.5 L 963.0,1180.5 L 961.0,1182.5 L 953.0,1182.5 L 951.0,1184.5 L 950.0,1184.5 L 948.0,1186.5 L 947.0,1186.5 L 945.0,1188.5 L 944.0,1188.5 L 942.0,1190.5 L 939.0,1190.5 L 938.0,1191.5 L 935.0,1191.5 L 934.0,1192.5 L 931.0,1192.5 L 930.0,1193.5 L 911.0,1193.5 L 886.5,1169.0 L 886.5,1166.0 L 885.5,1165.0 L 885.5,1164.0 L 883.5,1162.0 L 883.5,1161.0 L 880.5,1158.0 L 880.5,1157.0 L 878.5,1155.0 L 878.5,1154.0 L 875.5,1151.0 L 875.5,1150.0 L 873.5,1148.0 L 873.5,1147.0 L 870.5,1144.0 L 870.5,1143.0 L 857.0,1129.5 L 851.0,1129.5 L 847.0,1133.5 L 840.0,1133.5 L 839.0,1132.5 L 814.0,1132.5 L 813.0,1131.5 L 788.0,1131.5 L 787.0,1130.5 L 762.0,1130.5 L 761.0,1129.5 L 755.0,1129.5 L 754.0,1130.5 L 751.0,1130.5 L 750.0,1131.5 L 747.0,1131.5 L 746.0,1132.5 L 743.0,1132.5 L 742.0,1133.5 L 741.0,1133.5 L 740.5,1134.0 L 740.5,1135.0 L 738.5,1137.0 L 738.5,1138.0 L 736.5,1140.0 L 736.5,1141.0 L 734.5,1143.0 L 734.5,1144.0 L 732.5,1146.0 L 732.5,1147.0 L 730.5,1149.0 L 730.5,1150.0 L 728.5,1152.0 L 728.5,1153.0 L 726.5,1155.0 L 726.5,1156.0 L 724.5,1158.0 L 724.5,1159.0 L 722.5,1161.0 L 722.5,1162.0 L 720.5,1164.0 L 720.5,1165.0 L 713.5,1172.0 L 713.5,1173.0 L 705.5,1181.0 L 705.5,1182.0 L 697.5,1190.0 L 697.5,1191.0 L 692.0,1196.5 Z" fill="currentColor" /><path d="M 825.5,995.0 L 826.0,994.5 L 830.0,994.5 L 831.0,993.5 L 835.0,993.5 L 836.0,992.5 L 840.0,992.5 L 841.0,991.5 L 845.0,991.5 L 846.0,990.5 L 850.0,990.5 L 851.0,989.5 L 855.0,989.5 L 856.0,988.5 L 859.0,988.5 L 860.0,987.5 L 861.0,987.5 L 862.0,986.5 L 863.0,986.5 L 864.0,985.5 L 865.0,985.5 L 866.0,984.5 L 867.0,984.5 L 868.0,983.5 L 869.0,983.5 L 870.0,982.5 L 871.0,982.5 L 872.0,981.5 L 873.0,981.5 L 874.0,980.5 L 875.0,980.5 L 876.0,979.5 L 877.0,979.5 L 878.0,978.5 L 879.0,978.5 L 880.0,977.5 L 881.0,977.5 L 882.0,976.5 L 883.0,976.5 L 884.0,975.5 L 885.0,975.5 L 886.0,974.5 L 887.0,974.5 L 888.0,973.5 L 889.0,973.5 L 890.0,972.5 L 891.0,972.5 L 892.0,971.5 L 893.0,971.5 L 894.0,970.5 L 895.0,970.5 L 896.0,969.5 L 897.0,969.5 L 898.0,968.5 L 899.0,968.5 L 900.0,967.5 L 901.0,967.5 L 902.0,966.5 L 903.0,966.5 L 904.0,965.5 L 905.0,965.5 L 906.0,964.5 L 907.0,964.5 L 908.0,963.5 L 909.0,963.5 L 910.0,962.5 L 911.0,962.5 L 912.0,961.5 L 913.0,961.5 L 957.5,917.0 L 957.5,916.0 L 958.5,915.0 L 958.5,914.0 L 960.5,912.0 L 960.5,911.0 L 961.5,910.0 L 961.5,909.0 L 962.5,908.0 L 962.5,907.0 L 964.5,905.0 L 964.5,904.0 L 965.5,903.0 L 965.5,902.0 L 966.5,901.0 L 966.5,900.0 L 968.5,898.0 L 968.5,897.0 L 969.5,896.0 L 969.5,895.0 L 970.5,894.0 L 970.5,893.0 L 972.5,891.0 L 972.5,890.0 L 973.5,889.0 L 973.5,888.0 L 974.5,887.0 L 974.5,886.0 L 976.5,884.0 L 976.5,883.0 L 977.5,882.0 L 977.5,881.0 L 978.5,880.0 L 978.5,879.0 L 980.5,877.0 L 980.5,876.0 L 981.5,875.0 L 981.5,874.0 L 982.5,873.0 L 982.5,872.0 L 984.5,870.0 L 984.5,869.0 L 985.5,868.0 L 985.5,864.0 L 986.5,863.0 L 986.5,859.0 L 987.5,858.0 L 987.5,854.0 L 988.5,853.0 L 988.5,849.0 L 989.5,848.0 L 989.5,844.0 L 990.5,843.0 L 990.5,839.0 L 991.5,838.0 L 991.5,834.0 L 992.5,833.0 L 992.5,829.0 L 993.5,828.0 L 993.5,824.0 L 994.5,823.0 L 994.5,819.0 L 995.5,818.0 L 995.5,785.0 L 994.5,784.0 L 994.5,779.0 L 993.5,778.0 L 993.5,774.0 L 992.5,773.0 L 992.5,768.0 L 991.5,767.0 L 991.5,763.0 L 990.5,762.0 L 990.5,757.0 L 989.5,756.0 L 989.5,752.0 L 988.5,751.0 L 988.5,748.0 L 987.5,747.0 L 987.5,745.0 L 986.5,744.0 L 986.5,742.0 L 985.5,741.0 L 985.5,739.0 L 984.5,738.0 L 984.5,736.0 L 983.5,735.0 L 983.5,733.0 L 982.5,732.0 L 982.5,730.0 L 981.5,729.0 L 981.5,727.0 L 980.5,726.0 L 980.5,724.0 L 979.5,723.0 L 979.5,721.0 L 978.5,720.0 L 978.5,717.0 L 976.5,715.0 L 976.5,714.0 L 973.5,711.0 L 973.5,710.0 L 971.5,708.0 L 971.5,707.0 L 968.5,704.0 L 968.5,703.0 L 966.5,701.0 L 966.5,700.0 L 963.5,697.0 L 963.5,696.0 L 961.5,694.0 L 961.5,693.0 L 958.5,690.0 L 958.5,689.0 L 956.5,687.0 L 956.5,686.0 L 953.5,683.0 L 953.5,682.0 L 951.5,680.0 L 951.5,679.0 L 948.5,676.0 L 948.5,675.0 L 946.5,673.0 L 946.5,672.0 L 943.5,669.0 L 943.5,668.0 L 940.0,664.5 L 939.0,664.5 L 932.0,657.5 L 931.0,657.5 L 924.0,650.5 L 923.0,650.5 L 916.0,643.5 L 915.0,643.5 L 913.0,641.5 L 912.0,641.5 L 911.0,640.5 L 910.0,640.5 L 908.0,638.5 L 907.0,638.5 L 906.0,637.5 L 905.0,637.5 L 904.0,636.5 L 903.0,636.5 L 902.0,635.5 L 901.0,635.5 L 900.0,634.5 L 899.0,634.5 L 898.0,633.5 L 897.0,633.5 L 895.0,631.5 L 894.0,631.5 L 893.0,630.5 L 892.0,630.5 L 891.0,629.5 L 890.0,629.5 L 889.0,628.5 L 888.0,628.5 L 887.0,627.5 L 886.0,627.5 L 885.0,626.5 L 884.0,626.5 L 882.0,624.5 L 881.0,624.5 L 880.0,623.5 L 879.0,623.5 L 878.0,622.5 L 877.0,622.5 L 876.0,621.5 L 875.0,621.5 L 874.0,620.5 L 873.0,620.5 L 872.0,619.5 L 871.0,619.5 L 869.0,617.5 L 866.0,617.5 L 865.0,616.5 L 862.0,616.5 L 861.0,615.5 L 858.0,615.5 L 857.0,614.5 L 854.0,614.5 L 853.0,613.5 L 850.0,613.5 L 849.0,612.5 L 846.0,612.5 L 845.0,611.5 L 842.0,611.5 L 841.0,610.5 L 838.0,610.5 L 837.0,609.5 L 834.0,609.5 L 833.0,608.5 L 830.0,608.5 L 829.0,607.5 L 826.0,607.5 L 825.0,606.5 L 777.0,606.5 L 776.0,607.5 L 773.0,607.5 L 772.0,608.5 L 769.0,608.5 L 768.0,609.5 L 765.0,609.5 L 764.0,610.5 L 761.0,610.5 L 760.0,611.5 L 757.0,611.5 L 756.0,612.5 L 753.0,612.5 L 752.0,613.5 L 749.0,613.5 L 748.0,614.5 L 745.0,614.5 L 744.0,615.5 L 741.0,615.5 L 740.0,616.5 L 737.0,616.5 L 736.0,617.5 L 734.0,617.5 L 733.0,618.5 L 732.0,618.5 L 731.0,619.5 L 730.0,619.5 L 729.0,620.5 L 728.0,620.5 L 727.0,621.5 L 726.0,621.5 L 725.0,622.5 L 724.0,622.5 L 723.0,623.5 L 722.0,623.5 L 721.0,624.5 L 720.0,624.5 L 719.0,625.5 L 718.0,625.5 L 717.0,626.5 L 716.0,626.5 L 715.0,627.5 L 714.0,627.5 L 713.0,628.5 L 712.0,628.5 L 711.0,629.5 L 710.0,629.5 L 709.0,630.5 L 708.0,630.5 L 707.0,631.5 L 706.0,631.5 L 705.0,632.5 L 704.0,632.5 L 703.0,633.5 L 702.0,633.5 L 701.0,634.5 L 700.0,634.5 L 699.0,635.5 L 698.0,635.5 L 694.0,639.5 L 693.0,639.5 L 690.0,642.5 L 689.0,642.5 L 685.0,646.5 L 684.0,646.5 L 681.0,649.5 L 680.0,649.5 L 676.0,653.5 L 675.0,653.5 L 672.0,656.5 L 671.0,656.5 L 660.5,667.0 L 660.5,668.0 L 653.5,675.0 L 653.5,676.0 L 646.5,683.0 L 646.5,684.0 L 641.5,689.0 L 641.5,690.0 L 640.5,691.0 L 640.5,692.0 L 639.5,693.0 L 639.5,694.0 L 638.5,695.0 L 638.5,696.0 L 637.5,697.0 L 637.5,698.0 L 636.5,699.0 L 636.5,700.0 L 635.5,701.0 L 635.5,702.0 L 634.5,703.0 L 634.5,704.0 L 633.5,705.0 L 633.5,706.0 L 632.5,707.0 L 632.5,708.0 L 631.5,709.0 L 631.5,710.0 L 630.5,711.0 L 630.5,712.0 L 629.5,713.0 L 629.5,714.0 L 628.5,715.0 L 628.5,716.0 L 627.5,717.0 L 627.5,718.0 L 626.5,719.0 L 626.5,720.0 L 625.5,721.0 L 625.5,722.0 L 624.5,723.0 L 624.5,724.0 L 623.5,725.0 L 623.5,726.0 L 622.5,727.0 L 622.5,728.0 L 621.5,729.0 L 621.5,730.0 L 620.5,731.0 L 620.5,732.0 L 619.5,733.0 L 619.5,734.0 L 618.5,735.0 L 618.5,736.0 L 617.5,737.0 L 617.5,738.0 L 616.5,739.0 L 616.5,740.0 L 615.5,741.0 L 615.5,742.0 L 614.5,743.0 L 614.5,745.0 L 613.5,746.0 L 613.5,749.0 L 612.5,750.0 L 612.5,754.0 L 611.5,755.0 L 611.5,759.0 L 610.5,760.0 L 610.5,764.0 L 609.5,765.0 L 609.5,769.0 L 608.5,770.0 L 608.5,774.0 L 607.5,775.0 L 607.5,779.0 L 606.5,780.0 L 606.5,826.0 L 607.5,827.0 L 607.5,830.0 L 608.5,831.0 L 608.5,834.0 L 609.5,835.0 L 609.5,838.0 L 610.5,839.0 L 610.5,842.0 L 611.5,843.0 L 611.5,846.0 L 612.5,847.0 L 612.5,850.0 L 613.5,851.0 L 613.5,854.0 L 614.5,855.0 L 614.5,858.0 L 615.5,859.0 L 615.5,862.0 L 616.5,863.0 L 616.5,866.0 L 617.5,867.0 L 617.5,869.0 L 618.5,870.0 L 618.5,871.0 L 619.5,872.0 L 619.5,873.0 L 620.5,874.0 L 620.5,875.0 L 621.5,876.0 L 621.5,877.0 L 622.5,878.0 L 622.5,879.0 L 623.5,880.0 L 623.5,881.0 L 624.5,882.0 L 624.5,883.0 L 625.5,884.0 L 625.5,885.0 L 626.5,886.0 L 626.5,887.0 L 627.5,888.0 L 627.5,889.0 L 628.5,890.0 L 628.5,891.0 L 629.5,892.0 L 629.5,893.0 L 630.5,894.0 L 630.5,895.0 L 631.5,896.0 L 631.5,897.0 L 633.5,899.0 L 633.5,900.0 L 635.5,902.0 L 635.5,903.0 L 637.5,905.0 L 637.5,906.0 L 639.5,908.0 L 639.5,909.0 L 641.5,911.0 L 641.5,912.0 L 643.5,914.0 L 643.5,915.0 L 645.5,917.0 L 645.5,918.0 L 688.0,960.5 L 690.0,960.5 L 691.0,961.5 L 693.0,961.5 L 694.0,962.5 L 696.0,962.5 L 697.0,963.5 L 698.0,963.5 L 706.0,971.5 L 707.0,971.5 L 708.0,972.5 L 709.0,972.5 L 710.0,973.5 L 711.0,973.5 L 712.0,974.5 L 713.0,974.5 L 714.0,975.5 L 715.0,975.5 L 716.0,976.5 L 717.0,976.5 L 718.0,977.5 L 719.0,977.5 L 720.0,978.5 L 721.0,978.5 L 722.0,979.5 L 723.0,979.5 L 724.0,980.5 L 725.0,980.5 L 726.0,981.5 L 728.0,981.5 L 729.0,982.5 L 731.0,982.5 L 732.0,983.5 L 734.0,983.5 L 735.0,984.5 L 737.0,984.5 L 738.0,985.5 L 740.0,985.5 L 741.0,986.5 L 743.0,986.5 L 744.0,987.5 L 746.0,987.5 L 747.0,988.5 L 749.0,988.5 L 750.0,989.5 L 752.0,989.5 L 753.0,990.5 L 755.0,990.5 L 756.0,991.5 L 758.0,991.5 L 759.0,992.5 L 763.0,992.5 L 764.0,993.5 L 768.0,993.5 L 769.0,994.5 L 773.0,994.5 L 774.0,995.5 L 825.0,995.5 L 825.5,995.0 Z" fill="currentColor" />
</svg>