<?xml version="1.0" encoding="utf-8"?>
<!-- Generator: Adobe Illustrator 22.1.0, SVG Export Plug-In . SVG Version: 6.00 Build 0)  -->
<svg version="1.1" xmlns="http://www.w3.org/2000/svg" xmlns:xlink="http://www.w3.org/1999/xlink" x="0px" y="0px"
	 viewBox="0 0 1174 459" style="enable-background:new 0 0 1174 459;" xml:space="preserve">
<style type="text/css">
	.st0{fill:#4B0082;}
	.st1{fill:none;stroke:#4B0082;stroke-width:15;stroke-miterlimit:10;}
</style>
<g id="Capa_1">
	
		<image style="display:none;overflow:visible;" width="678" height="293" xlink:href="Tarifas.jpg"  transform="matrix(1.8525 0 0 1.8525 -34 -32.1077)">
	</image>
	<g>
		<path class="st0" d="M586,0c-85.6,0-155,69.4-155,155s69.4,155,155,155s155-69.4,155-155S671.6,0,586,0z M667.9,165.8
			c-1.9,15.6-8.4,29.8-18.1,42.1c-3.9,5.2-8.4,9.7-13.6,13.6c-17.5,13.6-38.9,19.4-60.9,16.8c-21.4-3.2-40.8-14.9-54.4-32.4
			c-13.6-17.5-19.4-38.9-16.8-60.9c0-3.9,3.2-6.5,7.1-5.8c3.9,0.6,6.5,3.9,5.8,7.8c-2.6,18.2,2.6,36.3,13.6,50.5
			c11.7,14.9,27.9,24.6,46,27.2c18.1,2,36.3-2.6,51.2-14.3c4.5-3.2,8.4-7.1,11.7-11c7.8-10.4,13-22.7,14.9-35.6
			c2.6-18.1-2.6-36.9-13.6-51.8c-11.7-14.9-27.9-24.6-46-27.2c-17.5-2.6-35,1.9-49.3,12.3l6.5,6.5c1.9,1.9,1.3,3.9-1.3,3.9l-22.7,2
			c-1.9,0-3.9-2-3.9-4.5l2-22.7c0.7-2.6,1.9-3.2,3.9-1.3l6.5,6.5c17.5-13.6,38.9-18.8,60.3-16.2c21.4,3.2,40.8,14.9,54.4,32.4
			C664.7,121.8,670.5,143.8,667.9,165.8z M630.3,176.2c3.2,1.3,3.9,4.5,2.6,7.1c-0.6,1.9-2.6,3.2-4.5,3.2c-0.7,0-1.9,0-2.6-0.7
			L577.2,160v-54.4c0-2.6,1.9-5.2,5.2-5.2s5.2,2.6,4.5,5.2v48L630.3,176.2z"/>
	</g>
	<g>
		<path class="st0" d="M212.5,228H93.6v0c-2,0-3.6,1.6-3.6,3.6v142.8c0,2,1.6,3.6,3.6,3.6h118.8c2,0,3.6-1.6,3.6-3.6V231.6
			C216.1,229.6,214.5,228,212.5,228z M170.5,324.6c0,1.8-1.4,3.2-3.2,3.2h-64.9c-1.8,0-3.2-1.4-3.2-3.2v-0.6c0-1.8,1.4-3.2,3.2-3.2
			h64.9c1.8,0,3.2,1.4,3.2,3.2V324.6z M170.5,290.3c0,1.8-1.4,3.2-3.2,3.2h-64.9c-1.8,0-3.2-1.4-3.2-3.2v-0.5c0-1.8,1.4-3.2,3.2-3.2
			h64.9c1.8,0,3.2,1.4,3.2,3.2V290.3z M170.5,256.5c0,1.8-1.4,3.2-3.2,3.2h-64.9c-1.8,0-3.2-1.4-3.2-3.2V256c0-1.8,1.4-3.2,3.2-3.2
			h64.9c1.8,0,3.2,1.4,3.2,3.2V256.5z M207.1,316.7l-12.6,17.5c-0.3,0.4-0.7,0.7-1.3,1l-0.1,0l-0.1,0.1c-0.4,0.4-0.9,0.6-1.5,0.6
			c-0.5,0-1.1-0.2-1.5-0.5l-7.3-5.3c-0.6-0.4-1-1-1.1-1.7c-0.1-0.7,0-1.4,0.4-2c0.5-0.7,1.3-1.1,2.2-1.1c0.5,0,1.1,0.2,1.5,0.5
			l5.5,3.9l11.5-15.9c0.5-0.7,1.3-1.2,2.2-1.2c0.6,0,1.1,0.2,1.5,0.5c0.7,0.5,1.1,1.4,1.1,2.2C207.6,315.7,207.4,316.3,207.1,316.7z
			 M207.1,283l-12.5,17.4c0,0.1-0.1,0.1-0.1,0.1l-0.1,0.1l0,0.1l0,0c0,0-0.1,0.1-0.1,0.1c-0.5,0.7-1.3,1.1-2.2,1.1
			c-0.5,0-1.1-0.2-1.5-0.5l-7.3-5.3c-1.2-0.8-1.5-2.6-0.6-3.8c0.5-0.7,1.3-1.1,2.2-1.1c0.6,0,1.1,0.2,1.6,0.5l5.1,3.7l11.3-15.7
			c0.5-0.7,1.3-1.1,2.2-1.1c0.6,0,1.1,0.2,1.6,0.5c0.7,0.5,1.1,1.4,1.1,2.2C207.6,282,207.4,282.5,207.1,283z M207.1,249.1
			l-12.5,17.4c0,0.1-0.1,0.1-0.1,0.1l-0.1,0.1l0,0.1l0,0c0,0-0.1,0.1-0.1,0.1c-0.5,0.7-1.3,1.1-2.2,1.1c-0.5,0-1.1-0.2-1.5-0.5
			l-7.3-5.3c-1.2-0.9-1.5-2.6-0.6-3.8c0.5-0.7,1.3-1.1,2.2-1.1c0.6,0,1.1,0.2,1.6,0.5l5.1,3.7l11.3-15.7c0.5-0.7,1.3-1.1,2.2-1.1
			c0.6,0,1.1,0.1,1.6,0.5c0.7,0.5,1.1,1.4,1.1,2.2C207.6,248.1,207.4,248.6,207.1,249.1z"/>
	</g>
	<g>
		<path class="st0" d="M153,149C67.4,149-2,218.4-2,304s69.4,155,155,155s155-69.4,155-155S238.6,149,153,149z M225,375
			c0,6.6-5.3,11.9-11.9,11.9H92.9v0c-6.6,0-11.9-5.4-11.9-12V231.9c0-6.6,5.3-11.9,11.9-11.9H213c6.6,0,12,5.3,12,11.9V375z"/>
	</g>
	<g>
		<polygon class="st0" points="997.9,377.1 997.9,377.1 997.9,377.1 		"/>
	</g>
	<g>
		<path class="st0" d="M1083.6,234.7H955.3c-5.6,0-10.1,4.5-10.1,10.1v96.7c0,5.6,4.5,10.1,10.1,10.1h42.7v25.5l34.2-25.5h51.5
			c5.6,0,10.1-4.5,10.1-10.1v-96.7C1093.7,239.3,1089.2,234.7,1083.6,234.7z M1019,333.7c-4.3,0-7.7-3.5-7.7-7.7
			c0-4.3,3.4-7.7,7.7-7.7c4.3,0,7.7,3.5,7.7,7.7C1026.7,330.2,1023.2,333.7,1019,333.7z M1043.9,286.3c-2.8,3.7-7,6.5-10.7,9
			c-2.6,1.7-4.8,3.2-6.1,4.6c-2.3,2.6-2.6,4.5-2.8,6.2c-0.1,0.7-0.2,1.4-0.4,2.1c-0.5,1.8-1.7,2.1-2.4,2.1c-0.1,0-0.2,0-0.2,0h-4.8
			c-2.6,0-2.7-1.5-2.7-1.5v-0.2l-0.1-0.1c0-0.1-0.3-0.8-0.3-3.6c0-3,1.2-6,3.8-9.5c1.3-1.8,5.9-5.2,10-8.3c2.9-2.2,5.6-4.2,6.7-5.3
			c1.6-1.6,2.4-4.6,2-7.6c-0.5-3.4-2.5-6.2-5.6-8c-4-2.2-8.6-2.7-11.8-2.7c-2.6,0-4.4,0.3-4.4,0.3c-0.3,0-7.6,1.3-11.6,6.4
			c-1.4,1.8-2.8,2.7-4.2,2.7c-1.3,0-2.2-0.8-2.2-0.8l0,0l-1.9-1.6c-1.8-1.3-2.4-2.3-2.5-3c-0.1-0.7,0.2-1.1,0.2-1.1l0.1-0.1l0-0.1
			c0,0,0.5-1.6,4.9-5.6c4.1-3.8,9.6-7.8,22-7.8c1.1,0,2.2,0,3.4,0.1c14,0.7,19.1,8.5,21.6,12.2l0.3,0.4
			C1046.4,269,1048.5,280.1,1043.9,286.3z"/>
	</g>
	<g>
		<path class="st0" d="M1019,149c-85.6,0-155,69.4-155,155s69.4,155,155,155s155-69.4,155-155S1104.6,149,1019,149z M1103,340.9
			c0,11.1-9,20-20,20h-47.7l-0.1,0.1c-5.3,4.1-32.2,24.8-39.7,30.3c-1.5,1.2-2.8,1.7-3.8,1.7c-0.7,0-1.3-0.3-1.7-0.7
			c-1.8-1.8-1.6-6.3-1.6-6.3v-25.1H955c-11,0-20-8.9-20-20V245c0-11,9-20,20-20h128c11.1,0,20,9,20,20V340.9z"/>
	</g>
	<line class="st1" x1="245.5" y1="262.5" x2="483.5" y2="156.5"/>
	<line class="st1" x1="684.5" y1="154.5" x2="912.5" y2="256.5"/>
</g>
<g id="Capa_2">
</g>
<g id="Capa_3">
</g>
<g id="Capa_4">
</g>
</svg>
