<?xml version="1.0" encoding="utf-8"?>
<!-- Generator: Adobe Illustrator 22.1.0, SVG Export Plug-In . SVG Version: 6.00 Build 0)  -->
<svg version="1.1" id="Capa_2" xmlns="http://www.w3.org/2000/svg" xmlns:xlink="http://www.w3.org/1999/xlink" x="0px" y="0px"
	 viewBox="0 0 390 406.6" style="enable-background:new 0 0 390 406.6;" xml:space="preserve">
<style type="text/css">
	.st0{fill:currentColor;}
</style>
<path class="st0" d="M217.8,406.6c-1.7,0-4.3-0.1-7.7-0.3l-0.7,0c-8.8-0.6-22.3-2.2-36.7-6.3c-3.7-1.1-7.5-2.3-11-3.6
	c-29.1-11-29.4-30.7-29.4-31.6V249.8l-0.1-0.3l0-0.6c0-1.1,1.1-26.2,50.4-35.1c10.3-1.9,22.1-2.9,35.2-3.1c0,0,0.9,0,1.2,0v-72.4
	l-0.1-0.3l0-0.7c0-1.1,1.1-26.2,50.4-35.1c10.3-1.9,22.1-2.9,35.2-3.1h0.2c12.9,0.2,24.6,1.2,34.8,3h0.7l0.4,0.2
	c48.5,9,49.6,33.9,49.6,35l0,0.7l-0.1,0.3v189.5c0,0.8-0.3,20.5-29.4,31.6c-3.6,1.3-7.3,2.6-11,3.6c-14.4,4.1-27.9,5.7-36.7,6.3
	l-0.7,0c-3.2,0.2-5.6,0.2-7.4,0.3l-0.3,0c-0.5,0-1.1,0-1.9,0c-1.8,6.7-8,18.9-28.7,26.7c-3.6,1.3-7.3,2.6-11,3.6
	c-14.4,4.1-27.9,5.7-36.6,6.3l-0.7,0c-3.5,0.2-6.3,0.2-7.4,0.3H217.8L217.8,406.6z M154,364.1c0.1,0.5,1.3,4.8,12.1,9.7
	c14.5,6.6,23.2,7.4,23.2,7.4l0.4,0l0.4,0.1c0,0,4.4,1.1,13.3,1.8c4.3,0.4,9,0.6,14,0.8c5-0.1,9.7-0.4,14-0.8
	c8.9-0.8,13.3-1.8,13.3-1.9l0.4-0.1l0.4,0c0.1,0,8.8-0.8,23.2-7.4c10.8-4.9,12-9.2,12.1-9.7v-8.3c-5.6,3.1-11.3,5.3-18.9,7.2
	c-4,1-8.3,1.9-13.6,3c-10.6,2.1-22.5,2.8-30.7,2.9h-0.2c-8.2-0.2-20.1-0.8-30.7-2.9c-6.4-1.3-11.3-2.3-15.7-3.5l-0.1,0
	c-3.1-0.9-6.2-2-9.1-3.1c-1.2-0.5-2.4-0.9-3.5-1.4l-0.1-0.1c-1.3-0.6-2.7-1.3-4-2V364.1z M304,347c5-0.1,9.7-0.4,14-0.8
	c8.9-0.8,13.3-1.8,13.3-1.9l0.4-0.1l0.4,0c0.1,0,8.8-0.8,23.2-7.4c10.8-4.9,12-9.2,12.1-9.7v-8.3c-9.7,5.4-18.7,7.4-32.5,10.2
	c-10.6,2.1-22.5,2.8-30.7,2.9h-0.2c-0.2,0-0.5,0-0.7,0v15C303.5,347,303.8,347,304,347z M154,327.2c0.1,0.6,1.4,4.8,12.1,9.7
	c14.5,6.6,23.2,7.4,23.2,7.4l0.4,0l0.4,0.1c0,0,4.4,1.1,13.3,1.8c4.3,0.4,9,0.6,14,0.8c5-0.1,9.7-0.4,14-0.8c3-0.3,5.7-0.6,8.2-0.9
	c3.4-0.5,5.1-0.9,5.1-0.9l0.4-0.1l0.4,0c0,0,5-0.5,13.7-3.5c3.1-1.1,6.4-2.4,9.6-3.9c10.8-4.9,12-9.2,12.1-9.7v-8.3
	c-5.6,3.1-11.3,5.3-18.8,7.1c-3.9,1-8.3,1.9-13.7,3c-3.6,0.7-7.5,1.3-11.8,1.8c-3.8,0.4-7.9,0.7-12.4,0.9c-2.1,0.1-4.2,0.2-6.5,0.2
	h-0.2c-8.2-0.2-20.1-0.8-30.7-2.9c-6.4-1.3-11.2-2.3-15.6-3.5l-0.1,0l-0.1,0c-3.1-0.9-6.2-2-9.1-3.1c-1.2-0.4-2.3-0.9-3.5-1.4
	l-0.2-0.1l-0.1-0.1c-1.3-0.6-2.6-1.3-3.8-2V327.2z M304,310.1c5-0.1,9.7-0.4,14-0.8c8.9-0.8,13.3-1.8,13.3-1.9l0.4-0.1l0.4,0
	c0.1,0,8.8-0.8,23.2-7.4c10.8-4.9,12-9.2,12.1-9.7v-8.3c-9.7,5.4-18.7,7.4-32.5,10.2c-10.6,2.1-22.5,2.8-30.7,2.9h-0.2
	c-0.2,0-0.5,0-0.7,0v15C303.5,310,303.8,310,304,310.1z M154,290.2c0.1,0.6,1.4,4.8,12.1,9.7c14.5,6.6,23.2,7.4,23.2,7.4l0.4,0
	l0.4,0.1c0,0,4.4,1.1,13.3,1.8c4.3,0.4,9,0.6,14,0.8c2.3-0.1,4.3-0.1,6.1-0.2c2.6-0.1,5.2-0.3,7.8-0.5c1.4-0.1,2.8-0.3,4-0.4
	c1.6-0.2,3.2-0.4,4.5-0.6c3.2-0.5,4.8-0.9,4.8-0.9l0.4-0.1l0.4,0c0,0,5-0.5,13.7-3.5c3.1-1.1,6.4-2.4,9.6-3.9
	c10.8-4.9,12-9.2,12.1-9.7v-8.3c-5.6,3.1-11.3,5.3-18.8,7.1c-3.9,1-8.3,1.9-13.7,3c-3.6,0.7-7.5,1.3-11.8,1.8
	c-3.8,0.4-7.9,0.7-12.4,0.9c-2.1,0.1-4.2,0.2-6.5,0.2h-0.2c-8.2-0.2-20.1-0.8-30.7-2.9c-13.9-2.8-22.8-4.8-32.5-10.2V290.2z
	 M304,273.1c5-0.1,9.7-0.4,14-0.8c8.9-0.8,13.3-1.8,13.3-1.9l0.4-0.1l0.4,0c0.1,0,8.8-0.8,23.2-7.4c10.8-4.9,12-9.2,12.1-9.7v-8.5
	c-2.2,1.1-4.5,2.1-6.9,3c-3.6,1.3-7.3,2.6-11,3.6c-13.4,3.9-26.1,5.5-34.5,6.1l-0.2,0.1l-0.6,0c-2.5,0.2-5.1,0.3-8,0.4l-2.2,0
	c-0.2,0-0.5,0-0.7,0v15C303.5,273.1,303.8,273.1,304,273.1z M218,232.8c-38.9,0-63.6,11.7-63.6,19.7c0,8,24.8,19.7,63.6,19.7
	c1.9,0,3.8,0,5.6-0.1c4-0.1,7.9-0.4,11.7-0.7c1.3-0.1,2.7-0.3,4-0.4c7.5-0.9,14.4-2.3,20.5-4c14.7-4.3,20.9-9.8,21.7-13.5
	c0.1-0.3,0.1-0.6,0.1-1v-0.1c0-0.3,0-0.6-0.1-0.8c-0.8-3.4-5.7-7.3-13.1-10.5c-3.8-1.6-8.3-3.1-13.4-4.3c-9.3-2.3-20.2-3.6-31.5-4
	C221.8,232.8,219.9,232.8,218,232.8z M297.5,235.2c2.1,0.1,4.3,0.2,6.6,0.3c5-0.1,9.7-0.4,14-0.8c8.9-0.8,13.3-1.8,13.3-1.9l0.4-0.1
	l0.4,0c0.1,0,8.8-0.8,23.2-7.4c10.8-4.9,12-9.2,12.1-9.7v-8.3c-9.7,5.4-18.7,7.4-32.5,10.2c-10.6,2.1-22.5,2.8-30.7,2.9h-0.2
	c-8.2-0.2-20.1-0.8-30.7-2.9c-6.4-1.3-11.3-2.3-15.7-3.5l-0.1,0c-3.1-0.9-6.2-2-9.1-3.1c-1.2-0.4-2.4-0.9-3.5-1.4l-0.1-0.1
	c-1.3-0.6-2.7-1.3-4-2v4.6c4.1,0.4,8.1,1,11.8,1.7h0.8l0.4,0.2C279.2,218.6,291.5,227.7,297.5,235.2z M240.7,178.7
	c0.1,0.6,1.4,4.8,12.1,9.7c14.5,6.6,23.2,7.4,23.2,7.4l0.4,0l0.4,0.1c0,0,4.4,1.1,13.3,1.8c4.3,0.4,9,0.6,14,0.8
	c5-0.1,9.7-0.4,14-0.8c8.9-0.8,13.3-1.8,13.3-1.9l0.4-0.1l0.4,0c0.1,0,8.8-0.8,23.2-7.4c10.8-4.9,12-9.2,12.1-9.7v-8.3
	c-9.7,5.4-18.7,7.4-32.5,10.2c-10.6,2.1-22.5,2.8-30.7,2.9h-0.2c-8.2-0.2-20.1-0.8-30.7-2.9c-13.9-2.8-22.8-4.8-32.5-10.2V178.7z
	 M304.7,121.2c-38.9,0-63.6,11.7-63.6,19.7c0,8,24.8,19.7,63.6,19.7c34.9,0,61.5-9.9,63.5-18.8c0.1-0.3,0.1-0.6,0.1-1
	c0-0.3,0-0.6-0.1-0.9C366.2,131.1,339.6,121.2,304.7,121.2z"/>
<path class="st0" d="M28.7,174.7c-3.1,0-6-1.2-8.2-3.4l-2.3-2.3c-4.5-4.5-4.5-11.8,0-16.4L162,8.9c2.2-2.2,5.1-3.4,8.2-3.4
	c3.1,0,6,1.2,8.2,3.4l2.3,2.3c2.2,2.2,3.4,5.1,3.4,8.2c0,3.1-1.2,6-3.4,8.2L36.8,171.3C34.7,173.5,31.8,174.7,28.7,174.7z"/>
<path class="st0" d="M150.6,183.1c-23.3,0-42.2-18.9-42.2-42.2s18.9-42.2,42.2-42.2s42.2,18.9,42.2,42.2S173.8,183.1,150.6,183.1z
	 M150.6,124.5c-9,0-16.4,7.4-16.4,16.4c0,9,7.4,16.4,16.4,16.4c9,0,16.4-7.4,16.4-16.4C167,131.9,159.6,124.5,150.6,124.5z"/>
<path class="st0" d="M42.6,84.3c-23.3,0-42.2-18.9-42.2-42.2S19.3,0,42.6,0s42.2,18.9,42.2,42.2S65.8,84.3,42.6,84.3z M42.6,25.8
	c-9,0-16.4,7.4-16.4,16.4c0,9,7.4,16.4,16.4,16.4c9,0,16.4-7.4,16.4-16.4C59,33.1,51.6,25.8,42.6,25.8z"/>
</svg>