<?xml version="1.0" encoding="utf-8"?>
<!-- Generator: Adobe Illustrator 22.1.0, SVG Export Plug-In . SVG Version: 6.00 Build 0)  -->
<svg version="1.1" id="Capa_1" xmlns="http://www.w3.org/2000/svg" xmlns:xlink="http://www.w3.org/1999/xlink" x="0px" y="0px"
	 viewBox="0 0 286 385" style="enable-background:new 0 0 286 385;" xml:space="preserve">
<style type="text/css">
	.st0{fill:currentColor;}
</style>
<g id="Hoja">
	<path class="st0" d="M183.6,371.2c-26.6,0-50.1,0-50.1,0H37.3C37,371.2,0,370.7,0,329.1L0,36.3C0,35.9,2,0.1,38.8,0.1h137.9
		c0.3,0,0.9-0.1,1.9-0.1c6.1,0,22,1.6,36.6,16.2l52.3,52.3c0.5,0.5,12.3,12.5,12.3,25v243.9L251.3,309v-189h-68.3
		c-7.6,0-13.5-2.3-17.6-6.9c-6.4-7.2-5.6-17.5-5.5-19.2V28.6H40.2c-4.5,0-7.8,1-9.6,2.9c-1.8,1.9-1.7,4.2-1.7,4.2l0,0.2v296
		c0,4.2,1.1,7.2,3.4,8.8c1.9,1.4,4.2,1.6,5.5,1.6c0.6,0,1,0,1,0l0.2,0l162.7,0l29,29l-7.4,0C211,371.2,196.9,371.2,183.6,371.2z
		 M248.8,91l-60-60v60H248.8z"/>
	<path class="st0" d="M140.1,66.4c0,0,1,4.8-5.7,4.8h-23.8c-15.4,0-32.4,0-32.4,0H54.5c-6.7,0-5.7-4.8-5.7-4.8V53.1
		c0,0-1-4.8,5.7-4.8h23.8c0,0,16.9,0,32.4,0h23.8c6.7,0,5.7,4.8,5.7,4.8V66.4z"/>
	<path class="st0" d="M140.1,112.1c0,0,1,4.8-5.7,4.8h-23.8c-15.4,0-32.4,0-32.4,0H54.5c-6.7,0-5.7-4.8-5.7-4.8V98.8
		c0,0-1-4.8,5.7-4.8h23.8c0,0,16.9,0,32.4,0h23.8c6.7,0,5.7,4.8,5.7,4.8V112.1z"/>
</g>
<g id="Lupa">
	<path class="st0" d="M284,354.9L224.2,295c-2.6-2.6-6.8-2.6-9.3,0l-1.4,1.4l-5-5c11.5-14.9,18.4-33.6,18.4-53.9
		c0-48.9-39.9-88.5-89-88.5s-89,39.6-89,88.5s39.9,88.5,89,88.5c20.3,0,39-6.8,54-18.2l5.1,5.1l-0.9,0.9c-2.6,2.6-2.6,6.8,0,9.3
		l59.9,59.9c2.6,2.6,6.8,2.6,9.3,0l18.8-18.8C286.6,361.7,286.6,357.5,284,354.9z M137.7,304c-36.8,0-66.7-29.7-66.7-66.4
		c0-36.6,29.9-66.4,66.7-66.4s66.7,29.7,66.7,66.4C204.5,274.2,174.6,304,137.7,304z"/>
	<path class="st0" d="M135.2,293.6c-8.9,0-17-2-24.3-6c-20.7-11.4-26.5-35-26.7-36c-0.8-3,1.1-6.2,4.3-6.9c3-0.8,6.1,1.1,6.9,4.2
		c0.1,0.2,4.9,19.7,21.2,28.6c10.6,5.8,23.9,6.1,39.6,0.7c3-1,6.2,0.6,7.2,3.5c1,3-0.6,6.2-3.5,7.2
		C151.1,292.1,142.9,293.6,135.2,293.6z"/>
</g>
</svg>