<?xml version="1.0" encoding="utf-8"?>
<!-- Generator: Adobe Illustrator 24.0.1, SVG Export Plug-In . SVG Version: 6.00 Build 0)  -->
<svg version="1.1" id="Capa_1" xmlns="http://www.w3.org/2000/svg" xmlns:xlink="http://www.w3.org/1999/xlink" x="0px" y="0px"
	 viewBox="0 0 397.3 256.6" style="enable-background:new 0 0 397.3 256.6;" xml:space="preserve">
<style type="text/css">
	.st0{fill:currentColor;}
</style>
<path class="st0" d="M196.2,3.3C93.8,3.3,10.2,119.1,3.7,128.4c7.3,9.7,95.2,124.8,197.4,124.8c102.3,0,185.7-115.2,192.6-124.9
	C386.8,119.1,298.8,3.3,196.2,3.3z M199.8,227.4c-84.2,0-156.6-91.3-162.6-99.1c5.4-7.3,74.2-99.2,158.6-99.2
	c84.5,0,157,91.8,162.7,99.2C352.8,136.1,284.1,227.4,199.8,227.4z"/>
<path class="st0" d="M198.5,53.1c-41.5,0-75.2,33.7-75.2,75.2c0,41.6,33.7,75.2,75.2,75.2c41.6,0,75.2-33.7,75.2-75.2
	C273.7,86.9,240,53.1,198.5,53.1z M215.7,121.7c-8.3,0-15.1-6.8-15.1-15.1s6.8-15.1,15.1-15.1s15.1,6.8,15.1,15.1
	S224.1,121.7,215.7,121.7z"/>
</svg>