<?xml version="1.0" encoding="utf-8"?>
<!-- Generator: Adobe Illustrator 22.1.0, SVG Export Plug-In . SVG Version: 6.00 Build 0)  -->
<svg version="1.1" xmlns="http://www.w3.org/2000/svg" xmlns:xlink="http://www.w3.org/1999/xlink" x="0px" y="0px"
	 viewBox="0 0 386.6 395" style="enable-background:new 0 0 386.6 395;" xml:space="preserve">
<style type="text/css">
	.st0{fill:currentColor;}
</style>
<g id="Capa_1">
</g>
<g id="Capa_2">
	<path class="st0" d="M192.1,390c-7.7,0-15.5-0.4-23.2-1.4c-48.8-7.4-92.9-33.7-124.1-74.1C14,275.1,0.4,225.7,6.3,175.5
		c0-8.4,6.4-14.8,14.8-14.8c1,0,1.9,0.1,2.9,0.3c9.7,1.6,15.9,9.9,14.3,19.2c-5.6,39.6,5.5,81.1,30.6,113.6
		c26.3,33.7,63,55.4,103.3,61.2c6,0.7,12.1,1,18.1,1c35.7,0,69.1-11.4,96.7-33.1c9.2-6.6,18-15,26.2-24.8
		c17.6-23.5,29.1-51.2,33.5-80.2c5.8-40-5.5-82.6-30.6-116.6c-26.3-33.7-63-55.4-103.3-61.2c-7.1-1.1-14.5-1.6-21.7-1.6
		c-31.3,0-61.4,9.7-87.5,28.4l13.6,13.6c2.6,2.6,3.6,5.5,2.6,7.8c-0.8,2.2-3.3,3.4-6.4,3.4l-51.2,4.4c-5.1,0-10.3-4.7-10.3-11.7
		l4.4-51.7v-0.1c1.1-4.4,3-6.6,5.6-6.6c1.6,0,3.6,1,5.5,3l13.9,13.9C113.3,18,152.1,5,193.6,5c8,0,16,0.5,24.1,1.5
		c48.7,7.4,92.9,33.7,124.1,74.1c30.7,41,44.3,91.5,38.4,142.1C376,257.2,362,289.6,339,319c-8.8,11.8-19.3,22.2-31,31.1
		C274.2,376.3,234.3,390,192.1,390L192.1,390z"/>
	<path class="st0" d="M185.2,74.1c-7.3,0-11.8,5.9-11.8,11.8v123.6l110,58.8c1.5,1.5,4.4,1.5,5.9,1.5c4.4,0,8.8-2.9,10.3-7.4
		c2.9-5.9,1.5-13.2-5.9-16.2l-98.2-51.6V85.9C196.9,80,192.5,74.1,185.2,74.1z"/>
</g>
</svg>