<svg xmlns="http://www.w3.org/2000/svg" viewBox="0 0 517.8 197.71"><defs><style>.cls-1{fill:#333;}.cls-2{fill:#662d91;}</style></defs><title>logo_min</title><g id="Capa_2" data-name="Capa 2"><g id="Capa_1-2" data-name="Capa 1"><path class="cls-1" d="M126.5,118.5c4.9,0,6.7,3.9,3.5,8.4-13.3,18.5-33.9,30.2-57,30.2-40.1,0-73-35.6-73-79.4C0,35.7,32.9,0,73,0c22.7,0,43.1,11.6,56.4,29.4,3.3,4.5,1.2,8.4-3.9,8.4h-3.7a9.65,9.65,0,0,1-7.8-3.6C103.6,22.8,89.1,15.7,73.1,15.7c-32.3,0-58.2,28.3-58.2,62,0,35.4,25.8,63.7,58.2,63.7a54.49,54.49,0,0,0,41.3-19.1c2.4-2.8,4.5-3.9,7.8-3.9h4.3Z"/><path class="cls-2" d="M126.7,188.8c0-4.3,2.4-6.4,6.7-7.1,23-2.4,36.3-18,36.3-42.7V8.6c0-4.5,2.4-6.9,6.9-6.9h1.9c4.5,0,6.9,2.4,6.9,6.9V139.1c0,34.5-18.9,55.8-51.5,58.6-4.5.2-7.1-2.4-7.1-6.9v-2Z"/><path class="cls-2" d="M209.9,108a48.9,48.9,0,1,1,97.8,0c0,26.4-22.1,49.3-48.9,49.3S209.9,134.4,209.9,108Zm15,0c0,18.7,14.8,35.2,33.9,35.2s33.9-16.5,33.9-35.2c0-19.1-14.8-34.8-33.9-34.8S224.9,88.9,224.9,108Z"/><path class="cls-2" d="M337.1,155c-4.5,0-6.9-2.4-6.9-6.9V8.6c0-4.5,2.4-6.9,6.9-6.9h.6c4.5,0,6.9,2.4,6.9,6.9V76a46.1,46.1,0,0,1,35.6-16.9A49.17,49.17,0,0,1,429.1,108c0,26.4-22.1,49.3-48.9,49.3-14.4,0-27-6.9-35.6-17.4v8.2c0,4.5-2.4,6.9-6.9,6.9Zm77.1-47c0-19.1-14.4-34.8-33.5-34.8-18.7,0-35.2,15.7-35.2,34.8,0,18.7,16.5,35.2,35.2,35.2C399.8,143.2,414.2,126.6,414.2,108Z"/><path class="cls-2" d="M498.7,78.8c-3.2-3.9-9.2-6.2-17.2-6.2-11.4,0-19.3,5.4-19.3,12.4s6.2,11.2,21.7,14.2c24.2,4.9,33.9,13.3,33.9,29,0,16.5-12.7,28.3-36.3,28.3-18,0-30.9-8.4-35-21-1.5-4.5,1.5-7.3,6.2-7.3,3.9,0,5.6,1.9,7.7,5.2,3.6,5.6,11.6,9.7,21,9.7,13.9,0,23.2-6.2,23.2-14.8,0-9-6-12-23.2-15.4-22.5-4.5-32.6-12.7-32.6-27.7,0-14.4,11.2-26,32.6-26,15.2,0,26.2,6.9,30.7,17.2,1.9,4.5-.9,7.5-5.6,7.5C502.8,83.7,501,81.8,498.7,78.8Z"/></g></g></svg>