<?xml version="1.0" encoding="utf-8"?>
<!-- Generator: Adobe Illustrator 22.1.0, SVG Export Plug-In . SVG Version: 6.00 Build 0)  -->
<svg version="1.1" id="Capa_1" xmlns="http://www.w3.org/2000/svg" xmlns:xlink="http://www.w3.org/1999/xlink" x="0px" y="0px"
	 viewBox="0 0 390 325.3" style="enable-background:new 0 0 390 325.3;" xml:space="preserve">
<style type="text/css">
	.st0{fill:currentColor;}
</style>
<path class="st0" d="M302.9,0H28C28,0,0,1.5,0,28v64.8c0,36.2,0,72.9,0,72.9v64.8c0,26.5,28,28,28,28h80.2v-19.4H43.1
	c0,0-24.9-1.3-24.9-23.8v-55.1c0,0,0-22.5,0-48.2h119.5c8.8-4.6,20.3-8.6,35.2-11.3l0.4-0.1c7.1-1.3,14.8-2.2,23.1-2.8v-6.4
	l-0.1-0.4l0-2c0.1-2.5,1.3-20,23.5-33.8H18.2v-12c0-22.5,24.9-23.8,24.9-23.8h244.7c0,0,21.3,1.1,24.5,19c0.4,0,0.8,0,1.2,0.1
	c6.1,0.4,11.9,1,17.5,1.7V28C330.9,1.5,302.9,0,302.9,0z"/>
<path class="st0" d="M100.9,203.2H64c-5.3,0-9.6-4.3-9.6-9.6v0c0-5.3,4.3-9.6,9.6-9.6h36.8c5.3,0,9.6,4.3,9.6,9.6v0
	C110.4,198.9,106.1,203.2,100.9,203.2z"/>
<path class="st0" d="M389.7,89.3c0-1.1-1.2-27-52.6-36.4l-0.4-0.2h-0.6c-1.7-0.3-3.5-0.6-5.3-0.8c-5.7-0.8-11.8-1.5-18.2-1.9
	c-4.5-0.3-9.1-0.5-14-0.5h-0.1c-14,0.2-26.7,1.3-37.7,3.3c-4.1,0.7-7.8,1.6-11.3,2.5c-40.9,10.8-41.9,33-41.9,34l0,0.5l0.1,0.4v18.6
	c-11.9,0.4-22.9,1.5-32.5,3.2c-0.1,0-0.3,0-0.4,0.1c-54,9.7-55.2,36.8-55.3,37.9l0,0.5l0.1,0.4v129.4c0,0.9,0.4,22,32,33.9
	c4,1.5,8.1,2.9,12.3,4c16.1,4.6,31.1,6.4,40.9,7l0.8,0.1c3.8,0.2,6.7,0.3,8.6,0.3h0.1c1.3,0,4.3-0.1,8.3-0.3l0.8-0.1
	c9.8-0.7,24.8-2.4,40.9-7c4.2-1.2,8.3-2.5,12.3-4c31.7-12,32-33,32-33.9v-22.5c9.4-0.7,23.4-2.4,38.3-6.7c4-1.1,8-2.5,11.8-3.9
	c30.5-11.5,30.9-31.9,30.9-32.7V90.1l0.1-0.3L389.7,89.3z M286.7,279.4L286.7,279.4l0,0.3c-0.1,0.9-1.4,6.3-14.5,12.2
	c-16.6,7.5-26.6,8.4-26.7,8.5l-0.3,0l-0.3,0.1c0,0-5.1,1.2-15.2,2.1c-4.9,0.4-10.2,0.7-15.8,0.9c-5.6-0.1-11-0.4-15.8-0.9
	c-10.1-0.9-15.1-2.1-15.2-2.1l-0.3-0.1l-0.3,0c0,0-10.1-0.9-26.7-8.5c-13.4-6.1-14.4-11.6-14.5-12.3v-12.3
	c2.3,1.4,4.5,2.6,6.8,3.7l0.1,0.1c1.3,0.6,2.6,1.1,3.9,1.6c3.2,1.2,6.6,2.4,10.1,3.4l0.1,0c4.9,1.3,10.4,2.5,17.6,3.9
	c11.8,2.3,25.1,3.1,34.2,3.3h0.2c9.1-0.2,22.4-0.9,34.2-3.3c16.6-3.3,26.8-5.6,38.5-12.6V279.4z M286.7,237.9L286.7,237.9l0,0.3
	c0,0.2-0.1,0.5-0.3,0.9c-0.8,2-3.6,6.5-14.3,11.3c-3.3,1.5-6.3,2.7-9,3.7c-7.2,2.7-12.5,3.9-15.3,4.4c-1.5,0.3-2.3,0.3-2.3,0.3
	l-0.3,0l-0.3,0.1c0,0-5.1,1.2-15.2,2.1c-4.9,0.4-10.2,0.7-15.8,0.9c-5.6-0.1-11-0.4-15.8-0.9c-10.1-0.9-15.1-2.1-15.2-2.1l-0.3-0.1
	l-0.3,0c0,0-0.8-0.1-2.4-0.3c-3.9-0.7-12.4-2.7-24.3-8.1c-10.7-4.8-13.5-9.3-14.3-11.3c-0.2-0.5-0.3-0.8-0.3-0.9v-12.3
	c2.3,1.4,4.5,2.5,6.7,3.6l0.2,0.1c1.3,0.6,2.6,1.1,3.9,1.6c3.2,1.2,6.6,2.4,10.1,3.4l0.3,0.1c4.8,1.3,10.3,2.5,17.4,3.9
	c1.2,0.2,2.3,0.4,3.5,0.6c10.8,1.9,22.5,2.5,30.7,2.6h0.2c3.7-0.1,8-0.2,12.6-0.6c5.8-0.4,12.1-1,18.1-2.1c1.2-0.2,2.3-0.4,3.5-0.6
	c8-1.6,14.6-3,20.6-4.8c6.3-1.9,12-4.3,18-7.9V237.9z M286.7,196.3L286.7,196.3l0,0.3c-0.1,0.9-1.4,6.3-14.5,12.2
	c-4.2,1.9-8,3.4-11.3,4.5c-9.7,3.4-15.3,3.9-15.4,3.9l-0.3,0l-0.3,0.1c0,0-4.2,1-12.5,1.9c-0.8,0.1-1.7,0.2-2.7,0.3
	c-4.8,0.4-10.2,0.7-15.8,0.9c-1.7,0-3.3-0.1-4.9-0.2c-3.9-0.2-7.5-0.4-10.9-0.7c-10.1-0.9-15.1-2.1-15.2-2.1l-0.3-0.1l-0.3,0
	c-0.1,0-10.1-0.9-26.7-8.5c-4.3-2-7.4-3.9-9.5-5.6c-4.4-3.5-5-6.2-5-6.6v-12.3c11.7,7,22,9.3,38.5,12.6c9.4,1.9,19.9,2.7,28.3,3.1
	c2.1,0.1,4.1,0.1,5.9,0.2h0.2c1.5,0,3.1-0.1,4.8-0.1c8.7-0.3,19.6-1.2,29.5-3.1c6.4-1.3,11.9-2.4,16.8-3.7
	c7.9-2.1,14.5-4.6,21.7-8.9V196.3z M287.5,155.5c-0.1,0.3-0.1,0.5-0.2,0.8c-2.1,6.1-13,12.4-29.4,16.6c-8,2-17.3,3.6-27.6,4.4
	c-5,0.4-10.3,0.6-15.7,0.6c-2.3,0-4.5,0-6.7-0.1c-39.5-1.2-66.5-13-66.5-23.7c0-10.7,27-22.5,66.5-23.7c2.2-0.1,4.4-0.1,6.7-0.1
	c4.8,0,9.5,0.2,14,0.5c33.3,2.3,56.8,12.4,59,21.9c0.1,0.4,0.2,0.9,0.2,1.4C287.7,154.5,287.7,155,287.5,155.5z M368.1,213.6
	L368.1,213.6l0,0.3c-0.1,0.8-1.5,6-13.9,11.6c-11.6,5.3-19.8,7.2-23.4,7.8c-1.4,0.2-2.1,0.3-2.1,0.3l-0.3,0l-0.3,0.1
	c0,0-4.8,1.2-14.6,2c-1.6,0.1-3.2,0.3-4.8,0.4v-19c1.3-0.1,2.6-0.2,4-0.3c5.9-0.5,12.3-1.2,18.2-2.4c0.1,0,0.2,0,0.4-0.1
	c15.8-3.2,25.6-5.4,36.8-12V213.6z M368.1,173.7L368.1,173.7l0,0.3c-0.1,0.8-1.5,6-13.9,11.6c-11.5,5.2-19.6,7.1-23.3,7.8
	c-1.4,0.3-2.2,0.3-2.2,0.3l-0.3,0l-0.3,0.1c0,0-4.8,1.2-14.6,2c-0.3,0-0.5,0-0.8,0.1c-1.3,0.1-2.7,0.2-4,0.3v-19
	c1.3-0.1,2.7-0.2,4-0.3c5.9-0.5,12.3-1.2,18.2-2.4c0.1,0,0.2,0,0.4-0.1c15.8-3.2,25.6-5.4,36.8-12V173.7z M368.1,133.8L368.1,133.8
	l0,0.3c-0.1,0.8-1.5,6-13.9,11.6c-11.5,5.2-19.6,7.1-23.3,7.8c-1.4,0.3-2.2,0.3-2.2,0.3l-0.3,0l-0.3,0.1c0,0-4.8,1.2-14.6,2
	c-0.3,0-0.5,0-0.8,0.1c-1.3,0.1-2.7,0.2-4,0.3v-5.5l0.1-0.4l0-0.5c0-0.5-0.2-5.8-4.8-12.4c2.7-0.1,5.7-0.3,8.8-0.5
	c5.9-0.5,12.3-1.2,18.2-2.4c0.1,0,0.2,0,0.4-0.1c15.8-3.2,25.6-5.4,36.8-12V133.8z M369,94.6c-1.7,7.2-16.2,14.8-38.1,18.7
	c-5.6,1-11.7,1.8-18.2,2.2c-4.4,0.3-9,0.5-13.7,0.5c-13.8,0-27-1.4-38.4-3.9c-4.5-1-8.8-2.2-12.6-3.6c-12-4.3-19.1-10-19.1-15.2
	c0-5.2,7.1-10.9,19.1-15.2c13.6-4.9,31.7-7.5,51-7.5c11.7,0,22.5,1,31.9,2.7c21.9,3.9,36.4,11.5,38.1,18.7c0.1,0.4,0.2,0.9,0.2,1.3
	C369.2,93.7,369.1,94.1,369,94.6z"/>
</svg>