<?xml version="1.0" encoding="utf-8"?>
<!-- Generator: Adobe Illustrator 22.1.0, SVG Export Plug-In . SVG Version: 6.00 Build 0)  -->
<svg version="1.1" id="Capa_1" xmlns="http://www.w3.org/2000/svg" xmlns:xlink="http://www.w3.org/1999/xlink" x="0px" y="0px"
	 viewBox="0 0 368.5 368.5" style="enable-background:new 0 0 368.5 368.5;" xml:space="preserve">
<style type="text/css">
	.st0{fill:none;}
	.st1{fill:currentColor;}
	.st2{fill:currentColor;}
	.st3{fill:none;stroke:currentColor;stroke-width:19;stroke-miterlimit:10;}
	.st4{fill:none;stroke:currentColor;stroke-width:15;stroke-miterlimit:10;}
</style>
<image style="display:none;overflow:visible;" width="369" height="326" xlink:href="../../../../../Desktop/WhatsApp Image 2020-01-28 at 11.28.32.jpeg"  transform="matrix(1 0 0 1 -6.3628 26.3504)">
</image>
<path class="st0" d="M83.8,339.1C83.8,339.1,83.8,339.1,83.8,339.1"/>
<path class="st1" d="M352.4,279c0.1,2.4-1.4,4.7-3.7,5.6c-8.5,3.5-38.9,15.2-73.4,22.6c0,0-28.3,6-35.3,10.3s-16.5,6.3-25,6.8
	s-38,0.3-38,0.3l-27,0.8c0,0-25.2-0.3-41.7,17.5c-6.9,7.4-10.6,11.3-12.5,13.5c0,0,0,0.1-0.1,0.1c-0.2,0.2-0.4,0.4-0.5,0.5
	c0,0,0,0,0,0c-1,1-2.5,1.6-4,1.7h0c0,0,0,0,0,0h-0.3c0,0,0,0,0,0l-68.2,0.1c-4.8,0-7.6-5.4-4.8-9.3c0,0,42-53,67.5-73.3
	s35.8-22.3,35.8-22.3s16.2-6,39,4c22.8,10,40.8,0.2,47.8-0.7c7-0.8,29.8-3.7,36.8,0.2c7,3.8,5.2,6.8,5.2,6.8s-2.5,6.8-27.3,10.8
	c0,0-3,0.3,0.3,2c3.3,1.7,31-2.7,31-2.7s59.2-8.2,60.5-8.5c1.3-0.3,12.5-3.6,17.5-0.4c5,3.3,5.5,2.5,5.5,2.5s10.7-1.9,13.6,5.6
	C352,275.7,352.4,277.6,352.4,279z"/>
<path class="st0" d="M81.1,339.1h0.3c-0.1,0-0.1,0-0.2,0C81.2,339.1,81.1,339.1,81.1,339.1z"/>
<path class="st2" d="M232.9,131c0,0-8.2-2.7-34.9,4.1c0,0-6.4,1.2-14,1.4c-7.7-0.3-14-1.4-14-1.4c-26.7-6.8-34.9-4.1-34.9-4.1
	c-46.6,7.5-49.3,51.4-49.3,51.4v5.4c0,0,0,4,0,17.9c0,33.6,30.1,29.4,30.1,29.4H252c0,0,30.1,4.1,30.1-29.4c0-13.8,0-17.9,0-17.9
	v-5.4C282.2,182.4,279.4,138.6,232.9,131z M266.4,208.4c0,12.3-11.6,10.3-11.6,10.3H113.7c0,0-11.6,2.1-11.6-10.3v-26.7
	c0,0,3.4-29.4,32.9-34.2c0,0,8.9-3.4,28.8,2.7c4.9,1.5,10.5,2.3,16.2,2.5c2.9,0.1,5.8,0.1,8.8,0c5.6-0.2,11.2-1,16.2-2.5
	c19.9-6.2,28.8-2.7,28.8-2.7c29.4,4.8,32.9,34.2,32.9,34.2V208.4z"/>
<circle class="st3" cx="184.6" cy="63.9" r="48.3"/>
<path class="st2" d="M299.3,120.1h-14.4c0,0-11,0.7-17.1,6.8l13,11h2.1c0,0,1.4-1.4,4.1-1.4s24,0,24,0s6.8-1.4,15.8,8.9
	c0,0,4.8,4.1,5.5,13.7c0.7,9.6,5.5,10.3,9.6,10.3s6.8-4.8,6.8-7.5s0-13,4.8-21.2s17.8-20.5,29.4-20.5
	C302.7,120.1,299.3,120.1,299.3,120.1z"/>
<circle class="st4" cx="299.3" cy="70.5" r="31.5"/>
<path class="st2" d="M69.2,120.1h14.4c0,0,11,0.7,17.1,6.8l-13,11h-2.1c0,0-1.4-1.4-4.1-1.4s-24,0-24,0s-6.8-1.4-15.8,8.9
	c0,0-4.8,4.1-5.5,13.7s-5.5,10.3-9.6,10.3s-6.8-4.8-6.8-7.5s0-13,4.8-21.2s17.8-20.5,29.4-20.5S69.2,120.1,69.2,120.1z"/>
<circle class="st4" cx="69.2" cy="70.5" r="31.5"/>
</svg>