<?xml version="1.0" encoding="utf-8"?>
<!-- Generator: Adobe Illustrator 22.1.0, SVG Export Plug-In . SVG Version: 6.00 Build 0)  -->
<svg version="1.1" id="Capa_1" xmlns="http://www.w3.org/2000/svg" xmlns:xlink="http://www.w3.org/1999/xlink" x="0px" y="0px"
	 viewBox="0 0 61.5 61.6" style="enable-background:new 0 0 61.5 61.6;" xml:space="preserve">
<style type="text/css">
	.st0{fill:currentColor;stroke:currentColor;stroke-width:1.5;stroke-miterlimit:10;}
	.st1{fill:currentColor;}
</style>
<title></title>
<desc></desc>
<g id="People">
	<g id="Icon-34">
		<path id="price-tag" class="st0" d="M55.8,0.9h-16c-3.1,0-5.4,1-7.7,3.3c-0.4,0.4-0.4,1,0,1.4c0.4,0.4,1,0.4,1.4,0
			c2-2,3.7-2.7,6.3-2.7h16c1.7,0,3,1.3,3,3v16c0,2.6-0.8,4.3-2.7,6.3L26.4,57.9c-1.1,1.1-3.1,1.1-4.3,0L3.8,39.5
			c-0.6-0.6-0.9-1.3-0.9-2.1c0-0.8,0.3-1.6,0.9-2.1L30.6,8.5c0.4,0.1,0.8,0.2,1.3,0.3c4.1,1.1,7.3,2.2,9.7,3.2
			c-0.5,0.9-0.7,1.8-0.7,2.8c0,3.3,2.7,6,6,6s6-2.7,6-6s-2.7-6-6-6c-0.5,0-1,0.5-1,1s0.5,1,1,1c2.2,0,4,1.8,4,4s-1.8,4-4,4
			c-2.2,0-4-1.8-4-4c0-0.7,0.2-1.4,0.6-2c1.7,0.8,2.8,1.5,3.3,2c-0.2,0-0.5,0.1-0.9,0.2c-0.5,0-1,0.5-0.9,1.1c0.1,0.5,0.5,0.9,1,0.9
			h0.1c0.6-0.1,2.5-0.2,2.8-1.6c0.4-1.4-1.1-2.8-4.8-4.5c-3-1.4-7.1-2.8-11.5-4c-4.4-1.2-8.7-2-12-2.3c-4.1-0.4-6,0.1-6.4,1.5
			c-0.2,0.7-0.7,2.4,7.5,5.6c0.5,0.2,1.1,0,1.3-0.6c0.2-0.5,0-1.1-0.6-1.3c-3.9-1.5-5.5-2.7-6.1-3.2c1.2-0.4,5.5-0.3,12.2,1.3
			l-26,25.9c-0.9,0.9-1.5,2.2-1.5,3.5c0,1.3,0.5,2.6,1.5,3.5l18.4,18.4c0.9,0.9,2.2,1.5,3.5,1.5c1.3,0,2.6-0.5,3.5-1.5l29.7-29.7
			c2.3-2.3,3.3-4.6,3.3-7.7v-16C60.8,3.1,58.5,0.9,55.8,0.9z M52.8,37.4c-0.5-0.3-1.1-0.1-1.4,0.4L39.9,57.4
			c-0.8,1.4-2.7,1.9-4.1,1.1L33.6,57c-0.5-0.3-1.1-0.2-1.4,0.3c-0.3,0.5-0.2,1.1,0.3,1.4l2.3,1.5c0.8,0.5,1.6,0.7,2.5,0.7
			c1.7,0,3.4-0.9,4.3-2.5l11.5-19.5C53.4,38.3,53.2,37.7,52.8,37.4z M41.5,32.2l-12-12c-0.4-0.4-1-0.4-1.4,0l-16,16
			c-0.4,0.4-0.4,1,0,1.4l12,12c0.2,0.2,0.4,0.3,0.7,0.3c0.3,0,0.5-0.1,0.7-0.3l16-16C41.9,33.2,41.9,32.6,41.5,32.2z M24.8,47.5
			L14.2,36.9l14.6-14.6l10.6,10.6L24.8,47.5z"/>
	</g>
</g>
<path class="st1" d="M25.1,42.4c-0.8-0.5-1.6-1.3-1.6-1.3s-1.2-1.2-1.5-2.6c-0.4-1.4-0.2-1.7-0.2-2.6c0-0.7,0.5-1.6,0.7-1.9
	l-0.5-0.5c-0.2-0.2-0.2-0.5,0-0.6l0.4-0.4c0.2-0.2,0.5-0.2,0.6,0l0.3,0.3c0.3-0.3,0.6-0.6,0.9-0.8l-0.4-0.4c-0.2-0.2-0.2-0.5,0-0.6
	l0.4-0.4c0.2-0.2,0.5-0.2,0.6,0l0.6,0.6c0.8-0.3,1.9-0.6,2.3-0.5c0.5,0,2.4,0.1,3.6,1c1.3,0.9,1.6,1.4,2,2c0.4,0.5-0.1,0.7-0.1,0.7
	s-0.4,0.2-0.6,0.4c-0.2,0.1-0.6,0.5-0.9,0c-0.3-0.5-0.6-0.7-0.6-0.7c-1.9-1.9-3.9-1-3.9-1l2.8,2.8c0.2,0.2,0.2,0.4,0,0.6l-0.5,0.4
	c-0.2,0.1-0.5,0.1-0.7-0.1l-2.9-2.9c0,0-0.1-0.1-0.1-0.1l0,0c-0.1,0.1-0.5,0.5-0.8,0.8l2.7,2.7c0.2,0.2,0.2,0.4,0,0.6l-0.5,0.3
	c-0.2,0.1-0.5,0.1-0.7-0.1l-2.3-2.3c-0.3,0.9-0.4,2.3,0.1,3.1c0.7,1.2,1.4,1.7,1.4,1.7c1.1,0.5,0.3,0.9,0,1.5
	C25.5,42.6,25.1,42.4,25.1,42.4z"/>
</svg>