<?xml version="1.0" encoding="utf-8"?>
<!-- Generator: Adobe Illustrator 24.0.1, SVG Export Plug-In . SVG Version: 6.00 Build 0)  -->
<svg version="1.1" id="Capa_1" xmlns="http://www.w3.org/2000/svg" xmlns:xlink="http://www.w3.org/1999/xlink" x="0px" y="0px"
	 viewBox="0 0 401.3 396.2" style="enable-background:new 0 0 401.3 396.2;" xml:space="preserve">
<style type="text/css">
	.st0{fill:currentColor;}
</style>
<circle class="st0" cx="36.9" cy="149.3" r="31.1"/>
<path class="st0" d="M386.2,166.5H108.5c-5.8,0-10.5-4.7-10.5-10.5v-15.2c0-5.8,4.7-10.5,10.5-10.5h277.7c5.8,0,10.5,4.7,10.5,10.5
	V156C396.7,161.8,392,166.5,386.2,166.5z"/>
<circle class="st0" cx="36.3" cy="51" r="31.1"/>
<path class="st0" d="M385.6,68.1H108c-5.8,0-10.5-4.7-10.5-10.5V42.3c0-5.8,4.7-10.5,10.5-10.5h277.7c5.8,0,10.5,4.7,10.5,10.5v15.2
	C396.1,63.4,391.4,68.1,385.6,68.1z"/>
<circle class="st0" cx="37.4" cy="349.1" r="31.1"/>
<path class="st0" d="M386.7,366.2H109.1c-5.8,0-10.5-4.7-10.5-10.5v-15.2c0-5.8,4.7-10.5,10.5-10.5h277.7c5.8,0,10.5,4.7,10.5,10.5
	v15.2C397.3,361.5,392.6,366.2,386.7,366.2z"/>
<circle class="st0" cx="36.9" cy="250.7" r="31.1"/>
<path class="st0" d="M386.2,267.8H108.5c-5.8,0-10.5-4.7-10.5-10.5v-15.2c0-5.8,4.7-10.5,10.5-10.5h277.7c5.8,0,10.5,4.7,10.5,10.5
	v15.2C396.7,263.1,392,267.8,386.2,267.8z"/>
</svg>