<?xml version="1.0" encoding="utf-8"?>
<!-- Generator: Adobe Illustrator 22.1.0, SVG Export Plug-In . SVG Version: 6.00 Build 0)  -->
<svg version="1.1" id="Capa_1" xmlns="http://www.w3.org/2000/svg" xmlns:xlink="http://www.w3.org/1999/xlink" x="0px" y="0px"
	 viewBox="0 0 390 405.1" style="enable-background:new 0 0 390 405.1;" xml:space="preserve">
<style type="text/css">
	.st0{fill:#333333;}
</style>
<path class="st0" d="M195,405.3c-107,0-194-87-194-194c0-58.8,26.2-113.8,71.9-150.8c2.7-2.2,6.1-3.4,9.6-3.4
	c5.3,0,10.1,2.7,12.9,7.1c1.2,1.8,2.4,3.8,3.6,5.7c3.9,6.4,2.5,14.9-3.3,19.7c-36.7,29.9-57.7,74.3-57.7,121.7
	c0,86.6,70.5,157.1,157.1,157.1s157.1-70.5,157.1-157.1c0-47-20.8-91.2-57.1-121.2l-0.9-0.7l-3-18l0.6-1c1.2-2,2.4-3.9,3.6-5.7
	c2.8-4.5,7.6-7.1,12.9-7.1c3.5,0,6.9,1.2,9.6,3.4c45.3,37,71.3,91.8,71.3,150.3C389,318.2,302,405.3,195,405.3z"/>
<path class="st0" d="M195,405.3c-107,0-194-87-194-194c0-58.5,26-113.3,71.3-150.3c2.7-2.2,6.1-3.4,9.6-3.4c5.3,0,10.1,2.7,12.9,7.1
	c1.2,1.8,2.4,3.8,3.6,5.7l0.6,1l-3,18L95,90c-36.3,30-57.1,74.2-57.1,121.2c0,86.6,70.5,157.1,157.1,157.1s157.1-70.5,157.1-157.1
	c0-47.4-21-91.7-57.7-121.7c-5.8-4.8-7.2-13.2-3.3-19.7c1.2-2,2.4-3.9,3.6-5.7c2.8-4.4,7.6-7.1,12.9-7.1c3.5,0,6.9,1.2,9.6,3.4
	c45.7,37,71.9,92,71.9,150.8C389,318.2,302,405.3,195,405.3z"/>
<path class="st0" d="M175.2,218.1V13c0-7.2,5.8-13,13-13h13.5c7.2,0,13,5.8,13,13v205.1c0,7.2-5.8,13-13,13h-13.5
	C181,231.1,175.2,225.3,175.2,218.1z"/>
</svg>
