<?xml version="1.0" encoding="utf-8"?>
<!-- Generator: Adobe Illustrator 22.1.0, SVG Export Plug-In . SVG Version: 6.00 Build 0)  -->
<svg version="1.1" id="Capa_1" xmlns="http://www.w3.org/2000/svg" xmlns:xlink="http://www.w3.org/1999/xlink" x="0px" y="0px"
	 viewBox="0 0 326.3 349.7" style="enable-background:new 0 0 326.3 349.7;" xml:space="preserve">
<style type="text/css">
	.st0{display:none;}
	.st1{display:inline;fill:#323232;}
	.st2{display:inline;fill:#FFFFFF;}
	.st3{fill:#323232;}
	.st4{fill:#333333;}
	.st5{fill:#FFFFFF;}
	.st6{fill:none;}
	.st7{fill:none;stroke:#323232;stroke-miterlimit:10;}
	.st8{display:none;fill:#333333;}
</style>
<g id="Capa_1_1_" class="st0">
	<path class="st1" d="M364.3,115.5l-115.7,93c-3.8,2.8-15.1,9.9-21.9,10.2c-6.8-0.3-18.1-7.4-22-10.2L89.9,116.2l2.3-25.7H64v214.1
		c0,29.9,30,32.1,30.4,32.1l265.5-0.1h0.1c0.3,0,30.3-2.1,30.3-32.1v-214h-28.5 M363.9,309.3c-0.8,1-2.5,1.5-4.9,1.5H95.3
		c-2.4,0-4.1-0.5-4.9-1.4c-0.9-1-0.6-2.5-0.6-2.5l0.1-0.3V149.2c35.8,29,92.3,74.8,104.6,84c6.2,4.7,12.1,7.5,17.2,9.2
		c5.1,1.7,9.3,2.2,12,2.3h4.3c4.7,0,17.1-1.1,30.9-11.5c12.5-9.4,69.4-55.5,105.5-84.8v158.2l0.1,0.3
		C364.5,306.9,364.7,308.3,363.9,309.3z"/>
	<rect x="118.5" y="32.1" class="st1" width="217.3" height="217.3"/>
	<rect x="144.6" y="58.2" class="st2" width="165.2" height="165.2"/>
	<path class="st1" d="M89.9,116.2l115.7-93c3.8-2.8,15.1-9.9,21.9-10.2c6.8,0.3,18.1,7.4,22,10.2l114.8,92.3v-33
		c-35.8-29-92.3-74.8-104.6-84c-6.2-4.7-12.1-7.5-17.2-9.2c-5.1-1.7-9.3-2.2-12-2.3h-4.3c-4.7,0-17.1,1.1-30.9,11.5
		C182.8,7.9,125.9,54,89.8,83.3L89.9,116.2z"/>
</g>
<g id="Capa_2_1_">
	<polygon class="st3" points="98.1,71.2 80.6,85.2 80.6,71.2 	"/>
	<polygon class="st3" points="245.8,71.2 245.8,84.7 229,71.2 	"/>
	<path class="st3" d="M24.6,296.9c0.4-0.4,0.9-0.7,1.3-1.1C25.4,296.2,25,296.5,24.6,296.9z"/>
	<path class="st4" d="M309,103.5l-8.7-8c-8.6-7-18.4-14.9-28.5-23.1V45.1H238c-19.6-15.8-36.2-29.1-42.3-33.6
		c-6.2-4.7-12.1-7.5-17.2-9.2s-9.3-2.2-12-2.3h-4.3c-4.7,0-17.1,1.1-30.9,11.5c-6.1,4.6-22.7,17.8-42.2,33.6H54.5V73
		c-10.2,8.2-20,16.2-28.7,23.3l-8,7.2C7.8,114.2,1.3,128.2,0,143.7v173.9c0,29.9,30,32.1,30.4,32.1l265.5-0.1h0.1
		c0.3,0,30.3-2.1,30.3-32.1V148.4C326.3,131.1,319.7,115.4,309,103.5z M271.8,105.6l28.5,22.9l-28.5,22.9V105.6z M141.6,36.2
		c3.8-2.8,15.1-9.9,21.9-10.2c6.8,0.3,18.1,7.4,22,10.2l11.1,8.9h-66L141.6,36.2z M80.6,71.2h165.2v101.2l-15.4,12.4l-15.8,12.7
		l-29.9,24.1c-1.3,0.9-3.3,2.3-5.8,3.8c-0.4,0.2-0.8,0.5-1.3,0.7c-0.3,0.2-0.6,0.3-0.9,0.5c-1,0.6-2.1,1.1-3.2,1.7
		c-0.2,0.1-0.5,0.2-0.7,0.3c-0.4,0.2-0.9,0.4-1.3,0.6c0,0-0.1,0-0.1,0c-0.6,0.3-1.1,0.5-1.7,0.7c-0.6,0.2-1.1,0.4-1.7,0.6
		c-0.5,0.2-0.9,0.3-1.3,0.4c-0.2,0.1-0.4,0.1-0.6,0.2c-0.1,0-0.2,0.1-0.3,0.1c-0.1,0-0.2,0.1-0.3,0.1c0,0-0.1,0-0.1,0
		c-0.1,0-0.2,0.1-0.3,0.1c-0.1,0-0.2,0.1-0.3,0.1c-0.4,0.1-0.7,0.1-1.1,0.2c-0.2,0-0.3,0.1-0.5,0.1c-0.1,0-0.3,0-0.4,0h-0.1
		c-0.1,0-0.3,0-0.4,0c-2.5-0.2-5.4-1.2-8.4-2.6c-0.1,0-0.1,0-0.2-0.1c-0.2-0.1-0.4-0.2-0.6-0.3c-0.3-0.1-0.5-0.3-0.8-0.4
		c-0.3-0.1-0.5-0.3-0.8-0.4c-0.5-0.3-1-0.5-1.6-0.8c-0.3-0.1-0.5-0.3-0.8-0.4s-0.5-0.3-0.8-0.4c-0.3-0.1-0.5-0.3-0.7-0.4
		c-1-0.5-1.9-1.1-2.8-1.6c-0.2-0.1-0.4-0.3-0.6-0.4c-0.4-0.2-0.7-0.5-1-0.7c-1-0.6-1.9-1.2-2.5-1.7l-11.2-9l-17.9-14.4l-16.1-12.9
		l-14.9-12V71.2z M25.9,128.1v1.1l28.6-23v46.1l0.1,0l-0.1,0.1v-0.1l-0.1-0.1l-28.6-23L25.9,128.1z M24.6,296.9
		c0.4-0.4,0.8-0.7,1.3-1.1C25.5,296.2,25,296.5,24.6,296.9z M26,295.8V162.3c0,0-0.1-0.1-0.1-0.1H26v0.1c8.6,7,18.4,14.9,28.5,23.1
		c8.7,7,17.6,14.2,26.1,21.1l13.6,10.9l0,0l3.6,2.9l1.8,1.5l3.3,2.7l1.7,1.3l3.2,2.6l0.8,0.6C85.8,247.3,51.2,275.4,26,295.8z
		 M32.1,323.8l97.5-78.3c0.3,0.3,0.7,0.5,1,0.7c6.2,4.7,12.1,7.5,17.2,9.2c5.1,1.7,9.3,2.2,12,2.3h4.3c4.7,0,17.1-1.1,30.9-11.5
		c0.2-0.1,0.4-0.3,0.6-0.4l96.9,77.9l0.1,0.1l0.1,0.1H32.1z M300.6,297.2c-25-20.2-60.6-49.1-84.1-67.9l29.4-23.6
		c8.5-6.9,17.4-14.1,26.1-21.1c10.1-8.2,20-16.2,28.6-23.2V297.2z"/>
	<polygon class="st3" points="245.8,71.2 245.8,172.3 245.7,172.4 230.3,184.8 230.3,184.8 173.4,185 153.5,185 153.5,185 
		95.6,185.2 80.6,173.2 80.6,71.2 	"/>
	<path class="st5" d="M173.8,184.9l-20.6,0.1c0,0,0,0,0,0l-57.6,0.2l16.1,12.9l29.1,23.4c3.9,2.8,15.2,9.9,22,10.2
		c6.8-0.3,18.1-7.4,21.9-10.2l29.9-24.1l15.7-12.6l0.1-0.1L173.8,184.9z M80.6,71.2v102l15,12.1l16.1,12.9l29.1,23.4
		c0.6,0.5,1.5,1,2.4,1.7c0.3,0.2,0.7,0.4,1,0.7c0.2,0.1,0.4,0.3,0.6,0.4c0.9,0.5,1.8,1.1,2.8,1.6c0.2,0.2,0.5,0.3,0.7,0.4
		c0.3,0.1,0.5,0.3,0.8,0.4s0.5,0.3,0.8,0.4c0.5,0.3,1,0.6,1.6,0.8c0.3,0.1,0.5,0.3,0.8,0.4c0.3,0.1,0.5,0.3,0.8,0.4
		c0.2,0.1,0.4,0.2,0.6,0.3c0.1,0,0.1,0.1,0.2,0.1c3,1.3,5.9,2.4,8.4,2.6c0.1,0,0.3,0,0.4,0h0.1c0.1,0,0.3,0,0.4,0
		c0.2,0,0.3,0,0.5-0.1c0.3,0,0.7-0.1,1.1-0.2c0.1,0,0.2,0,0.3-0.1c0.1,0,0.2,0,0.3-0.1c0,0,0.1,0,0.1,0c0.1,0,0.2-0.1,0.3-0.1
		c0.1,0,0.2,0,0.3-0.1c0.2,0,0.4-0.1,0.6-0.2c0.4-0.1,0.9-0.3,1.3-0.4c0.5-0.2,1.1-0.4,1.7-0.6c0.6-0.2,1.1-0.5,1.7-0.7
		c0,0,0.1,0,0.1,0c0.4-0.2,0.9-0.4,1.3-0.6c0.2-0.1,0.5-0.2,0.7-0.3c1.1-0.5,2.2-1.1,3.2-1.7c0.3-0.2,0.6-0.3,0.9-0.5
		c0.4-0.2,0.8-0.5,1.3-0.7c2.4-1.5,4.5-2.8,5.8-3.8l29.9-24.1l15.8-12.7l15.4-12.4V71.2H80.6z"/>
	<line class="st6" x1="45.6" y1="80.3" x2="45.6" y2="80.3"/>
	<path class="st7" d="M-27.3,138"/>
	<path class="st7" d="M40,84.8"/>
	<path class="st7" d="M-13.2,95.4"/>
	<path class="st7" d="M25.8,96.3"/>
	<g>
		<path class="st8" d="M162.5,185.7c-12.9,0-23.5-3.8-31.6-11.2s-12.3-17.6-12.3-30.1c0-12.7,4.4-23.6,13-32.2
			c8.6-8.7,19.9-13.1,33.4-13.1c12.5,0,22.8,3.4,30.6,10.2c7.9,6.8,11.8,15.9,11.8,27c0,9.1-2.5,16.6-7.3,22.1
			c-4.9,5.6-11,8.5-18.3,8.5c-3.7,0-6.8-1-9.2-3.1c-1.4-1.2-2.4-2.5-3-4.1c-2.8,4.7-7,7.1-12.7,7.1c-5.1,0-9.3-1.9-12.5-5.6
			c-3.1-3.7-4.7-8.7-4.7-15.1c0-8.1,2.1-14.8,6.3-19.9c4.3-5.2,9.5-7.9,15.5-7.9c4.3,0,7,1.3,8.7,3.1l0.2-2.2h14.5l-0.2,1.6
			c-1.5,14.3-2.3,23.8-2.3,28.2c0,3.7,0.8,5.6,2.4,5.6c2.1,0,3.9-1.5,5.4-4.6c1.7-3.4,2.5-7.9,2.5-13.5c0-7.5-2.4-13.7-7.2-18.5
			c-4.7-4.8-11.5-7.2-20.1-7.2c-9.2,0-17,3.3-23.1,9.7c-6.1,6.5-9.2,14.4-9.2,23.8c0,9,2.7,16.1,8.1,21.2c5.4,5.1,13,7.7,22.5,7.7
			c7.4,0,14.2-1.4,20.4-4.2l2.1-1v13l-0.9,0.4C179.6,184.4,171.8,185.7,162.5,185.7z M163.7,130.3c-2.5,0-4.5,1.5-6.2,4.4
			c-1.8,3.2-2.7,7.1-2.7,11.4c0,2.9,0.6,5.2,1.7,6.7c1,1.4,2.3,2.1,3.9,2.1c2.6,0,4.7-1.4,6.2-4.4c1.7-3.2,2.6-7.6,2.6-13
			c0-2.4-0.5-4.2-1.6-5.5C166.6,130.9,165.3,130.3,163.7,130.3z"/>
		<path class="st4" d="M170.4,155.7h-0.3c-2.4,6.5-6.7,9.7-12.9,9.7c-4.7,0-8.5-1.7-11.3-5.1c-2.9-3.4-4.3-8.1-4.3-14.1
			c0-7.8,2-14.1,6-19c4-4.9,8.8-7.3,14.4-7.3c5.1,0,8.2,2,9.5,6h0.2l0.5-5h11.5c-1.5,14.5-2.3,23.9-2.3,28.4c0,4.8,1.3,7.1,3.9,7.1
			c2.7,0,5-1.8,6.7-5.4c1.8-3.6,2.6-8.3,2.6-14.1c0-7.9-2.5-14.5-7.6-19.5c-5.1-5.1-12.1-7.6-21.2-7.6c-9.7,0-17.8,3.4-24.2,10.2
			c-6.4,6.8-9.7,15-9.7,24.8c0,9.4,2.8,16.9,8.5,22.3c5.7,5.4,13.5,8.1,23.6,8.1c7.6,0,14.6-1.5,21-4.4v9.7
			c-5.8,2.5-13.3,3.7-22.4,3.7c-12.5,0-22.7-3.6-30.6-10.8s-11.8-16.8-11.8-29c0-12.4,4.2-22.7,12.6-31.2
			c8.4-8.4,19.2-12.6,32.4-12.6c12.2,0,22.1,3.3,29.7,9.8c7.6,6.5,11.3,15.2,11.3,25.8c0,8.8-2.3,15.8-6.9,21.2
			c-4.6,5.3-10.3,8-17.2,8c-3.4,0-6.1-0.9-8.2-2.7C171.7,161,170.6,158.6,170.4,155.7z M163.7,128.8c-3.1,0-5.5,1.7-7.5,5.2
			c-1.9,3.5-2.9,7.5-2.9,12.1c0,3.3,0.7,5.8,2,7.6s3,2.7,5.1,2.7c3.2,0,5.7-1.7,7.5-5.1c1.8-3.4,2.8-8,2.8-13.8
			c0-2.7-0.6-4.9-1.9-6.4C167.5,129.6,165.8,128.8,163.7,128.8z"/>
	</g>
	<path class="st3" d="M292.6,323.7L292.6,323.7L292.6,323.7L292.6,323.7z M292.6,323.7L292.6,323.7L292.6,323.7L292.6,323.7z
		 M245.7,172.4l-15.4,12.4l-15.8,12.7l-19.1,15.4l-10.8,8.7c-2.4,1.8-7.9,5.3-13.3,7.7c-1.8,0.8-3.5,1.5-5.1,1.9
		c0.2,0,0.4-0.1,0.6-0.2c0.4-0.1,0.9-0.3,1.3-0.4c0.5-0.2,1.1-0.4,1.7-0.6c0.6-0.2,1.1-0.5,1.7-0.7c0,0,0.1,0,0.1,0
		c0.4-0.2,0.9-0.4,1.3-0.6c0.2-0.1,0.5-0.2,0.7-0.3c1.1-0.5,2.2-1.1,3.2-1.7c0.3-0.2,0.6-0.3,0.9-0.5c0.4-0.2,0.8-0.5,1.3-0.7
		c2.4-1.5,4.5-2.8,5.8-3.8l29.9-24.1l15.8-12.7L245.7,172.4L245.7,172.4L245.7,172.4z M24.6,296.9c0.4-0.4,0.9-0.7,1.3-1.1
		C25.4,296.2,25,296.5,24.6,296.9z"/>
	<polygon class="st3" points="292.7,323.8 292.5,323.8 292.5,323.7 292.6,323.7 	"/>
</g>
</svg>
