<?xml version="1.0" encoding="utf-8"?>
<!-- Generator: Adobe Illustrator 22.1.0, SVG Export Plug-In . SVG Version: 6.00 Build 0)  -->
<svg version="1.1" id="Capa_1" xmlns="http://www.w3.org/2000/svg" xmlns:xlink="http://www.w3.org/1999/xlink" x="0px" y="0px"
	 viewBox="0 0 384 458.8" style="enable-background:new 0 0 384 458.8;" xml:space="preserve">
<style type="text/css">
	.st0{fill:#333333;}
</style>
<path class="st0" d="M384,229.4c0,0-103.1,109.8-107.5,114.3c-4.5,4.5-7.5,3.7-7.5,3.7h-2.2c-12.7,0-11.2-15.7-11.2-15.7v-48.5
	c0,0-88.1,0-107.5,0S130.1,266,130.1,266v-73.2c0,0-1.5-17.2,17.9-17.2s107.5,0,107.5,0v-48.5c0,0-1.5-15.7,11.2-15.7h2.2
	c0,0,3-0.7,7.5,3.7C280.9,119.6,384,229.4,384,229.4z"/>
<circle class="st0" cx="86.4" cy="228.2" r="21.7"/>
<path class="st0" d="M47.1,458.8c-1.9,0-47.1-1.4-47.1-47.9V46.4C0,44.5,0.9,0,55.4,0h218.2l0.1,0c0,0,0.4,0,1.1,0
	c3.8,0,17,0.5,29.1,7.5c15.1,8.7,22.7,24,22.7,45.6v51.3v29.4l-27.3-32.1h-0.1V50.7c0.1-1.8,0.5-10.2-5.1-16.5
	c-4-4.5-9.8-6.7-17.3-6.7H51.1c-0.4,0-1.1-0.1-1.9-0.1c-11,0-22.8,6.8-22.8,25.8v352.2c-0.3,2.1-1.1,11.4,4.9,18.4
	c4.4,5.3,11.3,7.9,20.4,7.9c0,0,225.6,0,225.7,0c1.5,0,6.9-0.3,12.1-3.8c4.6-3.2,10-9.7,10-23v-53.2l0,0l27.1-26.7v29.4v59.5
	c-0.1,2.5-2.6,45-53.1,45H47.1z"/>
</svg>
