<?xml version="1.0" encoding="utf-8"?>
<!-- Generator: Adobe Illustrator 22.1.0, SVG Export Plug-In . SVG Version: 6.00 Build 0)  -->
<svg version="1.1" id="Capa_1" xmlns="http://www.w3.org/2000/svg" xmlns:xlink="http://www.w3.org/1999/xlink" x="0px" y="0px"
	 viewBox="0 0 99.3 97.5" style="enable-background:new 0 0 99.3 97.5;" xml:space="preserve">
<style type="text/css">
	.st0{fill:#662D91;}
	.st1{fill:#363636;}
	.st2{fill:none;}
	.st3{display:none;fill:#944ED1;}
</style>
<path class="st0" d="M97,73.2c-0.7,0.3-1.9,0.6-3.5,0l-2.1-0.8l0,0c-8.3,15-24.3,25.2-42.7,25.2C21.8,97.5,0,75.7,0,48.7
	S21.9,0,48.8,0c20.6,0,38.3,12.9,45.4,31c0,0,0,0,0,0c0.1,0.2,0.2,0.4,0.2,0.6c0.2,0.6,0.3,1.3,0.3,2c0,3.6-2.9,6.6-6.6,6.6
	c-2.7,0-5.1-1.7-6.1-4c-5.1-13.4-18.1-23-33.3-23c-19.7,0-35.6,15.9-35.6,35.6c0,19.7,15.9,35.6,35.6,35.6c12.8,0,24-6.7,30.3-16.9
	l-0.3-0.1l-1.4-0.5c-1.8-0.7-2.8-2-3-3.6c-0.1-1.6,0.8-3.1,2.4-4l6.9-4l3.8-2.1c0.1-0.1,0.3-0.2,0.4-0.3c1.3-0.6,2.7-0.6,4.1,0
	c1.4,0.6,2.3,1.7,2.8,3.1l1.4,4l2.8,7.9C99.9,70.6,98.6,72.5,97,73.2z"/>
<g>
	<g>
		<path class="st1" d="M46.5,19.1c-1.6,0-2.9,1.3-2.9,3v29.8l20.8,10.9c0.4,0.2,0.9,0.3,1.3,0.3c1.1,0,2.1-0.6,2.6-1.6
			c0.7-1.5,0.2-3.3-1.3-4l-17.6-9.3V22C49.4,20.4,48.1,19.1,46.5,19.1z"/>
	</g>
</g>
<circle class="st2" cx="48.8" cy="48.9" r="48.8"/>
<circle class="st3" cx="48.7" cy="48.9" r="0.4"/>
</svg>
