<?xml version="1.0" encoding="utf-8"?>
<!-- Generator: Adobe Illustrator 22.1.0, SVG Export Plug-In . SVG Version: 6.00 Build 0)  -->
<svg version="1.1" id="Capa_1" xmlns="http://www.w3.org/2000/svg" xmlns:xlink="http://www.w3.org/1999/xlink" x="0px" y="0px"
	 viewBox="0 0 513.2 195.6" style="enable-background:new 0 0 513.2 195.6;" xml:space="preserve">
<style type="text/css">
	.st0{display:none;}
	.st1{display:inline;}
	.st2{fill:#333333;}
	.st3{display:none;fill:#333333;}
	.st4{display:none;fill:#662D91;}
	.st5{fill:#363636;}
	.st6{fill:#662D91;}
</style>
<g>
	<g>
		<g class="st0">
			<g class="st1">
				<path class="st2" d="M125.9,117.6c4.9,0,6.7,3.9,3.5,8.4c-13.3,18.5-33.9,30.2-57,30.2c-40.1,0-73-35.6-73-79.4
					c0-42,32.9-77.7,73-77.7c22.7,0,43.1,11.6,56.4,29.4c3.3,4.5,1.2,8.4-3.9,8.4h-3.7c-3.3,0-5.5-1.1-7.8-3.6
					C103,21.9,88.5,14.8,72.5,14.8c-32.3,0-58.2,28.3-58.2,62c0,35.4,25.8,63.7,58.2,63.7c16.3,0,31.1-7.3,41.3-19.1
					c2.4-2.8,4.5-3.9,7.8-3.9L125.9,117.6L125.9,117.6z"/>
				<path class="st3" d="M151.1,107.1c0-26.8,22.1-48.9,48.9-48.9s48.9,22.1,48.9,48.9c0,26.4-22.1,49.3-48.9,49.3
					C173.2,156.4,151.1,133.5,151.1,107.1z M166.1,107.1c0,18.7,14.8,35.2,33.9,35.2s33.9-16.5,33.9-35.2
					c0-19.1-14.8-34.8-33.9-34.8S166.1,88,166.1,107.1z"/>
			</g>
		</g>
		<g>
			<path class="st4" d="M126.1,187.9c0-4.3,2.4-6.4,6.7-7.1c23-2.4,36.3-18,36.3-42.7V7.7c0-4.5,2.4-6.9,6.9-6.9h1.9
				c4.5,0,6.9,2.4,6.9,6.9v130.5c0,34.5-18.9,55.8-51.5,58.6c-4.5,0.2-7.1-2.4-7.1-6.9L126.1,187.9L126.1,187.9z"/>
			<path class="st4" d="M209.3,107.1c0-26.8,22.1-48.9,48.9-48.9s48.9,22.1,48.9,48.9c0,26.4-22.1,49.3-48.9,49.3
				C231.4,156.4,209.3,133.5,209.3,107.1z M224.3,107.1c0,18.7,14.8,35.2,33.9,35.2s33.9-16.5,33.9-35.2c0-19.1-14.8-34.8-33.9-34.8
				S224.3,88,224.3,107.1z"/>
			<path class="st4" d="M336.5,154.1c-4.5,0-6.9-2.4-6.9-6.9V7.7c0-4.5,2.4-6.9,6.9-6.9h0.6c4.5,0,6.9,2.4,6.9,6.9v67.4
				c8.6-10.3,21.2-16.9,35.6-16.9c26.8,0,48.9,22.1,48.9,48.9c0,26.4-22.1,49.3-48.9,49.3c-14.4,0-27-6.9-35.6-17.4v8.2
				c0,4.5-2.4,6.9-6.9,6.9H336.5z M413.6,107.1c0-19.1-14.4-34.8-33.5-34.8c-18.7,0-35.2,15.7-35.2,34.8c0,18.7,16.5,35.2,35.2,35.2
				C399.2,142.3,413.6,125.7,413.6,107.1z"/>
			<path class="st4" d="M498.1,77.9c-3.2-3.9-9.2-6.2-17.2-6.2c-11.4,0-19.3,5.4-19.3,12.4c0,7.1,6.2,11.2,21.7,14.2
				c24.2,4.9,33.9,13.3,33.9,29c0,16.5-12.7,28.3-36.3,28.3c-18,0-30.9-8.4-35-21c-1.5-4.5,1.5-7.3,6.2-7.3c3.9,0,5.6,1.9,7.7,5.2
				c3.6,5.6,11.6,9.7,21,9.7c13.9,0,23.2-6.2,23.2-14.8c0-9-6-12-23.2-15.4c-22.5-4.5-32.6-12.7-32.6-27.7c0-14.4,11.2-26,32.6-26
				c15.2,0,26.2,6.9,30.7,17.2c1.9,4.5-0.9,7.5-5.6,7.5C502.2,82.8,500.4,80.9,498.1,77.9z"/>
		</g>
	</g>
</g>
<g>
	<g>
		<g>
			<g>
				<path class="st5" d="M125.2,117.2c4.8,0,6.6,3.8,3.5,8.3c-13.2,18.3-33.5,29.9-56.4,29.9C32.6,155.5,0,120.2,0,76.9
					C0,35.3,32.6,0,72.3,0c22.5,0,42.6,11.5,55.8,29.1c3.3,4.5,1.2,8.3-3.9,8.3h-3.7c-3.3,0-5.4-1.1-7.8-3.6
					c-10.3-11.3-24.6-18.3-40.5-18.3c-32,0-57.6,28-57.6,61.4c0,35,25.6,63.1,57.6,63.1c16.1,0,30.8-7.2,40.9-18.9
					c2.3-2.8,4.5-3.8,7.8-3.8H125.2z"/>
			</g>
		</g>
		<g>
			<path class="st6" d="M126.1,186.9c0-4.2,2.3-6.4,6.6-7c22.7-2.3,35.9-17.8,35.9-42.3V8.5c0-4.5,2.3-6.8,6.8-6.8h1.9
				c4.5,0,6.8,2.3,6.8,6.8v129.1c0,34.2-18.7,55.2-51,58c-4.5,0.2-7-2.3-7-6.8V186.9z"/>
			<path class="st6" d="M334.4,153.3c-4.5,0-6.8-2.3-6.8-6.8V8.5c0-4.5,2.3-6.8,6.8-6.8h0.6c4.5,0,6.8,2.3,6.8,6.8v66.7
				c8.5-10.2,21-16.8,35.3-16.8c26.5,0,48.4,21.9,48.4,48.4c0,26.1-21.9,48.8-48.4,48.8c-14.2,0-26.8-6.8-35.3-17.2v8.1
				c0,4.5-2.3,6.8-6.8,6.8H334.4z M410.7,106.8c0-18.9-14.2-34.4-33.1-34.4c-18.5,0-34.8,15.5-34.8,34.4c0,18.5,16.4,34.8,34.8,34.8
				C396.4,141.7,410.7,125.3,410.7,106.8z"/>
			<path class="st6" d="M494.3,77.9c-3.2-3.8-9.1-6.2-17-6.2c-11.3,0-19.1,5.3-19.1,12.3c0,7,6.2,11,21.4,14
				c24,4.9,33.6,13.2,33.6,28.7c0,16.4-12.5,28-35.9,28c-17.8,0-30.6-8.3-34.6-20.8c-1.5-4.5,1.5-7.2,6.2-7.2c3.8,0,5.5,1.9,7.6,5.1
				c3.6,5.5,11.5,9.6,20.8,9.6c13.8,0,22.9-6.2,22.9-14.7c0-8.9-5.9-11.9-22.9-15.3C455,107,445.1,99,445.1,84.1
				c0-14.2,11-25.7,32.3-25.7c15.1,0,25.9,6.8,30.4,17c1.9,4.5-0.9,7.4-5.5,7.4C498.4,82.8,496.7,80.9,494.3,77.9z"/>
		</g>
	</g>
	<g>
		<path class="st6" d="M258,156.3c-2.1,0-4.2-0.1-6.3-0.4c-12.7-1.7-24-8.3-31.9-18.7c-7.6-10.1-11-22.6-9.6-35.2
			c0.4-3.4,3.2-6,6.6-6c0.2,0,0.5,0,0.8,0c3.6,0.4,6.2,3.7,5.8,7.4c-1,9.2,1.5,18.3,7,25.6c5.7,7.5,13.9,12.3,23.1,13.6
			c1.5,0.2,3.1,0.3,4.6,0.3c7.7,0,15-2.5,21.1-7.3c2.1-1.7,4-3.6,5.7-5.6c4.1-5.1,6.7-11.3,7.6-17.9c1.2-9.4-1.3-18.8-6.9-26.3
			c-5.7-7.5-13.9-12.3-23.1-13.6c-1.5-0.2-3.1-0.3-4.6-0.3c-6.1,0-12,1.6-17.2,4.7l1,1c1.3,1.3,1.7,3,1.2,4.5
			c-0.5,1.5-2,2.5-3.8,2.6l-12.3,1.1c-0.2,0-0.3,0-0.5,0c-1.5,0-2.8-0.6-3.7-1.6c-1-1.1-1.4-2.5-1.3-4l1.1-12.5c0.2-2.8,2.2-4,3.9-4
			c0.8,0,2,0.3,3.2,1.5l1.6,1.7c7.9-5.5,17.1-8.4,26.7-8.4c2.1,0,4.2,0.1,6.3,0.4c12.7,1.7,24,8.3,31.9,18.7
			c7.8,10.4,11.2,23.2,9.5,36.1c-1.2,9.1-4.8,17.6-10.4,24.7c-2.3,2.9-5,5.5-7.9,7.8C278.7,152.8,268.6,156.3,258,156.3
			C258,156.3,258,156.3,258,156.3z"/>
		<path class="st6" d="M293.6,79.4c-7.3-9.7-17.9-16-29.9-17.6c-11.8-1.6-23.5,1.6-33,8.9l-3.4-3.5c-1-1-1.9-0.7-2,0.7l-1.1,12.5
			c-0.1,1.4,0.9,2.5,2.3,2.3l12.3-1.1c1.4-0.1,1.7-1,0.7-2l-3.6-3.6c7.8-5.7,17.3-8.2,26.9-6.9c10,1.3,18.9,6.6,25.1,14.7
			c6.1,8.2,8.8,18.3,7.5,28.5c-0.9,7.2-3.8,13.9-8.2,19.4c-1.8,2.2-3.9,4.3-6.2,6.1c-8,6.3-17.9,9-27.9,7.7
			c-10-1.3-18.9-6.6-25.1-14.7c-6-8-8.7-17.8-7.6-27.8c0.2-2-1.2-3.9-3.2-4.1c-2-0.2-3.8,1.2-4,3.3c-1.3,11.9,1.9,23.6,9,33.1
			c7.3,9.7,17.9,16,29.9,17.6c11.9,1.6,23.7-1.7,33.3-9.1c2.8-2.2,5.2-4.6,7.4-7.3c5.3-6.6,8.7-14.5,9.8-23.2
			C304.1,101.2,300.9,89.1,293.6,79.4z"/>
		<path class="st6" d="M256.1,77.5c-1.6,0-2.9,1.3-2.9,3v29.8l26.7,14.1c0.4,0.2,0.9,0.3,1.3,0.3c1.1,0,2.1-0.6,2.6-1.6
			c0.7-1.5,0.2-3.3-1.3-4l-23.5-12.4V80.5C259.1,78.8,257.7,77.5,256.1,77.5z"/>
	</g>
</g>
</svg>
