<?xml version="1.0" encoding="utf-8"?>
<!-- Generator: Adobe Illustrator 22.1.0, SVG Export Plug-In . SVG Version: 6.00 Build 0)  -->
<svg version="1.1" id="Capa_1" xmlns="http://www.w3.org/2000/svg" xmlns:xlink="http://www.w3.org/1999/xlink" x="0px" y="0px"
	 viewBox="0 0 27.1 27.6" style="enable-background:new 0 0 27.1 27.6;" xml:space="preserve">
<style type="text/css">
	.st0{fill:#333333;stroke:#333333;stroke-width:1.5;stroke-miterlimit:10;}
	.st1{fill:#333333;}
</style>
<g>
	<g>
		<path class="st0" d="M23.6,5.9c-2.1-2.7-5.1-4.5-8.4-5c-3.3-0.4-6.6,0.4-9.3,2.5l-1-1C4.6,2.1,4.4,2.2,4.3,2.6L4,6.1
			c0,0.4,0.3,0.7,0.6,0.7l3.5-0.3c0.4,0,0.5-0.3,0.2-0.6l-1-1c2.2-1.6,4.9-2.3,7.6-1.9c2.8,0.4,5.3,1.9,7.1,4.2
			c1.7,2.3,2.5,5.2,2.1,8c-0.3,2-1.1,3.9-2.3,5.5c-0.5,0.6-1.1,1.2-1.8,1.7c-2.3,1.8-5.1,2.5-7.9,2.2c-2.8-0.4-5.3-1.9-7.1-4.2
			c-1.7-2.2-2.5-5-2.1-7.8C3,12,2.6,11.5,2,11.4c-0.6-0.1-1.1,0.3-1.1,0.9c-0.4,3.4,0.5,6.7,2.6,9.4s5.1,4.5,8.4,5
			c3.4,0.4,6.7-0.5,9.4-2.6c0.8-0.6,1.5-1.3,2.1-2.1c1.5-1.9,2.5-4.1,2.8-6.5C26.6,12.1,25.7,8.7,23.6,5.9z"/>
		<path class="st1" d="M13,5.4c-0.5,0-0.8,0.4-0.8,0.8v8.4l7.5,4c0.1,0.1,0.3,0.1,0.4,0.1c0.3,0,0.6-0.2,0.7-0.5
			c0.2-0.4,0.1-0.9-0.4-1.1l-6.7-3.5V6.2C13.8,5.8,13.5,5.4,13,5.4z"/>
	</g>
</g>
</svg>
