<?xml version="1.0" encoding="utf-8"?>
<!-- Generator: Adobe Illustrator 22.1.0, SVG Export Plug-In . SVG Version: 6.00 Build 0)  -->
<svg version="1.1" id="Capa_1" xmlns="http://www.w3.org/2000/svg" xmlns:xlink="http://www.w3.org/1999/xlink" x="0px" y="0px"
	 viewBox="0 0 390 339.9" style="enable-background:new 0 0 390 339.9;" xml:space="preserve">
<path fill="currentColor" d="M163.1,315.2H41.7c0,0-17.3,3-17.3-15.2v-39.6c0,0,5.1-43.7,48.7-50.8c0,0,13.2-5.1,42.7,4
	c0.1,0,0.3,0.1,0.4,0.1c-0.1-2.3-0.2-4.5-0.2-6.8c0-5.9,0.4-11.8,1-17.6c-33.4-7.7-43.9-4.1-43.9-4.1C4,196.4,0,261.4,0,261.4v8
	c0,0,0,6,0,26.5c0,49.8,44.7,43.7,44.7,43.7h152C184.4,332.9,173.1,324.7,163.1,315.2z"/>
<path fill="currentColor" d="M269,329.7c-6,0-12.1-0.4-18-1.3l-1.2-0.2h-0.1c-3.4-0.5-6.8-1.2-10-2c-6.3-2.8-9.6-8.1-9.6-15.8v-14.9
	l-1.7-0.3c0,0-5.8-1.2-16.3-9.7l-1.1-0.9l-12.4,7.9c-0.1,0-4.3,2.8-9.7,2.8c-3.1,0-6-0.9-8.6-2.8c-2.3-2.3-4.4-4.7-6.5-7.1
	c-0.2-0.3-0.5-0.6-0.7-0.8c-8.3-10.1-15-21.4-19.8-33.5c-0.4-1-0.8-1.9-1.1-2.9l0-0.1l0,0c-0.8-2.1-1.5-4.2-2.1-6.3v-0.6l-0.1-0.1
	c-1.1-7.1,1.9-12.9,8.9-17.1l13-7.8l-0.6-1.6c0,0-1.9-5.5,0.2-18.9l0.2-1.5l-13.2-6.4c-0.4-0.2-10-4.8-9.3-15l0.1-0.1l0-0.6
	c0.7-2.6,1.5-5.2,2.5-7.8l0.1-0.3l0-0.1c0.2-0.5,0.7-1.9,0.7-1.9c4.6-12.3,11-23.7,19.2-33.9l0,0l2.2-2.7c0.1-0.1,6.3-10.2,16-10.2
	c3,0,6,1,9.2,3c6,3.8,9.1,5.8,10.6,6.7l1.5,0.9l1.1-1.3c0,0,4-4.2,16.4-8.5l1.4-0.5l0.1-14.3c0-0.6,0.3-13.8,12.3-17.2
	c1-0.2,2.1-0.4,3.1-0.6c2.1-0.4,4-0.7,5.9-1c5.7-0.8,11.5-1.2,17.4-1.2c6.3,0,12.7,0.5,18.9,1.4c0.9,0.1,1.7,0.3,2.6,0.4l0.1,0.1
	l0.7,0c2.6,0.5,5.1,1,7.6,1.6c9.7,4.4,10,16.3,10,16.4l0.1,14.3l1.4,0.5c12.4,4.3,16.3,8.5,16.4,8.5l1.1,1.2l1.4-0.9l10.6-6.7
	c3.1-2,6.2-3,9.2-3c2.5,0,5.1,0.7,7.5,2.2c16.4,16.3,27.9,36.8,33.2,59.1c-1.4,7.7-9,11.3-9.1,11.4l-13.3,6.4l0.2,1.5
	c2.2,13.3,0.2,18.8,0.2,18.9l-0.6,1.6l1.4,0.9c1.3,0.8,3.6,2.2,7.7,4.6l3.8,2.3c5.4,3.2,8.4,7.4,9,12.5
	c-5.6,21.9-17.1,41.8-33.3,57.7c-1.8,0.8-3.7,1.2-5.8,1.2c0,0,0,0,0,0c-5.4,0-9.6-2.8-9.7-2.8l-12.4-7.9l-1.1,0.9
	c-10.5,8.6-16.3,9.7-16.3,9.7l-1.7,0.3l0,1.7v13.2c0,7.1-2.8,12.2-8.2,15.1c-4.2,1.1-8.5,2-12.8,2.7
	C281.8,329.2,275.4,329.7,269,329.7z M260.6,310.4c0.4,0,0.8,0.1,1.2,0.1c0.2,0,0.5,0,0.8,0.1l1.5,0.1l0.8,0c0.1,0,0.3,0,0.5,0
	l0.2,0l0.3,0l0.9,0c0.3,0,0.5,0,0.8,0c0.5,0,1,0,1.5,0c0.7,0,1.3,0,2,0l2.1-0.1l0.1,0l0.1,0c4.8-0.1,9.4-0.6,13.7-1.3l1.7-0.3v-28.4
	c13.8-3.6,26.2-10.9,36.1-21.2l23.5,14.1l1.1-1.3c0.5-0.5,11.3-12.8,18.1-30.2l0.6-1.6l-24.2-14.5c1.8-6.7,2.8-13.6,2.8-20.6
	c0-7.2-1-14.3-2.9-21.2l23-12.5l-0.5-1.6c-0.2-0.7-5.3-16.2-16.8-30.9l-1.1-1.4l-24,13.1c-9.9-10-22.2-17.2-35.7-20.7l0.1-25.9
	l-1.6-0.4c0,0-0.2,0-0.5-0.1c0,0-0.2,0-0.4-0.1l-0.5-0.1l-0.1,0c-0.1,0-0.2,0-0.3,0l-1.2-0.2l-0.1,0c-0.2,0-0.3,0-0.5-0.1l-0.1,0
	c-0.2,0-0.4,0-0.6-0.1c-0.3,0-0.5-0.1-0.8-0.1c-0.1,0-0.2,0-0.3,0l-0.3,0c-0.2,0-0.4,0-0.6-0.1c0,0-0.2,0-0.3,0l-2.1-0.2
	c-0.4,0-0.7-0.1-1.1-0.1c-1-0.1-2-0.1-3.1-0.2l-0.5,0l-0.7,0c-0.4,0-0.9,0-1.3,0c-0.3,0-0.6,0-1,0c-0.3,0-0.6,0-0.9,0
	c-0.2,0-0.4,0-0.7,0c-0.9,0-1.8,0-2.6,0c-3.2,0.1-6.4,0.3-9.4,0.6l-1.6,0.2c-0.1,0-0.2,0-0.3,0l-0.2,0l-0.1,0l-0.1,0
	c-0.2,0-0.3,0-0.5,0.1h-0.1l-0.1,0l-0.2,0l0,0l-0.2,0H254l-0.5,0.1c-0.3,0-0.5,0.1-0.7,0.1c-0.2,0-0.3,0-0.5,0.1l-1.9,0.3v1.8
	l-0.1,24.1c-13.8,3.4-26.3,10.5-36.4,20.7l-23.6-12.8l-1.1,1.4c-11.5,14.7-16.6,30.3-16.8,30.9l-0.5,1.6l22.4,12.2
	c-2,7-3,14.2-3,21.5c0,7.1,1,14.2,2.9,21l-23.6,14.2l0.6,1.6c6.8,17.4,17.6,29.7,18.1,30.2l1.1,1.3l23.1-13.8
	c10.1,10.4,22.8,17.7,36.9,21.2v28.1l1.6,0.3c0,0,0.3,0,0.3,0.1l0.2,0l0.7,0.1c0.5,0.1,1.1,0.2,1.8,0.3c0,0,0.5,0.1,0.6,0.1l0,0
	l0.5,0.1c0.2,0,0.4,0,0.7,0.1l0.1,0c0.1,0,0.3,0,0.4,0l1.2,0.1c0.1,0,0.9,0.1,0.9,0.1c0.1,0,0.2,0,0.4,0L260.6,310.4z"/>
<path fill="currentColor" d="M269.5,157.3c-26.9,0-48.7,21.8-48.7,48.7s21.8,48.7,48.7,48.7s48.7-21.8,48.7-48.7S296.4,157.3,269.5,157.3z
	 M269.5,231.3c-14,0-25.3-11.3-25.3-25.3c0-14,11.3-25.3,25.3-25.3c14,0,25.3,11.3,25.3,25.3C294.9,220,283.5,231.3,269.5,231.3z"/>
<path fill="currentColor" d="M269.5,252.6c-25.7,0-46.7-20.9-46.7-46.7s20.9-46.7,46.7-46.7c25.7,0,46.7,20.9,46.7,46.7
	S295.3,252.6,269.5,252.6z M269.5,178.6c-15.1,0-27.3,12.3-27.3,27.3s12.3,27.3,27.3,27.3c15.1,0,27.3-12.3,27.3-27.3
	S284.6,178.6,269.5,178.6z"/>
<path fill="currentColor" d="M146.6,0c-46.1,0-83.5,37.6-83.5,84c0,37.9,25,69.9,59.3,80.4c2.4-7.8,5.4-15.3,8.9-22.6
	c-25.3-6.8-43.9-30-43.9-57.6c0-32.9,26.5-59.6,59.3-59.6c28,0,51.5,19.6,57.7,45.8c7.3-3.5,14.8-6.4,22.7-8.8
	C217.4,26.1,185,0,146.6,0z"/>
</svg>
