<?xml version="1.0" encoding="utf-8"?>
<!-- Generator: Adobe Illustrator 22.1.0, SVG Export Plug-In . SVG Version: 6.00 Build 0)  -->
<svg version="1.1" id="Capa_1" xmlns="http://www.w3.org/2000/svg" xmlns:xlink="http://www.w3.org/1999/xlink" x="0px" y="0px"
	 viewBox="0 0 490 571.7" style="enable-background:new 0 0 490 571.7;" xml:space="preserve">
<path fill="currentColor" d="M367,311.9c0,0-20.5-6.8-87,10.2c0,0-15.9,2.9-35,3.6c-19.1-0.7-35-3.6-35-3.6c-66.6-17.1-87-10.2-87-10.2
	C6.8,330.6,0,439.9,0,439.9v13.5c0,0,0,10.1,0,44.5c0,83.6,75.1,73.4,75.1,73.4h339.7c0,0,75.1,10.2,75.1-73.4c0-34.5,0-44.5,0-44.5
	v-13.5C489.9,439.9,483,330.6,367,311.9z M450.6,504.7c0,30.7-29,25.6-29,25.6H70c0,0-29,5.1-29-25.6v-66.6c0,0,8.5-73.4,81.9-85.3
	c0,0,22.2-8.5,71.7,6.8c12.3,3.8,26.3,5.6,40.3,6.1c7.2,0.3,14.5,0.3,21.8,0c14-0.5,28-2.4,40.3-6.1c49.5-15.4,71.7-6.8,71.7-6.8
	c73.4,11.9,81.9,85.3,81.9,85.3V504.7z"/>
<circle fill="none" stroke="currentColor" stroke-width="42" stroke-miterlimit="10" cx="246.6" cy="142" r="120.3"/>
</svg>
