<?xml version="1.0" encoding="utf-8"?>
<!-- Generator: Adobe Illustrator 22.1.0, SVG Export Plug-In . SVG Version: 6.00 Build 0)  -->
<svg version="1.1" id="Capa_1" xmlns="http://www.w3.org/2000/svg" xmlns:xlink="http://www.w3.org/1999/xlink" x="0px" y="0px"
	 viewBox="0 0 390 274.8" style="enable-background:new 0 0 390 274.8;" xml:space="preserve">
<path fill="currentColor" d="M177.8,150c0,0-9.9-3.3-41.8,4.9c0,0-7.6,1.4-16.8,1.7c-9.2-0.3-16.8-1.7-16.8-1.7c-32-8.2-41.8-4.9-41.8-4.9
	c-55.9,9-59.2,61.6-59.2,61.6v6.5c0,0,0,4.9,0,21.4c0,40.2,36.1,35.3,36.1,35.3h163.4c0,0,36.1,4.9,36.1-35.3c0-16.6,0-21.4,0-21.4
	v-6.5C236.9,211.6,233.6,159,177.8,150z M218,242.8c0,14.8-13.9,12.3-13.9,12.3H34.9c0,0-13.9,2.5-13.9-12.3v-32
	c0,0,4.1-35.3,39.4-41c0,0,10.7-4.1,34.5,3.3c5.9,1.8,12.7,2.7,19.4,2.9c3.5,0.1,7,0.1,10.5,0c6.7-0.2,13.5-1.2,19.4-2.9
	c23.8-7.4,34.5-3.3,34.5-3.3c35.3,5.7,39.4,41,39.4,41V242.8z"/>
<path fill="currentColor" d="M119.9,0c-37.5,0-68,30.4-68,68c0,37.5,30.4,68,68,68c37.5,0,68-30.4,68-68C187.9,30.4,157.4,0,119.9,0z
	 M119.9,116.2c-26.7,0-48.3-21.6-48.3-48.3c0-26.7,21.6-48.3,48.3-48.3c26.7,0,48.3,21.6,48.3,48.3
	C168.2,94.6,146.6,116.2,119.9,116.2z"/>
<path fill="currentColor" d="M342.8,152.1c0,0-7.9-2.6-33.4,3.9c0,0-6.1,1.1-13.4,1.4c-7.3-0.3-13.4-1.4-13.4-1.4
	c-25.6-6.6-33.4-3.9-33.4-3.9c-6.1,1-11.5,2.6-16.1,4.7c4.3,3.8,7.9,8,10.9,12.2c1.6-0.5,3.4-0.9,5.2-1.2c0,0,8.5-3.3,27.6,2.6
	c4.7,1.5,10.1,2.2,15.5,2.3c2.8,0.1,5.6,0.1,8.4,0c5.4-0.2,10.8-0.9,15.5-2.3c19-5.9,27.5-2.6,27.5-2.6
	c28.2,4.6,31.5,32.8,31.5,32.8v25.6c0,11.8-11.1,9.8-11.1,9.8H257.6v0.3c0,6-0.7,11.1-2,15.4h105.5c0,0,28.9,3.9,28.9-28.2
	c0-13.3,0-17.1,0-17.1v-5.2C390,201.3,387.4,159.3,342.8,152.1z"/>
<path fill="currentColor" d="M295,21.3c-32,0-57.9,25.9-57.9,57.9c0,32,25.9,57.9,57.9,57.9c32,0,57.9-25.9,57.9-57.9
	C352.9,47.3,327,21.3,295,21.3z M295,120.4c-22.7,0-41.1-18.4-41.1-41.1s18.4-41.1,41.1-41.1c22.7,0,41.1,18.4,41.1,41.1
	S317.7,120.4,295,120.4z"/>
</svg>
