<?xml version="1.0" encoding="utf-8"?>
<!-- Generator: Adobe Illustrator 22.1.0, SVG Export Plug-In . SVG Version: 6.00 Build 0)  -->
<svg version="1.1" id="Capa_1" xmlns="http://www.w3.org/2000/svg" xmlns:xlink="http://www.w3.org/1999/xlink" x="0px" y="0px"
	 viewBox="0 0 99.3 97.5" style="enable-background:new 0 0 99.3 97.5;" xml:space="preserve">
<style type="text/css">
	.st0{fill:#662D91;}
	.st1{fill:none;}
	.st2{fill:#944ED1;}
	.st3{display:none;}
	.st4{display:inline;}
	.st5{fill:#333333;stroke:#333333;stroke-width:1.5;stroke-miterlimit:10;}
	.st6{display:none;fill:#333333;}
</style>
<path class="st0" d="M21.1,2.4C21.9,2.5,23,2.9,24,4.3l1.3,1.8l0,0c15.1-8.2,34-8.2,49.5,1.7c22.7,14.5,29.4,44.6,14.9,67.3
	S45.2,104.5,22.4,90C5,78.9-2.9,58.6,0.8,39.5c0,0,0,0,0,0c0-0.2,0.1-0.4,0.1-0.6c0.2-0.6,0.4-1.2,0.8-1.8c2-3.1,6-4,9.1-2
	c2.3,1.5,3.4,4.1,2.9,6.6c-2.9,14.1,2.9,29.1,15.7,37.3C46.1,89.5,68.1,84.6,78.7,68s5.7-38.6-10.9-49.1c-10.8-6.9-23.9-7.2-34.6-2
	l0.2,0.2l0.9,1.1c1.1,1.6,1.3,3.2,0.6,4.6c-0.8,1.4-2.3,2.2-4.1,2.1l-8-0.4l-4.3-0.2c-0.1,0-0.4,0-0.5,0c-1.5-0.2-2.6-0.9-3.5-2.2
	c-0.8-1.2-1-2.6-0.7-4.1l1-4.1l1.9-8.2C17.2,3,19.4,2.1,21.1,2.4z"/>
<circle class="st1" cx="48.8" cy="48.9" r="48.8"/>
<circle class="st2" cx="48.7" cy="48.9" r="0.4"/>
<g class="st3">
	<g class="st4">
		<path class="st5" d="M87.5,19.8C79.7,9.7,68.5,3,56.2,1.2C44-0.3,31.7,2.7,21.6,10.5l-3.7-3.7c-1.1-1.1-1.9-0.7-2.2,0.7l-1.1,13
			c0,1.5,1.1,2.6,2.2,2.6l13-1.1c1.5,0,1.9-1.1,0.7-2.2l-3.7-3.7c8.2-6,18.2-8.6,28.3-7.1c10.4,1.5,19.7,7.1,26.4,15.6
			c6.3,8.6,9.3,19.3,7.8,29.8c-1.1,7.4-4.1,14.5-8.6,20.5c-1.9,2.2-4.1,4.5-6.7,6.3c-8.6,6.7-19,9.3-29.4,8.2
			C34.3,87.9,25,82.3,18.3,73.7c-6.3-8.2-9.3-18.6-7.8-29c0.4-2.2-1.1-4.1-3.3-4.5C4.9,39.9,3,41.4,3,43.6
			c-1.5,12.6,1.9,24.9,9.7,35s19,16.7,31.2,18.6c12.6,1.5,24.9-1.9,35-9.7c3-2.2,5.6-4.8,7.8-7.8c5.6-7.1,9.3-15.3,10.4-24.2
			C98.6,42.8,95.3,30.2,87.5,19.8z"/>
		<path class="st6" d="M48,17.9c-1.9,0-3,1.5-3,3v31.2L73,67c0.4,0.4,1.1,0.4,1.5,0.4c1.1,0,2.2-0.7,2.6-1.9
			c0.7-1.5,0.4-3.3-1.5-4.1l-24.9-13V20.9C51,19.4,49.9,17.9,48,17.9z"/>
	</g>
</g>
</svg>
