<?xml version="1.0" encoding="utf-8"?>
<!-- Generator: Adobe Illustrator 22.1.0, SVG Export Plug-In . SVG Version: 6.00 Build 0)  -->
<svg version="1.1" id="Capa_1" xmlns="http://www.w3.org/2000/svg" xmlns:xlink="http://www.w3.org/1999/xlink" x="0px" y="0px"
	 viewBox="0 0 290.1 55.3" style="enable-background:new 0 0 290.1 55.3;" xml:space="preserve">
<style type="text/css">
	.st0{fill:#333333;}
	.st1{fill:#662D91;}
</style>
<g>
	<g>
		<g>
			<g>
				<path class="st0" d="M35.4,33.1c1.4,0,1.9,1.1,1,2.3c-3.7,5.2-9.5,8.5-15.9,8.5C9.2,43.9,0,34,0,21.7C0,10,9.2,0,20.4,0
					c6.4,0,12,3.2,15.8,8.2c0.9,1.3,0.3,2.3-1.1,2.3h-1c-0.9,0-1.5-0.3-2.2-1c-2.9-3.2-7-5.2-11.4-5.2c-9,0-16.3,7.9-16.3,17.3
					c0,9.9,7.2,17.8,16.3,17.8c4.5,0,8.7-2,11.6-5.3c0.7-0.8,1.3-1.1,2.2-1.1L35.4,33.1L35.4,33.1z"/>
				<path class="st0" d="M42.4,30.2c0-7.5,6.2-13.7,13.7-13.7s13.7,6.2,13.7,13.7c0,7.4-6.2,13.8-13.7,13.8S42.4,37.6,42.4,30.2z
					 M46.6,30.2c0,5.2,4.1,9.8,9.5,9.8s9.5-4.6,9.5-9.8c0-5.3-4.1-9.7-9.5-9.7S46.6,24.8,46.6,30.2z"/>
				<path class="st0" d="M78,43.3c-1.3,0-1.9-0.7-1.9-1.9V18.8c0-1.3,0.7-1.9,1.9-1.9h0.2c1.3,0,1.9,0.7,1.9,1.9v1.3
					c2.1-2.3,5-3.6,8.6-3.6c7.6,0,10.8,3.4,10.8,11.8v13.1c0,1.3-0.7,1.9-1.9,1.9h-0.2c-1.3,0-1.9-0.7-1.9-1.9V28.3
					c0-5.2-2.4-7.8-6.8-7.8c-5.3-0.1-8.6,2.9-8.6,8.8v12.1c0,1.3-0.7,1.9-1.9,1.9C78.2,43.3,78,43.3,78,43.3z"/>
				<path class="st0" d="M117,20.6h-4v20.8c0,1.3-0.7,1.9-1.9,1.9h-0.2c-1.3,0-1.9-0.7-1.9-1.9V20.6h-2c-1.3,0-1.9-0.7-1.9-1.9
					c0-1.1,0.7-1.7,1.9-1.7h2V8.5c0-1.3,0.7-1.9,1.9-1.9h0.2c1.3,0,1.9,0.7,1.9,1.9V17h4c1.3,0,1.9,0.6,1.9,1.8S118.2,20.6,117,20.6
					z"/>
				<path class="st0" d="M128.3,20.5c1.7-2,4.1-3.4,7-3.8c1.3-0.2,2,0.5,2,1.8v0.1c0,1.3-0.7,1.8-1.9,2c-3.9,0.6-7.1,3.4-7.1,8.1
					v12.7c0,1.3-0.7,1.9-1.9,1.9h-0.2c-1.3,0-1.9-0.7-1.9-1.9V18.8c0-1.3,0.7-1.9,1.9-1.9h0.2c1.3,0,1.9,0.7,1.9,1.9V20.5z"/>
				<path class="st0" d="M175.8,43.3c-1.3,0-1.9-0.7-1.9-1.9v-39c0-1.3,0.7-1.9,1.9-1.9h0.2c1.3,0,1.9,0.7,1.9,1.9v39
					c0,1.3-0.7,1.9-1.9,1.9H175.8z"/>
			</g>
		</g>
		<g>
			<path class="st1" d="M180.7,52.8c0-1.2,0.7-1.8,1.9-2c6.4-0.7,10.1-5,10.1-11.9V2.4c0-1.3,0.7-1.9,1.9-1.9h0.5
				c1.3,0,1.9,0.7,1.9,1.9v36.5c0,9.7-5.3,15.6-14.4,16.4c-1.3,0.1-2-0.7-2-1.9v-0.6H180.7z"/>
			<path class="st1" d="M204,30.2c0-7.5,6.2-13.7,13.7-13.7s13.7,6.2,13.7,13.7c0,7.4-6.2,13.8-13.7,13.8
				C210.1,44,204,37.6,204,30.2z M208.2,30.2c0,5.2,4.1,9.8,9.5,9.8s9.5-4.6,9.5-9.8c0-5.3-4.1-9.7-9.5-9.7S208.2,24.8,208.2,30.2z"
				/>
			<path class="st1" d="M239.5,43.3c-1.3,0-1.9-0.7-1.9-1.9v-39c0-1.3,0.7-1.9,1.9-1.9h0.2c1.3,0,1.9,0.7,1.9,1.9v18.8
				c2.4-2.9,5.9-4.7,10-4.7c7.5,0,13.7,6.2,13.7,13.7c0,7.4-6.2,13.8-13.7,13.8c-4,0-7.6-1.9-10-4.9v2.3c0,1.3-0.7,1.9-1.9,1.9
				C239.7,43.3,239.5,43.3,239.5,43.3z M261.1,30.2c0-5.3-4-9.7-9.4-9.7c-5.2,0-9.8,4.4-9.8,9.7c0,5.2,4.6,9.8,9.8,9.8
				C257.1,40,261.1,35.4,261.1,30.2z"/>
			<path class="st1" d="M284.7,22c-0.9-1.1-2.6-1.7-4.8-1.7c-3.2,0-5.4,1.5-5.4,3.5s1.7,3.1,6.1,4c6.8,1.4,9.5,3.7,9.5,8.1
				c0,4.6-3.5,7.9-10.1,7.9c-5,0-8.6-2.3-9.8-5.9c-0.4-1.3,0.4-2,1.7-2c1.1,0,1.6,0.5,2.2,1.4c1,1.6,3.2,2.7,5.9,2.7
				c3.9,0,6.5-1.7,6.5-4.1c0-2.5-1.7-3.4-6.5-4.3c-6.3-1.3-9.1-3.5-9.1-7.7c0-4,3.1-7.3,9.1-7.3c4.3,0,7.3,1.9,8.6,4.8
				c0.5,1.3-0.2,2.1-1.6,2.1C285.9,23.4,285.4,22.9,284.7,22z"/>
		</g>
	</g>
	<g>
		<path class="st0" d="M153.7,21.9c-0.5,0-0.8,0.4-0.8,0.8v8.4l7.5,4c0.1,0.1,0.3,0.1,0.4,0.1c0.3,0,0.6-0.2,0.7-0.5
			c0.2-0.4,0.1-0.9-0.4-1.1l-6.7-3.5v-7.4C154.5,22.3,154.2,21.9,153.7,21.9z"/>
		<path class="st1" d="M168,30.3c0,7.6-6.2,13.7-13.7,13.7c-7.6,0-13.8-6.1-13.8-13.7c0-0.4,0-0.9,0.1-1.3v0c0-0.1,0-0.1,0-0.2
			l0-0.2c0.2-0.8,0.9-1.5,1.8-1.5c1,0,1.9,0.8,1.9,1.9c0,0,0,0.1,0,0.1c0,0,0,0.1,0,0.1c0,0.1,0,0.1,0,0.2c0,0.3,0,0.6,0,0.9
			c0,5.5,4.5,10,10,10c5.5,0,10-4.5,10-10c0-5.5-4.5-10-10-10c-1.8,0-3.5,0.5-4.9,1.3c0.3,0.3,0.6,0.6,0.6,0.8
			c0.1,0.3,0.1,0.6-0.2,0.9c-0.2,0.3-0.8,0.4-0.8,0.4l-2.5,0.2l-0.5,0h0l-0.6,0h0c-1.3-0.1-1.4-1.4-1.4-1.4l0.1-1l0.1-0.6l0.2-2
			c0,0,0.1-0.5,0.4-0.8c0.3-0.2,0.6-0.2,0.9-0.2c0.3,0.1,0.8,0.6,1,0.8c2.2-1.4,4.8-2.3,7.6-2.3C161.8,16.5,168,22.7,168,30.3z"/>
	</g>
</g>
</svg>
