<?xml version="1.0" encoding="utf-8"?>
<!-- Generator: Adobe Illustrator 22.1.0, SVG Export Plug-In . SVG Version: 6.00 Build 0)  -->
<svg version="1.1" id="Capa_1" xmlns="http://www.w3.org/2000/svg" xmlns:xlink="http://www.w3.org/1999/xlink" x="0px" y="0px"
	 viewBox="0 0 490 346" style="enable-background:new 0 0 490 346;" xml:space="preserve">
<style type="text/css">
	.st0{fill:#333333;}
	.st1{fill:none;stroke:#333333;stroke-width:24;stroke-miterlimit:10;}
</style>
<path class="st0" d="M229.6,189c0,0-12-4-51,6c0,0-9.3,1.7-20.5,2.1c-11.2-0.4-20.5-2.1-20.5-2.1c-39-10-51-6-51-6
	c-68,11-72,75-72,75v7.9c0,0,0,5.9,0,26.1c0,49,44,43,44,43h67l2.7-24H55.6c0,0-17,3-17-15v-39c0,0,5-43,48-50c0,0,13-5,42,4
	c7.2,2.2,15.4,3.3,23.6,3.6c4.2,0.2,8.5,0.2,12.8,0c8.2-0.3,16.4-1.4,23.6-3.6c29-9,42-4,42-4c8.8,1.4,16.1,4.4,22,8.2v-25.7
	C245.9,192.7,238.2,190.4,229.6,189z M282.7,301c-1.4,0-2.8-0.1-4.1-0.3v1.3c0,18-17,15-17,15h-71.3l2.7,24h64.7
	c0,0,42.2,5.8,43.9-40H282.7z"/>
<circle class="st1" cx="159.1" cy="89.5" r="70.5"/>
<polygon class="st0" points="187.4,381.4 159.3,412.4 159.2,412.6 159.1,412.4 131.1,381.4 146.8,240.5 171.6,240.5 "/>
<path class="st0" d="M178.9,206.6l-5.5,27.6h-28l-5.5-27.6C139.9,206.6,178.4,206.6,178.9,206.6z"/>
<path class="st0" d="M282.7,134.1h10.6V291h-10.6c-11.1,0-20.1-9.1-20.1-20.1V154.2C262.6,143.2,271.6,134.1,282.7,134.1z"/>
<path class="st0" d="M402.2,134.1v-21.3c0,0-10.6-6.8-28.9-8.6c0,0,0,0-0.1,0c-2.1-0.2-4.3-0.3-6.6-0.4c-2.3,0-4.5,0.2-6.6,0.4h0
	c-18.3,1.7-29,8.6-29,8.6v21.3h-22.7V291H425V134.1H402.2z M343.4,121.5c0,0,7-4.9,19-6.1h0c1.4-0.1,2.8-0.2,4.3-0.3
	c1.5,0,2.9,0.1,4.3,0.3h0c12,1.2,19,6.1,19,6.1v12.6h-46.6V121.5z"/>
<path class="st0" d="M470.9,154.2v116.6c0,11.1-9.1,20.1-20.1,20.1H440V134.1h10.7C461.8,134.1,470.9,143.2,470.9,154.2z"/>
<path class="st0" d="M373.2,104.2c-2.1-0.2-4.3-0.3-6.6-0.4c0.6,0,1.2,0,1.8,0C370.1,103.9,371.7,104,373.2,104.2z"/>
</svg>
