<?xml version="1.0" encoding="utf-8"?>
<!-- Generator: Adobe Illustrator 22.1.0, SVG Export Plug-In . SVG Version: 6.00 Build 0)  -->
<svg version="1.1" id="Capa_1" xmlns="http://www.w3.org/2000/svg" xmlns:xlink="http://www.w3.org/1999/xlink" x="0px" y="0px"
	 viewBox="0 0 1140 694" style="enable-background:new 0 0 1140 694;" xml:space="preserve">
<style type="text/css">
	.st0{fill:#4B0082;}
	.st1{fill:none;stroke:#4B0082;stroke-width:16;stroke-miterlimit:10;}
	.st2{display:none;}
	.st3{display:inline;}
	.st4{fill:#363636;}
	.st5{fill:#662D91;}
	.st6{fill:none;stroke:#4B0082;stroke-width:18;stroke-miterlimit:10;}
	.st7{fill:none;}
	.st8{font-family:'Raleway-Regular';}
	.st9{font-size:37.4927px;}
	.st10{fill:none;stroke:#4B0082;stroke-width:3;stroke-miterlimit:10;}
	.st11{fill:none;stroke:#4B0082;stroke-width:3;stroke-miterlimit:10;stroke-dasharray:12.3827,12.3827;}
</style>
<g id="Empleador">
	<path class="st0" d="M518.2,123.6c0,0-8.2-2.7-34.7,4.1c0,0-6.3,1.2-13.9,1.4c-7.6-0.3-13.9-1.4-13.9-1.4
		c-26.5-6.8-34.7-4.1-34.7-4.1c-46.2,7.5-49,51-49,51v5.4c0,0,0,4,0,17.8c0,33.3,29.9,29.2,29.9,29.2h45.5l1.8-16.3h-49.4
		c0,0-11.6,2-11.6-10.2V174c0,0,3.4-29.2,32.6-34c0,0,8.8-3.4,28.6,2.7c4.9,1.5,10.5,2.2,16.1,2.4c2.9,0.1,5.8,0.1,8.7,0
		c5.6-0.2,11.2-1,16.1-2.4c19.7-6.1,28.6-2.7,28.6-2.7c6,1,10.9,3,15,5.6v-17.5C529.3,126.1,524.1,124.6,518.2,123.6z M554.4,199.8
		c-1,0-1.9-0.1-2.8-0.2v0.9c0,12.2-11.6,10.2-11.6,10.2h-48.5l1.8,16.3h44c0,0,28.7,3.9,29.9-27.2H554.4z"/>
	
		<ellipse transform="matrix(0.2298 -0.9732 0.9732 0.2298 307.8426 500.7758)" class="st1" cx="470.3" cy="55.9" rx="47.9" ry="47.9"/>
	<polygon class="st0" points="489.5,254.5 470.5,275.6 470.4,275.7 470.3,275.6 451.2,254.5 461.9,158.7 478.8,158.7 	"/>
	<path class="st0" d="M483.7,135.6l-3.7,18.7h-19l-3.7-18.7C457.2,135.6,483.4,135.6,483.7,135.6z"/>
	<path class="st0" d="M554.4,86.3h7.2V193h-7.2c-7.5,0-13.7-6.2-13.7-13.7V100C540.7,92.4,546.8,86.3,554.4,86.3z"/>
	<path class="st0" d="M635.6,86.3V71.8c0,0-7.2-4.6-19.7-5.8c0,0,0,0-0.1,0c-1.4-0.1-2.9-0.2-4.5-0.3c-1.5,0-3,0.1-4.5,0.3l0,0
		c-12.5,1.2-19.7,5.8-19.7,5.8v14.5h-15.4V193H651V86.3H635.6z M595.6,77.7c0,0,4.7-3.3,12.9-4.2l0,0c0.9-0.1,1.9-0.2,2.9-0.2
		s2,0.1,2.9,0.2l0,0c8.2,0.8,12.9,4.2,12.9,4.2v8.5h-31.7L595.6,77.7L595.6,77.7z"/>
	<path class="st0" d="M682.3,100v79.3c0,7.5-6.2,13.7-13.7,13.7h-7.3V86.3h7.3C676.2,86.3,682.3,92.4,682.3,100z"/>
	<path class="st0" d="M615.9,66c-1.4-0.1-2.9-0.2-4.5-0.3c0.4,0,0.8,0,1.2,0C613.8,65.7,614.9,65.8,615.9,66z"/>
</g>
<g id="Trabajador">
	<path class="st0" d="M159.7,524.3c0,0-8.1-2.7-34.5,4.1c0,0-6.3,1.2-13.9,1.4c-7.6-0.3-13.9-1.4-13.9-1.4
		c-26.4-6.8-34.5-4.1-34.5-4.1c-46,7.4-48.7,50.8-48.7,50.8v5.3c0,0,0,4,0,17.7c0,33.2,29.8,29.1,29.8,29.1h2.5V611H42
		c0,0-11.5,2-11.5-10.2v-26.4c0,0,3.4-29.1,32.5-33.8c0,0,8.8-3.4,28.4,2.7c4.9,1.5,10.4,2.2,16,2.4c2.8,0.1,5.8,0.1,8.7,0
		c5.5-0.2,11.1-0.9,16-2.4c19.6-6.1,28.4-2.7,28.4-2.7c29.1,4.7,32.5,33.8,32.5,33.8v26.4c0,12.2-11.5,10.2-11.5,10.2h-3.8v16.2h1.1
		c0,0,29.8,4.1,29.8-29.1c0-13.7,0-17.7,0-17.7v-5.3C208.4,575.1,205.7,531.8,159.7,524.3z"/>
	<circle class="st1" cx="112" cy="457" r="47.7"/>
	<path class="st0" d="M176.4,427.9c0,2.2-0.9,4.2-2.3,5.6c-1.4,1.5-3.4,2.3-5.6,2.3H54.8c-4.4,0-8-3.6-8-8c0-2.2,0.9-4.2,2.3-5.6
		c1.4-1.4,3.4-2.3,5.6-2.3h1.8c1.1-21.5,13.3-39.9,30.6-48.9l4.4,26.1c0.4,2.1,2.4,3.6,4.5,3.2l0.5-0.1c2.1-0.4,3.6-2.4,3.2-4.5
		l-4.5-26.9l-0.2-1.1l-0.3-1.7c0.3-0.5,2.6-3.6,5.9-4.4c0,0,1.6-0.4,3.5-0.5c0.1,0,0.1,0,0.2,0h14.5c0.1,0,0.1,0,0.2,0
		c2,0,3.5,0.5,3.5,0.5c3.4,0.9,5.7,4.3,5.9,4.5l-0.3,1.7l-0.2,1l-4.6,27.1c-0.4,2.1,1.1,4.1,3.2,4.5l0.5,0.1
		c2.1,0.4,4.1-1.1,4.5-3.2l4.4-26.1l0,0c17.2,9.1,29.3,27.4,30.4,48.8h1.9C172.8,419.9,176.4,423.5,176.4,427.9z"/>
	<path class="st0" d="M158.8,638H65.2c-6.6,0-12-5.4-12-12v-42.7c0-6.6,5.4-12,12-12h93.6c6.6,0,12,5.4,12,12V626
		C170.8,632.6,165.4,638,158.8,638z"/>
	<rect x="65.6" y="531.8" class="st0" width="10.8" height="54.1"/>
	<rect x="146.8" y="531.8" class="st0" width="10.8" height="54.1"/>
</g>
<g id="Jobs" class="st2">
	<g class="st3">
		<g>
			<g class="st2">
				<g class="st3">
					<path class="st4" d="M383.7,456.3c2.7,0,3.7,2.1,2,4.6c-7.4,10.2-18.7,16.7-31.4,16.7c-22.1,0.1-40.3-19.6-40.3-43.7
						c0-23.2,18.2-42.9,40.3-42.9c12.5,0,23.7,6.4,31.1,16.2c1.8,2.5,0.7,4.6-2.2,4.6H381c-1.8,0-3-0.6-4.3-2
						c-5.7-6.3-13.7-10.2-22.6-10.2c-17.8,0-32.1,15.6-32.1,34.2c0,19.5,14.3,35.2,32.1,35.2c9,0,17.2-4,22.8-10.5
						c1.3-1.6,2.5-2.1,4.3-2.1L383.7,456.3L383.7,456.3z"/>
				</g>
			</g>
			<g>
				<path class="st5" d="M384.2,495.1c0-2.3,1.3-3.6,3.7-3.9c12.6-1.3,20-9.9,20-23.6v-71.9c0-2.5,1.3-3.8,3.8-3.8h1.1
					c2.5,0,3.8,1.3,3.8,3.8v71.9c0,19.1-10.4,30.8-28.4,32.3c-2.5,0.1-3.9-1.3-3.9-3.8v-1H384.2z"/>
				<path class="st5" d="M500.2,476.4c-2.5,0-3.8-1.3-3.8-3.8v-76.9c0-2.5,1.3-3.8,3.8-3.8h0.3c2.5,0,3.8,1.3,3.8,3.8v37.2
					c4.7-5.7,11.7-9.4,19.7-9.4c14.8,0,27,12.2,27,27c0,14.5-12.2,27.2-27,27.2c-7.9,0-14.9-3.8-19.7-9.6v4.5c0,2.5-1.3,3.8-3.8,3.8
					L500.2,476.4L500.2,476.4z M542.8,450.5c0-10.5-7.9-19.2-18.4-19.2c-10.3,0-19.4,8.6-19.4,19.2c0,10.3,9.1,19.4,19.4,19.4
					C534.8,470,542.8,460.8,542.8,450.5z"/>
				<path class="st5" d="M589.3,434.4c-1.8-2.1-5.1-3.5-9.5-3.5c-6.3,0-10.6,3-10.6,6.9s3.5,6.1,11.9,7.8c13.4,2.7,18.7,7.4,18.7,16
					c0,9.1-7,15.6-20,15.6c-9.9,0-17.1-4.6-19.3-11.6c-0.8-2.5,0.8-4,3.5-4c2.1,0,3.1,1.1,4.2,2.8c2,3.1,6.4,5.3,11.6,5.3
					c7.7,0,12.8-3.5,12.8-8.2c0-5-3.3-6.6-12.8-8.5c-12.4-2.5-17.9-6.9-17.9-15.2c0-7.9,6.1-14.3,18-14.3c8.4,0,14.4,3.8,16.9,9.5
					c1.1,2.5-0.5,4.1-3.1,4.1C591.6,437.1,590.7,436.1,589.3,434.4z"/>
			</g>
		</g>
		<g>
			<path class="st4" d="M457.7,478.1c-1.2,0-2.3-0.1-3.5-0.2c-7.1-0.9-13.4-4.6-17.8-10.4c-4.2-5.6-6.1-12.6-5.3-19.6
				c0.2-1.9,1.8-3.3,3.7-3.3c0.1,0,0.3,0,0.4,0c2,0.2,3.5,2.1,3.2,4.1c-0.6,5.1,0.8,10.2,3.9,14.3c3.2,4.2,7.7,6.9,12.9,7.6
				c0.8,0.1,1.7,0.2,2.6,0.2c4.3,0,8.4-1.4,11.8-4.1c1.2-0.9,2.2-2,3.2-3.1c2.3-2.8,3.7-6.3,4.2-10c0.7-5.2-0.7-10.5-3.8-14.7
				c-3.2-4.2-7.7-6.9-12.9-7.6c-0.8-0.1-1.7-0.2-2.6-0.2c-3.4,0-6.7,0.9-9.6,2.6l0.6,0.6c0.7,0.7,0.9,1.7,0.7,2.5
				c-0.3,0.8-1.1,1.4-2.1,1.4l-6.9,0.6c-0.1,0-0.2,0-0.3,0c-0.8,0-1.6-0.3-2.1-0.9c-0.6-0.6-0.8-1.4-0.7-2.2l0.6-7
				c0.1-1.6,1.2-2.2,2.2-2.2c0.4,0,1.1,0.2,1.8,0.8l0.9,0.9c4.4-3.1,9.5-4.7,14.9-4.7c1.2,0,2.3,0.1,3.5,0.2
				c7.1,0.9,13.4,4.6,17.8,10.4c4.3,5.8,6.2,12.9,5.3,20.1c-0.7,5.1-2.7,9.8-5.8,13.8c-1.3,1.6-2.8,3.1-4.4,4.3
				C469.2,476.1,463.6,478.1,457.7,478.1L457.7,478.1z"/>
			<path class="st4" d="M477.5,435.2c-4.1-5.4-10-8.9-16.7-9.8c-6.6-0.9-13.1,0.9-18.4,5l-1.9-2c-0.6-0.6-1.1-0.4-1.1,0.4l-0.6,7
				c-0.1,0.8,0.5,1.4,1.3,1.3l6.9-0.6c0.8-0.1,0.9-0.6,0.4-1.1l-2-2c4.3-3.2,9.6-4.6,15-3.8c5.6,0.7,10.5,3.7,14,8.2
				c3.4,4.6,4.9,10.2,4.2,15.9c-0.5,4-2.1,7.7-4.6,10.8c-1,1.2-2.2,2.4-3.5,3.4c-4.5,3.5-10,5-15.5,4.3c-5.6-0.7-10.5-3.7-14-8.2
				c-3.3-4.5-4.8-9.9-4.2-15.5c0.1-1.1-0.7-2.2-1.8-2.3c-1.1-0.1-2.1,0.7-2.2,1.8c-0.7,6.6,1.1,13.2,5,18.4c4.1,5.4,10,8.9,16.7,9.8
				c6.6,0.9,13.2-0.9,18.6-5.1c1.6-1.2,2.9-2.6,4.1-4.1c3-3.7,4.8-8.1,5.5-12.9C483.4,447.4,481.6,440.6,477.5,435.2z"/>
			<path class="st4" d="M456.6,434.2c-0.9,0-1.6,0.7-1.6,1.7v16.6l14.9,7.9c0.2,0.1,0.5,0.2,0.7,0.2c0.6,0,1.2-0.3,1.4-0.9
				c0.4-0.8,0.1-1.8-0.7-2.2l-13.1-6.9V436C458.3,434.9,457.5,434.2,456.6,434.2z"/>
		</g>
	</g>
</g>
<g id="Clientes">
	<path class="st0" d="M1001,512.2c0,0-9.9-3.3-41.9,4.9c0,0-7.6,1.4-16.9,1.7c-9.2-0.3-16.9-1.7-16.9-1.7
		c-32.1-8.2-41.9-4.9-41.9-4.9c-55.9,9-59.2,61.7-59.2,61.7v6.5c0,0,0,4.9,0,21.5c0,40.3,36.2,35.4,36.2,35.4H1024
		c0,0,36.2,4.9,36.2-35.4c0-16.6,0-21.5,0-21.5v-6.5C1060.2,573.9,1056.9,521.3,1001,512.2z M1041.3,605.1c0,14.8-14,12.3-14,12.3
		H857.9c0,0-14,2.5-14-12.3V573c0,0,4.1-35.4,39.5-41.1c0,0,10.7-4.1,34.5,3.3c5.9,1.8,12.7,2.7,19.4,3c3.5,0.2,7,0.2,10.5,0
		c6.7-0.2,13.5-1.2,19.4-3c23.8-7.4,34.5-3.3,34.5-3.3c35.4,5.8,39.5,41.1,39.5,41.1L1041.3,605.1L1041.3,605.1z"/>
	<circle class="st6" cx="943.1" cy="430.4" r="58"/>
	<path class="st0" d="M1080.8,499.1h-17.3c0,0-13.2,0.8-20.6,8.2l15.6,13.2h2.5c0,0,1.6-1.6,4.9-1.6s28.8,0,28.8,0
		s8.2-1.6,18.9,10.7c0,0,5.8,4.9,6.6,16.4c0.8,11.5,6.6,12.3,11.5,12.3s8.2-5.8,8.2-9c0-3.3,0-15.6-5.8-25.5s-21.4-24.7-35.4-24.7
		S1080.8,499.1,1080.8,499.1z"/>
	<circle class="st6" cx="1080.8" cy="430" r="37.8"/>
	<circle class="st6" cx="804.5" cy="430" r="37.8"/>
	<path class="st0" d="M804.5,499.1h17.3c0,0,13.2,0.8,20.6,8.2l-15.6,13.2h-2.5c0,0-1.6-1.6-4.9-1.6c-3.3,0-28.8,0-28.8,0
		s-8.2-1.6-18.9,10.7c0,0-5.8,4.9-6.6,16.4s-6.6,12.3-11.5,12.3s-8.2-5.8-8.2-9c0-3.3,0-15.6,5.8-25.5s21.4-24.7,35.4-24.7
		C800.4,499.1,804.5,499.1,804.5,499.1z"/>
	<rect x="353.3" y="284" class="st7" width="233.5" height="64.9"/>
	<text transform="matrix(1 0 0 1 353.3242 311.3574)" class="st0 st8 st9">Empleadores</text>
	<rect y="658.9" class="st7" width="223" height="30"/>
	<rect x="819.2" y="658.9" class="st7" width="247.1" height="32.9"/>
	<text transform="matrix(1 0 0 1 872.3135 686.2832)" class="st0 st8 st9">Clientes</text>
	<g>
		<g>
			<line class="st10" x1="290.5" y1="571.4" x2="296.5" y2="571.4"/>
			<line class="st11" x1="308.9" y1="571.4" x2="649.4" y2="571.4"/>
			<line class="st10" x1="655.6" y1="571.4" x2="661.6" y2="571.4"/>
			<g>
				<polygon class="st0" points="269.3,571.4 299.2,583.6 292.1,571.4 299.2,559.2 				"/>
			</g>
			<g>
				<polygon class="st0" points="682.8,571.4 652.9,583.6 660,571.4 652.9,559.2 				"/>
			</g>
		</g>
	</g>
	<g>
		<g>
			<line class="st10" x1="329.9" y1="237.7" x2="187.9" y2="342.7"/>
			<g>
				<polygon class="st0" points="346.9,225.1 315.7,233.1 328.6,238.7 330.2,252.7 				"/>
			</g>
			<g>
				<polygon class="st0" points="170.9,355.3 187.7,327.8 189.2,341.8 202.2,347.4 				"/>
			</g>
		</g>
	</g>
	<g>
		<g>
			<line class="st10" x1="612.9" y1="247.1" x2="754.8" y2="352.1"/>
			<g>
				<polygon class="st0" points="595.8,234.5 612.6,262.1 614.1,248.1 627.1,242.5 				"/>
			</g>
			<g>
				<polygon class="st0" points="771.8,364.7 740.6,356.8 753.5,351.2 755.1,337.1 				"/>
			</g>
		</g>
	</g>
	<text transform="matrix(1 0 0 1 -1.983643e-04 686.2832)" class="st0 st8 st9">Trabajadores</text>
</g>
</svg>
