<?xml version="1.0" encoding="utf-8"?>
<!-- Generator: Adobe Illustrator 22.1.0, SVG Export Plug-In . SVG Version: 6.00 Build 0)  -->
<svg version="1.1" id="Capa_1" xmlns="http://www.w3.org/2000/svg" xmlns:xlink="http://www.w3.org/1999/xlink" x="0px" y="0px"
	 viewBox="0 0 390 445.9" style="enable-background:new 0 0 390 445.9;" xml:space="preserve">
<style type="text/css">
	.st0{fill:#333333;}
</style>
<path class="st0" d="M34.9,446.6C31.9,446.2,0,440.7,0,403.7V99.5c0-16,5.9-28.1,17.5-35.9c8.1-5.4,16.1-6.8,17.4-7h50v-48
	c0-4.7,3.9-8.6,8.6-8.6h5c4.7,0,8.6,3.9,8.6,8.6v48h175.8v-48c0-4.7,3.9-8.6,8.6-8.6h5c4.7,0,8.6,3.9,8.6,8.6v48h50
	c2.9,0.4,34.9,5.9,34.9,42.9v304.1c0,16-5.9,28.1-17.5,35.9c-8.1,5.4-16.1,6.8-17.4,7H34.9z M354,424.4c0.2,0,0.4,0,0.8,0
	c6,0,13-3.9,13-14.9V163.7H22.2v245.9c0,7.1,2.9,10.7,5.4,12.5c2.9,2.1,6,2.4,7.6,2.4c0.4,0,0.6,0,0.8,0H354z M35.2,78.8
	c-6,0-13,3.9-13,14.9v47.8h345.6V93.6c0-11-7-14.9-13-14.9c-0.4,0-0.6,0-0.8,0H36C35.8,78.8,35.5,78.8,35.2,78.8z"/>
<path class="st0" d="M128.9,279.9H91.3c-5.2,0-9.5-4.3-9.5-9.5v-37.6c0-5.2,4.3-9.5,9.5-9.5h37.6c5.2,0,9.5,4.3,9.5,9.5v37.6
	C138.4,275.6,134.1,279.9,128.9,279.9z"/>
<path class="st0" d="M213.8,279.9h-37.6c-5.2,0-9.5-4.3-9.5-9.5v-37.6c0-5.2,4.3-9.5,9.5-9.5h37.6c5.2,0,9.5,4.3,9.5,9.5v37.6
	C223.3,275.6,219,279.9,213.8,279.9z"/>
<path class="st0" d="M298.7,279.9h-37.6c-5.2,0-9.5-4.3-9.5-9.5v-37.6c0-5.2,4.3-9.5,9.5-9.5h37.6c5.2,0,9.5,4.3,9.5,9.5v37.6
	C308.2,275.6,303.9,279.9,298.7,279.9z"/>
<path class="st0" d="M128.9,364.8H91.3c-5.2,0-9.5-4.3-9.5-9.5v-37.6c0-5.2,4.3-9.5,9.5-9.5h37.6c5.2,0,9.5,4.3,9.5,9.5v37.6
	C138.4,360.5,134.1,364.8,128.9,364.8z"/>
<path class="st0" d="M213.8,364.8h-37.6c-5.2,0-9.5-4.3-9.5-9.5v-37.6c0-5.2,4.3-9.5,9.5-9.5h37.6c5.2,0,9.5,4.3,9.5,9.5v37.6
	C223.3,360.5,219,364.8,213.8,364.8z"/>
<path class="st0" d="M298.7,364.8h-37.6c-5.2,0-9.5-4.3-9.5-9.5v-37.6c0-5.2,4.3-9.5,9.5-9.5h37.6c5.2,0,9.5,4.3,9.5,9.5v37.6
	C308.2,360.5,303.9,364.8,298.7,364.8z"/>
</svg>
