<?xml version="1.0" encoding="utf-8"?>
<!-- Generator: Adobe Illustrator 22.1.0, SVG Export Plug-In . SVG Version: 6.00 Build 0)  -->
<svg version="1.1" id="Capa_1" xmlns="http://www.w3.org/2000/svg" xmlns:xlink="http://www.w3.org/1999/xlink" x="0px" y="0px"
	 viewBox="0 0 390 452.3" style="enable-background:new 0 0 390 452.3;" xml:space="preserve">
<style type="text/css">
	.st0{fill:#333333;}
</style>
<path class="st0" d="M57.9,199.1c-4.9,0-8.7-3.8-8.7-8.7v-1.5c0-4.8,3.9-8.7,8.7-8.7h175.7c4.8,0,8.7,3.9,8.7,8.7v1.5
	c0,4.8-3.9,8.7-8.7,8.7H57.9z"/>
<path class="st0" d="M57.9,107.6c-4.9,0-8.7-3.8-8.7-8.7v-1.5c0-4.8,3.9-8.7,8.7-8.7h175.7c4.8,0,8.7,3.9,8.7,8.7v1.5
	c0,4.8-3.9,8.7-8.7,8.7H57.9z"/>
<path class="st0" d="M300.8,130.3c-1.5,0-3-0.5-4.2-1.4l-19.7-14.3c-3.2-2.3-4-7-1.7-10.2c1.4-1.9,3.6-3,5.9-3c1.5,0,3,0.5,4.2,1.4
	l13.8,10l30.6-42.5c1.4-1.9,3.6-3.1,5.9-3.1c1.6,0,2.9,0.4,4.2,1.3c1.9,1.4,3.1,3.7,3.1,6c0,1.5-0.5,3-1.4,4.2l-33.9,47.2
	c-0.1,0.2-0.2,0.3-0.3,0.4c0,0,0,0,0,0c0,0,0,0,0,0l-0.2,0.2l-0.1,0.3c0,0-0.1,0.1-0.1,0.1c-0.1,0.1-0.2,0.2-0.2,0.4
	C305.2,129.2,303.1,130.3,300.8,130.3z"/>
<path class="st0" d="M300.8,222.1c-1.5,0-3-0.5-4.2-1.4l-19.7-14.3c-3.2-2.3-4-7-1.7-10.2c1.4-1.9,3.6-3,5.9-3c1.5,0,3,0.5,4.2,1.4
	l13.8,10l30.6-42.5c1.4-1.9,3.6-3.1,5.9-3.1c1.6,0,2.9,0.4,4.2,1.3c1.9,1.4,3.1,3.7,3.1,6c0,1.5-0.5,3-1.4,4.2l-33.9,47.2
	c-0.1,0.2-0.2,0.3-0.3,0.4c0,0,0,0,0,0c0,0,0,0,0,0l-0.2,0.2l-0.1,0.3c0,0-0.1,0.1-0.1,0.1c-0.1,0.1-0.2,0.2-0.2,0.4
	C305.2,221,303.1,222.1,300.8,222.1z"/>
<path class="st0" d="M299.3,313.7c-1.5,0-3-0.5-4.2-1.4l-19.7-14.3c-1.6-1.1-2.6-2.8-2.9-4.7c-0.3-1.9,0.1-3.9,1.2-5.5
	c1.4-1.9,3.6-3,5.9-3c1.5,0,3,0.5,4.2,1.4l14.8,10.6l31-43.2c1.4-1.9,3.6-3.1,5.9-3.1c1.6,0,2.9,0.4,4.2,1.3c1.9,1.4,3.1,3.7,3.1,6
	c0,1.5-0.5,3-1.4,4.2l-34,47.3c-0.8,1.2-2,2-3.5,2.6l-0.3,0.1l-0.3,0.2C302.3,313.2,300.9,313.7,299.3,313.7z"/>
<path class="st0" d="M32.3,452.3C14.5,452.3,0,437.8,0,419.9V32.3C0,14.5,14.5,0,32.3,0h325.3C375.5,0,390,14.5,390,32.3v387.6
	c0,17.8-14.5,32.3-32.3,32.3H32.3z M34.2,21.5c-5.4,0-9.8,4.4-9.8,9.8v386.9c0,5.4,4.4,9.8,9.8,9.8h321.9c5.4,0,9.8-4.4,9.8-9.8
	V31.4c0-5.4-4.4-9.8-9.8-9.8H34.2z"/>
<path class="st0" d="M57.9,292.1c-4.9,0-8.7-3.8-8.7-8.7v-1.5c0-4.8,3.9-8.7,8.7-8.7h175.7c4.8,0,8.7,3.9,8.7,8.7v1.5
	c0,4.8-3.9,8.7-8.7,8.7H57.9z"/>
</svg>
