<?xml version="1.0" encoding="utf-8"?>
<!-- Generator: Adobe Illustrator 22.1.0, SVG Export Plug-In . SVG Version: 6.00 Build 0)  -->
<svg version="1.1" id="Capa_1" xmlns="http://www.w3.org/2000/svg" xmlns:xlink="http://www.w3.org/1999/xlink" x="0px" y="0px"
	 viewBox="0 0 56 56" style="enable-background:new 0 0 56 56;" xml:space="preserve">
<style type="text/css">
	.st0{fill:#FFFFFF;stroke:#733F9A;stroke-width:0.75;stroke-miterlimit:10;}
	.st1{fill:#E5E5E5;}
	.st2{fill:#733F9A;}
	.st3{fill:#FFFFFF;}
	.st4{fill:none;stroke:#733F9A;stroke-width:0.5;stroke-miterlimit:10;}
</style>
<g>
	<path class="st0" d="M36.9,0.4H8.3c-0.8,0-1.5,0.7-1.5,1.9v52.5c0,0.3,0.7,1,1.5,1h39.5c0.8,0,1.5-0.7,1.5-1V13.2
		c0-0.7-0.1-0.9-0.3-1.1L37.5,0.7C37.3,0.5,37.1,0.4,36.9,0.4z"/>
	<polygon class="st1" points="37.4,0.6 37.4,12.2 49.1,12.2 	"/>
	<path class="st2" d="M47.8,55.7H8.3c-0.8,0-1.5-0.7-1.5-1.5V38.9h42.5v15.3C49.3,55,48.6,55.7,47.8,55.7z"/>
	<g>
		<path class="st3" d="M21.7,51.8c-0.4,0.4-0.8,0.6-1.3,0.8s-1,0.3-1.5,0.3c-0.6,0-1.2-0.1-1.7-0.3s-0.9-0.5-1.3-1
			c-0.4-0.5-0.7-1-0.9-1.6c-0.2-0.6-0.3-1.4-0.3-2.2s0.1-1.6,0.3-2.2c0.2-0.6,0.5-1.2,0.9-1.6c0.4-0.4,0.8-0.8,1.3-1
			s1.1-0.3,1.7-0.3c0.5,0,1.1,0.1,1.5,0.3c0.5,0.2,0.9,0.5,1.3,0.8l-1.1,1c-0.2-0.3-0.5-0.5-0.8-0.6c-0.3-0.1-0.6-0.2-0.9-0.2
			s-0.7,0.1-1,0.2c-0.3,0.1-0.6,0.3-0.8,0.6c-0.2,0.3-0.4,0.7-0.6,1.2c-0.2,0.5-0.2,1.1-0.2,1.8s0.1,1.3,0.2,1.8
			c0.1,0.5,0.3,0.9,0.5,1.2s0.5,0.5,0.8,0.7c0.3,0.2,0.6,0.2,0.9,0.2s0.6-0.1,0.9-0.2c0.3-0.1,0.5-0.3,0.8-0.6L21.7,51.8z"/>
		<path class="st3" d="M29.6,50c0,0.4-0.1,0.7-0.2,1.1c-0.1,0.4-0.4,0.6-0.6,0.9c-0.2,0.3-0.6,0.5-1,0.6c-0.4,0.2-0.9,0.2-1.4,0.2
			c-0.2,0-0.4,0-0.7,0s-0.5,0-0.7-0.1c-0.2-0.1-0.5-0.1-0.7-0.2c-0.2-0.1-0.4-0.2-0.6-0.3l0.3-1.2c0.1,0.1,0.3,0.1,0.5,0.2
			c0.2,0.1,0.4,0.1,0.6,0.2s0.4,0.1,0.6,0.1s0.4,0.1,0.6,0.1c0.6,0,1-0.1,1.3-0.4S28,50.6,28,50c0-0.3-0.1-0.6-0.3-0.8
			c-0.2-0.2-0.5-0.4-0.8-0.6s-0.7-0.4-1-0.5c-0.4-0.2-0.7-0.4-1-0.6c-0.3-0.2-0.6-0.5-0.8-0.9s-0.3-0.7-0.3-1.2
			c0-0.4,0.1-0.8,0.2-1.2s0.4-0.6,0.7-0.9c0.3-0.3,0.6-0.4,1-0.6s0.8-0.2,1.2-0.2c0.4,0,0.8,0,1.3,0.1c0.5,0.1,0.8,0.2,1,0.4
			c-0.1,0.1-0.1,0.2-0.2,0.4c-0.1,0.1-0.1,0.3-0.2,0.4c-0.1,0.1-0.1,0.2-0.2,0.3c0,0.1-0.1,0.1-0.1,0.1c-0.1,0-0.1-0.1-0.2-0.1
			s-0.2-0.1-0.3-0.1c-0.1,0-0.3-0.1-0.5-0.1s-0.5,0-0.8,0c-0.2,0-0.4,0.1-0.5,0.2c-0.1,0.1-0.3,0.2-0.4,0.3s-0.2,0.3-0.3,0.4
			c-0.1,0.2-0.1,0.3-0.1,0.5c0,0.4,0.1,0.7,0.3,0.9c0.2,0.2,0.5,0.4,0.8,0.6c0.3,0.2,0.6,0.3,1,0.5s0.7,0.4,1,0.6
			c0.3,0.2,0.6,0.5,0.8,0.9C29.5,49.1,29.6,49.5,29.6,50z"/>
		<path class="st3" d="M34,52.9l-3.1-10h1.9l2.3,8.6l2.5-8.6h1.9l-3.3,10H34z"/>
	</g>
	<path class="st2" d="M23.6,16.2v-4H11.7v4v2v2v2v2v2v2v2v4h9.9h2h20.8v-4v-2v-2v-2v-2v-2v-4H23.6z M13.7,14.2h7.9v2h-7.9V14.2z
		 M13.7,18.2h7.9v2h-7.9V18.2z M13.7,22.1h7.9v2h-7.9V22.1z M13.7,26.1h7.9v2h-7.9V26.1z M21.6,32h-7.9v-2h7.9V32z M42.4,32H23.6v-2
		h18.8V32z M42.4,28.1H23.6v-2h18.8V28.1z M42.4,24.1H23.6v-2h18.8V24.1z M23.6,20.1v-2h18.8v2H23.6z"/>
</g>
<line class="st4" x1="37.1" y1="0.4" x2="49.1" y2="12.4"/>
</svg>
