<?xml version="1.0" encoding="utf-8"?>
<!-- Generator: Adobe Illustrator 22.1.0, SVG Export Plug-In . SVG Version: 6.00 Build 0)  -->
<svg version="1.1" id="Capa_1" xmlns="http://www.w3.org/2000/svg" xmlns:xlink="http://www.w3.org/1999/xlink" x="0px" y="0px"
	 viewBox="0 0 56 56" style="enable-background:new 0 0 56 56;" xml:space="preserve">
<style type="text/css">
	.st0{fill:#E9E9E0;}
	.st1{fill:#D9D7CA;}
	.st2{fill:#F36FA0;}
	.st3{fill:#FFFFFF;}
	.st4{fill:#C8BDB8;}
</style>
<g>
	<path class="st0" d="M37,0H8C7.2,0,6.5,0.7,6.5,1.9V55c0,0.3,0.7,1,1.5,1H48c0.8,0,1.5-0.7,1.5-1V13c0-0.7-0.1-0.9-0.3-1.1
		L37.6,0.3C37.4,0.1,37.2,0,37,0z"/>
	<polygon class="st1" points="37.5,0.2 37.5,12 49.3,12 	"/>
	<path class="st2" d="M48,56H8c-0.8,0-1.5-0.7-1.5-1.5V39h43v15.5C49.5,55.3,48.8,56,48,56z"/>
	<g>
		<path class="st3" d="M21.6,52c-0.4,0.4-0.8,0.6-1.3,0.8c-0.5,0.2-1,0.3-1.5,0.3c-0.6,0-1.2-0.1-1.7-0.3s-0.9-0.5-1.3-1
			s-0.7-1-0.9-1.6s-0.3-1.4-0.3-2.2s0.1-1.6,0.3-2.2c0.2-0.6,0.5-1.2,0.9-1.6c0.4-0.4,0.8-0.8,1.3-1c0.5-0.2,1.1-0.3,1.7-0.3
			c0.5,0,1.1,0.1,1.5,0.3c0.5,0.2,0.9,0.5,1.3,0.8l-1.1,1c-0.2-0.3-0.5-0.5-0.8-0.6s-0.6-0.2-0.9-0.2c-0.3,0-0.7,0.1-1,0.2
			c-0.3,0.1-0.6,0.3-0.8,0.6c-0.2,0.3-0.4,0.7-0.6,1.2s-0.2,1.1-0.2,1.8c0,0.7,0.1,1.3,0.2,1.8s0.3,0.9,0.5,1.2s0.5,0.5,0.8,0.7
			s0.6,0.2,0.9,0.2s0.6-0.1,0.9-0.2s0.5-0.3,0.8-0.6L21.6,52z"/>
		<path class="st3" d="M29.6,50.2c0,0.4-0.1,0.7-0.2,1.1s-0.4,0.6-0.6,0.9s-0.6,0.5-1,0.6c-0.4,0.2-0.9,0.2-1.4,0.2
			c-0.2,0-0.4,0-0.7,0S25.2,53,25,52.9c-0.2-0.1-0.5-0.1-0.7-0.2s-0.4-0.2-0.6-0.3l0.3-1.2c0.1,0.1,0.3,0.1,0.5,0.2
			c0.2,0.1,0.4,0.1,0.6,0.2c0.2,0.1,0.4,0.1,0.6,0.1c0.2,0,0.4,0.1,0.6,0.1c0.6,0,1-0.1,1.3-0.4s0.4-0.6,0.4-1.2
			c0-0.3-0.1-0.6-0.3-0.8c-0.2-0.2-0.5-0.4-0.8-0.6s-0.7-0.4-1-0.5c-0.4-0.2-0.7-0.4-1-0.6c-0.3-0.2-0.6-0.5-0.8-0.9
			s-0.3-0.7-0.3-1.2c0-0.4,0.1-0.8,0.2-1.2s0.4-0.6,0.7-0.9s0.6-0.4,1-0.6s0.8-0.2,1.2-0.2c0.4,0,0.8,0,1.3,0.1s0.8,0.2,1,0.4
			c-0.1,0.1-0.1,0.2-0.2,0.4c-0.1,0.1-0.1,0.3-0.2,0.4c-0.1,0.1-0.1,0.2-0.2,0.3c0,0.1-0.1,0.1-0.1,0.1c-0.1,0-0.1-0.1-0.2-0.1
			s-0.2-0.1-0.3-0.1c-0.1,0-0.3-0.1-0.5-0.1c-0.2,0-0.5,0-0.8,0c-0.2,0-0.4,0.1-0.5,0.2s-0.3,0.2-0.4,0.3s-0.2,0.3-0.3,0.4
			c-0.1,0.2-0.1,0.3-0.1,0.5c0,0.4,0.1,0.7,0.3,0.9c0.2,0.2,0.5,0.4,0.8,0.6c0.3,0.2,0.6,0.3,1,0.5c0.4,0.2,0.7,0.4,1,0.6
			s0.6,0.5,0.8,0.9C29.5,49.3,29.6,49.7,29.6,50.2z"/>
		<path class="st3" d="M34,53.1l-3.1-10.1h1.9l2.3,8.7l2.5-8.7h1.9l-3.3,10.1H34z"/>
	</g>
	<path class="st4" d="M23.5,16v-4h-12v4v2v2v2v2v2v2v2v4h10h2h21v-4v-2v-2v-2v-2v-2v-4H23.5z M13.5,14h8v2h-8V14z M13.5,18h8v2h-8
		V18z M13.5,22h8v2h-8V22z M13.5,26h8v2h-8V26z M21.5,32h-8v-2h8V32z M42.5,32h-19v-2h19V32z M42.5,28h-19v-2h19V28z M42.5,24h-19
		v-2h19V24z M23.5,20v-2h19v2H23.5z"/>
</g>
</svg>
