<?xml version="1.0" encoding="utf-8"?>
<!-- Generator: Adobe Illustrator 22.1.0, SVG Export Plug-In . SVG Version: 6.00 Build 0)  -->
<svg version="1.1" id="Capa_1" xmlns="http://www.w3.org/2000/svg" xmlns:xlink="http://www.w3.org/1999/xlink" x="0px" y="0px"
	 viewBox="0 0 56 56" style="enable-background:new 0 0 56 56;" xml:space="preserve">
<style type="text/css">
	.st0{fill:#FFFFFF;stroke:#733F9A;stroke-width:0.75;stroke-miterlimit:10;}
	.st1{fill:#E5E5E5;}
	.st2{fill:#733F9A;}
	.st3{fill:#FFFFFF;}
	.st4{fill:none;stroke:#733F9A;stroke-width:0.5;stroke-miterlimit:10;}
</style>
<g>
	<path class="st0" d="M37,0.4H8c-0.8,0-1.5,0.7-1.5,1.9v52.4c0,0.3,0.7,1,1.5,1h40c0.8,0,1.5-0.7,1.5-1V13.2c0-0.7-0.1-0.9-0.3-1.1
		L37.6,0.7C37.4,0.5,37.2,0.4,37,0.4z"/>
	<polygon class="st1" points="37.5,0.6 37.5,12.2 49.3,12.2 	"/>
	<path class="st2" d="M19.5,33.3L19.5,33.3c-0.3,0-0.7-0.1-1-0.3c-1-0.8-1.2-1.6-1.1-2.2c0.2-1.6,2.2-3.3,6-5
		c1.5-3.3,2.9-7.3,3.8-10.7c-1-2.2-2-4.9-1.3-6.5c0.2-0.6,0.6-1,1.1-1.2c0.2-0.1,0.8-0.2,1-0.2c0.5,0,0.9,0.6,1.3,1
		c0.3,0.4,1,1.2-0.4,6.7c1.3,2.8,3.3,5.5,5.1,7.5c1.3-0.2,2.4-0.4,3.4-0.4c1.6,0,2.5,0.4,2.9,1.1c0.3,0.6,0.2,1.3-0.4,2.2
		c-0.6,0.8-1.3,1.2-2.2,1.2c-1.2,0-2.6-0.8-4.2-2.3c-2.8,0.6-6.1,1.7-8.8,2.8c-0.8,1.8-1.6,3.2-2.4,4.2
		C21.3,32.7,20.4,33.3,19.5,33.3z M22.2,28.2c-2.1,1.2-3,2.2-3.1,2.7c0,0.1,0,0.3,0.4,0.7C19.7,31.6,20.6,31.2,22.2,28.2z
		 M35.8,23.9c0.8,0.6,1,0.9,1.5,0.9c0.2,0,0.9,0,1.2-0.4c0.1-0.2,0.2-0.3,0.2-0.4c-0.1-0.1-0.3-0.2-1.2-0.2
		C37.1,23.7,36.5,23.8,35.8,23.9z M28.3,17.4c-0.7,2.5-1.7,5-2.7,7.5c2.1-0.8,4.4-1.5,6.5-2C30.8,21.2,29.5,19.3,28.3,17.4z M27.7,9
		c-0.1,0-1.3,1.8,0.1,3.2C28.8,10.1,27.8,9,27.7,9z"/>
	<path class="st2" d="M48,55.7H8c-0.8,0-1.5-0.7-1.5-1.5V38.9h43v15.3C49.5,55,48.8,55.7,48,55.7z"/>
	<g>
		<path class="st3" d="M17.4,52.7h-1.6v-10h2.9c0.4,0,0.9,0.1,1.3,0.2s0.8,0.3,1.1,0.6c0.3,0.3,0.6,0.6,0.8,1s0.3,0.8,0.3,1.3
			c0,0.5-0.1,1-0.3,1.4c-0.2,0.4-0.4,0.8-0.7,1s-0.7,0.6-1.2,0.7s-0.9,0.2-1.4,0.2h-1.2V52.7L17.4,52.7z M17.4,44V48h1.5
			c0.2,0,0.4,0,0.6-0.1s0.4-0.2,0.5-0.3c0.2-0.2,0.3-0.4,0.4-0.6s0.1-0.6,0.1-1c0-0.2,0-0.4-0.1-0.6c0-0.2-0.1-0.4-0.3-0.6
			c-0.1-0.2-0.3-0.4-0.6-0.5s-0.6-0.2-1-0.2L17.4,44L17.4,44z"/>
		<path class="st3" d="M32.2,47.5c0,0.8-0.1,1.5-0.3,2.1c-0.2,0.6-0.4,1.1-0.7,1.5s-0.6,0.7-0.9,0.9s-0.7,0.4-1,0.5
			s-0.6,0.2-0.9,0.2s-0.5,0-0.6,0H24v-9.9h3c0.8,0,1.6,0.1,2.2,0.4s1.2,0.6,1.6,1.1s0.7,1,1,1.5C32.1,46.3,32.2,46.9,32.2,47.5z
			 M27.4,51.5c1.1,0,1.9-0.4,2.4-1.1s0.7-1.7,0.7-3.1c0-0.4,0-0.8-0.1-1.2s-0.3-0.8-0.6-1.1s-0.7-0.6-1.2-0.8S27.5,44,26.7,44h-1
			v7.5C25.7,51.5,27.4,51.5,27.4,51.5z"/>
		<path class="st3" d="M36.3,44v3.2h4.2v1.1h-4.2v4.4h-1.7v-10h6.3v1.2L36.3,44L36.3,44z"/>
	</g>
</g>
<line class="st4" x1="37.2" y1="0.4" x2="49.3" y2="12.5"/>
</svg>
