<?xml version="1.0" encoding="utf-8"?>
<!-- Generator: Adobe Illustrator 22.1.0, SVG Export Plug-In . SVG Version: 6.00 Build 0)  -->
<svg version="1.1" id="Capa_1" xmlns="http://www.w3.org/2000/svg" xmlns:xlink="http://www.w3.org/1999/xlink" x="0px" y="0px"
	 viewBox="0 0 56 56" style="enable-background:new 0 0 56 56;" xml:space="preserve">
<style type="text/css">
	.st0{fill:#FFFFFF;stroke:#733F9A;stroke-width:0.75;stroke-miterlimit:10;}
	.st1{fill:#E5E5E5;}
	.st2{fill:#733F9A;}
	.st3{fill:#FFFFFF;}
	.st4{display:none;fill:#C8BDB8;}
	.st5{fill:none;stroke:#733F9A;stroke-width:0.5;stroke-miterlimit:10;}
</style>
<g>
	<path class="st0" d="M37,0.4H8c-0.8,0-1.5,0.7-1.5,1.9v52.4c0,0.3,0.7,1,1.5,1h40c0.8,0,1.5-0.7,1.5-1V13.2c0-0.7-0.1-0.9-0.3-1.1
		L37.6,0.7C37.4,0.5,37.2,0.4,37,0.4z"/>
	<polygon class="st1" points="37.5,0.6 37.5,12.2 49.3,12.2 	"/>
	<path class="st2" d="M48,55.6H8c-0.8,0-1.5-0.7-1.5-1.5V38.9h43v15.3C49.5,54.9,48.8,55.6,48,55.6z"/>
	<g>
		<path class="st3" d="M20.4,47.8l2.6,4.8h-2l-1.6-3.7h-0.1l-1.7,3.7h-1.9l2.6-4.8l-2.7-5.1h1.9l1.8,4h0.1l1.9-4h1.9L20.4,47.8z"/>
		<path class="st3" d="M27,42.7v8.7h4.6v1.3h-6.3v-10H27z"/>
		<path class="st3" d="M39,49.9c0,0.4-0.1,0.7-0.2,1.1c-0.1,0.4-0.4,0.6-0.6,0.9c-0.2,0.3-0.6,0.5-1,0.6c-0.4,0.2-0.9,0.2-1.4,0.2
			c-0.2,0-0.4,0-0.7,0s-0.5-0.1-0.7-0.1c-0.2-0.1-0.5-0.1-0.7-0.2c-0.2-0.1-0.4-0.2-0.6-0.3l0.3-1.2c0.1,0.1,0.3,0.1,0.5,0.2
			c0.2,0.1,0.4,0.1,0.6,0.2c0.2,0.1,0.4,0.1,0.6,0.1c0.2,0,0.4,0.1,0.6,0.1c0.6,0,1-0.1,1.3-0.4s0.4-0.6,0.4-1.2
			c0-0.3-0.1-0.6-0.3-0.8s-0.5-0.4-0.8-0.6s-0.7-0.4-1-0.5s-0.7-0.4-1-0.6c-0.3-0.2-0.6-0.5-0.8-0.9s-0.3-0.7-0.3-1.2
			c0-0.4,0.1-0.8,0.2-1.2s0.4-0.6,0.7-0.9c0.3-0.3,0.6-0.4,1-0.6c0.4-0.2,0.8-0.2,1.2-0.2s0.8,0,1.3,0.1s0.8,0.2,1,0.4
			c-0.1,0.1-0.1,0.2-0.2,0.4c-0.1,0.1-0.1,0.3-0.2,0.4c-0.1,0.1-0.1,0.2-0.2,0.3c0,0.1-0.1,0.1-0.1,0.1c-0.1,0-0.1-0.1-0.2-0.1
			S37.5,44,37.4,44s-0.3-0.1-0.5-0.1s-0.5,0-0.8,0c-0.2,0-0.4,0.1-0.5,0.2c-0.1,0.1-0.3,0.2-0.4,0.3c-0.1,0.1-0.2,0.3-0.3,0.4
			c-0.1,0.2-0.1,0.3-0.1,0.5c0,0.4,0.1,0.7,0.3,0.9c0.2,0.2,0.5,0.4,0.8,0.6c0.3,0.2,0.6,0.3,1,0.5s0.7,0.4,1,0.6s0.6,0.5,0.8,0.9
			C38.9,49,39,49.4,39,49.9z"/>
	</g>
	<path class="st4" d="M23.5,16.2v-3.9h-12v3.9v2v2v2v2v2v2v2v3.9h10h2h21V30v-2v-2v-2v-2v-2v-3.9H23.5z M13.5,14.2h8v2h-8V14.2z
		 M13.5,18.2h8v2h-8V18.2z M13.5,22.1h8v2h-8V22.1z M13.5,26h8v2h-8V26z M21.5,32h-8v-2h8V32z M42.5,32h-19v-2h19V32z M42.5,28h-19
		v-2h19V28z M42.5,24.1h-19v-2h19V24.1z M23.5,20.1v-2h19v2H23.5z"/>
</g>
<path class="st2" d="M33.1,14.5H22.9H11.5v4.9V20v4.2v0.7v4.2v0.7v4.9h10.8H23h10.1h0.7h10.8v-5.5V25v-5v-0.7v-4.9H33.1V14.5z
	 M33.1,24.2H22.9V20H33L33.1,24.2L33.1,24.2z M12.2,15.1h10.1v4.2H12.2V15.1z M12.2,20h10.1v4.2H12.2V20z M12.2,24.9h10.1v4.2H12.2
	V24.9z M12.2,34v-4.2h10.1V34H12.2z M22.9,34v-4.2H33V34H22.9z M43.8,34H33.7v-4.2h10.1C43.8,29.8,43.8,34,43.8,34z M43.8,24.2H33.7
	V20h10.1C43.8,20,43.8,24.2,43.8,24.2z M33.7,19.3v-4.2h10.1v4.2H33.7z"/>
<line class="st5" x1="37.2" y1="0.4" x2="49.3" y2="12.5"/>
</svg>
