<?xml version="1.0" encoding="utf-8"?>
<!-- Generator: Adobe Illustrator 22.1.0, SVG Export Plug-In . SVG Version: 6.00 Build 0)  -->
<svg version="1.1" id="Capa_1" xmlns="http://www.w3.org/2000/svg" xmlns:xlink="http://www.w3.org/1999/xlink" x="0px" y="0px"
	 viewBox="0 0 56 56" style="enable-background:new 0 0 56 56;" xml:space="preserve">
<style type="text/css">
	.st0{fill:#E9E9E0;}
	.st1{fill:#D9D7CA;}
	.st2{fill:#91CDA0;}
	.st3{fill:#FFFFFF;}
	.st4{display:none;fill:#C8BDB8;}
</style>
<g>
	<path class="st0" d="M37,0H8C7.2,0,6.5,0.7,6.5,1.9V55c0,0.3,0.7,1,1.5,1H48c0.8,0,1.5-0.7,1.5-1V13c0-0.7-0.1-0.9-0.3-1.1
		L37.6,0.3C37.4,0.1,37.2,0,37,0z"/>
	<polygon class="st1" points="37.5,0.2 37.5,12 49.3,12 	"/>
	<path class="st2" d="M48,56H8c-0.8,0-1.5-0.7-1.5-1.5V39h43v15.5C49.5,55.3,48.8,56,48,56z"/>
	<g>
		<path class="st3" d="M20.4,48.1l2.6,4.9H21l-1.6-3.8h-0.1L17.6,53h-1.9l2.6-4.9l-2.7-5.2h1.9l1.8,4.1h0.1l1.9-4.1h1.9L20.4,48.1z"
			/>
		<path class="st3" d="M27,42.9v8.8h4.6V53h-6.3V42.9H27z"/>
		<path class="st3" d="M39,50.2c0,0.4-0.1,0.7-0.2,1.1s-0.4,0.6-0.6,0.9s-0.6,0.5-1,0.6c-0.4,0.2-0.9,0.2-1.4,0.2
			c-0.2,0-0.4,0-0.7,0s-0.5-0.1-0.7-0.1c-0.2-0.1-0.5-0.1-0.7-0.2c-0.2-0.1-0.4-0.2-0.6-0.3l0.3-1.2c0.1,0.1,0.3,0.1,0.5,0.2
			s0.4,0.1,0.6,0.2c0.2,0.1,0.4,0.1,0.6,0.1c0.2,0,0.4,0.1,0.6,0.1c0.6,0,1-0.1,1.3-0.4s0.4-0.6,0.4-1.2c0-0.3-0.1-0.6-0.3-0.8
			c-0.2-0.2-0.5-0.4-0.8-0.6s-0.7-0.4-1-0.5s-0.7-0.4-1-0.6c-0.3-0.2-0.6-0.5-0.8-0.9s-0.3-0.7-0.3-1.2c0-0.4,0.1-0.8,0.2-1.2
			s0.4-0.6,0.7-0.9s0.6-0.4,1-0.6s0.8-0.2,1.2-0.2c0.4,0,0.8,0,1.3,0.1s0.8,0.2,1,0.4c-0.1,0.1-0.1,0.2-0.2,0.4
			c-0.1,0.1-0.1,0.3-0.2,0.4c-0.1,0.1-0.1,0.2-0.2,0.3c0,0.1-0.1,0.1-0.1,0.1c-0.1,0-0.1-0.1-0.2-0.1s-0.2-0.1-0.3-0.1
			c-0.1,0-0.3-0.1-0.5-0.1s-0.5,0-0.8,0c-0.2,0-0.4,0.1-0.5,0.2s-0.3,0.2-0.4,0.3s-0.2,0.3-0.3,0.4c-0.1,0.2-0.1,0.3-0.1,0.5
			c0,0.4,0.1,0.7,0.3,0.9c0.2,0.2,0.5,0.4,0.8,0.6c0.3,0.2,0.6,0.3,1,0.5c0.4,0.2,0.7,0.4,1,0.6s0.6,0.5,0.8,0.9
			C38.9,49.3,39,49.7,39,50.2z"/>
	</g>
	<path class="st4" d="M23.5,16v-4h-12v4v2v2v2v2v2v2v2v4h10h2h21v-4v-2v-2v-2v-2v-2v-4H23.5z M13.5,14h8v2h-8V14z M13.5,18h8v2h-8
		V18z M13.5,22h8v2h-8V22z M13.5,26h8v2h-8V26z M21.5,32h-8v-2h8V32z M42.5,32h-19v-2h19V32z M42.5,28h-19v-2h19V28z M42.5,24h-19
		v-2h19V24z M23.5,20v-2h19v2H23.5z"/>
</g>
<path class="st2" d="M33.1,14.5H22.9H11.5v4.9V20v4.2v0.7v4.2v0.7v4.9h10.8h0.7h10.1h0.7h10.8v-5.5v-4.2V20v-0.7v-4.9H33.1z
	 M33.1,24.2H22.9V20h10.1V24.2z M12.2,15.1h10.1v4.2H12.2V15.1z M12.2,20h10.1v4.2H12.2V20z M12.2,24.9h10.1v4.2H12.2V24.9z
	 M12.2,34v-4.2h10.1V34H12.2z M22.9,34v-4.2h10.1V34H22.9z M43.8,34H33.7v-4.2h10.1V34z M43.8,24.2H33.7V20h10.1V24.2z M33.7,19.3
	v-4.2h10.1v4.2H33.7z"/>
</svg>
