<svg version="1.1" id="Capa_1" xmlns="http://www.w3.org/2000/svg" xmlns:xlink="http://www.w3.org/1999/xlink" x="0px" y="0px"
     viewBox="0 0 390 391.2" xml:space="preserve">
<rect x="122.3" y="168.5" transform="matrix(-1.836970e-16 1 -1 -1.836970e-16 340.6508 80.3808)" width="15.6" height="84.1" fill="currentColor"/>
<path d="M176.2,242.8" fill="currentColor"/>
<rect x="122.3" y="212.5" transform="matrix(-1.836970e-16 1 -1 -1.836970e-16 384.685 124.415)" width="15.6" height="84.1" fill="currentColor"/>
<path d="M51.8,391.2c-0.6,0-1.3,0-2.1-0.1c-12.9-0.7-25.1-6.1-34.3-15.4c-9.2-9.2-14.7-21.5-15.4-34.4c-0.1-0.6-0.1-1.4-0.1-2V95c0-29,23.6-52.5,52.5-52.5H187c21.7-27,54-42.5,88.8-42.5c62.8,0,114,51.1,114,114c0,62.8-51.1,114-114,114c-5.4,0-10.8-0.4-15.9-1.1v77.2l-0.6,0.9c-18.2,30.1-3.1,63.4,0.1,69.8l0.4,0.8v7.1l-4.6,6.4l-1.6,2.1H51.8z M23.8,345.5c2.9,12.8,14.5,22,27.6,22h180.4c-0.9-3.3-2.8-13.9-3.5-19.8H59.6v-15.2h168.3c0.4-6.5,1.9-14.9,3.3-21.4H47.7c-6.2,0.8-11.8,3.6-16.4,8.1c-3.8,3.8-6.4,8.4-7.5,13.6V345.5z M52.5,63.8C36.2,63.8,23,77,23,93.3v203.1c7.7-5.2,16.8-8.3,26.2-8.8l0.2,0l158.6,0h27.3v-67c-44.1-16.7-73.6-59.2-73.6-106.6c0-17.5,4-34.7,11.7-50.2H52.5z M276.4,23.8c-23.6,0-45.9,9-62.8,25.5c-4.1,4-7.8,8.3-11,12.9c-10.8,15.3-16.5,33.2-16.5,52c0,36.2,21.5,68.7,54.7,83c5.1,2.2,10.5,4,16,5.2c6.4,1.4,13,2.1,19.6,2.1c49.8,0,90.3-40.5,90.3-90.3C366.7,64.3,326.2,23.8,276.4,23.8z" fill="currentColor"/>
<rect x="268.8" y="162.6" transform="matrix(-1.836970e-16 1 -1 -1.836970e-16 447.478 -105.2544)" width="15.1" height="17.1" fill="currentColor"/>
<rect x="222.7" y="91.2" transform="matrix(-1.836970e-16 1 -1 -1.836970e-16 375.1235 -177.6783)" width="107.5" height="15.1" fill="currentColor"/>
</svg>