<svg version="1.1" id="Capa_1" xmlns="http://www.w3.org/2000/svg" xmlns:xlink="http://www.w3.org/1999/xlink" x="0px" y="0px"
     viewBox="0 0 390 403" xml:space="preserve">
<path d="M63.2,403.2c-34.3,0-62.3-27.9-62.3-62.3V134.4c0-33.5,27.2-61.4,60.7-62.3l12.5-0.3V34.9C74.1,15.7,89.8,0,109,0h172.9c19.3,0,34.9,15.7,34.9,34.9v36.9l12.5,0.3c33.5,0.9,60.7,28.8,60.7,62.3v206.6c0,34.3-27.9,62.3-62.3,62.3H63.2z M24,238.1v104c0,21.6,17.5,39.1,39.1,39.1h264.7c21.6,0,39.1-17.5,39.1-39.1v-99.8l0,0c0,19.9-28.9,17.8-39.6,17.8c-3.8,0-6.4-0.2-6.4-0.2l-0.1,0H80.9C29.1,260,24,251.7,24,238.1C24,237.5,24.2,238.7,24,238.1L24,238.1z M60.4,95.3C40,96.7,24,113.9,24,134.3v59.4c0,14.7,7.6,39.2,58.3,39.2h236.8l0.6-0.1c1-0.1,2-0.2,3.1-0.3c16.5-1.4,44-3.7,44-39.1v-59.1c0-20.4-16-37.6-36.3-39l-13.8-1V159c0,19.3-15.7,34.9-34.9,34.9H109c-19.3,0-34.9-15.7-34.9-34.9V94.3L60.4,95.3z M121.4,23.1c-13.7,0-24.8,11.1-24.8,24.8V146c0,13.7,11.1,24.8,24.8,24.8h147.5c13.7,0,24.8-11.1,24.8-24.8V47.9c0-13.7-11.1-24.8-24.8-24.8H121.4z" fill="currentColor"/>
<path d="M130.5,73.3V73c0-4.4,3.6-8,8-8h113.9c4.4,0,8,3.6,8,8v0.3c0,4.4-3.6,8-8,8H138.5C134.1,81.3,130.5,77.7,130.5,73.3z" fill="currentColor"/>
<path d="M130.5,119v-0.3c0-4.4,3.6-8,8-8h113.9c4.4,0,8,3.6,8,8v0.3c0,4.4-3.6,8-8,8H138.5C134.1,127,130.5,123.4,130.5,119z" fill="currentColor"/>
<path d="M292.1,332.9c-0.4,0-0.8,0-1.2-0.1l-0.2,0H99.6l-0.2,0c-0.4,0.1-0.8,0.1-1.2,0.1c-1.8,0-3.4-0.7-4.6-2.1c-1.3-1.4-2-3.2-2-5.2V319c0-4.5,3.6-8.1,8.1-8.1h190.8c4.5,0,8.1,3.6,8.1,8.1v6.7C298.7,329.6,295.8,332.9,292.1,332.9z" fill="currentColor"/>
</svg>