<?xml version="1.0" encoding="utf-8"?>
<!-- Generator: Adobe Illustrator 22.1.0, SVG Export Plug-In . SVG Version: 6.00 Build 0)  -->
<svg version="1.1" id="Capa_1" xmlns="http://www.w3.org/2000/svg" xmlns:xlink="http://www.w3.org/1999/xlink" x="0px" y="0px"
	 viewBox="0 0 390 322.7" style="enable-background:new 0 0 390 322.7;" xml:space="preserve">
<style type="text/css">
	.st0{fill:currentColor;}
</style>
<path class="st0" d="M1.4,0v322.9H196V0H1.4z M171.9,298.3h-145V24h145V298.3z"/>
<rect x="48" y="58.7" class="st0" width="34.4" height="34.4"/>
<rect x="117.4" y="58.7" class="st0" width="34.4" height="34.4"/>
<rect x="47.5" y="127.9" class="st0" width="34.4" height="34.4"/>
<rect x="117.4" y="127.9" class="st0" width="34.4" height="34.4"/>
<rect x="47.5" y="197.1" class="st0" width="34.4" height="34.4"/>
<rect x="116.9" y="197.1" class="st0" width="34.4" height="34.4"/>
<path class="st0" d="M217,92.3v230.6h173V92.3H217z M242.9,119.7h34.9v33.6h-34.9V119.7z M363.4,297.2h-39.3v-56.4h-41.5v56.4h-39.8
	V168.8h120.6V297.2z M363.4,153.2h-68.5v-33.6h68.5V153.2z"/>
</svg>
