<svg xmlns="http://www.w3.org/2000/svg" viewBox="0 0 490 346">
  <path d="M317,189c0,0-12-4-51,6c0,0-9.3,1.7-20.5,2.1c-11.2-0.4-20.5-2.1-20.5-2.1c-39-10-51-6-51-6c-68,11-72,75-72,75v7.9c0,0,0,5.9,0,26.1c0,49,44,43,44,43h199c0,0,44,6,44-43c0-20.2,0-26.1,0-26.1V264C389,264,385,200,317,189z M366,302c0,18-17,15-17,15H143c0,0-17,3-17-15v-39c0,0,5-43,48-50c0,0,13-5,42,4c7.2,2.2,15.4,3.3,23.6,3.6c4.2,0.2,8.5,0.2,12.8,0c8.2-0.3,16.4-1.4,23.6-3.6c29-9,42-4,42-4c43,7,48,50,48,50V302z" fill="currentColor"/>
  <circle cx="246.5" cy="89.5" r="70.5" fill="none" stroke="currentColor" stroke-width="24" stroke-miterlimit="10"/>
  <path d="M414,173h-21c0,0-16,1-25,10l19,16h3c0,0,2-2,6-2s35,0,35,0s10-2,23,13c0,0,7,6,8,20s8,15,14,15s10-7,10-11s0-19-7-31s-26-30-43-30S414,173,414,173z" fill="currentColor"/>
  <circle cx="414" cy="89" r="46" fill="none" stroke="currentColor" stroke-width="24" stroke-miterlimit="10"/>
  <path d="M78,173h21c0,0,16,1,25,10l-19,16h-3c0,0-2-2-6-2s-35,0-35,0s-10-2-23,13c0,0-7,6-8,20s-8,15-14,15s-10-7-10-11s0-19,7-31s26-30,43-30S78,173,78,173z" fill="currentColor"/>
  <circle cx="78" cy="89" r="46" fill="none" stroke="currentColor" stroke-width="24" stroke-miterlimit="10"/>
</svg>