<?xml version="1.0" encoding="utf-8"?>
<!-- Generator: Adobe Illustrator 22.1.0, SVG Export Plug-In . SVG Version: 6.00 Build 0)  -->
<svg version="1.1" id="Capa_2" xmlns="http://www.w3.org/2000/svg" xmlns:xlink="http://www.w3.org/1999/xlink" x="0px" y="0px"
	 viewBox="0 0 390 243.1" style="enable-background:new 0 0 390 243.1;" xml:space="preserve">
<style type="text/css">
	.st0{fill:#333333;}
</style>
<path class="st0" d="M178.7,243.2c-1.5,0-2.7-0.1-3.2-0.2l-0.1,0H34l-0.1,0c-0.5,0.1-1.7,0.2-3.2,0.2c-7.2,0-30.7-2.4-30.7-33.3
	v-24.3l0-0.1c0-0.5,0.8-12.1,7.8-24.8c6.4-11.7,19.5-26.6,45.3-30.9l0.1,0l0.1,0c0.7-0.2,2.7-0.6,6.5-0.6c5.3,0,15,0.8,30.8,4.9
	l0.1,0l0.1,0c1.1,0.2,7,1.2,13.9,1.4h0.2c6.9-0.3,12.8-1.2,13.9-1.4l0.1,0l0.1,0c15.7-4,25.4-4.9,30.8-4.9c3.8,0,5.8,0.4,6.5,0.6
	l0.1,0l0.1,0c25.9,4.3,38.9,19.1,45.3,30.9c7,12.7,7.7,24.3,7.8,24.8l0,0.1v24.3c0,13-4.1,22.4-12.2,28
	C190.5,242.5,182.7,243.2,178.7,243.2z M179,221c0.3,0,0.7,0.1,1.2,0.1c5.1,0,7.7-2.8,7.7-8.3v-27.6l0-0.1
	c-0.4-2.9-4.9-28.7-32-33.1l-0.3,0l-0.7-0.3l-0.1,0c-0.9-0.2-3.1-0.7-6.6-0.7c-4.2,0-11.2,0.6-21.1,3.7c-5,1.5-10.9,2.4-17.5,2.7
	c-1.6,0.1-3.1,0.1-4.7,0.1c-1.6,0-3.1,0-4.7-0.1c-6.6-0.2-12.4-1.1-17.4-2.7c-9.9-3.1-17-3.7-21.2-3.7c-4.6,0-6.9,0.7-7.1,0.8
	l-0.3,0.1l-0.1,0c-27.1,4.4-31.7,30.2-32.1,33.1l0,0.1v27.6c0,3.3,0.9,5.7,2.8,6.9c1.6,1.1,3.5,1.3,4.9,1.3c0.6,0,1,0,1.3-0.1h0
	l0.4-0.1l0.3,0h146.8L179,221L179,221z"/>
<path class="st0" d="M105.4,122.5c-33.8,0-61.3-27.5-61.3-61.3S71.6,0,105.4,0s61.3,27.5,61.3,61.3S139.2,122.5,105.4,122.5z
	 M105.4,22.1c-21.6,0-39.2,17.6-39.2,39.2c0,21.6,17.6,39.2,39.2,39.2c21.6,0,39.2-17.6,39.2-39.2C144.6,39.7,127,22.1,105.4,22.1z"
	/>
<path class="st0" d="M361.5,79.8C345.8,79.8,333,67,333,51.3c0-15.7,12.8-28.5,28.5-28.5c15.7,0,28.5,12.8,28.5,28.5
	C390,67,377.2,79.8,361.5,79.8z M361.5,39.6c-6.5,0-11.8,5.3-11.8,11.8s5.3,11.8,11.8,11.8c6.5,0,11.8-5.3,11.8-11.8
	S368,39.6,361.5,39.6z"/>
<path class="st0" d="M361.5,151c-15.7,0-28.5-12.8-28.5-28.5S345.8,94,361.5,94c15.7,0,28.5,12.8,28.5,28.5S377.2,151,361.5,151z
	 M361.5,110.7c-6.5,0-11.8,5.3-11.8,11.8c0,6.5,5.3,11.8,11.8,11.8c6.5,0,11.8-5.3,11.8-11.8C373.3,116,368,110.7,361.5,110.7z"/>
<path class="st0" d="M361.5,222.2c-15.7,0-28.5-12.8-28.5-28.5s12.8-28.5,28.5-28.5c15.7,0,28.5,12.8,28.5,28.5
	S377.2,222.2,361.5,222.2z M361.5,181.9c-6.5,0-11.8,5.3-11.8,11.8c0,6.5,5.3,11.8,11.8,11.8c6.5,0,11.8-5.3,11.8-11.8
	C373.3,187.2,368,181.9,361.5,181.9z"/>
<path class="st0" d="M231.7,131.8c-5.1,0-9.3-4.2-9.3-9.3s4.2-9.3,9.3-9.3h78c5.1,0,9.3,4.2,9.3,9.3s-4.2,9.3-9.3,9.3H231.7z"/>
<path class="st0" d="M231.6,86.3c-4.3,0-8.1-2.8-9.1-6.9c-1.3-4.9,1.9-10,7-11.3l77.7-19.8c0.8-0.2,1.6-0.3,2.4-0.3
	c4.3,0,8.1,2.8,9.1,6.9c1.3,4.9-1.9,10-7,11.3L234,86C233.2,86.2,232.4,86.3,231.6,86.3z"/>
<path class="st0" d="M308,197.2c-0.8,0-1.6-0.1-2.4-0.3L227.9,177c-5.1-1.3-8.2-6.4-7-11.3c1-4.1,4.8-6.9,9.1-6.9
	c0.8,0,1.6,0.1,2.4,0.3l77.7,19.8c2.5,0.6,4.6,2.2,5.9,4.3c1.3,2.1,1.7,4.6,1.1,7C316.1,194.3,312.3,197.2,308,197.2z"/>
</svg>
