<svg xmlns="http://www.w3.org/2000/svg" viewBox="0 0 384 288">
  <path d="M113.6,216h-11.3c-3.5,0-6.4-2.9-6.4-6.4v-59.3c0-3.5,2.9-6.4,6.4-6.4h11.3c3.5,0,6.4,2.9,6.4,6.4v59.3C120,213.1,117.1,216,113.6,216z" fill="currentColor"/>
  <path d="M185.6,216h-11.3c-3.5,0-6.4-2.9-6.4-6.4V54.4c0-3.5,2.9-6.4,6.4-6.4h11.3c3.5,0,6.4,2.9,6.4,6.4v155.3C192,213.1,189.1,216,185.6,216z" fill="currentColor"/>
  <path d="M257.6,216h-11.3c-3.5,0-6.4-2.9-6.4-6.4V102.4c0-3.5,2.9-6.4,6.4-6.4h11.3c3.5,0,6.4,2.9,6.4,6.4v107.3C264,213.1,261.1,216,257.6,216z" fill="currentColor"/>
  <path d="M329.6,216h-11.3c-3.5,0-6.4-2.9-6.4-6.4V30.4c0-3.5,2.9-6.4,6.4-6.4h11.3c3.5,0,6.4,2.9,6.4,6.4v179.3C336,213.1,333.1,216,329.6,216z" fill="currentColor"/>
  <path d="M384,271.1v9.9c0,3.9-3.2,7.1-7.1,7.1H12c-6.6,0-12-5.4-12-12V7.1C0,3.2,3.2,0,7.1,0h9.9C20.8,0,24,3.2,24,7.1V264h352.9C380.8,264,384,267.2,384,271.1z" fill="currentColor"/>
</svg>