<svg xmlns="http://www.w3.org/2000/svg" viewBox="0 0 390 421.5">
  <path d="M310.5,262.8c-24.7,0-46.8,11.3-61.3,29L154.3,237c2.9-8.3,4.6-17.2,4.6-26.6c0-9.2-1.6-18.1-4.5-26.3l94.8-54.6c14.5,17.8,36.7,29.1,61.4,29.1c43.8,0,79.3-35.5,79.3-79.3S354.3,0,310.5,0s-79.3,35.5-79.3,79.3c0,9.4,1.6,18.4,4.6,26.8l-94.5,54.6c-14.5-18.1-36.8-29.6-61.8-29.6c-43.8,0-79.3,35.5-79.3,79.3s35.5,79.3,79.3,79.3c24.9,0,47.1-11.5,61.6-29.4l94.7,54.8c-3,8.4-4.7,17.5-4.7,26.9c0,43.8,35.5,79.3,79.3,79.3s79.3-35.5,79.3-79.3S354.3,262.8,310.5,262.8z M310.5,27c28.9,0,52.4,23.4,52.4,52.4s-23.4,52.4-52.4,52.4c-28.9,0-52.4-23.4-52.4-52.4S281.6,27,310.5,27z M79.5,262.8c-28.9,0-52.4-23.4-52.4-52.4s23.4-52.4,52.4-52.4s52.4,23.4,52.4,52.4S108.4,262.8,79.5,262.8z M310.5,394.5c-28.9,0-52.4-23.4-52.4-52.4c0-28.9,23.4-52.4,52.4-52.4c28.9,0,52.4,23.4,52.4,52.4C362.9,371,339.4,394.5,310.5,394.5z" fill="currentColor"/>
</svg>