<svg xmlns="http://www.w3.org/2000/svg" viewBox="0 0 288 384">
  <path d="M275.5,71.5l-55-55c-18-18-38-16-38-16s-109,0-145,0S0,35.5,0,35.5V343c0,41,36,41,36,41h101c0,0,80.5-0.5,115.5-0.5s35-32,35-32s0-244,0-256S275.5,71.5,275.5,71.5z M192,25h3l69,69v2h-72V25z M247,360c-20,0-209,0-209,0s-14,2-14-14s0-120,0-120V35c0,0-1-11,15-11s129,0,129,0v72c0,0-3,24,21,24s75,0,75,0v223C264,343,267,360,247,360z" fill="currentColor"/>
  <path d="M144,67c0,0,1,5-6,5h-25c-16.2,0-34,0-34,0H54c-7,0-6-5-6-5V53c0,0-1-5,6-5h25c0,0,17.8,0,34,0h25c7,0,6,5,6,5V67z" fill="currentColor"/>
  <path d="M144,115c0,0,1,5-6,5h-25c-16.2,0-34,0-34,0H54c-7,0-6-5-6-5v-14c0,0-1-5,6-5h25c0,0,17.8,0,34,0h25c7,0,6,5,6,5V115z" fill="currentColor"/>
  <path d="M200.4,333.6c-12.8,3-28.7,3-28.7,3s-22.9-0.5-39.9-10.6s-18.6-14.6-26.6-23.2c-6.4-6.9-10.7-20.2-12.2-25.3H82.4c-3.5,0-6.4-2.7-6.4-6.1v-7.6c0-3.3,2.9-6.1,6.4-6.1H89c0-5.2,0.1-11.1,0.3-16.2h-6.9c-3.5,0-6.4-2.7-6.4-6.1v-8.1c0-3.3,2.9-6.1,6.4-6.1h11.4c4.9-11,13.1-24.1,16.8-27.3c5.3-4.5,23.9-22.2,45.2-25.3s29.8-2,38.3-0.5c8.5,1.5,5.8,7.1,5.8,7.1s-1.6,6.1-2.7,9.6c-1.1,3.5-1.1,11.1-8.5,9.1s-13.3-1-13.3-1c-36.7,0-47.3,28.3-47.3,28.3h54.2c3.4,0,5.8,2.7,5.3,6.1l-1.3,8.1c-0.5,3.3-3.8,6.1-7.3,6.1h-55.3c-0.7,0-1.3-0.1-1.9-0.3v0.3c0,2,0,9.6,0.2,16.2h52.9c3.4,0,5.8,2.7,5.3,5.9l-1.3,7.9c-0.5,3.3-3.8,5.9-7.3,5.9h-44.6c6.1,11.2,17.6,26.2,30.4,29.3c18.6,4.5,30.3,2.5,30.3,2.5c15.4-5.6,11.7,6.1,14.9,14.6C205.7,332.6,200.4,333.6,200.4,333.6z" fill="currentColor"/>
</svg>