<svg xmlns="http://www.w3.org/2000/svg" viewBox="0 0 390 385">
  <path d="M248.2,346.7l1.4-1.6c6.2-7.3,11.7-15.3,16.5-23.6l0.3-0.5h97.8c1.8,0,3.3-1.5,3.3-3.3V30.3c0-1.8-1.5-3.3-3.3-3.3H125c-1.8,0-3.3,1.5-3.3,3.3v61.2l-0.9,0.1c-7.9,0.9-15.8,2.5-23.5,4.7L96,96.7V31c0-15.2,12.4-27.6,27.6-27.6h239.9C378.6,3.4,391,15.8,391,31v288c0,15.2-12.4,27.6-27.6,27.6H248.2V346.7z" fill="currentColor"/>
  <path d="M136.4,383.4c-5.6,0-11.3-0.3-16.9-1c-35.6-5.4-67.7-24.6-90.5-54C6.6,299.6-3.3,263.6,1,227c0-6.1,4.7-10.8,10.8-10.8c0.7,0,1.4,0.1,2.1,0.2c7.1,1.2,11.6,7.2,10.4,14c-4.1,28.9,4,59.1,22.3,82.8c19.2,24.6,45.9,40.4,75.3,44.6c4.4,0.5,8.8,0.7,13.2,0.7c26,0,50.4-8.3,70.5-24.1c6.7-4.8,13.1-10.9,19.1-18.1c12.8-17.1,21.2-37.3,24.4-58.5c4.2-29.2-4-60.2-22.3-85c-19.2-24.6-45.9-40.4-75.3-44.6c-5.2-0.8-10.6-1.2-15.8-1.2c-22.8,0-44.8,7.1-63.8,20.7l9.9,9.9c1.9,1.9,2.6,4,1.9,5.7c-0.6,1.6-2.4,2.5-4.7,2.5L41.7,169c-3.7,0-7.5-3.4-7.5-8.5l3.2-37.7v-0.1c0.8-3.2,2.2-4.8,4.1-4.8c1.2,0,2.6,0.7,4,2.2l10.1,10.1c23.4-18,51.7-27.5,81.9-27.5c5.8,0,11.7,0.4,17.6,1.1c35.5,5.4,67.7,24.6,90.5,54c22.4,29.9,32.3,66.7,28,103.6c-3.1,25.2-13.3,48.8-30.1,70.2c-6.4,8.6-14.1,16.2-22.6,22.7C196.3,373.4,167.2,383.4,136.4,383.4L136.4,383.4z" fill="currentColor"/>
  <path d="M131.4,153.1c-5.3,0-8.6,4.3-8.6,8.6v90.1l80.2,42.9c1.1,1.1,3.2,1.1,4.3,1.1c3.2,0,6.4-2.1,7.5-5.4c2.1-4.3,1.1-9.6-4.3-11.8L138.9,241v-79.3C139.9,157.4,136.7,153.1,131.4,153.1z" fill="currentColor"/>
  <path d="M134.8,80.6v-1.1c0-4.4,3.6-8,8-8h130.4c4.4,0,8,3.6,8,8v1.1c0,4.4-3.6,8-8,8H142.8C138.3,88.6,134.8,85,134.8,80.6z" fill="currentColor"/>
  <path d="M323,105.4c-1.5,0-2.9-0.5-4-1.3l-14.6-10.6c-3.1-2.2-3.8-6.6-1.6-9.7c1.3-1.8,3.4-2.9,5.6-2.9c1.5,0,2.9,0.5,4,1.3l9,6.5l21.8-30.3c1.3-1.8,3.4-2.9,5.6-2.9c1.5,0,2.8,0.4,4,1.3c1.8,1.3,2.9,3.4,2.9,5.7c0,1.5-0.5,2.9-1.3,4l-25.2,35.1c-0.1,0.1-0.2,0.3-0.3,0.4c-0.1,0.2-0.2,0.3-0.3,0.5C327.3,104.3,325.2,105.4,323,105.4z" fill="currentColor"/>
  <path d="M259.7,156.6l-0.3-0.4c-3.6-5.2-7.5-10.3-11.6-15l-1.5-1.7h26.3c4.7,0,8.5,3.8,8.5,8.6c0,2.3-0.9,4.5-2.5,6c-1.6,1.6-3.8,2.5-6,2.5L259.7,156.6L259.7,156.6z" fill="currentColor"/>
  <path d="M323,173.5c-1.5,0-2.9-0.5-4-1.3l-14.6-10.6c-3.1-2.2-3.8-6.6-1.6-9.7c1.3-1.8,3.4-2.9,5.6-2.9c1.5,0,2.9,0.5,4,1.3l9,6.5l21.8-30.3c1.3-1.8,3.4-2.9,5.6-2.9c1.5,0,2.8,0.4,4,1.3c1.8,1.3,2.9,3.4,2.9,5.7c0,1.5-0.5,2.9-1.3,4l-25.2,35.1c-0.1,0.1-0.2,0.3-0.3,0.4c-0.1,0.2-0.2,0.3-0.3,0.5C327.3,172.4,325.2,173.5,323,173.5z" fill="currentColor"/>
  <path d="M321.9,241.5c-1.5,0-2.9-0.5-4-1.3l-14.6-10.6c-3.1-2.2-3.8-6.6-1.6-9.7c1.3-1.8,3.4-2.9,5.6-2.9c1.5,0,2.9,0.5,4,1.3l9.7,7l22.1-30.8c1.3-1.8,3.4-2.9,5.6-2.9c1.5,0,2.8,0.4,4,1.3c1.8,1.3,2.9,3.4,2.9,5.7c0,1.5-0.5,2.9-1.3,4l-25.2,35.1c-0.8,1.2-2,2-3.3,2.5C324.7,241.1,323.3,241.5,321.9,241.5z" fill="currentColor"/>
</svg>