<svg xmlns="http://www.w3.org/2000/svg" viewBox="0 0 61.5 61.6">
  <path d="M55.8,0.9h-16c-3.1,0-5.4,1-7.7,3.3c-0.4,0.4-0.4,1,0,1.4c0.4,0.4,1,0.4,1.4,0c2-2,3.7-2.7,6.3-2.7h16c1.7,0,3,1.3,3,3v16c0,2.6-0.8,4.3-2.7,6.3L26.4,57.9c-1.1,1.1-3.1,1.1-4.3,0L3.8,39.5c-0.6-0.6-0.9-1.3-0.9-2.1c0-0.8,0.3-1.6,0.9-2.1L30.6,8.5c0.4,0.1,0.8,0.2,1.3,0.3c4.1,1.1,7.3,2.2,9.7,3.2c-0.5,0.9-0.7,1.8-0.7,2.8c0,3.3,2.7,6,6,6s6-2.7,6-6s-2.7-6-6-6c-0.5,0-1,0.5-1,1s0.5,1,1,1c2.2,0,4,1.8,4,4s-1.8,4-4,4c-2.2,0-4-1.8-4-4c0-0.7,0.2-1.4,0.6-2c1.7,0.8,2.8,1.5,3.3,2c-0.2,0-0.5,0.1-0.9,0.2c-0.5,0-1,0.5-0.9,1.1c0.1,0.5,0.5,0.9,1,0.9h0.1c0.6-0.1,2.5-0.2,2.8-1.6c0.4-1.4-1.1-2.8-4.8-4.5c-3-1.4-7.1-2.8-11.5-4c-4.4-1.2-8.7-2-12-2.3c-4.1-0.4-6,0.1-6.4,1.5c-0.2,0.7-0.7,2.4,7.5,5.6c0.5,0.2,1.1,0,1.3-0.6c0.2-0.5,0-1.1-0.6-1.3c-3.9-1.5-5.5-2.7-6.1-3.2c1.2-0.4,5.5-0.3,12.2,1.3l-26,25.9c-0.9,0.9-1.5,2.2-1.5,3.5c0,1.3,0.5,2.6,1.5,3.5l18.4,18.4c0.9,0.9,2.2,1.5,3.5,1.5c1.3,0,2.6-0.5,3.5-1.5l29.7-29.7c2.3-2.3,3.3-4.6,3.3-7.7v-16C60.8,3.1,58.5,0.9,55.8,0.9z" fill="currentColor" stroke="currentColor" stroke-width="1.5" stroke-miterlimit="10"/>
</svg>