<svg xmlns="http://www.w3.org/2000/svg" viewBox="0 0 390 389">
  <path d="M132,389c-1.6,0-2.9-0.6-4-1.7c-4.1-4.2-3.7-14.5-3.7-14.6l0-58.1H47.3C21.8,314.7,1,293.9,1,268.3v-222C1,20.8,21.8,0,47.3,0h296.3C369.2,0,390,20.8,390,46.3v222c0,25.6-20.8,46.3-46.3,46.3H233.2l-0.3,0.2c-12.3,9.5-74.6,57.4-92,70.2C137.4,387.7,134.4,389,132,389z M146.6,352.3l79.3-59h119.2c12.9,0,23.4-10.5,23.4-23.4v-224c0-12.9-10.5-23.4-23.4-23.4H47.9c-12.9,0-23.4,10.5-23.4,23.4v224c0,12.9,10.5,23.4,23.4,23.4h98.8V352.3z" fill="currentColor"/>
  <path d="M195.4,251.7c-9.9,0-17.9-8-17.9-17.9c0-9.9,8-17.9,17.9-17.9c9.9,0,17.9,8,17.9,17.9C213.4,243.6,205.3,251.7,195.4,251.7z" fill="currentColor"/>
  <path d="M201.5,197.6c-0.3,0-0.5,0-0.5,0l-0.1,0l-10.9,0c-6,0-6.2-3.4-6.2-3.5l0-0.4l-0.2-0.2c-0.1-0.3-0.7-1.9-0.7-8.4c0-7,2.7-13.8,8.8-21.9c3.1-4.1,13.7-12.1,23.1-19.1c6.7-5,13-9.7,15.6-12.4c3.7-3.7,5.6-10.7,4.6-17.5c-1.1-7.8-5.7-14.3-13-18.4c-9.3-5.2-20-6.3-27.4-6.3c-6,0-10.1,0.7-10.2,0.7c-0.7,0.1-17.6,2.9-26.8,14.8c-3.2,4.2-6.5,6.3-9.8,6.3c-3,0-5-1.9-5-1.9l-0.1-0.1l-4.5-3.6c-4.3-3-5.5-5.4-5.7-6.9c-0.2-1.6,0.4-2.5,0.4-2.5l0.1-0.2l0.1-0.2c0,0,1.2-3.6,11.4-13c9.5-8.7,22.1-18,51-18c2.5,0,5.1,0.1,7.8,0.2c32.4,1.7,44.3,19.7,50,28.3l0.7,1c5,7.5,9.9,33.2-0.9,47.6c-6.4,8.5-16.1,15-24.7,20.8c-5.9,3.9-11,7.4-14,10.7c-5.4,6.1-6,10.3-6.5,14.4c-0.2,1.6-0.4,3.2-0.9,4.9C205.9,197,203.1,197.6,201.5,197.6z" fill="currentColor"/>
</svg>