<svg xmlns="http://www.w3.org/2000/svg" viewBox="0 0 390 385">
  <path d="M375.3,298.3l-85.4-85.4c-3.5-4.1-7.5-7.7-12-10.7c-9.3,0-21.5-1.4-35.8-6.2l-50.9,50.9v0.1c-0.3,9.3,1.6,18.2,5.3,26c3.4,7.2,8.3,13.6,14.3,18.7l85.5,85.5c10.3,10.3,27.2,10.3,37.5,0l41.5-41.5C385.6,325.4,385.6,308.6,375.3,298.3z M357.1,321.9l-37.3,37.2c-2.1,2.1-5.6,2.1-7.8,0l-85.2-85.2c-6-4.9-10.3-11.9-11.5-19.9c-0.3-1.6-0.4-3.3-0.4-5c0-17.7,14.3-32,32-32c8.2,0,15.7,3.1,21.4,8.2c1.3,1.1,2.4,2.4,3.5,3.7l85.2,85.2C359.3,316.3,359.3,319.7,357.1,321.9z M143,128V73L48,2h-2L0,49v2l71,94h56l19,19l15.7,15.7l16.5-16.5l-15.7-15.7L143,128z M119,121H83L31,52l19-19l69,51V121z" fill="currentColor"/>
  <path d="M372.7,71.7c-11-3-15,0-21,5s-48,47-48,47l-32.7-5L266,86c0,0,42-42,47-48s8-10,5-21S304,0,274,0s-58,18-58,18s-29,17-44,53s-4,71-4,71L19,291c-27.4,37.1-3.2,68.8,2.8,75.6c0.2,0.3,0.4,0.5,0.6,0.7s0.4,0.4,0.7,0.6c6.8,6,38.5,30.2,75.6,2.8l149-149c0,0,8.2,2.6,20.7,3.5c8.9,0.7,20,0.5,31.9-1.9c6-1.2,12.2-3,18.4-5.6c36-15,53-44,53-44s18-28,18-58S383.7,74.7,372.7,71.7z M348,167c-26,32-51,33-51,33s-7.1,2.3-19.2,2.2c-9.3,0-21.5-1.4-35.8-6.2L87,351c0,0-26.5,20.5-47,0c-0.2-0.2-0.4-0.5-0.6-0.7c-0.3-0.2-0.5-0.4-0.7-0.6c-20.5-20.5,0-47,0-47l155-155c-11-33-4-55-4-55s1-25,33-51s69-16,69-16l-52,51l0.1,0.6l9.9,62.4h0.3v0.3l62.4,9.9l0.6,0.1l51-52C364,98,374,135,348,167z" fill="currentColor"/>
  <circle cx="66" cy="324" r="12" fill="currentColor"/>
</svg>