<svg xmlns="http://www.w3.org/2000/svg" viewBox="0 0 485 408">
  <path d="M147,387c0,0,0,12-12,12s-12-10-12-10c0-34-30-38-30-38H57c0,0-30,4-30,38c0,0,0,10-12,10S3,387,3,387s-1-13,8-30s30-30,45-30h38c15,0,36,13,45,30S147,387,147,387z" fill="currentColor"/>
  <path d="M74.5,183C41.1,183,14,209.6,14,242.5S41.1,302,74.5,302s60.5-26.6,60.5-59.5S107.9,183,74.5,183z M74.8,279C54.5,279,38,262.8,38,242.8s16.5-36.2,36.8-36.2c20.3,0,36.8,16.2,36.8,36.2S95.1,279,74.8,279z" fill="currentColor"/>
  <path d="M315,387c0,0,0,12-12,12s-12-10-12-10c0-34-30-38-30-38h-36c0,0-30,4-30,38c0,0,0,10-12,10s-12-12-12-12s-1-13,8-30s30-30,45-30h38c15,0,36,13,45,30S315,387,315,387z" fill="currentColor"/>
  <path d="M242.5,183c-33.4,0-60.5,26.6-60.5,59.5s27.1,59.5,60.5,59.5s60.5-26.6,60.5-59.5S275.9,183,242.5,183z M242.8,279c-20.3,0-36.8-16.2-36.8-36.2s16.5-36.2,36.8-36.2c20.3,0,36.8,16.2,36.8,36.2S263.1,279,242.8,279z" fill="currentColor"/>
  <path d="M483,387c0,0,0,12-12,12s-12-10-12-10c0-34-30-38-30-38h-36c0,0-30,4-30,38c0,0,0,10-12,10s-12-12-12-12s-1-13,8-30s30-30,45-30h38c15,0,36,13,45,30S483,387,483,387z" fill="currentColor"/>
  <path d="M410.5,183c-33.4,0-60.5,26.6-60.5,59.5s27.1,59.5,60.5,59.5s60.5-26.6,60.5-59.5S443.9,183,410.5,183z M410.8,279c-20.3,0-36.8-16.2-36.8-36.2s16.5-36.2,36.8-36.2c20.3,0,36.8,16.2,36.8,36.2S431.1,279,410.8,279z" fill="currentColor"/>
  <path d="M459,47v127c-12-9-23.5-11-23.5-11s0-98,0-111.5S423,39,423,39H63c0,0-12.5-1-12.5,12.5s0,111.5,0,111.5S39,165,27,174V47c0,0,1-32,36-32h360C458,15,459,47,459,47z" fill="currentColor"/>
</svg>