<?xml version="1.0" encoding="utf-8"?>
<!-- Generator: Adobe Illustrator 22.1.0, SVG Export Plug-In . SVG Version: 6.00 Build 0)  -->
<svg version="1.1" id="Capa_1" xmlns="http://www.w3.org/2000/svg" xmlns:xlink="http://www.w3.org/1999/xlink" x="0px" y="0px"
	 viewBox="0 0 490 346" style="enable-background:new 0 0 490 346;" xml:space="preserve">
<style type="text/css">
	.st0{fill:#333333;}
	.st1{fill:none;stroke:#333333;stroke-width:24;stroke-miterlimit:10;}
</style>
<path class="st0" d="M317,189c0,0-12-4-51,6c0,0-9.3,1.7-20.5,2.1c-11.2-0.4-20.5-2.1-20.5-2.1c-39-10-51-6-51-6c-68,11-72,75-72,75
	v7.9c0,0,0,5.9,0,26.1c0,49,44,43,44,43h199c0,0,44,6,44-43c0-20.2,0-26.1,0-26.1V264C389,264,385,200,317,189z M366,302
	c0,18-17,15-17,15H143c0,0-17,3-17-15v-39c0,0,5-43,48-50c0,0,13-5,42,4c7.2,2.2,15.4,3.3,23.6,3.6c4.2,0.2,8.5,0.2,12.8,0
	c8.2-0.3,16.4-1.4,23.6-3.6c29-9,42-4,42-4c43,7,48,50,48,50V302z"/>
<circle class="st1" cx="246.5" cy="89.5" r="70.5"/>
<path class="st0" d="M414,173h-21c0,0-16,1-25,10l19,16h3c0,0,2-2,6-2s35,0,35,0s10-2,23,13c0,0,7,6,8,20s8,15,14,15s10-7,10-11
	s0-19-7-31s-26-30-43-30S414,173,414,173z"/>
<circle class="st1" cx="414" cy="89" r="46"/>
<path class="st0" d="M78,173h21c0,0,16,1,25,10l-19,16h-3c0,0-2-2-6-2s-35,0-35,0s-10-2-23,13c0,0-7,6-8,20s-8,15-14,15s-10-7-10-11
	s0-19,7-31s26-30,43-30S78,173,78,173z"/>
<circle class="st1" cx="78" cy="89" r="46"/>
</svg>
