<?xml version="1.0" encoding="utf-8"?>
<!-- Generator: Adobe Illustrator 22.1.0, SVG Export Plug-In . SVG Version: 6.00 Build 0)  -->
<svg version="1.1" id="Capa_1" xmlns="http://www.w3.org/2000/svg" xmlns:xlink="http://www.w3.org/1999/xlink" x="0px" y="0px"
	 viewBox="0 0 490 346" style="enable-background:new 0 0 490 346;" xml:space="preserve">
<style type="text/css">
	.st0{fill:#333333;}
	.st1{fill:none;stroke:#333333;stroke-width:24;stroke-miterlimit:10;}
</style>
<path class="st0" d="M317,189c0,0-12-4-51,6c0,0-9.3,1.7-20.5,2.1c-11.2-0.4-20.5-2.1-20.5-2.1c-39-10-51-6-51-6c-68,11-72,75-72,75
	v7.9c0,0,0,5.9,0,26.1c0,49,44,43,44,43h3.7v-24H143c0,0-17,3-17-15v-39c0,0,5-43,48-50c0,0,13-5,42,4c7.2,2.2,15.4,3.3,23.6,3.6
	c4.2,0.2,8.5,0.2,12.8,0c8.2-0.3,16.4-1.4,23.6-3.6c29-9,42-4,42-4c43,7,48,50,48,50v39c0,18-17,15-17,15h-5.7v24h1.7
	c0,0,44,6,44-43c0-20.2,0-26.1,0-26.1V264C389,264,385,200,317,189z"/>
<circle class="st1" cx="246.5" cy="89.5" r="70.5"/>
<path class="st0" d="M341.7,46.5c0,3.2-1.3,6.2-3.5,8.3c-2.1,2.1-5.1,3.5-8.3,3.5H162.1c-6.5,0-11.8-5.3-11.8-11.8
	c0-3.2,1.3-6.2,3.5-8.3c2.1-2.1,5.1-3.5,8.3-3.5h2.6c1.6-31.8,19.6-58.9,45.3-72.2L216.5,1c0.5,3.1,3.5,5.3,6.6,4.7l0.7-0.1
	c3.1-0.5,5.3-3.5,4.7-6.7l-6.7-39.8l-0.3-1.6l-0.4-2.5c0.5-0.7,3.8-5.3,8.6-6.5c0,0,2.3-0.6,5.2-0.7c0.1,0,0.2,0,0.3,0h21.5
	c0.1,0,0.2,0,0.3,0c2.9,0,5.2,0.7,5.2,0.7c5.1,1.3,8.5,6.3,8.7,6.6l-0.4,2.6l-0.3,1.5l-6.8,40c-0.5,3.1,1.6,6.1,4.7,6.7l0.7,0.1
	c3.1,0.5,6.1-1.6,6.7-4.7l6.5-38.6h0c25.5,13.4,43.3,40.4,44.9,72.1h2.8C336.4,34.7,341.7,40,341.7,46.5z"/>
<path class="st0" d="M321.4,357H171.6c-6.6,0-12-5.4-12-12v-74.6c0-6.6,5.4-12,12-12h149.7c6.6,0,12,5.4,12,12V345
	C333.4,351.6,328,357,321.4,357z"/>
<rect x="178" y="200" class="st0" width="16" height="80"/>
<rect x="298" y="200" class="st0" width="16" height="80"/>
</svg>
