<?xml version="1.0" encoding="utf-8"?>
<!-- Generator: Adobe Illustrator 22.1.0, SVG Export Plug-In . SVG Version: 6.00 Build 0)  -->
<svg version="1.1" id="Capa_1" xmlns="http://www.w3.org/2000/svg" xmlns:xlink="http://www.w3.org/1999/xlink" x="0px" y="0px"
	 viewBox="0 0 1256 1256" style="enable-background:new 0 0 1256 1256;" xml:space="preserve">
<style type="text/css">
	.st0{fill:#4B0082;}
</style>
<path class="st0" d="M743,629.4c0.2,30.5-11.6,59.2-33.1,80.9c-21.7,21.9-50.8,34-81.7,34c-63.3,0-114.8-51.5-114.8-114.8
	c0-63.3,51.5-114.8,114.8-114.8C691.4,514.7,742.9,566.1,743,629.4z"/>
<path class="st0" d="M628,0C281.2,0,0,281.2,0,628s281.2,628,628,628s628-281.2,628-628S974.8,0,628,0z M950,628.6
	c0,18-1.5,35.6-4.4,52.8l13.8,8.9l0.2,0.1c7.3,4.5,16.2,9.8,27.2,16.3l13.3,8c11.9,7.1,16.1,14.1,17.7,19.6
	c-18.3,67.4-53.9,129.2-103.4,179.1c-1.8,0.4-3.6,0.6-5.6,0.6c-4.4,0-11.4-1-20-5.9c-0.1-0.1-0.3-0.2-0.5-0.3l-53.8-34.3
	c-28.3,23.5-60.7,42.3-96,55.1v64.6c0,16.7-6.1,23.8-12.2,27.8c-12.5,3.2-25.5,5.8-38.7,8c-19.5,3.2-40,4.9-61.3,4.9
	c-20.5,0-40.2-1.4-58.5-4.2l-6.2-1h-0.5c-9-1.4-18.4-3.3-27.9-5.6c-8.1-4-15.8-11.1-15.8-29.9v-64.7c-35.3-12.8-67.6-31.6-95.9-55.1
	l-53.9,34.3c-0.2,0.1-0.3,0.2-0.5,0.3c-8.6,4.9-15.6,5.9-20,5.9c-4.8,0-8.9-1.2-12.8-3.6c-6.5-6.6-12.6-13.6-19-20.9
	c-1.2-1.6-2.5-3-3.4-4c-27-33-48.6-69.6-64.1-108.8c-0.4-0.9-0.7-1.8-1-2.6c-0.3-0.8-0.6-1.6-0.9-2.3v-0.7l-1.8-4.6
	c-2.1-5.4-3.9-10.9-5.6-16.3v-9.3l-1.1-1.1c0.5-7.9,4.7-16.5,18.8-25l54.4-32.6c-3-17.5-4.5-35.4-4.5-53.8c0-19.8,1.8-39.3,5.3-58.1
	L253,542.1c-2.7-1.4-14.7-7.9-17.2-20.2v-7c2.2-7.9,4.5-14.8,6.9-21.2l0.2-0.6l1.4-4.2c0.5-1.5,1.1-2.9,1.3-3.7
	c15.2-40.6,36.3-77.8,62.6-110.6l7.6-9.3c0.8-1,1.4-1.9,1.7-2.4c1.6-2.4,16.2-23.4,33.4-23.4c5.2,0,11,2.1,17.9,6.4
	c7.2,4.6,13.2,8.4,18.2,11.6c9.6,6.1,15.5,9.8,19.2,12.1l18.6,11.2c8.5-6.9,17.4-13.4,26.6-19.4c0,0,0,0,0.1,0
	c2.2-1.4,4.4-2.8,6.7-4.2c0,0,0,0,0.1,0c18.6-11.5,38.4-21.1,59.2-28.6l0.5-64c0-0.6,0.4-8.8,4.1-17.2c3.9-9,9.8-14.4,18.5-17.1
	c1.3-0.3,2.7-0.5,4-0.8c1.9-0.4,3.7-0.7,5.5-1.1c6.8-1.3,12.9-2.3,19.4-3.3c18.5-2.6,37.6-3.9,56.7-3.9c20.1,0,41,1.6,62,4.6l0.2,0
	l2,2h10.9c7.3,1.4,13.7,2.7,20,4.2c15.5,8.6,17.2,30.5,17.3,32.6l0.5,64.3c16.3,6,32.1,13.2,47,21.7c8.2,4.6,16.2,9.5,23.9,14.8
	c7.3,5,14.4,10.2,21.2,15.8l19.4-12.5l37.1-23.4c6.4-4.1,12.3-6.2,17.7-6.2c3.3,0,6.7,0.8,9.8,2.4c50.8,51.3,86.8,114.8,104.5,184.3
	c-3.8,9-13.3,14.8-16.5,16.5c0,0,0,0-0.1,0l-58.8,28.3C948.2,589.3,950,608.7,950,628.6z"/>
</svg>
