<?xml version="1.0" encoding="utf-8"?>
<!-- Generator: Adobe Illustrator 22.1.0, SVG Export Plug-In . SVG Version: 6.00 Build 0)  -->
<svg version="1.1" xmlns="http://www.w3.org/2000/svg" xmlns:xlink="http://www.w3.org/1999/xlink" x="0px" y="0px"
	 viewBox="0 0 195 194.9" style="enable-background:new 0 0 195 194.9;" xml:space="preserve">
<style type="text/css">
	.st0{fill:#4B0082;}
	.st1{fill:#DAA520;}
	.st2{fill:#777777;}
	.st3{fill:#FFFFFF;}
</style>
<g id="Capa_1">
	<path class="st0" d="M97.5,194.9C43.7,194.9,0,151.2,0,97.4C0,45,41.6,2.1,93.5,0v98.3l42.8,88.6c-0.6,0.3-1.2,0.5-1.8,0.8
		c-0.6,0.2-1.1,0.5-1.7,0.7l-0.1,0c-0.2,0.1-0.3,0.1-0.5,0.2l-0.2,0.1c-0.5,0.2-1.1,0.4-1.6,0.6c-0.2,0.1-0.4,0.2-0.6,0.2l-0.1,0
		c-0.6,0.2-1.2,0.4-1.8,0.6l-0.6,0.2c-0.6,0.2-1.2,0.4-1.8,0.6l-0.2,0.1c-0.1,0-0.2,0.1-0.4,0.1l-0.2,0.1c-0.6,0.2-1.1,0.3-1.7,0.5
		c-1.9,0.5-3.8,1-6,1.4c-0.7,0.1-1.4,0.3-2.1,0.4c-0.8,0.1-1.5,0.3-2.3,0.4c-0.3,0.1-0.6,0.1-0.9,0.1l-0.1,0c-0.5,0.1-1,0.1-1.5,0.2
		c-0.8,0.1-1.6,0.2-2.3,0.3c-0.9,0.1-1.8,0.2-2.7,0.2c-0.6,0-1.2,0.1-1.8,0.1l-1,0.1c-0.6,0-1.2,0.1-1.9,0.1l-0.7,0
		C98.9,194.9,98.2,194.9,97.5,194.9z"/>
	<path class="st1" d="M101.5,0c0.5,0,0.9,0,1.4,0.1c0.7,0,1.4,0.1,2.1,0.1l0.2,0h0.1c0.6,0,1.2,0.1,1.8,0.2c0.2,0,0.4,0,0.5,0.1
		l0.1,0c0.7,0.1,1.5,0.2,2.2,0.3c0.8,0.1,1.6,0.2,2.4,0.3l0.3,0.1l0.1,0c0.6,0.1,1.2,0.2,1.8,0.3l0.2,0c0.2,0,0.4,0.1,0.6,0.1l0.2,0
		c0.4,0.1,0.8,0.1,1.1,0.2l0.5,0.1c0.8,0.2,1.7,0.4,2.6,0.6c0.8,0.2,1.5,0.4,2.2,0.5c0.6,0.2,1.2,0.3,1.7,0.5l0.3,0.1
		c0.4,0.1,0.9,0.2,1.3,0.4c0.5,0.2,1,0.3,1.4,0.4l0.5,0.1c0.5,0.1,0.9,0.3,1.4,0.5c0.8,0.3,1.5,0.5,2.2,0.8l0.1,0
		c0.3,0.1,0.5,0.2,0.8,0.3c0.7,0.3,1.4,0.5,2,0.8l0.1,0c0.5,0.2,0.9,0.4,1.4,0.6l0,0l0.4,0.2c0.6,0.2,1.2,0.5,1.8,0.8l0.3,0.1
		c0.7,0.3,1.4,0.6,2.1,1c0,0,1.4,0.7,1.9,1l0.2,0.1c0.3,0.2,0.7,0.4,1,0.5l0.1,0.1c0.5,0.2,0.9,0.5,1.4,0.7c0.5,0.3,0.9,0.5,1.3,0.7
		c0.3,0.2,0.5,0.3,0.8,0.5l0.2,0.1c0.4,0.2,0.8,0.5,1.2,0.7c0.4,0.3,0.8,0.5,1.2,0.8c0.4,0.3,0.8,0.5,1.1,0.7
		c0.7,0.4,1.4,0.9,2.1,1.4c0.7,0.5,1.4,0.9,2,1.4l0.2,0.1c0.1,0.1,0.2,0.1,0.3,0.2l0.2,0.1c0.5,0.4,1.1,0.8,1.6,1.2
		c0.5,0.4,1,0.7,1.4,1.1l0.3,0.3c0.4,0.3,0.8,0.6,1.2,1c1.3,1.1,2.5,2.1,3.6,3.1c0.4,0.4,0.7,0.7,1.1,1l0.1,0.1
		c0.3,0.3,0.7,0.6,1,0.9l0.1,0.1l0.1,0.1c0.1,0.1,0.1,0.1,0.2,0.2l0.1,0.1c0.4,0.4,0.8,0.8,1.2,1.2c0.3,0.3,0.5,0.5,0.7,0.8l0.1,0.1
		c0.3,0.3,0.6,0.6,0.9,1l0.1,0.1c0.3,0.3,0.6,0.6,0.8,0.9c0.6,0.6,1.1,1.2,1.6,1.8c0.6,0.7,1.2,1.4,1.7,2l0.1,0.1
		c0.1,0.1,0.1,0.2,0.2,0.2l0.1,0.1l0.1,0.1c0.2,0.3,0.4,0.5,0.7,0.8l-72.6,52.5V0z"/>
	<path class="st2" d="M102.6,98.7l76.2-55.2c10.6,16,16.2,34.5,16.2,53.9c0,18.7-5.3,36.8-15.3,52.5c-9,14.1-21.5,25.6-36.2,33.5
		L102.6,98.7z"/>
</g>
<g id="Encuestas">
	<path class="st3" d="M123.4,57.1c-0.1,0-0.2-0.1-0.3-0.1c-0.4-0.4-0.3-1.2-0.3-1.2v-5h-6.6c-2.2,0-4-1.8-4-4v-19c0-2.2,1.8-4,4-4
		h25.3c2.2,0,4,1.8,4,4v19c0,2.2-1.8,4-4,4h-9.4l0,0c-1.1,0.8-6.4,4.9-7.9,6C123.9,57,123.6,57.1,123.4,57.1z M124.7,54l6.8-5h10.2
		c1.1,0,2-0.9,2-2V27.8c0-1.1-0.9-2-2-2h-25.4c-1.1,0-2,0.9-2,2v19.1c0,1.1,0.9,2,2,2h8.4L124.7,54L124.7,54z"/>
	<path class="st3" d="M128.8,45.4c-0.8,0-1.5-0.7-1.5-1.5s0.7-1.5,1.5-1.5c0.8,0,1.5,0.7,1.5,1.5C130.4,44.7,129.7,45.4,128.8,45.4z
		"/>
	<path class="st3" d="M129.4,40.8C129.3,40.8,129.3,40.8,129.4,40.8L129.4,40.8h-1c-0.5,0-0.5-0.3-0.5-0.3v0l0,0
		c0,0-0.1-0.2-0.1-0.7c0-0.6,0.2-1.2,0.8-1.9c0.3-0.4,1.2-1,2-1.6c0.6-0.4,1.1-0.8,1.3-1.1c0.3-0.3,0.5-0.9,0.4-1.5
		c-0.1-0.7-0.5-1.2-1.1-1.6c-0.8-0.4-1.7-0.5-2.3-0.5c-0.5,0-0.9,0.1-0.9,0.1c-0.1,0-1.5,0.2-2.3,1.3c-0.3,0.4-0.6,0.5-0.8,0.5
		c-0.3,0-0.4-0.2-0.4-0.2l0,0l-0.4-0.3c-0.4-0.3-0.5-0.5-0.5-0.6c0-0.1,0-0.2,0-0.2l0,0l0,0c0,0,0.1-0.3,1-1.1
		c0.8-0.7,1.9-1.5,4.4-1.5c0.2,0,0.4,0,0.7,0c2.8,0.1,3.8,1.7,4.3,2.4l0.1,0.1c0.4,0.6,0.8,2.8-0.1,4.1c-0.5,0.7-1.4,1.3-2.1,1.8
		c-0.5,0.3-0.9,0.6-1.2,0.9c-0.5,0.5-0.5,0.9-0.6,1.2c0,0.1,0,0.3-0.1,0.4C129.7,40.7,129.5,40.8,129.4,40.8z"/>
</g>
<g id="Tareas">
	<path class="st3" d="M140.7,110.7c-0.5,0-0.9-0.4-0.9-0.9v-0.2c0-0.5,0.4-0.9,0.9-0.9h18.2c0.5,0,0.9,0.4,0.9,0.9v0.2
		c0,0.5-0.4,0.9-0.9,0.9H140.7z"/>
	<path class="st3" d="M140.7,101.2c-0.5,0-0.9-0.4-0.9-0.9v-0.2c0-0.5,0.4-0.9,0.9-0.9h18.2c0.5,0,0.9,0.4,0.9,0.9v0.2
		c0,0.5-0.4,0.9-0.9,0.9H140.7z"/>
	<path class="st3" d="M165.9,103.5c-0.2,0-0.3-0.1-0.4-0.1l-2-1.5c-0.3-0.2-0.4-0.7-0.2-1.1c0.1-0.2,0.4-0.3,0.6-0.3
		c0.2,0,0.3,0.1,0.4,0.1l1.4,1l3.2-4.4c0.1-0.2,0.4-0.3,0.6-0.3c0.2,0,0.3,0,0.4,0.1c0.2,0.1,0.3,0.4,0.3,0.6c0,0.2-0.1,0.3-0.1,0.4
		l-3.5,4.9c0,0,0,0,0,0l0,0l0,0l0,0l0,0l0,0c0,0,0,0,0,0C166.3,103.4,166.1,103.5,165.9,103.5z"/>
	<path class="st3" d="M165.9,113.1c-0.2,0-0.3-0.1-0.4-0.1l-2-1.5c-0.3-0.2-0.4-0.7-0.2-1.1c0.1-0.2,0.4-0.3,0.6-0.3
		c0.2,0,0.3,0.1,0.4,0.1l1.4,1l3.2-4.4c0.1-0.2,0.4-0.3,0.6-0.3c0.2,0,0.3,0,0.4,0.1c0.2,0.1,0.3,0.4,0.3,0.6c0,0.2-0.1,0.3-0.1,0.4
		l-3.5,4.9c0,0,0,0,0,0l0,0l0,0l0,0l0,0l0,0c0,0,0,0,0,0C166.3,112.9,166.1,113.1,165.9,113.1z"/>
	<path class="st3" d="M165.7,122.5c-0.2,0-0.3-0.1-0.4-0.1l-2-1.5c-0.2-0.1-0.3-0.3-0.3-0.5s0-0.4,0.1-0.6c0.1-0.2,0.4-0.3,0.6-0.3
		c0.2,0,0.3,0.1,0.4,0.1l1.5,1.1l3.2-4.5c0.1-0.2,0.4-0.3,0.6-0.3c0.2,0,0.3,0,0.4,0.1c0.2,0.1,0.3,0.4,0.3,0.6
		c0,0.2-0.1,0.3-0.1,0.4l-3.5,4.9c-0.1,0.1-0.2,0.2-0.4,0.3l0,0l0,0C166,122.5,165.9,122.5,165.7,122.5z"/>
	<path class="st3" d="M138,136.9c-1.8,0-3.3-1.5-3.3-3.4V93.4c0-1.8,1.5-3.3,3.3-3.3h33.7c1.9,0,3.4,1.5,3.4,3.3v40.2
		c0,1.8-1.5,3.3-3.3,3.3L138,136.9L138,136.9z M138.2,92.3c-0.6,0-1,0.5-1,1v40.1c0,0.6,0.5,1,1,1h33.4c0.6,0,1-0.5,1-1V93.3
		c0-0.6-0.5-1-1-1L138.2,92.3L138.2,92.3z"/>
	<path class="st3" d="M140.7,120.3c-0.5,0-0.9-0.4-0.9-0.9v-0.2c0-0.5,0.4-0.9,0.9-0.9h18.2c0.5,0,0.9,0.4,0.9,0.9v0.2
		c0,0.5-0.4,0.9-0.9,0.9H140.7z"/>
</g>
<g id="Control_1_">
	<g id="Control">
		<g>
			<path class="st3" d="M70.7,91c-4.3-5.5-10.5-9.2-17.2-10.3c-6.8-0.8-13.5,0.8-19.1,5.1l-2.1-2.1c-0.6-0.6-1-0.4-1.2,0.4l-0.6,7.2
				c0,0.8,0.6,1.4,1.2,1.4l7.2-0.6c0.8,0,1-0.6,0.4-1.2l-2.1-2.1c4.5-3.3,10.1-4.7,15.6-3.9c5.7,0.8,10.9,3.9,14.6,8.6
				c3.5,4.7,5.1,10.7,4.3,16.4c-0.6,4.1-2.3,8-4.7,11.3c-1,1.2-2.3,2.5-3.7,3.5c-4.7,3.7-10.5,5.1-16.2,4.5
				c-5.7-0.8-10.9-3.9-14.6-8.6c-3.5-4.5-5.1-10.3-4.3-16c0.2-1.2-0.6-2.3-1.8-2.5c-1.2-0.2-2.3,0.6-2.3,1.8c-0.8,7,1,13.8,5.3,19.3
				c4.3,5.5,10.5,9.2,17.2,10.3c7,0.8,13.8-1,19.3-5.3c1.6-1.2,3.1-2.7,4.3-4.3c3.1-3.9,5.1-8.4,5.7-13.3
				C76.8,103.7,75,96.7,70.7,91z"/>
			<path class="st3" d="M48.9,89.9c-1,0-1.6,0.8-1.6,1.6v17.2l15.4,8.2c0.2,0.2,0.6,0.2,0.8,0.2c0.6,0,1.2-0.4,1.4-1
				c0.4-0.8,0.2-1.8-0.8-2.3l-13.8-7.2V91.6C50.5,90.8,49.9,89.9,48.9,89.9z"/>
		</g>
	</g>
</g>
</svg>
