<?xml version="1.0" encoding="utf-8"?>
<!-- Generator: Adobe Illustrator 22.1.0, SVG Export Plug-In . SVG Version: 6.00 Build 0)  -->
<svg version="1.1" id="Capa_1" xmlns="http://www.w3.org/2000/svg" xmlns:xlink="http://www.w3.org/1999/xlink" x="0px" y="0px"
	 viewBox="0 0 1256 1256" style="enable-background:new 0 0 1256 1256;" xml:space="preserve">
<style type="text/css">
	.st0{fill:#4B0082;}
</style>
<path class="st0" d="M628,0C281.2,0,0,281.2,0,628s281.2,628,628,628s628-281.2,628-628S974.8,0,628,0z M950.8,671.2
	c0,0-7.7,20-33.5,59.9c-25.8,39.9-37.3,72.1-44.4,113.3c-6,35.1-5.5,114-5.2,136.7c0,0,0,0,0,0c0,2,0,3.5,0.1,4.5
	c0,0.6,0,1.1-0.1,1.7c-1.7,26.5-23.9,47.7-50.8,47.7H553.5c-14,0-26.7-5.7-35.9-15c-8.5-8.5-14-20-14.8-32.7
	c-0.1-1.1-0.1-2.1-0.1-3.2v-77.3l-28.3,2.6c0,0-33.5,3.2-58-7.1c-24.5-10.3-43.8-24.5-59.2-45.7c-15.5-21.3-23.8-48.3-23.8-76
	s0-72.1,0-72.1l-53.5-26.4c0,0-34.1-18.7-16.7-57.3l71.5-124.9c0,0,5.2-81.1,58-162.9c52.8-81.8,161.6-105,161.6-105
	s99.2-28.3,219.6,5.8C894.1,272,945,375.6,957.9,416.8C970.8,458,997.2,562.4,950.8,671.2z"/>
<path class="st0" d="M685,411v84.4c-0.8,6.7-12.2,102.7-17,128.3c-2.7,15.1-10.2,17.3-14.5,17.3h-2.1c0,0-0.2,0-0.4,0
	c-4.3,0-11.8-2.2-14.6-17.3c-4.5-24.8-15.6-116.7-17-128.3V411c0.4-3.2,3.9-23.5,32.7-23.5C681.1,387.5,684.6,407.8,685,411z"/>
<path class="st0" d="M688,728.9c0,18.9-16,34.1-35.3,34.1c-19.5,0-35.3-15.2-35.3-34.1c0-18.9,15.8-34.1,35.3-34.1
	C672.2,694.8,688,710,688,728.9z"/>
</svg>
