<?xml version="1.0" encoding="utf-8"?>
<!-- Generator: Adobe Illustrator 22.1.0, SVG Export Plug-In . SVG Version: 6.00 Build 0)  -->
<svg version="1.1" id="Capa_1" xmlns="http://www.w3.org/2000/svg" xmlns:xlink="http://www.w3.org/1999/xlink" x="0px" y="0px"
	 viewBox="0 0 1256 1256" style="enable-background:new 0 0 1256 1256;" xml:space="preserve">
<style type="text/css">
	.st0{fill:#4B0082;}
</style>
<path class="st0" d="M628,0C281.2,0,0,281.2,0,628s281.2,628,628,628s628-281.2,628-628S974.8,0,628,0z M993.8,576.7l-1.4,12
	c-3.7,31-31.3,53.5-62.1,51.4v0.4l2.6,0.3c35.3,4.2,60.6,36.5,56.4,71.8l-0.2,1.5c-4.2,34.8-35.8,60.1-70.6,56.5c0,0-0.1,0-0.2,0
	c0.1,0,0.1,0,0.2,0c29.5,7.5,50.6,35.3,48.6,66.8v0c-2.3,35.4-33.2,62.5-68.6,60.2l-42.4-2.8c21.8,8,36.8,29.8,35.2,54.1l-0.4,5.6
	c-1.9,29.6-27.7,52.2-57.3,50.3l-2-0.1l0,0.3H706.3c0,0-120-3.8-174.6-16.7c-54.7-12.9-73.7-22.8-98.7-34.9
	c-25-12.1-47.8-9.1-47.8-9.1h-56.2c-57.7,0-53.9-38-53.9-38v-19c0,0,0-244.5,0-288.5c0-44,44.8-45.6,44.8-45.6h14.4
	c0,0,60,0.8,79-14.4c19-15.2,25.8-31.9,25.8-31.9s38.7-62.3,75.2-82c36.5-19.7,49.4-34.2,49.4-34.2c50.1-51.6,65.3-139.7,65.3-139.7
	s6.1-41,19-52.4c12.9-11.4,44-4.6,44-4.6c65.3,16,62.3,75.9,62.3,75.9s3.8,4.5-4.5,77.5c-8.4,72.9-43.3,135.2-43.3,135.2l197.4,24.3
	l0,0.1l39,4.7C974.7,515.5,997.7,544.8,993.8,576.7z"/>
</svg>
