<?xml version="1.0" encoding="utf-8"?>
<!-- Generator: Adobe Illustrator 22.1.0, SVG Export Plug-In . SVG Version: 6.00 Build 0)  -->
<svg version="1.1" id="Capa_1" xmlns="http://www.w3.org/2000/svg" xmlns:xlink="http://www.w3.org/1999/xlink" x="0px" y="0px"
	 viewBox="0 0 389.1 513" style="enable-background:new 0 0 389.1 513;" xml:space="preserve">
<style type="text/css">
	.st0{fill:#333333;}
</style>
<path class="st0" d="M381.7,172.9c4.1,0,7.4-3.3,7.4-7.4V72.6c0-4.1-3.3-7.4-7.4-7.4h-14.2V17c0-9.4-7.7-17-17-17H32.3
	c-9.4,0-17,7.7-17,17v92.8H0v32.6h15.3v228.2H0v32.6h15.3V496c0,9.4,7.7,17,17,17h318.1c9.4,0,17-7.7,17-17v-59.5h14.2
	c4.1,0,7.4-3.3,7.4-7.4v-92.8c0-4.1-3.3-7.4-7.4-7.4h-14.2v-24.1h14.2c4.1,0,7.4-3.3,7.4-7.4v-92.8c0-4.1-3.3-7.4-7.4-7.4h-14.2
	v-24.1H381.7z M344.5,472.7c0,9.4-7.7,17-17,17H55.3c-9.4,0-17-7.7-17-17v-69.5h14.2v-32.6H38.3V142.4h14.2v-32.6H38.3V40.3
	c0-9.4,7.7-17,17-17h272.2c9.4,0,17,7.7,17,17V472.7z"/>
<path class="st0" d="M249.8,195.7c-16-16.9-35.3-25.2-57.7-25.2s-41.7,8.3-57.7,25.2c-16,16.9-23.9,37-23.9,60.5
	c0,23.7,7.9,44.1,23.9,60.9c16,16.7,35.3,25.2,57.7,25.2c31.4,0,28.2-32.3,28.2-32.3c-7.9,5.1-17.3,7.7-28.2,7.7
	c-16,0-29.7-6-41.3-18c-11.3-12-16.9-27.4-16.9-46c0-18.4,4.7-32.9,14.5-43.4c9.8-10.3,24.4-15.4,43.6-15.4c19,0,33.6,5.1,43.6,15.4
	c9.8,10.5,14.8,22.5,14.8,36.1c0,13.9-2.1,23.9-6.6,30.8c-2.1,2.8-3.6,4.3-4.7,4.3c-1.3,0-1.9-2.1-1.9-6.4V275c0,0,1.3-34.6-3-44.3
	c-6.4-14.3-20.1-17.3-20.1-17.3v6.4c-3.4-6-10.7-9.2-22-9.2c-12.8,0-23.9,4.3-32.9,12.6c-9.2,8.6-13.7,19.5-13.7,32.7
	c0,13.5,4.5,24.4,13.7,32.3c9,7.9,20.1,12,32.9,12c10.5,0,18-3.4,22-10c0.9,5.3,6.8,9.2,17.5,11.5c2.1,0.4,4.1,0.6,5.8,0.6
	c8.6,0,16.3-4.3,23.3-13.3c8.6-10.7,12.8-24.8,12.8-42.1S265.7,212.6,249.8,195.7z M214.3,262.8c-0.6,3.6-2.8,7.3-5.8,10.5
	c-4.5,4.7-9.8,7.1-16.3,7.1s-11.8-2.4-16.3-7.1c-4.5-4.7-6.6-10.5-6.6-17.1s2.1-12.4,6.6-17.1c4.5-4.9,9.8-7.3,16.3-7.3
	c6.2,0,11.8,2.4,16.3,7.3c3,3.2,5.1,6.6,5.8,10.5V262.8z"/>
</svg>
