<?xml version="1.0" encoding="utf-8"?>
<svg version="1.1" id="Capa_1" xmlns="http://www.w3.org/2000/svg" xmlns:xlink="http://www.w3.org/1999/xlink" x="0px" y="0px"
     viewBox="0 0 389.1 513" style="enable-background:new 0 0 389.1 513;" xml:space="preserve">
<path fill="currentColor" d="M381.7,172.9c4.1,0,7.4-3.3,7.4-7.4V72.6c0-4.1-3.3-7.4-7.4-7.4h-14.2V17c0-9.4-7.7-17-17-17H32.3
    c-9.4,0-17,7.7-17,17v92.8H0v32.6h15.3v228.2H0v32.6h15.3V496c0,9.4,7.7,17,17,17h318.1c9.4,0,17-7.7,17-17v-59.5h14.2
    c4.1,0,7.4-3.3,7.4-7.4v-92.8c0-4.1-3.3-7.4-7.4-7.4h-14.2v-24.1h14.2c4.1,0,7.4-3.3,7.4-7.4v-92.8c0-4.1-3.3-7.4-7.4-7.4h-14.2
    v-24.1H381.7z M344.5,472.7c0,9.4-7.7,17-17,17H55.3c-9.4,0-17-7.7-17-17v-69.5h14.2v-32.6H38.3V142.4h14.2v-32.6H38.3V40.3
    c0-9.4,7.7-17,17-17h272.2c9.4,0,17,7.7,17,17V472.7z"/>
<path fill="currentColor" d="M127.4,171.5c5.7-2.1,11.9-0.2,15,2.7c3.1,2.8,11.4,11.2,11.4,11.2s5.9,5.9,8.5,8.4c2.6,2.6,3.6,10.4-1.3,16.8
    c-0.1,0-0.1,0.1-0.2,0.2l-37.3-37.1C124.7,172.9,126.1,172,127.4,171.5z"/>
<path fill="currentColor" d="M257.9,338.9c-8.2,4.8-26.6,5.4-51.2-3.3c-24.6-8.9-51.7-36-55.1-39.6c-3.6-3.4-31-30.4-39.9-54.7
    c-8.8-24.4-8.2-42.7-3.4-50.8c2.6-4.4,6.2-8.8,9.9-12.3l38.5,38.1c-3.7,5.4-7,12-6.4,22.1c0.8,13.8,7.8,25.9,20.4,38.6
    c12.8,12.6,25,19.5,38.9,20.3c10.2,0.7,16.9-2.6,22.3-6.3l38.5,38.2C266.8,332.8,262.3,336.4,257.9,338.9z"/>
<path fill="currentColor" d="M276.9,320.1c-0.4,1.2-1.2,2.6-2.3,4.1L237.3,287c0-0.1,0.1-0.2,0.2-0.2c6.5-4.9,14.4-3.8,16.9-1.3
    c2.6,2.5,8.5,8.5,8.5,8.5s8.5,8.2,11.3,11.2C277.1,308.2,279,314.3,276.9,320.1z"/>
</svg>