<?xml version="1.0" encoding="utf-8"?>
<!-- Generator: Adobe Illustrator 22.1.0, SVG Export Plug-In . SVG Version: 6.00 Build 0)  -->
<svg version="1.1" id="Capa_1" xmlns="http://www.w3.org/2000/svg" xmlns:xlink="http://www.w3.org/1999/xlink" x="0px" y="0px"
	 viewBox="0 0 326.3 362" style="enable-background:new 0 0 326.3 362;" xml:space="preserve">
<style type="text/css">
	.st0{fill:#333333;}
</style>
<path class="st0" d="M165.2,0C102.7,0,52,50.9,52,113.7c0,1.2,0,2.4,0.1,3.7c0,1.2,0.1,2.4,0.2,3.6c0.1,1,0.1,1.9,0.2,2.8
	c0,0.6,0.1,1.2,0.2,1.7c0.1,0.9,0.2,1.7,0.3,2.6v0.1c0.4,3.4,1,6.8,1.8,10.2c0,0,0,0.1,0,0.2c1.6,5.7,3.4,11.6,5.5,17.7
	c0,0,0,0.1,0,0.1c28.7,83.8,104.5,205.4,104.5,205.4l0.6,1l0.5-1c0,0,75.8-121.5,104.5-205.4c0,0,0-0.1,0-0.1
	c2.1-6.1,3.9-12,5.5-17.7c0.8-3.4,1.4-6.8,1.8-10.3v-0.1c0.1-0.9,0.2-1.7,0.3-2.6c0.1-0.6,0.1-1.2,0.2-1.7c0.1-0.9,0.2-1.9,0.2-2.8
	c0.1-1.2,0.1-2.4,0.2-3.6c0-1.2,0.1-2.4,0.1-3.7C278.5,50.9,227.8,0,165.2,0z M165.6,202.8c-48.8,0-88.3-39.7-88.3-88.7
	s39.5-88.7,88.3-88.7s88.3,39.7,88.3,88.7S214.4,202.8,165.6,202.8z"/>
<ellipse class="st0" cx="165.2" cy="71.9" rx="11.7" ry="11.7"/>
<polygon class="st0" points="184.5,154.2 184.5,167.9 144.5,167.9 144.5,154.2 153.6,154.2 153.6,106.1 144.5,106.1 144.5,91.9 
	176.9,91.9 176.9,154.2 "/>
</svg>
