<?xml version="1.0" encoding="utf-8"?>
<!-- Generator: Adobe Illustrator 22.1.0, SVG Export Plug-In . SVG Version: 6.00 Build 0)  -->
<svg version="1.1" id="Capa_1" xmlns="http://www.w3.org/2000/svg" xmlns:xlink="http://www.w3.org/1999/xlink" x="0px" y="0px"
	 viewBox="0 0 326.3 246.2" style="enable-background:new 0 0 326.3 246.2;" xml:space="preserve">
<style type="text/css">
	.st0{fill:#323232;}
</style>
<path class="st0" d="M30.4,246.2L30.4,246.2C30,246.2,0,244,0,214.1V32.2C0,2.2,30,0,30.3,0h0.2h265.4h0.1c0.3,0,30.3,2.2,30.3,32.1
	V214c0,30-30,32.1-30.3,32.1h-0.1L30.4,246.2L30.4,246.2z M25.8,216.4c0,0-0.3,1.5,0.6,2.5c0.8,0.9,2.5,1.4,4.9,1.4H295
	c2.4,0,4.1-0.5,4.9-1.5s0.6-2.4,0.6-2.4l-0.1-0.3V89.9c-36.1,29.3-93,75.4-105.5,84.8c-13.8,10.4-26.2,11.5-30.9,11.5
	c-0.5,0-1,0-1.3,0h-0.1c-0.3,0-0.8,0-1.3,0c-0.4,0-0.9,0-1.4,0h-0.2l0,0c-5.5-0.3-16.8-2.1-29.2-11.5c-12.3-9.2-68.8-55-104.6-84
	v125.4L25.8,216.4z M140.7,150c3.9,2.8,15.2,9.9,22,10.2c6.8-0.3,18.1-7.4,21.9-10.2l115.7-93l0,0V30.2l0.1-0.3c0,0,0.3-1.5-0.6-2.5
	c-0.8-0.9-2.5-1.4-4.9-1.4H31.3c-2.4,0-4.1,0.5-4.9,1.5s-0.6,2.4-0.6,2.4l0.1,0.3v27.5L140.7,150z"/>
</svg>
