<svg version="1.1" id="Capa_1" xmlns="http://www.w3.org/2000/svg" xmlns:xlink="http://www.w3.org/1999/xlink" x="0px" y="0px"
     viewBox="0 0 331.5 276.1" style="enable-background:new 0 0 331.5 276.1;" xml:space="preserve">
<path fill="currentColor" d="M195.8,273.4c-0.4-0.2-37.5-21.9-52.4-30.5c-11.2,1.9-20.8,2.8-30.3,2.8c-40.5,0-72.8-17.4-96.2-51.7
    c-21-30.8-22.7-68.1-4.6-102.2c20-37.9,59.8-63.3,99-63.3c35.1,0,67.2,11.3,90.3,31.9c22.5,20,34.9,46.8,34.9,75.6
    c0,50.7-29.2,77.3-36.3,83.1v57L195.8,273.4z M148.4,219.3c8.6,4.9,20.7,13.1,27.4,17.6v-30.3l2.6-0.3c3.2-0.4,11.6-9.6,15-14.3
    c8.2-11.5,19.1-29.6,19.1-54.9c0-47.7-42.9-83.7-99.8-83.7c-31.3,0-62.9,20.2-78.7,50.3c-13.8,26.2-12.3,54.8,3.9,78.4
    c18.1,26.2,45,39.5,79.9,39.5c8.9,0,18.3-0.9,28.6-2.6l1.1-0.2L148.4,219.3z"/>
<g>
    <path fill="currentColor" d="M65.8,157.5c-11.3,0-20.4-9.2-20.4-20.4c0-11.3,9.2-20.4,20.4-20.4s20.4,9.2,20.4,20.4
        C86.2,148.4,77.1,157.5,65.8,157.5z"/>
    <circle fill="currentColor" cx="65.8" cy="137.1" r="17.4"/>
    <path fill="currentColor" d="M115.5,157.5c-11.3,0-20.4-9.2-20.4-20.4c0-11.3,9.2-20.4,20.4-20.4c11.3,0,20.4,9.2,20.4,20.4
        C135.9,148.4,126.7,157.5,115.5,157.5z"/>
    <circle fill="currentColor" cx="115.5" cy="137.1" r="17.4"/>
    <path fill="currentColor" d="M165.8,157.5c-11.3,0-20.4-9.2-20.4-20.4c0-11.3,9.2-20.4,20.4-20.4c11.3,0,20.4,9.2,20.4,20.4
        C186.3,148.4,177.1,157.5,165.8,157.5z"/>
    <circle fill="currentColor" cx="165.8" cy="137.1" r="17.4"/>
</g>
<path fill="currentColor" d="M290,244.9c-0.4-0.2-38.3-21.9-53.4-30.6c-2.4,0.4-4.9,0.8-7.3,1.1l-7.2,1l4.4-5.8c4.3-5.7,8.2-11.8,11.4-18.4
    l1.4-2.8l2.7,1.6c8.8,5,20.9,13,27.6,17.4v-30.3l2.6-0.3c3.3-0.4,11.9-9.7,15.3-14.4c8.3-11.5,19.4-29.6,19.4-54.9
    c0-47.7-43.8-83.7-101.9-83.7c-7.9,0-15.9,1.2-23.8,3.7l-1.1,0.3l-1-0.5c-8.1-3.8-16.8-6.9-25.8-9.3l-7.3-1.9l6.6-3.6
    C169,4.7,186.7,0,203.8,0c35.8,0,68.5,11.3,92.1,31.9c23,20,35.6,46.8,35.6,75.6c0,50.7-29.7,77.3-37,83.1v56.9L290,244.9z"/>
</svg>