<svg version="1.1" id="Capa_1" xmlns="http://www.w3.org/2000/svg" xmlns:xlink="http://www.w3.org/1999/xlink" x="0px" y="0px"
     viewBox="0 0 326.3 362" style="enable-background:new 0 0 326.3 362;" xml:space="preserve">
<path fill="currentColor" d="M18.5,302c-1.3-0.2-8.5-1.3-12.8-5.5c-4.6-4.6-5.6-12.9-5.6-13l0-0.5L0,282.8c-0.1-0.5-0.2-2.9,1.6-6.6
    c0.7-1.5,4.3-5.8,7.7-9.9c8.7-10.5,20.5-24.8,25.5-37.5c7.2-18.5,13.3-52.2,13.3-66.8c0-12.9,0.9-36.6,6.6-50l0.5-1.1
    C61.1,97,71,73.8,105.8,52.2c9.5-5.9,21-9.9,34.1-12l4.2-0.7V16.9v-0.1c0,0-0.2-7,4.5-11.8c3.2-3.3,8.1-5,14.5-5
    c6.5,0,11.4,1.7,14.6,5c4.6,4.8,4.4,11.7,4.4,11.8V17v22.6l4.2,0.7c13.2,2.1,24.7,6.1,34.1,12c34.8,21.6,44.7,44.8,50.6,58.7
    l0.5,1.1c5.7,13.4,6.6,37.1,6.6,50c0,14.6,6.2,48.3,13.3,66.8c5,12.8,16.8,27.1,25.5,37.5c3.4,4.1,7,8.4,7.7,9.9
    c1.8,3.7,1.7,6.1,1.6,6.6l-0.1,0.4v0.2c0,0.1-0.9,8.3-5.6,13c-4.2,4.2-11.5,5.4-12.8,5.5L18.5,302L18.5,302z M73.2,174.2
    c-1.1,51.6-30.8,93.5-31.1,93.9l-5.7,7.9h253.2l-5.7-7.9c-0.3-0.4-30-42.3-31.1-93.9c0.3-2.9,1.8-22.3-4.3-44.4
    c-8.7-31.5-28.9-53.2-58.5-62.7c-8.1-2.6-17-3.4-26.5-4.2h-0.4l-0.6,0.1c-9.6,0.8-18.6,1.6-26.6,4.2c-29.6,9.5-49.8,31.1-58.5,62.7
    C71.3,151.9,72.9,171.3,73.2,174.2z"/>
<path fill="currentColor" d="M163.2,362c-22,0-40.2-16.6-42.7-38h85.4C203.4,345.4,185.2,362,163.2,362z"/>
</svg>