<svg version="1.1" id="Capa_1" xmlns="http://www.w3.org/2000/svg" xmlns:xlink="http://www.w3.org/1999/xlink" x="0px" y="0px"
     viewBox="0 0 390 437.5" style="enable-background:new 0 0 390 437.5;" xml:space="preserve">
<path fill="currentColor" d="M182.5,437.5l-11.6-4.6c-1.5-0.6-2.4-2.1-3.7-3.9c-2-3-5-7.5-11.6-7.5c-4.7,0-20.4-16.2-20.4-24.1
    c0-10-1.2-35-1.2-36.1l-0.1-2.2l-1.8-1.2c-0.1-0.1-13.9-9.5-19.4-22.8c-5.1-12.2-4.7-18-4.7-18.6c0.5-2.8,0.7-13.4-18.2-38.1
    c-18.5-24.2-26-53.3-26.4-55.2c-0.3-1.4-3.6-20.1-3.6-35c0-16.1,2.6-30.5,8.4-46.8c5.7-16,26-48.8,66-70.6c8.3-4.5,17.9-8,28.6-10.3
    c10-2.2,20.9-3.4,32.5-3.6c11.5,0.2,22.4,1.4,32.4,3.6c10.7,2.4,20.3,5.8,28.6,10.3c40,21.8,60.3,54.7,66,70.6
    c5.8,16.3,8.4,30.7,8.4,46.8c0,14.9-3.4,33.5-3.6,35c-0.5,1.9-8,31-26.4,55.2c-18.9,24.7-18.7,35.3-18.2,38.1
    c0.1,0.6,0.4,6.3-4.7,18.5c-5.6,13.3-19.3,22.7-19.4,22.8l-1.8,1.2l-0.1,2.2c-0.2,4.5-1.2,26.9-1.2,36.1c0,7.9-15.7,24.1-20.4,24.1
    c-6.5,0-9.5,4.5-11.6,7.5c-1.3,1.9-2.2,3.4-3.7,3.9l-11.6,4.6H182.5z M157.4,90c-3.8,1.5-7.6,3.2-11.2,5.1
    c-3.5,1.8-6.9,3.8-10.1,5.8c-42.8,27.1-49.2,65.5-49.2,86c0,13.8,0,46.1,24.5,77c22.6,28.5,22.6,37.7,22.6,49.3
    c0,14.6,15,24.3,15.7,24.8l1.1,0.7h89.2l1.1-0.7c0.6-0.4,15.7-10.1,15.7-24.8c0-11.6,0-20.7,22.6-49.3c24.5-30.9,24.5-63.2,24.5-77
    c0-20.5-6.4-58.8-49.2-86c-3.2-2-6.6-4-10.1-5.8c-3.8-2-7.8-3.8-11.8-5.3l-0.7-0.4l-0.3,0c-12-4.1-24.2-6.2-36.2-6.3
    c-12.1,0.1-24.2,2.2-36.2,6.3h-1L157.4,90z"/>
<path fill="currentColor" d="M195.7,248.1l-0.5,0l-0.5,0c0,0-0.1,0-0.2,0c-2.2,0-6-1.1-7.4-8.8c-2.3-12.6-7.9-59.2-8.6-65.1v-42.8
    c0.2-1.6,2-11.9,16.6-11.9c14.6,0,16.4,10.3,16.6,11.9v42.8c-0.4,3.4-6.2,52.1-8.6,65.1c-1.4,7.7-5.2,8.8-7.4,8.8
    C195.8,248.1,195.7,248.1,195.7,248.1z"/>
<path fill="currentColor" d="M195.3,310c-9.9,0-17.9-7.7-17.9-17.3s8-17.3,17.9-17.3c9.9,0,17.9,7.7,17.9,17.3S205.1,310,195.3,310z"/>
<path fill="currentColor" d="M0,197.4v-2c0-2.7,2.2-5,5-5h27.8c2.7,0,5,2.2,5,5v2c0,2.7-2.2,5-5,5H4.9C2.2,202.4,0,200.2,0,197.4z"/>
<path fill="currentColor" d="M53.7,120.8c-1,0-2-0.3-2.8-0.8L28,106.8c-2.7-1.6-3.7-5.1-2.1-7.8l0.3-0.4c1-1.8,2.9-2.8,5-2.8
    c1,0,2,0.3,2.8,0.8l22.8,13.2c1.3,0.8,2.2,2,2.6,3.5s0.2,3-0.6,4.3l-0.3,0.4C57.6,119.7,55.7,120.8,53.7,120.8z"/>
<path fill="currentColor" d="M113.5,60.8c-2,0-3.9-1.1-5-2.8L95.3,35.1c-0.8-1.3-1-2.8-0.6-4.3c0.4-1.5,1.3-2.7,2.6-3.5l0.4-0.3
    c0.9-0.5,1.8-0.8,2.8-0.8c2,0,3.9,1.1,5,2.8L118.8,52c0.8,1.3,1,2.8,0.6,4.3c-0.4,1.5-1.3,2.7-2.6,3.5l-0.4,0.3
    C115.4,60.6,114.4,60.8,113.5,60.8z"/>
<path fill="currentColor" d="M189.3,32.8V5c0-2.7,2.2-5,5-5l2,0c2.7,0,5,2.2,5,5v27.8c0,2.7-2.2,5-5,5h-2C191.5,37.8,189.3,35.6,189.3,32.8z
    "/>
<path fill="currentColor" d="M31.1,297.1c-2,0-3.9-1.1-5-2.8l-0.3-0.4c-0.8-1.3-1-2.8-0.6-4.3c0.4-1.5,1.3-2.7,2.6-3.5l22.8-13.2
    c0.9-0.5,1.8-0.8,2.8-0.8c2,0,3.9,1.1,5,2.8l0.3,0.4c1.6,2.7,0.6,6.2-2.1,7.8l-22.8,13.2C33.1,296.9,32.1,297.1,31.1,297.1z"/>
<path fill="currentColor" d="M352.7,197.4v-2c0-2.7,2.2-5,5-5h27.8c2.7,0,5,2.2,5,5v2c0,2.7-2.2,5-5,5h-27.8
    C355,202.4,352.7,200.2,352.7,197.4z"/>
<path fill="currentColor" d="M336.8,120.8c-2,0-3.9-1.1-5-2.8l-0.3-0.4c-1.6-2.7-0.6-6.2,2.1-7.8l22.8-13.2c0.9-0.5,1.8-0.8,2.8-0.8
    c2,0,3.9,1.1,5,2.8l0.3,0.4c0.8,1.3,1,2.8,0.6,4.3s-1.3,2.7-2.6,3.5L339.7,120C338.8,120.5,337.8,120.8,336.8,120.8L336.8,120.8z"/>
<path fill="currentColor" d="M277,60.8c-1,0-2-0.3-2.8-0.8l-0.4-0.3c-1.3-0.8-2.3-2-2.6-3.5c-0.4-1.5-0.2-3,0.6-4.3l13.2-22.8
    c1-1.8,2.9-2.8,5-2.8c1,0,2,0.3,2.8,0.8l0.4,0.3c1.3,0.8,2.2,2,2.6,3.5c0.4,1.5,0.2,3-0.6,4.3L282,58C281,59.7,279.1,60.8,277,60.8
    L277,60.8z"/>
<path fill="currentColor" d="M359.4,297.1c-1,0-2-0.3-2.8-0.8l-22.8-13.2c-2.7-1.6-3.7-5.1-2.1-7.8l0.3-0.4c1-1.8,2.9-2.8,5-2.8
    c1,0,2,0.3,2.8,0.8l22.8,13.2c1.3,0.8,2.3,2,2.6,3.5c0.4,1.5,0.2,3-0.6,4.3l-0.3,0.4C363.3,296.1,361.4,297.1,359.4,297.1
    L359.4,297.1z"/>
</svg>