<svg version="1.1" id="Capa_1" xmlns="http://www.w3.org/2000/svg" xmlns:xlink="http://www.w3.org/1999/xlink" x="0px" y="0px"
     viewBox="0 0 326 326" style="enable-background:new 0 0 326 326;" xml:space="preserve">
<path fill="currentColor" d="M163,326c-1.1,0-2.2,0-3.3,0c-0.5,0-0.9,0-1.4,0c-0.6,0-1.3,0-1.9-0.1c-0.4,0-0.7,0-1,0
    c-31.2-1.4-61.1-11.8-86.5-29.8c-24.9-17.7-44.3-41.9-56.1-69.9c-0.8-1.9-1.5-3.7-2.1-5.4C3.5,202.3,0,182.9,0,163
    c0-43.4,16.9-84.3,47.5-115C78.2,17.2,118.9,0.2,162.3,0c0.1,0,0.2,0,0.2,0c0.2,0,0.3,0,0.4,0c0.1,0,0.2,0,0.3,0c0.1,0,0.2,0,0.3,0
    c43.4,0.2,84.1,17.2,114.8,47.9c30.7,30.8,47.5,71.6,47.5,115c0,19.9-3.5,39.3-10.5,57.7c-0.6,1.7-1.4,3.5-2.1,5.4
    c-11.8,28.1-31.2,52.2-56.1,69.9c-25.4,18.1-55.4,28.4-86.6,29.8c-0.3,0-0.7,0-1,0c-0.6,0-1.3,0.1-1.9,0.1c-0.4,0-0.9,0-1.3,0
    C165.2,326,164.1,326,163,326z M129,226.7c6.4,44.3,19.4,73.6,33.2,74.6c0.3,0,0.5,0,0.8,0s0.5,0,0.8,0
    c13.8-1.1,26.8-30.3,33.2-74.6H129z M222.6,226.7c-4.6,27.8-12,51.7-21.6,69.3c36.5-10.4,67.2-35.5,84.8-69.3H222.6z M40.2,226.7
    c17.6,33.8,48.3,58.9,84.8,69.3c-9.6-17.6-17-41.5-21.6-69.3H40.2z M296,201.2c3.5-12.4,5.3-25.2,5.3-38.2c0-12.4-1.6-24.6-4.9-36.5
    h-71.4c1.1,12,1.6,24.4,1.6,36.9c0,12.8-0.6,25.5-1.7,37.8H296z M199.8,201.2c0.9-12,1.4-24.4,1.4-36.9c0-12.8-0.5-25.5-1.5-37.8
    h-73.4c-1,12.2-1.5,24.9-1.5,37.8c0,12.5,0.5,24.9,1.4,36.9H199.8z M101,201.2c-1.1-12.3-1.7-25-1.7-37.8c0-12.5,0.6-24.9,1.6-36.9
    H29.5c-3.2,11.8-4.9,24.1-4.9,36.5c0,13,1.8,25.8,5.3,38.2H101z M286.7,101c-17.5-34.9-48.8-60.7-86.2-71.2
    c10,17.9,17.6,42.5,22.3,71.2H286.7z M196.8,101C190.2,56.2,177,27.2,163,27.2c-14,0-27.2,28.9-33.8,73.8H196.8z M103.2,101
    c4.6-28.8,12.3-53.3,22.3-71.2C88.1,40.3,56.8,66.1,39.3,101H103.2z"/>
</svg>