<?xml version="1.0" encoding="utf-8"?>
<!-- Generator: Adobe Illustrator 22.1.0, SVG Export Plug-In . SVG Version: 6.00 Build 0)  -->
<svg version="1.1" id="Capa_1" xmlns="http://www.w3.org/2000/svg" xmlns:xlink="http://www.w3.org/1999/xlink" x="0px" y="0px"
	 viewBox="0 0 1441 1319" style="enable-background:new 0 0 1441 1319;" xml:space="preserve">
<style type="text/css">
	.st0{display:none;fill:#333333;}
	.st1{fill:#333333;}
</style>
<path class="st0" d="M651.9,1344c-3.7,0-37.6-0.5-72.1-19.5c-20.6-11.3-37.3-26.9-49.6-46.4c-15.8-24.9-23.7-55.4-23.7-90.6v-175
	c-10.3-0.7-38.6-4.2-67.4-20c-4.2-2.3-8.3-4.8-12.1-7.4C399,966,365.7,928.6,365.7,859V588.5c0-3.8,0.5-38.3,18.2-73.6
	c10.4-20.9,24.8-38,42.7-50.8c23.2-16.6,51.6-25.5,84.5-26.4c1.7-0.1,3.6-0.1,5.6-0.1h414.1c0.5,0,1,0,1.5,0
	c33.9,0.3,63.3,8.9,87.2,25.6c18.5,12.9,33.3,30.3,44,51.7c17.7,35.4,18.2,69.8,18.2,73.6V859c0,12.6-1.1,24.7-3.3,35.9
	c-7.7,40-29.3,72.1-62.4,93c-2.6,1.6-5.2,3.2-7.7,4.5c-28.8,15.8-57.1,19.2-67.4,20v175c0,35.2-8,65.7-23.7,90.6
	c-12.3,19.4-29,35-49.6,46.4c-34.5,19-68.3,19.5-72.1,19.5H651.9z M789.5,1229.8c1.2-0.1,9.6-0.7,17.2-4.9c4-2.2,14.5-8.1,14.5-31.8
	V898.6H933c1.2-0.1,9.6-0.7,17.2-4.9c3.9-2.2,14.4-8.1,14.4-31.8V588.5l0.3-2c0.1-1.7,0.4-11.4-5.7-18.5c-7-8.1-20.5-11.3-30.6-12.6
	c-5.3-0.7-11.1-1-17.4-1H535.9c-7.4,0-14.2,0.5-20.3,1.4c-13.2,2.1-22.5,6.2-27.7,12.3c-6.2,7.2-5.7,17.1-5.6,18.4l0.3,2v273.1
	c0,21.3,8.3,28.4,14.5,31.8c7.6,4.2,16.1,4.9,17.2,4.9h111.8v294.5c0,23.8,10.5,29.6,14.5,31.8c7.7,4.3,16.1,4.9,17.2,4.9H789.5z"/>
<path class="st1" d="M1041.1,526.1c-14.4-28.8-45-63.1-109.2-63.5c-0.4,0-0.8,0-1.2,0H516.6c-1.6,0-3.3,0-4.8,0.1
	c-61.7,1.7-91.4,35.2-105.5,63.4c-15.4,30.8-15.6,61.2-15.6,62.5V859c0,57,25.5,88.4,50.4,105.4c3.4,2.3,6.7,4.3,10,6.2
	c29.4,16.2,58.5,17.1,59.8,17.1l20.6,0v199.8c0,67.6,32.8,99.9,60.4,115c29.5,16.2,58.8,16.4,60,16.4h143.5c1.2,0,30.5-0.2,60-16.4
	c27.5-15.2,60.4-47.4,60.4-115V987.8l20.6,0c1.2,0,30.4-0.9,59.8-17.1c2.1-1.2,4.2-2.4,6.4-3.8c21.1-13.3,43.4-36.5,51.2-76.7
	c1.8-9.4,2.8-19.8,2.8-31.2V588.5C1056.6,587.3,1056.4,556.8,1041.1,526.1z M989.8,589.8l-0.1,0.8v271.3c0,25.5-9.2,43.6-27.3,53.7
	c-14.2,7.9-28.9,8.1-29,8.1h-87.3v269.5c0,25.5-9.2,43.6-27.3,53.7c-14.2,7.9-28.9,8.1-29,8.1H657.4c-0.1,0-14.8-0.2-29-8.1
	c-18.1-10.1-27.3-28.2-27.3-53.7V923.6h-87.3c-0.1,0-14.8-0.2-29-8.1c-18.1-10.1-27.3-28.2-27.3-53.7V590.5l-0.1-0.8
	c0-0.2-2.8-21.2,11.5-37.8c9.2-10.8,23.6-17.7,42.8-20.7c7.3-1.2,15.4-1.7,24.2-1.7h375.4c7.3,0,14.2,0.4,20.5,1.2
	c21,2.7,36.5,9.7,46.3,21C992.6,568.4,989.8,589.6,989.8,589.8z"/>
<path class="st1" d="M859.8,99.3C823.5,63,775.2,43,723.9,43S624.3,63,588,99.3c-36.3,36.3-56.3,84.6-56.3,135.9
	c0,51.3,20,99.6,56.3,135.9c36.3,36.3,84.6,56.3,135.9,56.3s99.6-20,135.9-56.3c36.3-36.3,56.3-84.6,56.3-135.9
	C916.1,183.8,896.1,135.6,859.8,99.3z M723.9,358.2c-67.8,0-123-55.2-123-123s55.2-123,123-123s123,55.2,123,123
	S791.7,358.2,723.9,358.2z"/>
<path class="st1" d="M1427.8,408.3c-11.8-23.6-37-51.7-90.2-51.7H986c-53.2,0-78.4,28.1-90.2,51.7c-4.8,9.5-7.8,19.1-9.6,27.2h44.5
	c0.5,0,1.1,0,1.6,0c1.3,0,2.6,0,3.9,0.1c1.5-3.3,3.6-6.6,6.3-9.8c11.6-13.6,31.8-20.4,59.9-20.4h318.9c28,0,48.1,6.8,59.8,20.3
	c13.5,15.6,10.8,35.3,10.8,35.5l-0.1,0.3v230.1c0,23.2-8.5,39.8-25.2,49.1c-12.8,7.2-25.9,7.4-26.6,7.4h-70.1V973
	c0,23.2-8.5,39.8-25.2,49.1c-12.8,7.2-26,7.4-26.5,7.4h-112.5c-0.6,0-13.6-0.2-26.5-7.4c-16.7-9.3-25.2-25.8-25.2-49.1v-16.9
	c-9.9,13.2-22.3,24.5-36.8,33.6c-2.6,1.6-5.2,3.2-7.8,4.6c-1.3,0.7-2.7,1.4-4,2.1c7.2,36.7,28.4,56.1,46.6,66.1
	c24.2,13.3,48.1,13.4,49.1,13.4h121.9c1,0,24.9-0.2,49.1-13.4c22.5-12.4,49.2-38.7,49.2-94.2V794.7h21.5c1.5,0,25.1-0.9,48.9-14
	c22.5-12.4,49.2-38.2,49.2-91.3V459.6C1440.6,458.5,1440.4,433.6,1427.8,408.3z"/>
<path class="st1" d="M1274.6,45.9c-30.1-30.1-70.1-46.6-112.6-46.6c-42.5,0-82.5,16.6-112.6,46.6c-30.1,30.1-46.6,70.1-46.6,112.6
	c0,42.5,16.6,82.5,46.6,112.6c30.1,30.1,70.1,46.6,112.6,46.6c42.6,0,82.5-15.6,112.6-45.6c30.1-30.1,46.6-71.1,46.6-113.6
	C1321.2,116,1304.7,76,1274.6,45.9z M1162,267c-59.8,0-108.5-48.7-108.5-108.5c0-59.8,48.7-108.5,108.5-108.5
	c59.8,0,108.5,48.7,108.5,108.5C1270.5,218.3,1221.8,267,1162,267z"/>
<path class="st1" d="M547.8,408.3c-11.8-23.6-37-51.7-90.2-51.7H106c-53.2,0-78.4,28.1-90.2,51.7C3.2,433.6,3,458.5,3,459.6v229.8
	c0,53.1,26.8,78.9,49.2,91.3c23.8,13.1,47.3,14,48.9,14h21.5v173.7c0,55.5,26.8,81.8,49.2,94.2c24.2,13.3,48.1,13.4,49.1,13.4h121.9
	c1,0,24.9-0.2,49-13.4c18.6-10.2,40.1-30,47-67.9c-0.2-0.1-0.5-0.3-0.7-0.4c-4.2-2.3-8.4-4.9-12.3-7.5c-12-8.2-25-19.7-35.9-35.6
	V973c0,23.2-8.5,39.8-25.2,49.1c-12.8,7.2-26,7.4-26.5,7.4H225.5c-0.6,0-13.6-0.2-26.6-7.4c-16.7-9.3-25.2-25.8-25.2-49.1V748.2
	h-70.1c-0.5,0-13.6-0.2-26.5-7.4c-16.7-9.3-25.2-25.8-25.2-49.1V461.6l0-0.3c0-0.2-2.6-19.9,10.6-35.4
	c11.6-13.6,31.8-20.4,59.9-20.4h318.9c28,0,48.1,6.8,59.8,20.3c2.8,3.2,4.9,6.7,6.5,10.1c1.1-0.1,2.3-0.1,3.5-0.1
	c1.8,0,3.6-0.1,5.6-0.1h40.9C555.6,427.4,552.6,417.9,547.8,408.3z"/>
<path class="st1" d="M394.6,46.9C364.5,16.8,324.5,0.3,282,0.3c-42.5,0-82.5,16.6-112.6,46.6C139.3,77,122.8,117,122.8,159.5
	c0,42.5,16.6,82.5,46.6,112.6c30.1,30.1,70.1,46.6,112.6,46.6c42.5,0,82.5-16.6,112.6-46.6c30.1-30.1,46.6-70.1,46.6-112.6
	C441.2,117,424.7,77,394.6,46.9z M282,268c-59.8,0-108.5-48.7-108.5-108.5C173.5,99.7,222.2,51,282,51
	c59.8,0,108.5,48.7,108.5,108.5C390.5,219.3,341.8,268,282,268z"/>
</svg>
