<?xml version="1.0" encoding="utf-8"?>
<!-- Generator: Adobe Illustrator 22.1.0, SVG Export Plug-In . SVG Version: 6.00 Build 0)  -->
<svg version="1.1" id="Capa_1" xmlns="http://www.w3.org/2000/svg" xmlns:xlink="http://www.w3.org/1999/xlink" x="0px" y="0px"
	 viewBox="0 0 390 374.7" style="enable-background:new 0 0 390 374.7;" xml:space="preserve">
<style type="text/css">
	.st0{fill:#333333;}
</style>
<path class="st0" d="M169.4,377.6l-1.1-0.4c-1.8-0.6-18.1-6-23.9-19.8c-4.4-10.6-4.4-17.2-4.2-19.7v-50.7h-4.4l-0.4,0
	c-0.7-0.1-6.7-0.8-13.4-4.3c-2-1-4-2.2-5.8-3.6c-2.6-2-5.1-4.5-7.3-7.6c-3.8-5.3-5.8-10.4-6.2-11.3c-0.4-1.1-2.3-6.5-2.3-14.5V169
	c0-0.3,0-0.8,0-1.5c0-3.4,0.7-12,6.9-19.8c7.4-9.3,19.6-14,36.3-14h106c15.7,0,27.5,4.2,35,12.5c8.4,9.3,8.3,20.1,8.1,22.7v76.7
	c0,8-1.9,13.4-2.3,14.5c-0.5,1.2-3.5,9.1-9.6,15.4c-1.2,1.3-2.5,2.4-3.9,3.5c-2.7,2-5.8,3.8-9.2,5.1c-5.3,2.2-9.6,2.7-10.1,2.7
	l-0.4,0h-4.4v50.7c0.2,2.5,0.2,9.1-4.2,19.7c-5.8,13.8-22.1,19.3-23.9,19.8l-1.1,0.4H169.4z M136.1,258.8h31.4v77.6
	c0,6.2,1.7,10.2,5.3,12.3c2.4,1.5,5,1.6,5,1.6h37.1c3.2-0.1,10.4-1.7,10.4-13.9v-77.6h31.6c0.3,0,1.5-0.2,2.7-1.2
	c1.7-1.4,4.6-5.5,4.6-16.3v-72.9c0-0.6-0.3-2.5-1.8-4c-2-2.1-5.9-3.1-11.2-3.1H141.6c-11.6,0-13,5-13,7.2l0,0.4l0,0v72.5
	c0,8.4,1.8,12.7,3.2,14.8c1.6,2.3,3.5,2.7,4.1,2.8L136.1,258.8L136.1,258.8z"/>
<path class="st0" d="M196.4,124.3c-31.5,0-57.2-25.6-57.2-57.2c0-31.5,25.6-57.2,57.2-57.2s57.2,25.6,57.2,57.2
	C253.6,98.6,227.9,124.3,196.4,124.3z M196.4,37.9c-16.1,0-29.2,13.1-29.2,29.2c0,16.1,13.1,29.2,29.2,29.2s29.2-13.1,29.2-29.2
	C225.6,51,212.5,37.9,196.4,37.9z"/>
<path class="st0" d="M283.8,320.2l-0.7-0.2c-1-0.3-9.7-3.2-15.8-10v-10.1c1.9-0.6,3.8-1.2,5.7-2c2.9-1.2,5.6-2.5,8.1-4.1
	c1.8,4,5.2,6.3,9.7,6.5l32.8,0c2.6-0.1,11.2-1.5,11.2-14.4v-66.3h25.9l0.1,0c1.4-0.1,8.4-1.5,8.4-17.6v-64.4l0-0.1
	c-0.1-2.5-1.7-8.3-13.6-8.3h-68.3c-9.8-6.9-22.6-10.3-37.9-10.3H232c6.3-6.4,15.9-9.6,28.6-9.6h93.5c13.2,0,23.1,3.5,29.3,10.4
	c6.9,7.6,6.7,16.7,6.6,18.5l0,0.2V206c0,6.7-1.6,11.2-1.9,12.1c-0.4,1.1-4,10.3-11.2,15.7c-7.2,5.4-15,6.4-15.9,6.5l-0.3,0h-5.9
	v46.9l0,0.1c0.2,1.9,0.2,7.3-3.6,16.4c-4.8,11.5-19.1,16.1-19.7,16.3l-0.7,0.2H283.8z"/>
<path class="st0" d="M307.3,95.8c-26.6,0-48.3-21.7-48.3-48.3c0-26.6,21.7-48.3,48.3-48.3s48.3,21.7,48.3,48.3
	C355.6,74.1,334,95.8,307.3,95.8z M307.3,19.6c-15.4,0-27.9,12.5-27.9,27.9c0,15.4,12.5,27.9,27.9,27.9s27.9-12.5,27.9-27.9
	C335.2,32.1,322.7,19.6,307.3,19.6z"/>
<path class="st0" d="M59.2,321.1l-0.7-0.2c-0.6-0.2-15-4.7-19.8-16.3c-3.8-9-3.7-14.5-3.6-16.4l0-0.1v-46.9h-5.9l-0.3,0
	c-0.9-0.1-8.7-1.1-15.9-6.5C5.9,229.3,2.3,220.1,1.9,219c-0.3-0.9-1.9-5.4-1.9-12.1v-67.7l0-0.1c-0.1-1.7-0.3-10.8,6.6-18.4
	c6.2-6.9,16.1-10.4,29.3-10.4h93.5c12.1,0,21.4,2.9,27.6,8.7h-13.7c-16.1,0-29.3,3.8-39.2,11.2H34.3c-5.4,0-9.3,1.2-11.5,3.5
	c-1.7,1.8-2.1,4.1-2.1,4.8l0,0.3V203c0,15.3,6.2,17.3,8.2,17.6l0,0l0.1,0l0.3,0l0.1,0l0.1,0h25.5v66.3c0,14,10.1,14.4,11.2,14.4
	l32.8,0c2.2-0.1,8.4-1.1,10.5-8.6c1.8,1.2,3.7,2.3,5.6,3.3c3.2,1.6,6.6,3,10.2,4v7.2c-5.5,9.5-17.2,13.4-18.5,13.8l-0.7,0.2H59.2z"
	/>
<path class="st0" d="M82.7,96.7c-26.6,0-48.3-21.7-48.3-48.3c0-26.6,21.7-48.3,48.3-48.3S131,21.8,131,48.4
	C131,75,109.3,96.7,82.7,96.7z M82.7,20.5c-15.4,0-27.9,12.5-27.9,27.9c0,15.4,12.5,27.9,27.9,27.9c15.4,0,27.9-12.5,27.9-27.9
	C110.6,33,98.1,20.5,82.7,20.5z"/>
</svg>
