<?xml version="1.0" encoding="utf-8"?>
<!-- Generator: Adobe Illustrator 22.1.0, SVG Export Plug-In . SVG Version: 6.00 Build 0)  -->
<svg version="1.1" id="Capa_1" xmlns="http://www.w3.org/2000/svg" xmlns:xlink="http://www.w3.org/1999/xlink" x="0px" y="0px"
	 viewBox="0 0 1441 1319" style="enable-background:new 0 0 1441 1319;" xml:space="preserve">
<style type="text/css">
	.st0{fill:#333333;}
</style>
<path class="st0" d="M916.1,235.2c0,51.3-20,99.6-56.3,135.9c-36.3,36.3-84.6,56.3-135.9,56.3s-99.6-20-135.9-56.3
	c-36.3-36.3-56.3-84.6-56.3-135.9c0-51.4,20-99.6,56.3-135.9C624.3,63,672.5,43,723.9,43s99.6,20,135.9,56.3
	C896.1,135.6,916.1,183.8,916.1,235.2z"/>
<path class="st0" d="M1440.6,459.6v229.8c0,53.1-26.8,78.9-49.2,91.3c-23.8,13.1-47.3,14-48.9,14H1321v173.7
	c0,55.5-26.8,81.8-49.2,94.2c-24.2,13.3-48.1,13.4-49.1,13.4h-121.9c-1,0-24.9-0.2-49.1-13.4c-18.3-10.1-39.4-29.4-46.6-66.1
	c1.3-0.7,2.7-1.4,4-2.1c2.6-1.4,5.2-3,7.8-4.6c33.6-21.2,55.4-53.8,63.3-94.4c2.2-11.4,3.3-23.6,3.3-36.3V588.5
	c0-3.9-0.5-38.8-18.4-74.5c-25.1-50.1-72.3-78-133-78.4c-0.5,0-1,0-1.6,0h-44.5c1.9-8.2,4.9-17.7,9.6-27.2
	c11.8-23.6,37-51.7,90.2-51.7h351.7c53.2,0,78.4,28.1,90.2,51.7C1440.4,433.6,1440.6,458.5,1440.6,459.6z"/>
<path class="st0" d="M1321.2,158.5c0,42.5-16.6,83.5-46.6,113.6c-30.1,30.1-70.1,45.6-112.6,45.6c-42.5,0-82.5-16.6-112.6-46.6
	c-30.1-30.1-46.6-70.1-46.6-112.6c0-42.5,16.6-82.5,46.6-112.6c30.1-30.1,70.1-46.6,112.6-46.6c42.6,0,82.5,16.6,112.6,46.6
	C1304.7,76,1321.2,116,1321.2,158.5z"/>
<path class="st0" d="M557.5,435.6h-40.9c-2,0-3.9,0-5.6,0.1c-33.2,0.9-62,9.9-85.6,26.8c-18.2,13-32.8,30.4-43.3,51.5
	c-17.9,35.8-18.4,70.7-18.4,74.5V859c0,70.5,33.8,108.3,62.1,127.7c3.9,2.7,8,5.2,12.3,7.5c0.2,0.1,0.5,0.3,0.7,0.4
	c-6.9,37.9-28.4,57.6-47,67.9c-24.2,13.3-48,13.4-49,13.4H220.8c-1,0-24.9-0.2-49.1-13.4c-22.5-12.4-49.2-38.7-49.2-94.2V794.7
	h-21.5c-1.5,0-25.1-0.9-48.9-14C29.8,768.3,3,742.4,3,689.3V459.6c0-1,0.2-26,12.8-51.2c11.8-23.6,37-51.7,90.2-51.7h351.7
	c53.2,0,78.4,28.1,90.2,51.7C552.6,417.9,555.6,427.4,557.5,435.6z"/>
<path class="st0" d="M1056.6,588.5V859c0,11.4-1,21.7-2.8,31.2c-7.8,40.2-30.1,63.4-51.2,76.7c-2.1,1.3-4.3,2.6-6.4,3.8
	c-29.4,16.2-58.6,17.1-59.8,17.1l-20.6,0v199.8c0,67.6-32.8,99.9-60.4,115c-29.5,16.2-58.8,16.4-60,16.4H651.9
	c-1.2,0-30.5-0.2-60-16.4c-27.5-15.2-60.4-47.4-60.4-115V987.8l-20.6,0c-1.2,0-30.4-0.9-59.8-17.1c-3.3-1.8-6.6-3.9-10-6.2
	c-24.9-17-50.4-48.4-50.4-105.4V588.5c0-1.3,0.2-31.7,15.6-62.5c14.1-28.2,43.8-61.8,105.5-63.4c1.6,0,3.2-0.1,4.8-0.1h414.1
	c0.4,0,0.8,0,1.2,0c64.2,0.4,94.8,34.7,109.2,63.5C1056.4,556.8,1056.6,587.3,1056.6,588.5z"/>
<path class="st0" d="M441.2,159.5c0,42.5-16.6,82.5-46.6,112.6c-30.1,30.1-70,46.6-112.6,46.6c-42.5,0-82.5-16.6-112.6-46.6
	c-30.1-30.1-46.6-70.1-46.6-112.6c0-42.5,16.6-82.5,46.6-112.6C199.5,16.8,239.5,0.3,282,0.3c42.5,0,82.5,16.6,112.6,46.6
	C424.7,77,441.2,117,441.2,159.5z"/>
</svg>
