<?xml version="1.0" encoding="utf-8"?>
<!-- Generator: Adobe Illustrator 22.1.0, SVG Export Plug-In . SVG Version: 6.00 Build 0)  -->
<svg version="1.1" id="Capa_1" xmlns="http://www.w3.org/2000/svg" xmlns:xlink="http://www.w3.org/1999/xlink" x="0px" y="0px"
	 viewBox="0 0 1256 1616.4" style="enable-background:new 0 0 1256 1616.4;" xml:space="preserve">
<style type="text/css">
	.st0{fill:none;}
	.st1{fill:#333333;}
</style>
<image style="display:none;overflow:visible;enable-background:new    ;" width="144" height="183" xlink:href="../../icono_empresas.png"  transform="matrix(8.7104 0 0 8.7104 0.1844 22.3933)">
</image>
<path class="st0" d="M318.6,1003.4c-2.6,1.5-5.1,3-7.6,4.5v-4.5H318.6z"/>
<path class="st0" d="M787.9,1003.4c-1,0.6-1.9,1.1-2.9,1.7v-1.7H787.9z"/>
<path class="st1" d="M1196,763.4c0,0-266.5,154.2-408.1,237c-1,0.6-1.9,1.1-2.9,1.7V806.4c0-90-60-42-60-42s-264.4,153-406.4,236
	c-2.6,1.5-5.1,3-7.6,4.5V494.4c0-6.6-5.4-12-12-12H12c-6.6,0-12,5.4-12,12v1122h1254v-491.3l2,0.3c0,0,0-230,0-320
	S1196,763.4,1196,763.4z M1196,1056.8l-2-0.3v499.9H60v-1014h191v567.2l90.3-53l7.6-4.4C461,986.7,651.6,876.2,725,833.7v272.9
	l93.3-54.5c111.9-65.4,303.9-176.7,377.7-219.4V1056.8z"/>
<rect x="175" y="1170.4" class="st1" width="144" height="108"/>
<rect x="428" y="1170.4" class="st1" width="144" height="108"/>
<rect x="681" y="1170.4" class="st1" width="144" height="108"/>
<rect x="934" y="1170.4" class="st1" width="144" height="108"/>
<rect x="176" y="1387.4" class="st1" width="144" height="108"/>
<rect x="429" y="1387.4" class="st1" width="144" height="108"/>
<rect x="682" y="1387.4" class="st1" width="144" height="108"/>
<rect x="935" y="1387.4" class="st1" width="144" height="108"/>
<g>
	<path class="st1" d="M163.6,260c0.3-1.3,0.6-2.4,0.9-3.6c0.4-1.1,0.7-2.3,1.1-3.3l0.6-1.7l0.7-1.6c0.4-1.1,0.9-2.2,1.4-3.2
		c1.9-4.3,4.2-8.3,6.7-12.3c5-7.9,10.8-15.1,17.2-21.9c6.4-6.7,13.6-12.7,20.9-18.4l5.6-4.1l1.4-1l1.5-1l2.9-1.9
		c2-1.3,3.9-2.6,5.9-3.8l6-3.5c16.1-9.3,33.2-16.6,50.6-22.7c4.3-1.6,8.8-2.9,13.2-4.3l6.6-2.1l6.7-1.8l6.7-1.8l3.3-0.9
		c1.1-0.3,2.2-0.5,3.4-0.8l13.5-3.1c2.2-0.5,4.5-0.9,6.8-1.3l6.8-1.3l6.8-1.3c2.3-0.4,4.5-0.7,6.8-1.1l13.6-2.1
		c4.5-0.6,9.1-1.1,13.7-1.7c18.2-2.2,36.5-3.4,54.8-4.3l3.4-0.2l3.4-0.1l6.9-0.2l13.7-0.3l26.8-0.4c17.8-0.3,35.6-0.7,53.3-1.5
		c8.9-0.4,17.7-0.8,26.6-1.4c4.4-0.3,8.8-0.6,13.2-1c4.4-0.3,8.8-0.7,13.2-1.1c8.8-0.8,17.6-1.7,26.3-2.7c8.8-1,17.5-2,26.2-3.1
		s17.4-2.2,26-3.4c4.3-0.5,8.6-1.2,12.9-1.7l12.9-1.8l12.8-1.8l12.7-1.9c4.3-0.6,8.5-1.4,12.7-2l6.3-1l6.3-1.1
		c16.7-3,33.2-6.6,49.2-11.2s31.4-10.3,45.8-17.7c3.6-1.9,7.1-3.8,10.6-5.9c3.4-2.1,6.8-4.3,10.1-6.6c6.6-4.7,12.8-9.9,18.5-15.8
		c1.5-1.4,2.8-3,4.2-4.5c1.3-1.6,2.7-3.1,4-4.8l2-2.5c0.6-0.8,1.2-1.7,1.9-2.5c1.3-1.7,2.4-3.5,3.6-5.2c4.7-7.2,8.8-14.9,12.6-23.1
		l0,0c0.6-1.4,2.2-2,3.6-1.3c1,0.5,1.6,1.4,1.6,2.4c0.1,9.3-1,18.8-3.3,28.2c-2.3,9.3-5.7,18.6-10.4,27.4c-0.6,1.1-1.2,2.2-1.8,3.3
		l-1.9,3.2c-0.6,1.1-1.3,2.1-2,3.2l-2,3.1c-2.8,4.1-5.9,8.1-9.1,11.9c-6.5,7.6-13.7,14.6-21.4,20.8c-15.4,12.6-32.6,22.4-50.1,30.4
		c-17.6,8-35.7,14.1-53.9,19l-6.8,1.8l-6.9,1.7c-4.6,1.1-9.2,2-13.7,3c-9.2,1.8-18.4,3.4-27.6,4.6c-18.4,2.5-36.8,3.9-55.2,4.5
		c-36.7,1.2-73.1,0.1-109.3-0.7c-18.1-0.4-36.2-1.1-54.2-2l-13.5-0.7c-4.5-0.2-9.1-0.5-13.5-0.8l-13.2-0.6l-6.6-0.3l-3.3-0.2
		l-3.3-0.1c-17.6-0.5-35.1-0.7-52.6,0c-4.4,0.2-8.8,0.3-13.1,0.5l-13.1,0.9c-2.2,0.2-4.4,0.3-6.6,0.5l-6.5,0.7l-6.5,0.7
		c-2.2,0.2-4.4,0.4-6.5,0.7l-13,1.8c-1.1,0.2-2.2,0.3-3.2,0.5l-3.2,0.6l-6.4,1.1l-6.4,1.1l-6.4,1.4c-4.2,0.9-8.5,1.8-12.7,2.9
		c-16.9,4.2-33.4,9.7-49.2,16.8l-5.9,2.7c-2,0.9-3.8,2-5.8,3l-2.9,1.5l-1.4,0.8l-1.4,0.8l-5.6,3.3c-7.3,4.6-14.5,9.5-21.1,15.1
		s-12.7,11.7-18.1,18.5c-2.6,3.4-5.2,6.9-7.4,10.6c-0.6,0.9-1.1,1.9-1.6,2.8l-0.8,1.4l-0.7,1.4c-0.5,1-0.9,1.9-1.4,2.9
		c-0.4,1-0.8,2-1.1,2.8l-0.1,0.2c-0.5,1.4-2,2.1-3.4,1.7C164,262.6,163.3,261.3,163.6,260z"/>
</g>
<g>
	<path class="st1" d="M162.6,389c0.3-1.3,0.6-2.4,0.9-3.6c0.4-1.1,0.7-2.3,1.1-3.3l0.6-1.7l0.7-1.6c0.4-1.1,0.9-2.2,1.4-3.2
		c1.9-4.3,4.2-8.3,6.7-12.3c5-7.9,10.8-15.1,17.2-21.9c6.4-6.7,13.6-12.7,20.9-18.4l5.6-4.1l1.4-1l1.5-1l2.9-1.9
		c2-1.3,3.9-2.6,5.9-3.8l6-3.5c16.1-9.3,33.2-16.6,50.6-22.7c4.3-1.6,8.8-2.9,13.2-4.3l6.6-2.1l6.7-1.8l6.7-1.8l3.3-0.9
		c1.1-0.3,2.2-0.5,3.4-0.8l13.5-3.1c2.2-0.5,4.5-0.9,6.8-1.3l6.8-1.3l6.8-1.3c2.3-0.4,4.5-0.7,6.8-1.1l13.6-2.1
		c4.5-0.6,9.1-1.1,13.7-1.7c18.2-2.2,36.5-3.4,54.8-4.3l3.4-0.2l3.4-0.1l6.9-0.2l13.7-0.3l26.8-0.4c17.8-0.3,35.6-0.7,53.3-1.5
		c8.9-0.4,17.7-0.8,26.6-1.4c4.4-0.3,8.8-0.6,13.2-1c4.4-0.3,8.8-0.7,13.2-1.1c8.8-0.8,17.6-1.7,26.3-2.7c8.8-1,17.5-2,26.2-3.1
		c8.7-1.1,17.4-2.2,26-3.4c4.3-0.5,8.6-1.2,12.9-1.7l12.9-1.8l12.8-1.8l12.7-1.9c4.3-0.6,8.5-1.4,12.7-2l6.3-1l6.3-1.1
		c16.7-3,33.2-6.6,49.2-11.2c16-4.6,31.4-10.3,45.8-17.7c3.6-1.9,7.1-3.8,10.6-5.9c3.4-2.1,6.8-4.3,10.1-6.6
		c6.6-4.7,12.8-9.9,18.5-15.8c1.5-1.4,2.8-3,4.2-4.5c1.3-1.6,2.7-3.1,4-4.8l2-2.5c0.6-0.8,1.2-1.7,1.9-2.5c1.3-1.7,2.4-3.5,3.6-5.2
		c4.7-7.2,8.8-14.9,12.6-23.1l0,0c0.6-1.4,2.2-2,3.6-1.3c1,0.5,1.6,1.4,1.6,2.4c0.1,9.3-1,18.8-3.3,28.2
		c-2.3,9.3-5.7,18.6-10.4,27.4c-0.6,1.1-1.2,2.2-1.8,3.3l-1.9,3.2c-0.6,1.1-1.3,2.1-2,3.2l-2,3.1c-2.8,4.1-5.9,8.1-9.1,11.9
		c-6.5,7.6-13.7,14.6-21.4,20.8c-15.4,12.6-32.6,22.4-50.1,30.4c-17.6,8-35.7,14.1-53.9,19l-6.8,1.8l-6.9,1.7c-4.6,1.1-9.2,2-13.7,3
		c-9.2,1.8-18.4,3.4-27.6,4.6c-18.4,2.5-36.8,3.9-55.2,4.5c-36.7,1.2-73.1,0.1-109.3-0.7c-18.1-0.4-36.2-1.1-54.2-2l-14-0.7
		c-4.5-0.2-9.1-0.5-13.5-0.8l-13.2-0.6l-6.6-0.3l-3.3-0.2l-3.3-0.1c-17.6-0.5-35.1-0.7-52.6,0c-4.4,0.2-8.8,0.3-13.1,0.5l-13.1,0.9
		c-2.2,0.2-4.4,0.3-6.6,0.5l-6.5,0.7l-6.5,0.7c-2.2,0.2-4.4,0.4-6.5,0.7l-13,1.8c-1.1,0.2-2.2,0.3-3.2,0.5l-3.2,0.6l-6.4,1.1
		l-6.4,1.1l-6.4,1.4c-4.2,0.9-8.5,1.8-12.7,2.9c-16.9,4.2-33.4,9.7-49.2,16.8l-5.9,2.7c-2,0.9-3.8,2-5.8,3l-2.9,1.5l-1.4,0.8
		l-1.4,0.8l-5.6,3.3c-7.3,4.6-14.5,9.5-21.1,15.1s-12.7,11.7-18.1,18.5c-2.6,3.4-5.2,6.9-7.4,10.6c-0.6,0.9-1.1,1.9-1.6,2.8
		l-0.8,1.4l-0.7,1.4c-0.5,1-0.9,1.9-1.4,2.9c-0.4,1-0.8,2-1.1,2.8l-0.1,0.2c-0.5,1.4-2,2.1-3.4,1.7C163,391.6,162.3,390.3,162.6,389
		z"/>
</g>
</svg>
