<?xml version="1.0" encoding="utf-8"?>
<!-- Generator: Adobe Illustrator 22.1.0, SVG Export Plug-In . SVG Version: 6.00 Build 0)  -->
<svg version="1.1" id="Capa_1" xmlns="http://www.w3.org/2000/svg" xmlns:xlink="http://www.w3.org/1999/xlink" x="0px" y="0px"
	 viewBox="0 0 1256 1098" style="enable-background:new 0 0 1256 1098;" xml:space="preserve">
<style type="text/css">
	.st0{fill:#333333;}
</style>
<image style="display:none;overflow:visible;" width="1024" height="1024" xlink:href="../../depositphotos_119071698-stock-illustration-grey-home-icon-isolated-on.jpg"  transform="matrix(2.6201 0 0 2.6201 -710 -711)">
</image>
<path class="st0" d="M101.6,1032.5"/>
<polyline class="st0" points="1107.3,534.8 1107.3,1032.5 166.4,1032.5 166.4,521.6 101.6,576.2 101.6,1098.3 1174.1,1098.3 
	1174.1,592.4 1107.3,534.8 1107.3,1032.5 "/>
<rect x="518.4" y="729" class="st0" width="225.6" height="304.5"/>
<path class="st0" d="M1237.2,618.7L661.5,127c0,0-11.1-16.8-29.8-17.3c-0.5,0-1,0-1.6,0c-18.7,0.5-29.8,17.3-29.8,17.3L24.7,618.7
	C-28.9,531.7,49,486.2,49,486.2s214.7-182.8,375.4-321.1c87.2-75,158.5-136.9,171-149.4c5-5,10.1-8.6,15.2-11.1
	c5.9-2.5,12.9-4.5,20.4-4.6c7.6,0.1,14.6,2.1,20.4,4.6c5,2.5,10.1,6.1,15.2,11.1c12.5,12.5,83.8,74.4,171,149.4
	c160.7,138.3,375.4,321.1,375.4,321.1S1290.8,531.7,1237.2,618.7z"/>
<path class="st0" d="M610.5,4.6c7-3.5,14-4.7,20.4-4.6C623.4,0.1,616.4,2.1,610.5,4.6z"/>
<path class="st0" d="M651.4,4.6c-5.9-2.5-12.9-4.5-20.4-4.6C637.4-0.1,644.3,1.2,651.4,4.6z"/>
<path class="st0" d="M1063.8,72.4V334L897.8,188.4v-116c0-6.7,5.5-12.1,12.1-12.1h141.6C1058.3,60.3,1063.8,65.7,1063.8,72.4z"/>
<rect x="516.4" y="338.5" class="st0" width="103.2" height="103.2"/>
<rect x="641.9" y="338.5" class="st0" width="103.2" height="103.2"/>
<rect x="516.4" y="454.8" class="st0" width="103.2" height="103.2"/>
<rect x="641.9" y="454.8" class="st0" width="103.2" height="103.2"/>
</svg>
